<svg width="12" height="12" viewBox="0 0 12 12" fill="none" xmlns="http://www.w3.org/2000/svg">
<path d="M10.9968 4.8358C10.9652 4.74435 10.9078 4.66402 10.8315 4.60456C10.7552 4.54509 10.6632 4.50905 10.5668 4.50081L7.72181 4.08581L6.44681 1.50081C6.40587 1.41627 6.34195 1.34498 6.26236 1.29509C6.18277 1.24521 6.09074 1.21875 5.99681 1.21875C5.90289 1.21875 5.81086 1.24521 5.73127 1.29509C5.65168 1.34498 5.58776 1.41627 5.54681 1.50081L4.27182 4.08081L1.42681 4.50081C1.33428 4.51396 1.24728 4.55279 1.17569 4.61288C1.1041 4.67298 1.05079 4.75194 1.02181 4.84081C0.995287 4.92764 0.992907 5.02006 1.01493 5.10815C1.03695 5.19624 1.08254 5.27667 1.14681 5.34081L3.21181 7.34081L2.71181 10.1808C2.69163 10.275 2.69909 10.3731 2.73331 10.4631C2.76752 10.5532 2.82703 10.6315 2.90468 10.6885C2.98233 10.7455 3.0748 10.7789 3.17098 10.7847C3.26716 10.7904 3.36294 10.7682 3.44682 10.7208L5.99681 9.38581L8.54681 10.7208C8.61699 10.7604 8.69624 10.7811 8.77681 10.7808C8.88273 10.7812 8.98602 10.7479 9.07181 10.6858C9.14939 10.6302 9.20944 10.5536 9.24488 10.465C9.28032 10.3764 9.28966 10.2795 9.27181 10.1858L8.77181 7.34581L10.8368 5.3458C10.909 5.28464 10.9624 5.20426 10.9907 5.11398C11.019 5.0237 11.0211 4.92724 10.9968 4.8358Z" fill="#C4C4C4"/>
</svg>
