<svg width="21" height="21" viewBox="0 0 21 21" fill="none" xmlns="http://www.w3.org/2000/svg">
<path d="M16.875 16.5C15.765 16.5 14.875 17.39 14.875 18.5C14.875 19.0304 15.0857 19.5391 15.4608 19.9142C15.8359 20.2893 16.3446 20.5 16.875 20.5C17.4054 20.5 17.9141 20.2893 18.2892 19.9142C18.6643 19.5391 18.875 19.0304 18.875 18.5C18.875 17.9696 18.6643 17.4609 18.2892 17.0858C17.9141 16.7107 17.4054 16.5 16.875 16.5ZM0.875 0.5V2.5H2.875L6.475 10.09L5.115 12.54C4.965 12.82 4.875 13.15 4.875 13.5C4.875 14.0304 5.08571 14.5391 5.46079 14.9142C5.83586 15.2893 6.34457 15.5 6.875 15.5H18.875V13.5H7.295C7.2287 13.5 7.16511 13.4737 7.11822 13.4268C7.07134 13.3799 7.045 13.3163 7.045 13.25C7.045 13.2 7.055 13.16 7.075 13.13L7.975 11.5H15.425C16.175 11.5 16.835 11.08 17.175 10.47L20.755 4C20.825 3.84 20.875 3.67 20.875 3.5C20.875 3.23478 20.7696 2.98043 20.5821 2.79289C20.3946 2.60536 20.1402 2.5 19.875 2.5H5.085L4.145 0.5M6.875 16.5C5.765 16.5 4.875 17.39 4.875 18.5C4.875 19.0304 5.08571 19.5391 5.46079 19.9142C5.83586 20.2893 6.34457 20.5 6.875 20.5C7.40543 20.5 7.91414 20.2893 8.28921 19.9142C8.66429 19.5391 8.875 19.0304 8.875 18.5C8.875 17.9696 8.66429 17.4609 8.28921 17.0858C7.91414 16.7107 7.40543 16.5 6.875 16.5Z" fill="#FF5887"/>
</svg>
