<svg width="9" height="10" viewBox="0 0 9 10" fill="none" xmlns="http://www.w3.org/2000/svg">
<path d="M4.1866 4.00101C4.1866 4.00101 4.08945 4.09817 3.89514 4.29248C3.70083 4.48679 3.32609 4.58394 2.77092 4.58394C2.21575 4.58394 1.74385 4.38963 1.35524 4.00101C0.966617 3.61239 0.772307 3.1405 0.772307 2.58533C0.772307 2.03016 0.966617 1.55827 1.35524 1.16965C1.74385 0.781027 2.21575 0.586718 2.77092 0.586718C3.32609 0.586718 3.79798 0.781027 4.1866 1.16965C4.57522 1.55827 4.76953 2.03016 4.76953 2.58533C4.76953 3.1405 4.57522 3.61239 4.1866 4.00101ZM3.47876 1.87749C3.47876 1.87749 3.43018 1.82891 3.33303 1.73176C3.23587 1.6346 3.0485 1.58602 2.77092 1.58602C2.49333 1.58602 2.25739 1.68318 2.06308 1.87749C1.86877 2.0718 1.77161 2.30774 1.77161 2.58533C1.77161 2.86292 1.86877 3.09886 2.06308 3.29317C2.25739 3.48748 2.49333 3.58464 2.77092 3.58464C3.0485 3.58464 3.28445 3.48748 3.47876 3.29317C3.67307 3.09886 3.77023 2.86292 3.77023 2.58533C3.77023 2.30774 3.67307 2.0718 3.47876 1.87749ZM5.35246 6.49928C5.35246 6.49928 5.44961 6.40212 5.64392 6.20781C5.83823 6.0135 6.21297 5.91635 6.76814 5.91635C7.32331 5.91635 7.79521 6.11066 8.18383 6.49928C8.57245 6.8879 8.76676 7.35979 8.76676 7.91496C8.76676 8.47013 8.57245 8.94203 8.18383 9.33065C7.79521 9.71926 7.32331 9.91357 6.76814 9.91357C6.21297 9.91357 5.74108 9.71926 5.35246 9.33065C4.96384 8.94203 4.76953 8.47013 4.76953 7.91496C4.76953 7.35979 4.96384 6.8879 5.35246 6.49928ZM6.0603 8.6228C6.0603 8.6228 6.10888 8.67138 6.20603 8.76854C6.30319 8.86569 6.49056 8.91427 6.76814 8.91427C7.04573 8.91427 7.28168 8.81711 7.47599 8.6228C7.67029 8.42849 7.76745 8.19255 7.76745 7.91496C7.76745 7.63738 7.67029 7.40143 7.47599 7.20712C7.28168 7.01281 7.04573 6.91566 6.76814 6.91566C6.49056 6.91566 6.25461 7.01281 6.0603 7.20712C5.86599 7.40143 5.76884 7.63738 5.76884 7.91496C5.76884 8.19255 5.86599 8.42849 6.0603 8.6228ZM8.72512 0.982276L1.95898 9.80948C1.90347 9.87888 1.84101 9.91357 1.77161 9.91357H1.02213C0.924979 9.91357 0.852113 9.86847 0.803535 9.77825C0.754958 9.68804 0.758428 9.60129 0.813945 9.51802L7.58008 0.690812C7.6356 0.621416 7.70499 0.586718 7.78827 0.586718H8.51693C8.61408 0.586718 8.68695 0.631825 8.73553 0.72204C8.7841 0.812256 8.78063 0.899001 8.72512 0.982276Z" fill="#475569" fill-opacity="0.5"/>
</svg>
