<svg width="150" height="150" viewBox="0 0 150 150" fill="none" xmlns="http://www.w3.org/2000/svg">
<path d="M21.875 134.375V133.544C21.875 131.606 22.3917 129.935 23.425 128.531C24.4583 127.127 25.8542 126.027 27.6125 125.231C30.0792 124.085 32.6625 123.24 35.3625 122.694C38.0625 122.148 40.8583 121.875 43.75 121.875C46.6417 121.875 49.4354 122.146 52.1313 122.687C54.8396 123.237 57.4271 124.085 59.8938 125.231C61.6438 126.031 63.0375 127.131 64.075 128.531C65.1125 129.931 65.6292 131.602 65.625 133.544V134.375H21.875ZM84.375 134.375V133.544C84.375 131.606 84.8917 129.935 85.925 128.531C86.9583 127.127 88.3542 126.027 90.1125 125.231C92.5792 124.085 95.1625 123.24 97.8625 122.694C100.563 122.148 103.358 121.875 106.25 121.875C109.142 121.875 111.935 122.146 114.631 122.687C117.34 123.237 119.927 124.085 122.394 125.231C124.144 126.031 125.538 127.131 126.575 128.531C127.613 129.931 128.129 131.602 128.125 133.544V134.375H84.375ZM43.75 109.375C41.1125 109.375 38.8917 108.471 37.0875 106.662C35.2833 104.854 34.3792 102.633 34.375 100C34.3708 97.3667 35.275 95.1458 37.0875 93.3375C38.9 91.5292 41.1208 90.625 43.75 90.625C46.3792 90.625 48.6 91.5292 50.4125 93.3375C52.225 95.1458 53.1292 97.3667 53.125 100C53.1208 102.633 52.2167 104.854 50.4125 106.662C48.6083 108.471 46.3875 109.375 43.75 109.375ZM106.25 109.375C103.613 109.375 101.392 108.471 99.5875 106.662C97.7833 104.854 96.8792 102.633 96.875 100C96.8708 97.3667 97.775 95.1458 99.5875 93.3375C101.4 91.5292 103.621 90.625 106.25 90.625C108.879 90.625 111.1 91.5292 112.913 93.3375C114.725 95.1458 115.629 97.3667 115.625 100C115.621 102.633 114.717 104.854 112.913 106.662C111.108 108.471 108.888 109.375 106.25 109.375ZM75 97.2375L59.0125 81.25L62.8125 77.45L72.2375 86.8375V70.675H77.7625V86.8375L87.1875 77.45L90.9875 81.25L75 97.2375ZM15.625 59.375V58.5437C15.625 56.6062 16.1417 54.9354 17.175 53.5312C18.2083 52.1271 19.6042 51.0271 21.3625 50.2312C23.8292 49.0854 26.4125 48.2396 29.1125 47.6938C31.8125 47.1479 34.6083 46.875 37.5 46.875C39.825 46.875 42.0833 47.0521 44.275 47.4063C46.4667 47.7563 48.5 48.2729 50.375 48.9563C49.325 50.2479 48.4792 51.6771 47.8375 53.2438C47.1958 54.8104 46.875 56.5771 46.875 58.5437V59.375H15.625ZM53.125 59.375V58.5437C53.125 56.6062 53.6417 54.9354 54.675 53.5312C55.7083 52.1271 57.1042 51.0271 58.8625 50.2312C61.3292 49.0854 63.9125 48.2396 66.6125 47.6938C69.3125 47.1479 72.1083 46.875 75 46.875C77.8917 46.875 80.6854 47.1458 83.3813 47.6875C86.0896 48.2375 88.6771 49.0854 91.1438 50.2312C92.8938 51.0312 94.2875 52.1312 95.325 53.5312C96.3625 54.9312 96.8792 56.6021 96.875 58.5437V59.375H53.125ZM103.125 59.375V58.5437C103.125 56.5854 102.825 54.8188 102.225 53.2438C101.625 51.6688 100.8 50.2396 99.75 48.9563C101.625 48.2729 103.638 47.7563 105.788 47.4063C107.938 47.0521 110.175 46.875 112.5 46.875C115.383 46.875 118.177 47.1458 120.881 47.6875C123.59 48.2375 126.177 49.0854 128.644 50.2312C130.394 51.0312 131.788 52.1312 132.825 53.5312C133.863 54.9312 134.379 56.6021 134.375 58.5437V59.375H103.125ZM37.5 34.375C34.8625 34.375 32.6417 33.4708 30.8375 31.6625C29.0333 29.8542 28.1292 27.6333 28.125 25C28.1208 22.3667 29.025 20.1458 30.8375 18.3375C32.65 16.5292 34.8708 15.625 37.5 15.625C40.1292 15.625 42.35 16.5292 44.1625 18.3375C45.975 20.1458 46.8792 22.3667 46.875 25C46.8708 27.6333 45.9667 29.8542 44.1625 31.6625C42.3583 33.4708 40.1375 34.375 37.5 34.375ZM75 34.375C72.3625 34.375 70.1417 33.4708 68.3375 31.6625C66.5333 29.8542 65.6292 27.6333 65.625 25C65.6208 22.3667 66.525 20.1458 68.3375 18.3375C70.15 16.5292 72.3708 15.625 75 15.625C77.6292 15.625 79.85 16.5292 81.6625 18.3375C83.475 20.1458 84.3792 22.3667 84.375 25C84.3708 27.6333 83.4667 29.8542 81.6625 31.6625C79.8583 33.4708 77.6375 34.375 75 34.375ZM112.5 34.375C109.863 34.375 107.642 33.4708 105.838 31.6625C104.033 29.8542 103.129 27.6333 103.125 25C103.121 22.3667 104.025 20.1458 105.838 18.3375C107.65 16.5292 109.871 15.625 112.5 15.625C115.129 15.625 117.35 16.5292 119.163 18.3375C120.975 20.1458 121.879 22.3667 121.875 25C121.871 27.6333 120.967 29.8542 119.163 31.6625C117.358 33.4708 115.138 34.375 112.5 34.375Z" fill="black"/>
</svg>
