<svg width="151" height="151" viewBox="0 0 151 151" fill="none" xmlns="http://www.w3.org/2000/svg">
<path d="M141.527 33.7129V104.025C141.527 106.604 139.418 108.713 136.84 108.713H14.9648C12.3867 108.713 10.2773 106.604 10.2773 104.025V33.7129C10.2773 31.1348 12.3867 29.0254 14.9648 29.0254H136.84C139.418 29.0254 141.527 31.1348 141.527 33.7129Z" fill="#FAB400"/>
<path d="M136.84 36.0566V101.682C136.84 102.971 135.785 104.025 134.496 104.025H17.3086C16.0195 104.025 14.9648 102.971 14.9648 101.682V36.0566C14.9648 34.7676 16.0195 33.7129 17.3086 33.7129H134.496C135.785 33.7129 136.84 34.7676 136.84 36.0566Z" fill="#F0F0F0"/>
<path d="M101.824 79.0644L82.5117 98.377C83.3555 100.158 83.4258 102.197 82.6992 104.025H22.043C22.3008 99.8301 25.3711 96.3145 29.543 95.4941L36.832 94.041C33.5039 91.4629 31.3711 87.4551 31.3711 82.9316C28.793 82.9316 26.6836 80.8223 26.6836 78.2441C26.6836 75.666 28.793 73.5566 31.3711 73.5566V64.1816C31.3711 61.6035 33.4805 59.4941 36.0586 59.4941H38.4023C39.6914 59.4941 40.7461 60.5488 40.7461 61.8379C40.7461 60.5488 41.8008 59.4941 43.0898 59.4941H54.8086C57.3867 59.4941 59.4961 61.6035 59.4961 64.1816V73.5566C62.0742 73.5566 64.1836 75.666 64.1836 78.2441C64.1836 80.8223 62.0742 82.9316 59.4961 82.9316C59.4961 87.4551 57.3633 91.4629 54.0352 94.041L61.3242 95.4941C64.0898 96.0332 66.3164 97.7441 67.6289 100.018L71.2148 96.4316C73.3711 94.2519 76.582 93.8301 79.207 95.0723L98.5195 75.7598C99.4336 74.8457 100.91 74.8457 101.824 75.7598C102.738 76.6738 102.738 78.1504 101.824 79.0644Z" fill="#D2D2D2"/>
<path d="M93.1538 64.5385V67.3077M96.6154 63.1538V68.6923M100.077 64.5385V67.3077M89 60.3846C89 60.0174 89.1459 59.6652 89.4055 59.4055C89.6652 59.1459 90.0174 59 90.3846 59H109.769C110.136 59 110.489 59.1459 110.748 59.4055C111.008 59.6652 111.154 60.0174 111.154 60.3846V66.6154L116.692 62.4615V78.3846L111.154 74.2308V79.7692C111.154 80.1365 111.008 80.4886 110.748 80.7483C110.489 81.008 110.136 81.1538 109.769 81.1538H90.3846C90.0174 81.1538 89.6652 81.008 89.4055 80.7483C89.1459 80.4886 89 80.1365 89 79.7692V60.3846Z" stroke="#D2D2D2" stroke-width="2" stroke-linecap="round" stroke-linejoin="round"/>
<path d="M95.4624 66.8461V69.6153M98.924 65.4615V70.9999M102.386 66.8461V69.6153M91.3086 62.6922C91.3086 62.325 91.4545 61.9728 91.7141 61.7132C91.9738 61.4535 92.326 61.3076 92.6932 61.3076H112.078C112.445 61.3076 112.797 61.4535 113.057 61.7132C113.317 61.9728 113.462 62.325 113.462 62.6922V68.923L119.001 64.7692V80.6922L113.462 76.5384V82.0769C113.462 82.4441 113.317 82.7963 113.057 83.0559C112.797 83.3156 112.445 83.4615 112.078 83.4615H92.6932C92.326 83.4615 91.9738 83.3156 91.7141 83.0559C91.4545 82.7963 91.3086 82.4441 91.3086 82.0769V62.6922Z" stroke="#0A5078" stroke-width="2" stroke-linecap="round" stroke-linejoin="round"/>
<path d="M101.824 79.0644L100.301 80.5879H93.6914L98.5195 75.7598C99.4336 74.8457 100.91 74.8457 101.824 75.7598C102.795 76.7301 102.67 78.2605 101.824 79.0644Z" fill="#D2D2D2"/>
<path d="M100.301 80.5879L95.6133 85.2754H89.0039L93.6914 80.5879H100.301Z" fill="#D2D2D2"/>
<path d="M68.8711 107.025V122.775H21.9961V107.025C21.9961 102.549 25.1602 98.7051 29.543 97.8379L45.4336 94.6504L61.3242 97.8379C65.7797 98.7098 68.8711 102.638 68.8711 107.025Z" fill="#01A0C8"/>
<path d="M59.4961 75.9004V71.2129H31.3711V75.9004C28.7812 75.9004 26.6836 77.998 26.6836 80.5879C26.6836 83.1754 28.7812 85.2754 31.3711 85.2754C31.3711 93.0426 37.6664 99.3379 45.4336 99.3379C53.2008 99.3379 59.4961 93.0426 59.4961 85.2754C62.0859 85.2754 64.1836 83.1754 64.1836 80.5879C64.1836 77.998 62.0859 75.9004 59.4961 75.9004Z" fill="#F2C8A0"/>
<path d="M45.4336 92.3066C42.2039 92.3066 39.5742 89.677 39.5742 86.4473C39.5742 85.8004 40.0992 85.2754 40.7461 85.2754C41.393 85.2754 41.918 85.8004 41.918 86.4473C41.918 88.3855 43.4953 89.9629 45.4336 89.9629C47.3719 89.9629 48.9492 88.3855 48.9492 86.4473C48.9492 85.8004 49.4742 85.2754 50.1211 85.2754C50.768 85.2754 51.293 85.8004 51.293 86.4473C51.293 89.677 48.6633 92.3066 45.4336 92.3066Z" fill="#00143C"/>
<path d="M39.5742 82.9316C40.2214 82.9316 40.7461 82.407 40.7461 81.7598C40.7461 81.1126 40.2214 80.5879 39.5742 80.5879C38.927 80.5879 38.4023 81.1126 38.4023 81.7598C38.4023 82.407 38.927 82.9316 39.5742 82.9316Z" fill="#00143C"/>
<path d="M51.293 82.9316C51.9402 82.9316 52.4648 82.407 52.4648 81.7598C52.4648 81.1126 51.9402 80.5879 51.293 80.5879C50.6458 80.5879 50.1211 81.1126 50.1211 81.7598C50.1211 82.407 50.6458 82.9316 51.293 82.9316Z" fill="#00143C"/>
<path d="M54.8086 61.8379H43.0898C41.7961 61.8379 40.7461 62.8879 40.7461 64.1816C40.7461 62.8879 39.6961 61.8379 38.4023 61.8379H36.0586C33.4688 61.8379 31.3711 63.9355 31.3711 66.5254V75.9004H36.0586C38.6484 75.9004 40.7461 73.8004 40.7461 71.2129C40.7461 73.8004 42.8438 75.9004 45.4336 75.9004H59.4961V66.5254C59.4961 63.9355 57.3984 61.8379 54.8086 61.8379Z" fill="#00143C"/>
<path d="M68.8711 107.025V118.65L64.7461 122.775H44.8711L66.668 100.979C68.1375 102.757 68.8711 104.951 68.8711 107.025Z" fill="#0082AA"/>
<path d="M36.0586 122.775H33.7148V109.885C33.7148 109.238 34.2398 108.713 34.8867 108.713C35.5336 108.713 36.0586 109.238 36.0586 109.885V122.775Z" fill="#0082AA"/>
<path d="M76.1734 107.07L72.8594 103.756L98.5117 78.1033C99.4281 77.1869 100.912 77.1869 101.826 78.1033C102.742 79.0197 102.742 80.5033 101.826 81.4174L76.1734 107.07Z" fill="#0A5078"/>
<path d="M81.1594 98.7682C78.4125 96.0213 73.9617 96.0213 71.2148 98.7682L47.2148 122.775H67.0898L81.1594 108.713C83.9039 105.966 83.9039 101.515 81.1594 98.7682Z" fill="#F0C8A0"/>
<path d="M81.2766 47.0887L77.2758 43.0879H68.8711C67.5773 43.0879 66.5273 42.0379 66.5273 40.7441C66.5273 39.4504 67.5773 38.4004 68.8711 38.4004H78.2461C78.8695 38.4004 79.4648 38.6465 79.9031 39.0871L84.5906 43.7746C85.507 44.691 85.507 46.1723 84.5906 47.0887C83.6742 48.0051 82.193 48.0051 81.2766 47.0887Z" fill="#0A5078"/>
<path d="M59.4961 43.0879H45.4336C44.1398 43.0879 43.0898 42.0379 43.0898 40.7441C43.0898 39.4504 44.1398 38.4004 45.4336 38.4004H59.4961C60.7898 38.4004 61.8398 39.4504 61.8398 40.7441C61.8398 42.0379 60.7898 43.0879 59.4961 43.0879Z" fill="#0A5078"/>
<path d="M59.4961 52.4629H45.4336C44.1398 52.4629 43.0898 51.4129 43.0898 50.1191C43.0898 48.8254 44.1398 47.7754 45.4336 47.7754H59.4961C60.7898 47.7754 61.8398 48.8254 61.8398 50.1191C61.8398 51.4129 60.7898 52.4629 59.4961 52.4629Z" fill="#0A5078"/>
<path d="M125.121 43.0879H111.059C109.763 43.0879 108.715 42.0379 108.715 40.7441C108.715 39.4504 109.763 38.4004 111.059 38.4004H125.121C126.417 38.4004 127.465 39.4504 127.465 40.7441C127.465 42.0379 126.417 43.0879 125.121 43.0879Z" fill="#0A5078"/>
<path d="M125.121 52.4629H111.059C109.763 52.4629 108.715 51.4129 108.715 50.1191C108.715 48.8254 109.763 47.7754 111.059 47.7754H125.121C126.417 47.7754 127.465 48.8254 127.465 50.1191C127.465 51.4129 126.417 52.4629 125.121 52.4629Z" fill="#0A5078"/>
<path d="M125.121 99.3379H111.059C109.763 99.3379 108.715 98.2879 108.715 96.9941C108.715 95.7004 109.763 94.6504 111.059 94.6504H125.121C126.417 94.6504 127.465 95.7004 127.465 96.9941C127.465 98.2879 126.417 99.3379 125.121 99.3379Z" fill="#0A5078"/>
</svg>
