<svg width="151" height="151" viewBox="0 0 151 151" fill="none" xmlns="http://www.w3.org/2000/svg">
<path d="M116.238 83.0402L77.2408 121.506C76.3314 122.401 74.8736 122.401 73.9643 121.506L34.9643 83.0355C26.6838 74.8676 26.6838 61.5035 34.9643 53.3355L34.9713 53.3285C43.3197 45.0949 56.733 45.0949 65.0814 53.3285L75.6025 63.7066L86.1213 53.3309C94.4721 45.0949 107.888 45.0949 116.238 53.3309C124.521 61.5012 124.521 74.8699 116.238 83.0402Z" fill="#C80A50"/>
<path d="M132.529 75.9758L126.48 69.9266C125.003 68.45 126.048 65.9258 128.137 65.9258H131.057C126.604 39.3242 103.448 19.0508 75.6039 19.0508C48.4305 19.0508 25.7219 38.3586 20.5258 64.0133C20.3031 65.1195 19.3586 65.9258 18.2313 65.9258C16.7641 65.9258 15.618 64.5898 15.9086 63.1531C21.5078 35.3187 46.1078 14.3633 75.6039 14.3633C106.073 14.3633 131.315 36.7227 135.815 65.9258C136.206 68.2461 136.473 71.2039 136.53 74.2437C136.57 76.3672 134.029 77.4758 132.529 75.9758Z" fill="#00A0C8"/>
<path d="M133.132 84.6754C134.601 84.6754 135.747 86.0137 135.454 87.4528C129.787 115.212 105.236 136.074 75.7895 136.074C45.3677 136.074 20.1723 113.808 15.602 84.6754C15.602 84.6286 15.5786 84.5583 15.5786 84.5114C15.1872 82.1911 14.92 79.2333 14.8637 76.1934C14.8239 74.07 17.3622 72.9614 18.8645 74.4614L24.9137 80.5106C26.3903 81.9872 25.345 84.5114 23.2567 84.5114H20.3364L20.3317 84.5161C24.7895 111.125 47.9364 131.386 75.7895 131.386C102.916 131.386 125.58 112.168 130.84 86.5809C131.065 85.4794 132.007 84.6754 133.132 84.6754Z" fill="#00A0C8"/>
</svg>
