<svg width="12" height="12" viewBox="0 0 12 12" fill="none" xmlns="http://www.w3.org/2000/svg">
<g clip-path="url(#clip0_8541_4959)">
<path d="M6.30833 7.3125C6.97708 6.37266 8.5 4.09219 8.5 2.8125C8.5 1.25859 7.38125 0 6 0C4.61875 0 3.5 1.25859 3.5 2.8125C3.5 4.09219 5.02292 6.37266 5.69167 7.3125C5.85208 7.5375 6.15 7.5375 6.30833 7.3125ZM8.66667 11.7891L11.6854 10.4297C11.875 10.3453 12 10.1367 12 9.90703V3.5625C12 3.16406 11.6437 2.89219 11.3146 3.03984L8.89792 4.12734C8.8875 4.15547 8.87708 4.18594 8.86667 4.21406C8.80625 4.37344 8.73958 4.53516 8.66667 4.69688V11.7891ZM0.314583 4.38984C0.125 4.47656 0 4.68281 0 4.9125V11.2594C0 11.6578 0.35625 11.9297 0.685417 11.782L3.33333 10.5891V4.69688C3.26042 4.53516 3.19375 4.37344 3.13333 4.21406C3.01667 3.90469 2.91667 3.57188 2.86667 3.24141L0.3125 4.38984H0.314583ZM8 5.97656C7.57292 6.71016 7.11875 7.37344 6.82917 7.78125C6.40208 8.38125 5.59792 8.38125 5.17083 7.78125C4.88125 7.37344 4.42708 6.71016 4 5.97656V10.5328L8 11.8195V5.97656Z" fill="#2563EB"/>
</g>
<defs>
<clipPath id="clip0_8541_4959">
<rect width="12" height="12" fill="white"/>
</clipPath>
</defs>
</svg>
