<svg width="13" height="13" viewBox="0 0 13 13" fill="none" xmlns="http://www.w3.org/2000/svg">
<path d="M0.314453 2.24526C0.314453 1.88589 0.404736 1.56168 0.585303 1.27262C0.765869 0.983561 0.984632 0.776533 1.24159 0.651534C1.49855 0.526536 1.77982 0.487474 2.08539 0.534348C2.39097 0.581223 2.66182 0.729658 2.89794 0.979655L5.98146 4.19055C6.02313 3.47181 6.29398 2.839 6.79401 2.29214C7.0718 1.96402 7.66212 1.4484 8.56495 0.745283C8.92608 0.479662 9.3011 0.4406 9.69001 0.628097C10.0789 0.815594 10.3428 1.12809 10.4817 1.56558C10.9262 1.73746 11.2179 2.07339 11.3568 2.57338C11.7596 2.72963 12.0443 3.0265 12.211 3.46399C12.3777 3.90149 12.343 4.31555 12.1068 4.70616C11.4818 5.72178 11.0234 6.39364 10.7317 6.72176C10.3012 7.20613 9.80808 7.49519 9.25249 7.58894L10.4817 8.90142C10.8012 9.22954 10.9644 9.63969 10.9713 10.1319C10.9783 10.6241 10.829 11.042 10.5234 11.3858L9.9817 11.9951C9.67612 12.3545 9.30457 12.5264 8.86705 12.5107C8.42952 12.4951 8.06492 12.3154 7.77323 11.9717C7.75934 11.9404 7.28015 11.3076 6.33565 10.0733L4.87723 11.9248C4.58554 12.2998 4.21746 12.4951 3.77299 12.5107C3.32852 12.5264 2.9535 12.3545 2.64793 11.9951L2.08539 11.3858C1.76593 11.042 1.61314 10.6201 1.62703 10.1202C1.64092 9.62016 1.81454 9.2061 2.1479 8.87798L3.56465 7.47175C2.46736 7.20613 1.65134 6.61629 1.11658 5.70224C0.58183 4.78819 0.314453 3.63587 0.314453 2.24526ZM7.56489 5.85459C7.93991 6.26083 8.34966 6.47958 8.79413 6.51083C9.2386 6.54208 9.64834 6.35458 10.0234 5.94833C10.1067 5.85459 10.2039 5.72959 10.3151 5.57334C10.4262 5.41709 10.5373 5.25694 10.6484 5.09288C10.7595 4.92882 10.8637 4.76866 10.9609 4.61242C11.0582 4.45617 11.1415 4.32336 11.2109 4.21398L11.2943 4.07336C11.3221 4.02649 11.3151 3.95618 11.2734 3.86243C11.2318 3.76868 11.1693 3.69837 11.0859 3.65149C11.0026 3.60462 10.9401 3.59681 10.8984 3.62805L9.27332 5.45615C9.20387 5.53428 9.10665 5.50303 8.98164 5.36241C8.85663 5.22178 8.82885 5.1046 8.8983 5.01085L10.4192 3.089C10.447 3.04213 10.4505 2.98744 10.4296 2.92494C10.4088 2.86244 10.3741 2.80775 10.3255 2.76088C10.2769 2.71401 10.2248 2.67494 10.1692 2.64369C10.1137 2.61244 10.065 2.61244 10.0234 2.64369L8.31493 4.35461C8.25937 4.40148 8.18992 4.40148 8.10659 4.35461C8.02325 4.30773 7.96074 4.23742 7.91907 4.14367C7.87741 4.04992 7.87741 3.97961 7.91907 3.93274L9.54417 2.10464C9.57195 2.05776 9.56501 1.98745 9.52334 1.8937C9.48167 1.79996 9.41916 1.72574 9.33583 1.67105C9.25249 1.61636 9.18998 1.61246 9.14832 1.65933C8.30104 2.31557 7.7524 2.79213 7.50238 3.089C7.12736 3.52649 6.95374 3.99524 6.98152 4.49523C7.0093 4.99522 7.20375 5.44834 7.56489 5.85459ZM4.68971 7.87018L2.83544 9.69828C2.71043 9.82328 2.64793 9.97172 2.64793 10.1436C2.64793 10.3155 2.70348 10.4639 2.8146 10.5889L3.3563 11.1983C3.46742 11.3233 3.59937 11.3858 3.75216 11.3858C3.90495 11.3858 4.0369 11.3154 4.14802 11.1748L5.68977 9.2061L4.68971 7.87018ZM1.31451 2.24526C1.31451 5.08897 2.53681 6.51083 4.9814 6.51083L8.50244 11.1983C8.61356 11.3233 8.74551 11.3858 8.8983 11.3858C9.05109 11.3858 9.17609 11.3233 9.27332 11.1983L9.81502 10.5889C9.92614 10.4795 9.9817 10.335 9.9817 10.1553C9.9817 9.97562 9.92614 9.83109 9.81502 9.72172L2.23123 1.79996C2.05067 1.61246 1.85274 1.5734 1.63745 1.68277C1.42216 1.79214 1.31451 1.97964 1.31451 2.24526Z" fill="#DB2777"/>
</svg>
