<svg width="12" height="12" viewBox="0 0 12 12" fill="none" xmlns="http://www.w3.org/2000/svg">
<g clip-path="url(#clip0_8541_4961)">
<path d="M10.8548 4.35484C11.4798 3.72984 11.1948 2.99984 10.8548 2.64484L9.35484 1.14484C8.72484 0.519842 7.99984 0.804842 7.64484 1.14484L6.79484 1.99984H5.49984C4.54984 1.99984 3.99984 2.49984 3.71984 3.07484L1.49984 5.29484V7.29484L1.14484 7.64484C0.519842 8.27484 0.804842 8.99984 1.14484 9.35484L2.64484 10.8548C2.91484 11.1248 3.20484 11.2248 3.47984 11.2248C3.83484 11.2248 4.15984 11.0498 4.35484 10.8548L5.70484 9.49984H7.49984C8.34984 9.49984 8.77984 8.96984 8.93484 8.44984C9.49984 8.29984 9.80984 7.86984 9.93484 7.44984C10.7098 7.24984 10.9998 6.51484 10.9998 5.99984V4.49984H10.7048L10.8548 4.35484ZM9.99984 5.99984C9.99984 6.22484 9.90484 6.49984 9.49984 6.49984H8.99984V6.99984C8.99984 7.22484 8.90484 7.49984 8.49984 7.49984H7.99984V7.99984C7.99984 8.22484 7.90484 8.49984 7.49984 8.49984H5.29484L3.65484 10.1398C3.49984 10.2848 3.40984 10.1998 3.35484 10.1448L1.85984 8.65484C1.71484 8.49984 1.79984 8.40984 1.85484 8.35484L2.49984 7.70484V5.70484L3.49984 4.70484V5.49984C3.49984 6.10484 3.89984 6.99984 4.99984 6.99984C6.09984 6.99984 6.49984 6.10484 6.49984 5.49984H9.99984V5.99984ZM10.1448 3.64484L9.29484 4.49984H5.49984V5.49984C5.49984 5.72484 5.40484 5.99984 4.99984 5.99984C4.59484 5.99984 4.49984 5.72484 4.49984 5.49984V3.99984C4.49984 3.76984 4.58484 2.99984 5.49984 2.99984H7.20484L8.34484 1.85984C8.49984 1.71484 8.58984 1.79984 8.64484 1.85484L10.1398 3.34484C10.2848 3.49984 10.1998 3.58984 10.1448 3.64484Z" fill="#EA580C"/>
</g>
<defs>
<clipPath id="clip0_8541_4961">
<rect width="12" height="12" fill="white"/>
</clipPath>
</defs>
</svg>
