<svg width="30" height="30" viewBox="0 0 30 30" fill="none" xmlns="http://www.w3.org/2000/svg">
<path d="M12.6563 9.84375C12.6563 9.47291 12.7662 9.1104 12.9722 8.80206C13.1783 8.49371 13.4711 8.25339 13.8137 8.11148C14.1563 7.96956 14.5333 7.93243 14.897 8.00478C15.2608 8.07712 15.5949 8.2557 15.8571 8.51792C16.1193 8.78015 16.2979 9.11424 16.3702 9.47796C16.4426 9.84167 16.4054 10.2187 16.2635 10.5613C16.1216 10.9039 15.8813 11.1967 15.5729 11.4028C15.2646 11.6088 14.9021 11.7187 14.5313 11.7187C14.034 11.7187 13.5571 11.5212 13.2054 11.1696C12.8538 10.8179 12.6563 10.341 12.6563 9.84375ZM27.6563 15C27.6563 17.5032 26.914 19.9501 25.5233 22.0314C24.1326 24.1127 22.156 25.7349 19.8433 26.6928C17.5307 27.6508 14.986 27.9014 12.5309 27.4131C10.0758 26.9247 7.82069 25.7193 6.05069 23.9493C4.28068 22.1793 3.07529 19.9242 2.58694 17.4691C2.0986 15.014 2.34923 12.4693 3.30716 10.1567C4.26508 7.84403 5.88726 5.8674 7.96857 4.47671C10.0499 3.08603 12.4968 2.34375 15 2.34375C18.3555 2.34747 21.5725 3.68209 23.9452 6.05479C26.3179 8.42749 27.6525 11.6445 27.6563 15ZM24.8438 15C24.8438 13.0531 24.2664 11.1499 23.1848 9.53111C22.1031 7.91231 20.5658 6.65061 18.767 5.90556C16.9683 5.16051 14.9891 4.96557 13.0796 5.34539C11.1701 5.72522 9.4161 6.66274 8.03942 8.03942C6.66275 9.41609 5.72522 11.1701 5.3454 13.0796C4.96558 14.9891 5.16052 16.9683 5.90557 18.767C6.65062 20.5657 7.91231 22.1031 9.53111 23.1848C11.1499 24.2664 13.0531 24.8437 15 24.8437C17.6099 24.841 20.112 23.803 21.9575 21.9575C23.803 20.112 24.841 17.6099 24.8438 15ZM16.4063 19.2984V15.4687C16.4063 14.8471 16.1593 14.251 15.7198 13.8115C15.2802 13.3719 14.6841 13.125 14.0625 13.125C13.7304 13.1245 13.4088 13.2416 13.1548 13.4554C12.9007 13.6693 12.7305 13.9662 12.6744 14.2935C12.6183 14.6208 12.6798 14.9575 12.848 15.2438C13.0163 15.5301 13.2805 15.7476 13.5938 15.8578V19.6875C13.5938 20.3091 13.8407 20.9052 14.2802 21.3448C14.7198 21.7843 15.3159 22.0312 15.9375 22.0312C16.2696 22.0317 16.5912 21.9147 16.8452 21.7008C17.0993 21.4869 17.2695 21.1901 17.3256 20.8627C17.3818 20.5354 17.3202 20.1988 17.152 19.9125C16.9837 19.6262 16.7195 19.4086 16.4063 19.2984Z" fill="white"/>
</svg>
