<svg width="30" height="30" viewBox="0 0 30 30" fill="none" xmlns="http://www.w3.org/2000/svg">
<path d="M3.75 10V15.215C3.75014 15.878 4.01363 16.5138 4.4825 16.9825L11.62 24.12C12.1849 24.6849 12.9511 25.0022 13.75 25.0022C14.5489 25.0022 15.3151 24.6849 15.88 24.12L20.37 19.63C20.9349 19.0651 21.2522 18.2989 21.2522 17.5C21.2522 16.7011 20.9349 15.9349 20.37 15.37L13.2325 8.2325C12.7638 7.76363 12.128 7.50014 11.465 7.5H6.25C5.58696 7.5 4.95107 7.76339 4.48223 8.23223C4.01339 8.70107 3.75 9.33696 3.75 10Z" stroke="white" stroke-width="2" stroke-linecap="round" stroke-linejoin="round"/>
<path d="M22.5008 23.75L24.4908 21.76C25.6205 20.6301 26.2551 19.0978 26.2551 17.5C26.2551 15.9022 25.6205 14.3699 24.4908 13.24L18.7508 7.5M8.75078 12.5H8.73828" stroke="white" stroke-width="2" stroke-linecap="round" stroke-linejoin="round"/>
</svg>
