<svg width="30" height="30" viewBox="0 0 30 30" fill="none" xmlns="http://www.w3.org/2000/svg">
<path d="M23.2031 9.375H11.4844C11.3531 9.375 11.25 9.27188 11.25 9.14062V7.73438C11.25 7.60312 11.3531 7.5 11.4844 7.5H23.2031C23.3344 7.5 23.4375 7.60312 23.4375 7.73438V9.14062C23.4375 9.27188 23.3344 9.375 23.2031 9.375ZM11.25 11.7188C11.25 11.5944 11.2994 11.4752 11.3873 11.3873C11.4752 11.2994 11.5944 11.25 11.7188 11.25H19.2188C19.3431 11.25 19.4623 11.2994 19.5502 11.3873C19.6381 11.4752 19.6875 11.5944 19.6875 11.7188C19.6875 11.8431 19.6381 11.9623 19.5502 12.0502C19.4623 12.1381 19.3431 12.1875 19.2188 12.1875H11.7188C11.5944 12.1875 11.4752 12.1381 11.3873 12.0502C11.2994 11.9623 11.25 11.8431 11.25 11.7188ZM11.25 14.5312C11.25 14.4069 11.2994 14.2877 11.3873 14.1998C11.4752 14.1119 11.5944 14.0625 11.7188 14.0625H19.2188C19.3431 14.0625 19.4623 14.1119 19.5502 14.1998C19.6381 14.2877 19.6875 14.4069 19.6875 14.5312C19.6875 14.6556 19.6381 14.7748 19.5502 14.8627C19.4623 14.9506 19.3431 15 19.2188 15H11.7188C11.5944 15 11.4752 14.9506 11.3873 14.8627C11.2994 14.7748 11.25 14.6556 11.25 14.5312ZM11.7188 16.875C11.5944 16.875 11.4752 16.9244 11.3873 17.0123C11.2994 17.1002 11.25 17.2194 11.25 17.3438C11.25 17.4681 11.2994 17.5873 11.3873 17.6752C11.4752 17.7631 11.5944 17.8125 11.7188 17.8125H19.2188C19.3431 17.8125 19.4623 17.7631 19.5502 17.6752C19.6381 17.5873 19.6875 17.4681 19.6875 17.3438C19.6875 17.2194 19.6381 17.1002 19.5502 17.0123C19.4623 16.9244 19.3431 16.875 19.2188 16.875H11.7188ZM11.25 20.1562C11.25 20.0319 11.2994 19.9127 11.3873 19.8248C11.4752 19.7369 11.5944 19.6875 11.7188 19.6875H19.2188C19.3431 19.6875 19.4623 19.7369 19.5502 19.8248C19.6381 19.9127 19.6875 20.0319 19.6875 20.1562C19.6875 20.2806 19.6381 20.3998 19.5502 20.4877C19.4623 20.5756 19.3431 20.625 19.2188 20.625H11.7188C11.5944 20.625 11.4752 20.5756 11.3873 20.4877C11.2994 20.3998 11.25 20.2806 11.25 20.1562ZM21.0938 11.25C20.9694 11.25 20.8502 11.2994 20.7623 11.3873C20.6744 11.4752 20.625 11.5944 20.625 11.7188C20.625 11.8431 20.6744 11.9623 20.7623 12.0502C20.8502 12.1381 20.9694 12.1875 21.0938 12.1875H22.9688C23.0931 12.1875 23.2123 12.1381 23.3002 12.0502C23.3881 11.9623 23.4375 11.8431 23.4375 11.7188C23.4375 11.5944 23.3881 11.4752 23.3002 11.3873C23.2123 11.2994 23.0931 11.25 22.9688 11.25H21.0938ZM20.625 14.5312C20.625 14.4069 20.6744 14.2877 20.7623 14.1998C20.8502 14.1119 20.9694 14.0625 21.0938 14.0625H22.9688C23.0931 14.0625 23.2123 14.1119 23.3002 14.1998C23.3881 14.2877 23.4375 14.4069 23.4375 14.5312C23.4375 14.6556 23.3881 14.7748 23.3002 14.8627C23.2123 14.9506 23.0931 15 22.9688 15H21.0938C20.9694 15 20.8502 14.9506 20.7623 14.8627C20.6744 14.7748 20.625 14.6556 20.625 14.5312ZM21.0938 16.875C20.9694 16.875 20.8502 16.9244 20.7623 17.0123C20.6744 17.1002 20.625 17.2194 20.625 17.3438C20.625 17.4681 20.6744 17.5873 20.7623 17.6752C20.8502 17.7631 20.9694 17.8125 21.0938 17.8125H22.9688C23.0931 17.8125 23.2123 17.7631 23.3002 17.6752C23.3881 17.5873 23.4375 17.4681 23.4375 17.3438C23.4375 17.2194 23.3881 17.1002 23.3002 17.0123C23.2123 16.9244 23.0931 16.875 22.9688 16.875H21.0938ZM20.625 20.1562C20.625 20.0319 20.6744 19.9127 20.7623 19.8248C20.8502 19.7369 20.9694 19.6875 21.0938 19.6875H22.9688C23.0931 19.6875 23.2123 19.7369 23.3002 19.8248C23.3881 19.9127 23.4375 20.0319 23.4375 20.1562C23.4375 20.2806 23.3881 20.3998 23.3002 20.4877C23.2123 20.5756 23.0931 20.625 22.9688 20.625H21.0938C20.9694 20.625 20.8502 20.5756 20.7623 20.4877C20.6744 20.3998 20.625 20.2806 20.625 20.1562Z" fill="white"/>
<path d="M27.1875 4.07371C27.1875 2.23058 25.0528 1.33714 23.7234 2.45933C23.2781 2.08206 22.7134 1.875 22.1297 1.875C21.546 1.875 20.9813 2.08206 20.5359 2.45933C20.0906 2.08206 19.5259 1.875 18.9422 1.875C18.3585 1.875 17.7938 2.08206 17.3484 2.45933C16.9022 2.08147 16.3362 1.8745 15.7515 1.87535C15.1668 1.87621 14.6014 2.08485 14.1563 2.46402C13.7121 2.08568 13.1481 1.87711 12.5647 1.87539C11.9812 1.87368 11.4161 2.07892 10.9697 2.45464C9.53813 1.22652 7.5 2.37777 7.5 4.07371V22.4956H5.56875C5.08125 22.4956 4.6875 22.8893 4.6875 23.3768V26.7143C4.6875 27.3359 4.93443 27.9321 5.37397 28.3716C5.81351 28.8111 6.40965 29.0581 7.03125 29.0581L14.5312 29.0628L14.5519 29.0581H23.0719C24.1634 29.0581 25.2102 28.6245 25.9821 27.8526C26.7539 27.0808 27.1875 26.034 27.1875 24.9425V4.07371ZM22.9688 27.1831C22.3471 27.1831 21.751 26.9361 21.3115 26.4966C20.8719 26.0571 20.625 25.4609 20.625 24.8393V23.3768C20.625 22.8893 20.2312 22.4956 19.7437 22.4956H9.375V4.07371C9.375 3.86746 9.61875 3.75496 9.76875 3.89558L10.725 4.78621C10.7905 4.8455 10.8757 4.87833 10.9641 4.87833C11.0524 4.87833 11.1376 4.8455 11.2031 4.78621L12.1594 3.90496C12.2682 3.80548 12.4104 3.75032 12.5578 3.75032C12.7053 3.75032 12.8474 3.80548 12.9562 3.90496L13.9125 4.78621C14.0438 4.90808 14.2594 4.90808 14.3906 4.78621L15.3562 3.90496C15.4651 3.80548 15.6072 3.75032 15.7547 3.75032C15.9021 3.75032 16.0443 3.80548 16.1531 3.90496L17.1094 4.78621C17.2406 4.90808 17.4563 4.90808 17.5875 4.78621L18.5438 3.90496C18.6526 3.80548 18.7947 3.75032 18.9422 3.75032C19.0896 3.75032 19.2318 3.80548 19.3406 3.90496L20.2969 4.78621C20.4281 4.90808 20.6437 4.90808 20.775 4.78621L21.7313 3.90496C21.8401 3.80548 21.9822 3.75032 22.1297 3.75032C22.2771 3.75032 22.4193 3.80548 22.5281 3.90496L23.4844 4.78621C23.5481 4.84422 23.6308 4.87715 23.717 4.87887C23.8032 4.88059 23.8871 4.851 23.9531 4.79558L24.9187 3.90496C25.0687 3.76433 25.3125 3.86746 25.3125 4.07371V24.9425C25.3125 25.5367 25.0764 26.1066 24.6562 26.5268C24.236 26.947 23.6661 27.1831 23.0719 27.1831H22.9688Z" fill="white"/>
</svg>
