<svg width="30" height="30" viewBox="0 0 30 30" fill="none" xmlns="http://www.w3.org/2000/svg">
<g clip-path="url(#clip0_8541_4936)">
<path d="M19.3125 15.375L17.625 17.0625L19.3125 18.75L17.0625 21L25.125 29.0625C26.25 30.1875 27.9375 30.1875 29.0625 29.0625C30.1875 27.9375 30.1875 26.25 29.0625 25.125L19.3125 15.375ZM26.625 28.125C25.875 28.125 25.125 27.5625 25.125 26.625C25.125 25.875 25.6875 25.125 26.625 25.125C27.5625 25.125 28.125 25.6875 28.125 26.625C28.125 27.5625 27.5625 28.125 26.625 28.125ZM6.75 15L8.4375 13.875L11.25 10.6875L12.9375 12.375L14.625 10.6875L14.4375 10.5C14.8125 9.5625 15 8.625 15 7.5C15 3.375 11.625 0 7.5 0C6.375 0 5.4375 0.1875 4.5 0.5625L9.9375 6L6 9.9375L0.5625 4.5C0.1875 5.4375 0 6.375 0 7.5C0 11.4375 3 14.4375 6.75 15Z" fill="white"/>
<path d="M15 20.25L16.6875 18.75L15 17.0625L25.6875 6.375L27.9375 5.625L30 1.5L28.6875 0.1875L24.375 2.0625L23.4375 4.3125L12.9375 15L11.25 13.3125L9.75 15C9.75 15 11.25 16.125 9.5625 17.8125C8.625 18.75 7.125 17.625 4.3125 20.4375L0.375 24.375C0.375 24.375 -0.75 26.25 1.5 28.5C3.75 30.75 5.625 29.625 5.625 29.625L9.5625 25.6875C12.1875 23.0625 11.25 21.375 12 20.625C13.6875 18.9375 15 20.25 15 20.25ZM9.1875 19.5L10.5 20.8125L3.375 27.9375L2.0625 26.625L9.1875 19.5Z" fill="white"/>
</g>
<defs>
<clipPath id="clip0_8541_4936">
<rect width="30" height="30" fill="white"/>
</clipPath>
</defs>
</svg>
