<svg width="30" height="30" viewBox="0 0 30 30" fill="none" xmlns="http://www.w3.org/2000/svg">
<path fill-rule="evenodd" clip-rule="evenodd" d="M5.63063 8.81716L13.5431 5.02029C13.9978 4.80211 14.4957 4.68883 15 4.68883C15.5043 4.68883 16.0022 4.80211 16.4569 5.02029L24.3694 8.81716C24.6521 8.9527 24.8907 9.16549 25.0576 9.43093C25.2245 9.69637 25.3129 10.0036 25.3125 10.3172V11.2509C25.3124 13.9407 24.6355 16.5872 23.3442 18.9467C22.0529 21.3062 20.1886 23.3028 17.9231 24.7528L16.0744 25.9359C15.7536 26.1412 15.3808 26.2503 15 26.2503C14.6192 26.2503 14.2464 26.1412 13.9256 25.9359L12.0769 24.7547C9.81112 23.3045 7.94671 21.3076 6.65537 18.9477C5.36404 16.5879 4.6873 13.941 4.6875 11.2509V10.3172C4.6875 9.67779 5.055 9.09466 5.63063 8.81716ZM12.3244 2.48529L4.41375 6.28216C3.65337 6.64717 3.01161 7.21962 2.56244 7.93352C2.11327 8.64742 1.87497 9.47371 1.875 10.3172V11.2509C1.87484 14.4127 2.67027 17.5237 4.18801 20.2974C5.70575 23.0711 7.89702 25.4183 10.56 27.1228L12.4088 28.304C13.1823 28.7993 14.0815 29.0625 15 29.0625C15.9185 29.0625 16.8177 28.7993 17.5912 28.304L19.44 27.1228C22.103 25.4183 24.2942 23.0711 25.812 20.2974C27.3297 17.5237 28.1252 14.4127 28.125 11.2509V10.3172C28.125 8.59591 27.1387 7.02654 25.5862 6.28216L17.6737 2.48529C16.8393 2.08485 15.9256 1.87695 15 1.87695C14.0744 1.87695 13.1588 2.08485 12.3244 2.48529ZM15.8813 18.6947C15.7431 18.8234 15.6323 18.9787 15.5554 19.1512C15.4786 19.3237 15.4372 19.5099 15.4339 19.6987C15.4306 19.8875 15.4653 20.0751 15.536 20.2502C15.6067 20.4253 15.712 20.5843 15.8456 20.7179C15.9791 20.8514 16.1382 20.9567 16.3133 21.0274C16.4884 21.0981 16.6759 21.1329 16.8647 21.1295C17.0535 21.1262 17.2398 21.0849 17.4123 21.008C17.5848 20.9311 17.74 20.8203 17.8687 20.6822C18.9469 19.6059 19.965 18.0609 20.7112 16.5665C21.435 15.119 22.0312 13.4672 22.0312 12.1884C22.0312 11.8155 21.8831 11.4578 21.6194 11.194C21.3556 10.9303 20.998 10.7822 20.625 10.7822C20.252 10.7822 19.8944 10.9303 19.6306 11.194C19.3669 11.4578 19.2188 11.8155 19.2188 12.1884C19.2188 12.7847 18.8775 13.9453 18.195 15.3103C17.535 16.6284 16.6781 17.8959 15.8813 18.6947Z" fill="white"/>
</svg>
