<svg width="30" height="30" viewBox="0 0 30 30" fill="none" xmlns="http://www.w3.org/2000/svg">
<g clip-path="url(#clip0_8541_4943)">
<path d="M3.33333 0C1.49479 0 0 1.68164 0 3.75V26.25C0 28.3184 1.49479 30 3.33333 30H16.6667C18.5052 30 20 28.3184 20 26.25V25.1191C19.8594 25.1836 19.7187 25.2363 19.5729 25.2773L16.4427 26.1562C16.2865 26.1973 16.1302 26.2266 15.974 26.2383C15.9271 26.2441 15.8802 26.25 15.8333 26.25H12.5C12.1823 26.25 11.8958 26.0508 11.7552 25.7344L11.2969 24.6973C11.2083 24.498 11.0313 24.375 10.8385 24.375C10.6458 24.375 10.4635 24.498 10.3802 24.6973L9.92187 25.7344C9.77083 26.0801 9.44271 26.2852 9.10417 26.25C8.76562 26.2148 8.47396 25.9512 8.38021 25.5879L7.5 22.3242L6.98958 24.2461C6.67187 25.4355 5.69792 26.25 4.59375 26.25H4.16667C3.70833 26.25 3.33333 25.8281 3.33333 25.3125C3.33333 24.7969 3.70833 24.375 4.16667 24.375H4.59375C4.96354 24.375 5.28646 24.1055 5.39062 23.707L6.16667 20.8066C6.34375 20.1445 6.88542 19.6875 7.5 19.6875C8.11458 19.6875 8.65625 20.1445 8.83333 20.8066L9.4375 23.0684C9.82292 22.7051 10.3125 22.5 10.8333 22.5C11.6615 22.5 12.4167 23.0273 12.7865 23.8594L13.0156 24.375H13.4792C13.3177 23.8594 13.2865 23.2969 13.4062 22.7461L14.1875 19.2246C14.3333 18.5625 14.6354 17.9648 15.0625 17.4844L20 11.9297V9.375H13.3333C12.4115 9.375 11.6667 8.53711 11.6667 7.5V0H3.33333ZM13.3333 0V7.5H20L13.3333 0ZM28.6354 8.18555C27.8229 7.27148 26.5052 7.27148 25.6875 8.18555L24.1562 9.9082L27.8542 14.0684L29.3854 12.3457C30.1979 11.4316 30.1979 9.94922 29.3854 9.0293L28.6354 8.18555ZM16.2448 18.8086C16.0312 19.0488 15.8802 19.3477 15.8073 19.6816L15.026 23.2031C14.9531 23.5254 15.0365 23.8594 15.2448 24.0938C15.4531 24.3281 15.75 24.4219 16.0365 24.3398L19.1667 23.4609C19.4583 23.3789 19.7292 23.209 19.9427 22.9688L26.6719 15.3926L22.974 11.2324L16.2448 18.8086Z" fill="white"/>
</g>
<defs>
<clipPath id="clip0_8541_4943">
<rect width="30" height="30" fill="white"/>
</clipPath>
</defs>
</svg>
