<svg width="30" height="30" viewBox="0 0 30 30" fill="none" xmlns="http://www.w3.org/2000/svg">
<path d="M14.8711 1.7832C14.3145 1.85352 13.8105 2.50391 13.8105 3.35352C13.8105 3.82227 13.9687 4.23242 14.2031 4.51953L14.4902 4.85937L14.0508 4.94141C13.7461 5 13.5234 5.16406 13.3301 5.42773C13.1309 5.69727 12.9844 6.0582 12.8848 6.48594C12.6973 7.25351 12.6562 8.19102 12.6504 9.02305H13.6758L13.7695 10.3062C14.168 10.2887 14.5781 10.277 14.9941 10.277C15.4336 10.277 15.8613 10.2887 16.2773 10.3121L16.3652 9.02305H17.3379C17.3379 8.18516 17.3262 7.23008 17.1562 6.45078C17.0625 6.02891 16.9219 5.66211 16.7285 5.39844C16.5352 5.13477 16.2949 4.97656 15.9492 4.92383L15.5039 4.85352L15.7852 4.50195C16.0137 4.2207 16.166 3.81055 16.166 3.35352C16.166 2.45117 15.6035 1.7832 14.9883 1.7832H14.8711ZM3.62695 10.2184C3.07031 10.2887 2.56641 10.9391 2.56641 11.7887C2.56641 12.2574 2.72461 12.6676 2.95898 12.9547L3.24609 13.2945L2.80664 13.3766C2.50195 13.4352 2.2793 13.5992 2.08594 13.8629C1.88672 14.1324 1.74023 14.4957 1.64062 14.9234C1.45312 15.691 1.41211 16.6285 1.40625 17.4605H2.43164L2.70703 21.2281C3.42188 21.3922 4.18359 21.3805 4.87148 21.2281L5.12344 17.4605H6.09375C6.09375 16.6227 6.08203 15.6676 5.91211 14.8883C5.82012 14.4664 5.67949 14.0973 5.48613 13.8336C5.29336 13.5699 5.05312 13.4117 4.70742 13.359L4.25977 13.2887L4.54102 12.9371C4.77188 12.6559 4.92422 12.2457 4.92422 11.7887C4.92422 10.8863 4.35938 10.2184 3.74414 10.2184H3.62695ZM26.127 10.2184C25.5703 10.2887 25.0664 10.9391 25.0664 11.7887C25.0664 12.2574 25.2246 12.6676 25.459 12.9547L25.7461 13.2945L25.3066 13.3766C25.002 13.4352 24.7793 13.5992 24.5859 13.8629C24.3867 14.1324 24.2402 14.4957 24.1406 14.9234C23.9531 15.691 23.9121 16.6285 23.9062 17.4605H24.9316L25.207 21.2281C25.9219 21.3922 26.6836 21.3805 27.3691 21.2281L27.6211 17.4605H28.5938C28.5938 16.6227 28.582 15.6676 28.4121 14.8883C28.3184 14.4664 28.1777 14.0973 27.9844 13.8336C27.791 13.5699 27.5508 13.4117 27.2051 13.359L26.7598 13.2887L27.041 12.9371C27.2695 12.6559 27.4219 12.2457 27.4219 11.7887C27.4219 10.8863 26.8594 10.2184 26.2441 10.2184H26.127ZM14.9941 11.3316C12.8437 11.3316 10.8984 11.6422 9.5332 12.1227C8.85352 12.3629 8.32031 12.65 7.99219 12.9254C7.6582 13.2008 7.55273 13.4293 7.55273 13.6168C7.55273 13.8043 7.6582 14.0328 7.99219 14.3082C8.32031 14.5836 8.85352 14.8648 9.5332 15.1109C10.8984 15.5914 12.8437 15.902 14.9941 15.902C17.1445 15.902 19.0898 15.5914 20.4551 15.1109C21.1348 14.8648 21.668 14.5836 21.9961 14.3082C22.3301 14.0328 22.4355 13.8043 22.4355 13.6168C22.4355 13.4293 22.3301 13.2008 21.9961 12.9254C21.668 12.65 21.1348 12.3629 20.4551 12.1227C19.0898 11.6422 17.1445 11.3316 14.9941 11.3316ZM8.8418 15.9723V18.6559H9.89648V16.3238C9.65039 16.2535 9.41016 16.1832 9.18164 16.1012C9.06445 16.0602 8.95312 16.0191 8.8418 15.9723ZM21.1465 15.9723C21.0352 16.0191 20.9238 16.0602 20.8066 16.1012C20.5781 16.1832 20.3379 16.2535 20.0918 16.3238V18.6559H21.1465V15.9723ZM14.8711 17.0855C14.3145 17.1559 13.8105 17.8062 13.8105 18.6559C13.8105 19.1246 13.9687 19.5348 14.2031 19.8219L14.4902 20.1617L14.0508 20.2437C13.7461 20.3023 13.5234 20.4664 13.3301 20.7301C13.1309 20.9996 12.9844 21.3629 12.8848 21.7906C12.6973 22.5582 12.6562 23.4957 12.6504 24.3277H13.6758L13.9512 28.0953C14.666 28.2594 15.4277 28.2477 16.1133 28.0953L16.3652 24.3277H17.3379C17.3379 23.4898 17.3262 22.5348 17.1562 21.7555C17.0625 21.3336 16.9219 20.9645 16.7285 20.7008C16.5352 20.4371 16.2949 20.2789 15.9492 20.2262L15.5039 20.1559L15.7852 19.8043C16.0137 19.523 16.166 19.1129 16.166 18.6559C16.166 17.7535 15.6035 17.0855 14.9883 17.0855H14.8711Z" fill="white"/>
</svg>
