<svg width="43" height="43" viewBox="0 0 43 43" fill="none" xmlns="http://www.w3.org/2000/svg">
<path d="M15.0261 25.6314L25.6327 15.0248C25.8672 14.7904 26.1851 14.6587 26.5166 14.6587C26.8482 14.6587 27.1661 14.7904 27.4005 15.0248C27.6349 15.2592 27.7666 15.5772 27.7666 15.9087C27.7666 16.2402 27.6349 16.5582 27.4005 16.7926L16.7939 27.3992C16.5595 27.6336 16.2416 27.7653 15.91 27.7653C15.5785 27.7653 15.2606 27.6336 15.0261 27.3992C14.7917 27.1648 14.66 26.8468 14.66 26.5153C14.66 26.1838 14.7917 25.8658 15.0261 25.6314ZM14.144 14.1392C13.6747 14.6075 13.4107 15.2432 13.41 15.9062C13.4094 16.5692 13.6721 17.2054 14.1405 17.6747C14.6089 18.144 15.2445 18.408 15.9075 18.4087C16.5706 18.4094 17.2067 18.1466 17.676 17.6782C18.1453 17.2099 18.4094 16.5743 18.41 15.9112C18.4107 15.2482 18.1479 14.612 17.6796 14.1427C17.2112 13.6734 16.5756 13.4094 15.9125 13.4087C15.2495 13.408 14.6133 13.6708 14.144 14.1392ZM24.7506 24.7458C24.2813 25.2141 24.0173 25.8498 24.0166 26.5128C24.016 27.1759 24.2787 27.812 24.7471 28.2813C25.2155 28.7506 25.8511 29.0146 26.5141 29.0153C27.1772 29.016 27.8133 28.7532 28.2826 28.2848C28.7519 27.8165 29.016 27.1809 29.0166 26.5178C29.0173 25.8548 28.7545 25.2186 28.2862 24.7493C27.8178 24.28 27.1822 24.016 26.5191 24.0153C25.8561 24.0146 25.2199 24.2774 24.7506 24.7458Z" fill="white"/>
</svg>
