<svg width="30" height="30" viewBox="0 0 30 30" fill="none" xmlns="http://www.w3.org/2000/svg">
<path d="M9.1845 10.875L10.371 3H4.2L1.6215 9.75C1.542 9.99 1.5 10.239 1.5 10.5C1.5 12.156 3.225 13.5 5.3565 13.5C7.3215 13.5 8.946 12.354 9.1845 10.875ZM15 13.5C17.13 13.5 18.8565 12.156 18.8565 10.5C18.8565 10.4385 18.852 10.377 18.849 10.3185L18.0855 3H11.9145L11.1495 10.3125C11.146 10.3749 11.144 10.4375 11.1435 10.5C11.1435 12.156 12.87 13.5 15 13.5ZM22.5 15.069V21H7.5V15.078C6.843 15.315 6.12 15.45 5.3565 15.45C5.064 15.45 4.7805 15.4155 4.5 15.3765V24.9C4.5 26.055 5.4435 27 6.597 27H23.4C24.555 27 25.5 26.0535 25.5 24.9V15.378C25.2165 15.4215 24.9303 15.4461 24.6435 15.4515C23.9121 15.4508 23.1865 15.3213 22.5 15.069ZM28.38 9.75L25.7985 3H19.629L20.814 10.863C21.045 12.348 22.6695 13.5 24.6435 13.5C26.7735 13.5 28.5 12.156 28.5 10.5C28.5 10.239 28.458 9.99 28.38 9.75Z" fill="white"/>
</svg>
