<svg width="30" height="30" viewBox="0 0 30 30" fill="none" xmlns="http://www.w3.org/2000/svg">
<path d="M5 13V12H4V13H5ZM13 13V12H12V13H13ZM13 21H12V22H13V21ZM27 7H28V6.586L27.708 6.292L27 7ZM21 1L21.708 0.292L21.414 0H21V1ZM5 14H7V12H5V14ZM6 22V17H4V22H6ZM6 17V13H4V17H6ZM7 16H5V18H7V16ZM8 15C8 15.2652 7.89464 15.5196 7.70711 15.7071C7.51957 15.8946 7.26522 16 7 16V18C7.79565 18 8.55871 17.6839 9.12132 17.1213C9.68393 16.5587 10 15.7956 10 15H8ZM7 14C7.26522 14 7.51957 14.1054 7.70711 14.2929C7.89464 14.4804 8 14.7348 8 15H10C10 14.2044 9.68393 13.4413 9.12132 12.8787C8.55871 12.3161 7.79565 12 7 12V14ZM12 13V21H14V13H12ZM13 22H15V20H13V22ZM18 19V15H16V19H18ZM15 12H13V14H15V12ZM18 15C18 14.2044 17.6839 13.4413 17.1213 12.8787C16.5587 12.3161 15.7956 12 15 12V14C15.2652 14 15.5196 14.1054 15.7071 14.2929C15.8946 14.4804 16 14.7348 16 15H18ZM15 22C15.7956 22 16.5587 21.6839 17.1213 21.1213C17.6839 20.5587 18 19.7956 18 19H16C16 19.2652 15.8946 19.5196 15.7071 19.7071C15.5196 19.8946 15.2652 20 15 20V22ZM20 12V22H22V12H20ZM21 14H26V12H21V14ZM21 18H24V16H21V18ZM4 10V3H2V10H4ZM26 7V10H28V7H26ZM5 2H21V0H5V2ZM20.292 1.708L26.292 7.708L27.708 6.292L21.708 0.292L20.292 1.708ZM4 3C4 2.73478 4.10536 2.48043 4.29289 2.29289C4.48043 2.10536 4.73478 2 5 2V0C4.20435 0 3.44129 0.31607 2.87868 0.87868C2.31607 1.44129 2 2.20435 2 3H4ZM2 24V27H4V24H2ZM5 30H25V28H5V30ZM28 27V24H26V27H28ZM25 30C25.7956 30 26.5587 29.6839 27.1213 29.1213C27.6839 28.5587 28 27.7956 28 27H26C26 27.2652 25.8946 27.5196 25.7071 27.7071C25.5196 27.8946 25.2652 28 25 28V30ZM2 27C2 27.7956 2.31607 28.5587 2.87868 29.1213C3.44129 29.6839 4.20435 30 5 30V28C4.73478 28 4.48043 27.8946 4.29289 27.7071C4.10536 27.5196 4 27.2652 4 27H2Z" fill="white"/>
</svg>
