<svg width="18" height="15" viewBox="0 0 18 15" fill="none" xmlns="http://www.w3.org/2000/svg">
<g clip-path="url(#clip0_3777_19029)">
<path d="M14.8828 6.49805C14.8828 6.49805 14.7575 6.62337 14.5068 6.87402C14.2562 7.12467 13.7728 7.25 13.0566 7.25C12.3405 7.25 11.7318 6.99935 11.2305 6.49805C10.7292 5.99674 10.4785 5.38802 10.4785 4.67188C10.4785 3.95573 10.7292 3.347 11.2305 2.8457C11.7318 2.3444 12.3405 2.09375 13.0566 2.09375C13.7728 2.09375 14.3815 2.3444 14.8828 2.8457C15.3841 3.347 15.6348 3.95573 15.6348 4.67188C15.6348 5.38802 15.3841 5.99674 14.8828 6.49805ZM13.9697 3.75879C13.9697 3.75879 13.9071 3.69613 13.7817 3.5708C13.6564 3.44548 13.4147 3.38281 13.0566 3.38281C12.6986 3.38281 12.3942 3.50814 12.1436 3.75879C11.8929 4.00944 11.7676 4.3138 11.7676 4.67188C11.7676 5.02995 11.8929 5.33431 12.1436 5.58496C12.3942 5.83561 12.6986 5.96094 13.0566 5.96094C13.4147 5.96094 13.7191 5.83561 13.9697 5.58496C14.2204 5.33431 14.3457 5.02995 14.3457 4.67188C14.3457 4.3138 14.2204 4.00944 13.9697 3.75879ZM7.4707 7.78711C8.56283 7.78711 9.38639 8.20785 9.94141 9.04932C10.2995 9.56852 10.4785 10.1414 10.4785 10.7681V11.9766C10.4785 12.3346 10.3532 12.639 10.1025 12.8896C9.85189 13.1403 9.54753 13.2656 9.18945 13.2656H1.45508C1.09701 13.2656 0.792643 13.1403 0.541992 12.8896C0.291341 12.639 0.166016 12.3346 0.166016 11.9766V10.7681C0.166016 10.1414 0.3361 9.56852 0.67627 9.04932C1.24919 8.20785 2.08171 7.78711 3.17383 7.78711C3.49609 7.78711 3.80941 7.83187 4.11377 7.92139C4.50765 8.04671 4.90601 8.10938 5.30884 8.10938C5.71167 8.10938 6.11898 8.04671 6.53076 7.92139C6.83512 7.83187 7.14844 7.78711 7.4707 7.78711ZM9.18945 11.9766V10.7681C9.18945 10.3921 9.08203 10.0474 8.86719 9.73413C8.65234 9.42082 8.36589 9.2015 8.00781 9.07617C7.72135 8.96875 7.4349 8.96875 7.14844 9.07617C6.55762 9.29102 5.94889 9.39844 5.32227 9.39844C4.69564 9.39844 4.08691 9.29102 3.49609 9.07617C3.20964 8.96875 2.92318 8.96875 2.63672 9.07617C2.29655 9.2015 2.01457 9.42082 1.79077 9.73413C1.56698 10.0474 1.45508 10.3921 1.45508 10.7681V11.9766H9.18945ZM7.44385 6.36377C7.44385 6.36377 7.29614 6.51147 7.00073 6.80688C6.70532 7.10229 6.14583 7.25 5.32227 7.25C4.4987 7.25 3.7915 6.95459 3.20068 6.36377C2.60986 5.77295 2.31445 5.06575 2.31445 4.24219C2.31445 3.41862 2.60986 2.71143 3.20068 2.12061C3.7915 1.52979 4.4987 1.23438 5.32227 1.23438C6.14583 1.23438 6.85303 1.52979 7.44385 2.12061C8.03467 2.71143 8.33008 3.41862 8.33008 4.24219C8.33008 5.06575 8.03467 5.77295 7.44385 6.36377ZM6.53076 3.03369C6.53076 3.03369 6.44572 2.94865 6.27563 2.77856C6.10555 2.60848 5.78776 2.52344 5.32227 2.52344C4.85677 2.52344 4.45394 2.69352 4.11377 3.03369C3.7736 3.37386 3.60352 3.77669 3.60352 4.24219C3.60352 4.70768 3.7736 5.11051 4.11377 5.45068C4.45394 5.79085 4.85677 5.96094 5.32227 5.96094C5.78776 5.96094 6.19059 5.79085 6.53076 5.45068C6.87093 5.11051 7.04102 4.70768 7.04102 4.24219C7.04102 3.77669 6.87093 3.37386 6.53076 3.03369ZM16.9238 8.88818C17.2103 9.31787 17.3535 9.80127 17.3535 10.3384V11.332C17.3535 11.6364 17.2506 11.8915 17.0447 12.0974C16.8388 12.3033 16.5837 12.4062 16.2793 12.4062H11.2842C11.32 12.263 11.3379 12.1198 11.3379 11.9766V11.1172H16.0645V10.3115C16.0645 10.0609 15.9928 9.82812 15.8496 9.61328C15.6348 9.29102 15.3035 9.12988 14.856 9.12988C14.7485 9.12988 14.5158 9.17464 14.1577 9.26416C13.7996 9.35368 13.4326 9.39844 13.0566 9.39844C12.6807 9.39844 12.3136 9.35368 11.9556 9.26416C11.5975 9.17464 11.3647 9.12988 11.2573 9.12988C11.1678 9.12988 11.0783 9.13883 10.9888 9.15674C10.8813 8.94189 10.7739 8.74495 10.6665 8.56592C10.5591 8.40479 10.4159 8.2347 10.2368 8.05566C10.577 7.91244 10.9172 7.84082 11.2573 7.84082C11.508 7.84082 11.7944 7.88558 12.1167 7.9751C12.439 8.06462 12.7523 8.10938 13.0566 8.10938C13.361 8.10938 13.6743 8.06462 13.9966 7.9751C14.3188 7.88558 14.6053 7.84082 14.856 7.84082C15.7511 7.84082 16.4404 8.18994 16.9238 8.88818Z" fill="#6D45BC"/>
</g>
<defs>
<clipPath id="clip0_3777_19029">
<rect width="17.5" height="13.75" fill="white" transform="matrix(1 0 0 -1 0.00976562 14.125)"/>
</clipPath>
</defs>
</svg>
