<svg width="41" height="47" viewBox="0 0 41 47" fill="none" xmlns="http://www.w3.org/2000/svg">
<path d="M21.3978 0.367188C21.755 0.590465 21.9003 0.912135 21.8984 1.33788C21.89 3.57254 21.8937 5.80626 21.8947 8.04092C21.8947 8.39949 21.845 8.76941 21.4822 8.90564C21.2637 8.98795 20.9572 8.97187 20.7387 8.8801C20.3984 8.73724 20.3647 8.37773 20.3647 8.03903C20.3647 6.60949 20.3647 5.179 20.3647 3.74946C20.3647 2.97461 20.3778 2.19976 20.36 1.42586C20.3497 0.974577 20.4687 0.610332 20.8653 0.368134H21.3968L21.3978 0.367188Z" fill="#FF5887"/>
<path d="M8.43748 33.078C9.23809 32.8169 10.004 32.5 10.8 32.3212C13.1184 31.7999 15.344 32.1196 17.444 33.2408C18.2605 33.6769 19.1005 34.0364 20.0296 34.0875C21.0768 34.1452 22.1258 34.1528 23.1739 34.1868C24.192 34.219 25.2205 34.1831 26.2273 34.3098C27.7845 34.5057 28.9564 35.3647 29.7739 36.7659C30.1742 36.5786 30.5707 36.396 30.9654 36.2077C32.5507 35.4527 34.1285 34.6798 35.7232 33.9437C37.4322 33.1547 39.4385 33.7535 40.4416 35.3174C40.8044 35.8822 40.7332 36.2786 40.1829 36.6391C35.8479 39.4708 31.5242 42.3194 27.1676 45.1161C26.0052 45.8625 24.6458 46.0716 23.278 46.171C21.6027 46.2921 20.0464 45.767 18.4733 45.3195C16.2355 44.6828 13.9968 44.047 11.7581 43.4103C10.9546 43.1823 10.184 43.2352 9.45372 43.6723C9.25122 43.7934 9.04778 43.9183 8.83122 44.011C8.36341 44.2107 8.00998 44.4283 8.0606 45.065C8.09623 45.5021 7.71936 45.7745 7.24967 45.7641C5.32969 45.7235 3.41064 45.6752 1.49065 45.6128C0.926284 45.5948 0.651598 45.2712 0.666598 44.6752C0.731285 42.082 0.80441 39.4897 0.876597 36.8964C0.921596 35.2578 0.973158 33.6182 1.01441 31.9796C1.03316 31.2568 1.31347 30.9881 2.02503 31.0089C3.81189 31.061 5.59781 31.1064 7.38467 31.1508C8.20779 31.1707 8.45904 31.4366 8.43935 32.2738C8.43279 32.5406 8.43841 32.8065 8.43841 33.079L8.43748 33.078ZM28.7173 38.2664C28.3958 36.8425 27.1536 35.8188 25.6611 35.7848C24.3027 35.7536 22.9442 35.7214 21.5867 35.676C20.8939 35.6533 20.1993 35.6277 19.5093 35.5577C18.3721 35.4433 17.3896 34.8851 16.3705 34.4139C13.7643 33.2095 11.2003 33.342 8.6981 34.7621C8.44873 34.904 8.35216 35.0629 8.3456 35.3562C8.29685 37.6353 8.22748 39.9145 8.16748 42.1945C8.16373 42.3185 8.17966 42.4424 8.1881 42.6137C8.4206 42.4935 8.60529 42.4055 8.78247 42.3062C9.84184 41.7111 10.95 41.5985 12.1143 41.9344C13.6846 42.3875 15.2549 42.8398 16.8318 43.2665C18.5502 43.731 20.2583 44.2722 22.0049 44.5796C23.6014 44.8606 25.2073 44.5711 26.6005 43.6761C30.5445 41.1406 34.4585 38.5578 38.3838 35.9929C38.5141 35.9078 38.6388 35.8151 38.8001 35.7015C37.9901 35.0629 37.1557 34.9541 36.2782 35.36C34.9385 35.9787 33.6138 36.6287 32.2826 37.2654C31.6085 37.588 30.9345 37.9097 30.2764 38.2248C30.3026 38.4537 30.3326 38.6306 30.3411 38.8075C30.3786 39.6761 30.1273 39.9315 29.2648 39.9116C27.582 39.8728 25.8983 39.8359 24.2155 39.7943C23.0792 39.7659 21.9421 39.7423 20.8058 39.6921C20.2743 39.6685 19.9639 39.3326 19.9864 38.887C20.0089 38.4386 20.3539 38.15 20.8799 38.1633C22.0461 38.1926 23.2114 38.2484 24.3777 38.2626C25.8233 38.2806 27.2689 38.2664 28.7164 38.2664H28.7173ZM6.58874 44.1435C6.69186 40.3364 6.79499 36.5199 6.90092 32.6334H2.50877C2.40565 36.4461 2.30159 40.2626 2.19659 44.1435H6.58874Z" fill="#FF5887"/>
<path d="M21.1157 32.1663C15.1204 32.1455 10.3026 27.2466 10.3223 21.1926C10.342 15.2152 15.2404 10.3258 21.1682 10.3675C27.1634 10.4091 31.9568 15.2795 31.939 21.3109C31.9212 27.2977 27.0463 32.1881 21.1147 32.1672L21.1157 32.1663ZM21.1222 30.627C26.2559 30.6327 30.4212 26.4529 30.4362 21.2815C30.4512 16.1178 26.2897 11.9048 21.1644 11.8944C16.0129 11.8831 11.8261 16.0837 11.8251 21.2645C11.8251 26.4273 15.9904 30.6223 21.1222 30.628V30.627Z" fill="#FF5887"/>
<path d="M27.4755 6.57921C27.4755 7.08537 27.4839 7.59153 27.4736 8.09768C27.4623 8.66439 27.168 9.01634 26.7226 9.02296C26.2755 9.02958 25.9577 8.6748 25.952 8.11661C25.9408 7.07496 25.9398 6.03237 25.953 4.98978C25.9595 4.44483 26.252 4.13073 26.7048 4.12505C27.1623 4.12032 27.4548 4.42686 27.4717 4.97086C27.4886 5.50634 27.4755 6.04278 27.4764 6.57826L27.4755 6.57921Z" fill="#FF5887"/>
<path d="M16.3108 6.61245C16.3108 7.11861 16.3212 7.62477 16.308 8.13093C16.294 8.66547 15.9968 9.00701 15.5655 9.0212C15.1202 9.03539 14.793 8.67966 14.7865 8.1243C14.7743 7.08266 14.7743 6.04007 14.7865 4.99748C14.793 4.44969 15.079 4.13275 15.5271 4.12329C15.9987 4.11289 16.293 4.43361 16.3071 5.0041C16.3202 5.53959 16.3099 6.07602 16.3099 6.61245H16.3108Z" fill="#FF5887"/>
<path d="M24.3178 18.4904C24.3206 19.1261 24.0431 19.4724 23.6184 19.5036C23.1759 19.5367 22.8646 19.2226 22.8159 18.6947C22.7306 17.7619 22.1006 17.1119 21.2372 17.0693C20.3437 17.0249 19.6378 17.5868 19.4672 18.479C19.3172 19.2643 19.8281 20.1139 20.6278 20.3513C20.9203 20.4384 21.2381 20.4393 21.5447 20.4809C23.0043 20.6825 24.0918 21.7809 24.3037 23.2662C24.4987 24.6305 23.6925 26.0931 22.3734 26.6002C21.9009 26.7819 21.7397 27.0004 21.78 27.4858C21.81 27.8415 21.615 28.1622 21.255 28.2095C21.0122 28.2417 20.6784 28.1632 20.5087 28.0023C20.3465 27.8472 20.2837 27.5227 20.2837 27.272C20.2837 26.9162 20.189 26.7365 19.844 26.5813C18.6441 26.043 18.0188 25.0714 17.9484 23.7525C17.9222 23.253 18.2241 22.9266 18.6619 22.9105C19.1137 22.8944 19.4006 23.1782 19.4456 23.6872C19.5272 24.6097 20.1497 25.2871 20.9559 25.3306C21.9 25.3826 22.59 24.8585 22.784 23.9436C22.9753 23.042 22.2956 22.1016 21.3487 21.9985C20.655 21.9228 19.9725 21.848 19.3762 21.4299C18.3422 20.7033 17.8444 19.6985 17.9597 18.445C18.0713 17.2302 18.7078 16.3191 19.829 15.829C20.1928 15.6701 20.309 15.4856 20.2772 15.1071C20.2444 14.7126 20.3709 14.3701 20.7862 14.2131C21.2822 14.0248 21.7912 14.355 21.7725 14.9454C21.7556 15.4572 21.9572 15.6313 22.3978 15.8177C23.6128 16.3304 24.2034 17.3295 24.3168 18.4923L24.3178 18.4904Z" fill="#FF5887"/>
</svg>
