<svg width="15" height="25" viewBox="0 0 15 25" fill="none" xmlns="http://www.w3.org/2000/svg">
<path d="M2.28242 20.3245C2.1922 20.4199 2.12168 20.5322 2.07486 20.655C2.02804 20.7777 2.00586 20.9085 2.00957 21.0398C2.01329 21.1711 2.04283 21.3003 2.09651 21.4202C2.15019 21.5401 2.22695 21.6483 2.32242 21.7385C2.41789 21.8287 2.5302 21.8992 2.65293 21.946C2.77566 21.9928 2.90641 22.015 3.03771 22.0113C3.16901 22.0076 3.29829 21.9781 3.41818 21.9244C3.53807 21.8707 3.64621 21.7939 3.73642 21.6985L12.2364 12.6985C12.412 12.5128 12.5098 12.267 12.5098 12.0115C12.5098 11.756 12.412 11.5101 12.2364 11.3245L3.73642 2.32347C3.6468 2.22591 3.53869 2.14713 3.41836 2.0917C3.29803 2.03628 3.16789 2.00531 3.0355 2.00061C2.9031 1.99591 2.77109 2.01756 2.64714 2.0643C2.52318 2.11105 2.40975 2.18196 2.31343 2.27291C2.21711 2.36387 2.13982 2.47305 2.08605 2.59413C2.03228 2.71521 2.00311 2.84576 2.00023 2.97821C1.99734 3.11065 2.0208 3.24235 2.06925 3.36566C2.11769 3.48896 2.19015 3.60141 2.28242 3.69647L10.1344 12.0115L2.28242 20.3245Z" fill="black"/>
</svg>
