<svg width="15" height="25" viewBox="0 0 15 25" fill="none" xmlns="http://www.w3.org/2000/svg">
<path d="M12.2273 3.68725C12.3176 3.59178 12.3881 3.47947 12.4349 3.35674C12.4817 3.23401 12.5039 3.10327 12.5002 2.97196C12.4965 2.84066 12.4669 2.71138 12.4133 2.59149C12.3596 2.47161 12.2828 2.36347 12.1873 2.27325C12.0919 2.18303 11.9796 2.1125 11.8568 2.06569C11.7341 2.01887 11.6034 1.99669 11.4721 2.0004C11.3408 2.00411 11.2115 2.03365 11.0916 2.08733C10.9717 2.14101 10.8636 2.21778 10.7733 2.31325L2.27334 11.3132C2.09781 11.4989 2 11.7447 2 12.0002C2 12.2558 2.09781 12.5016 2.27334 12.6872L10.7733 21.6882C10.863 21.7858 10.9711 21.8646 11.0914 21.92C11.2117 21.9754 11.3419 22.0064 11.4743 22.0111C11.6067 22.0158 11.7387 21.9942 11.8626 21.9474C11.9866 21.9007 12.1 21.8298 12.1963 21.7388C12.2927 21.6479 12.3699 21.5387 12.4237 21.4176C12.4775 21.2965 12.5067 21.166 12.5095 21.0335C12.5124 20.9011 12.489 20.7694 12.4405 20.6461C12.3921 20.5228 12.3196 20.4103 12.2273 20.3153L4.37534 12.0002L12.2273 3.68725Z" fill="black"/>
</svg>
