<svg width="1024" height="1024" viewBox="0 0 1024 1024" fill="none" xmlns="http://www.w3.org/2000/svg">
<path d="M831.873 340.864L512.001 652.672L192.129 340.864C186.414 335.281 178.742 332.156 170.753 332.156C162.764 332.156 155.092 335.281 149.377 340.864C146.61 343.575 144.411 346.811 142.911 350.383C141.41 353.955 140.637 357.79 140.637 361.664C140.637 365.538 141.41 369.373 142.911 372.945C144.411 376.516 146.61 379.753 149.377 382.464L489.665 714.24C495.641 720.065 503.656 723.325 512.001 723.325C520.346 723.325 528.361 720.065 534.337 714.24L874.625 382.528C877.412 379.815 879.627 376.57 881.139 372.987C882.652 369.404 883.431 365.553 883.431 361.664C883.431 357.774 882.652 353.924 881.139 350.341C879.627 346.757 877.412 343.513 874.625 340.8C868.91 335.217 861.238 332.092 853.249 332.092C845.26 332.092 837.588 335.217 831.873 340.8V340.864Z" fill="#99A4B3"/>
</svg>
