<svg width="34" height="28" viewBox="0 0 34 28" fill="none" xmlns="http://www.w3.org/2000/svg">
<g clip-path="url(#clip0_3777_18949)">
<path d="M32.7826 11.1318C32.8851 11.0977 32.9791 11.1233 33.0645 11.2087C33.15 11.2942 33.1927 11.4053 33.1927 11.542V13.285C33.1927 13.5242 33.056 13.6609 32.7826 13.6951C31.7914 13.7635 30.0142 14.5666 27.4509 16.1046C26.4256 16.6856 25.725 17.0616 25.349 17.2324C23.0592 18.2919 21.3332 18.8217 20.1712 18.8217C18.8041 18.8217 17.7446 18.4116 16.9927 17.5913C16.2067 16.7027 15.8991 15.3185 16.07 13.4388L16.1212 12.4647L15.3522 13.0799C12.6864 15.2331 8.97821 18.7362 4.2276 23.5894C3.98836 23.8286 3.69785 23.9482 3.35608 23.9482C2.8776 23.9482 2.53583 23.7774 2.33077 23.4356C2.05735 23.0255 2.00609 22.6153 2.17697 22.2052L7.30354 9.02995C7.61113 8.31223 7.45733 7.69704 6.84215 7.18438C6.56873 6.94514 6.24405 6.82552 5.8681 6.82552C5.56051 6.82552 5.27 6.91097 4.99658 7.08185L1.92065 9.18374C1.85229 9.21792 1.75831 9.22646 1.63869 9.20938C1.51907 9.19229 1.42508 9.13248 1.35672 9.02995L0.433943 7.59451C0.297235 7.35527 0.3485 7.15021 0.58774 6.97932L3.45861 5.03123C4.5181 4.45022 5.45797 4.20243 6.27822 4.28788C7.09847 4.37332 7.83328 4.68946 8.48265 5.23629C9.16619 5.8173 9.61903 6.54356 9.84118 7.41508C10.0633 8.28659 10.0035 9.14957 9.66176 10.004L6.73961 17.3862L8.17505 16.0021C12.5839 11.6616 15.4548 9.45716 16.7877 9.38881C17.3687 9.35463 17.813 9.50842 18.1206 9.8502C18.6332 10.4312 18.8041 11.4736 18.6332 12.9774C18.4282 14.3787 18.5307 15.3014 18.9408 15.7457C19.2143 16.0875 19.6244 16.2584 20.1712 16.2584C20.9915 16.2584 22.3756 15.8141 24.3237 14.9255C24.7338 14.7204 25.4345 14.3445 26.4256 13.7976C29.399 12.0888 31.518 11.2002 32.7826 11.1318Z" fill="#FFF7ED"/>
</g>
<defs>
<clipPath id="clip0_3777_18949">
<rect width="32.81" height="26.25" fill="white" transform="matrix(1 0 0 -1 0.359375 27.2305)"/>
</clipPath>
</defs>
</svg>
