<svg width="22" height="15" viewBox="0 0 22 15" fill="none" xmlns="http://www.w3.org/2000/svg">
<path d="M19.25 9.25H15.92C15.77 9.25 15.47 9.34 15.26 9.59C14.63 10.29 13.34 11.25 11 11.25C8.66 11.25 7.37 10.3 6.74 9.59C6.515 9.34 6.23 9.25 6.08 9.25H2.75V12.25C2.75 12.53 3.08 12.75 3.5 12.75H18.5C18.92 12.75 19.25 12.53 19.25 12.25V9.25ZM19.25 7.75V2.25C19.25 1.97 18.92 1.75 18.5 1.75H3.5C3.08 1.75 2.75 1.97 2.75 2.25V7.75H6.08C7.31 7.75 8.21 8.3 8.69 8.83C9.08 9.28 9.755 9.75 11 9.75C12.245 9.75 12.92 9.28 13.31 8.83C13.79 8.3 14.69 7.75 15.92 7.75H19.25ZM0.5 2.25C0.5 1.15 1.85 0.25 3.5 0.25H18.5C20.15 0.25 21.5 1.15 21.5 2.25V12.25C21.5 13.35 20.15 14.25 18.5 14.25H3.5C1.85 14.25 0.5 13.35 0.5 12.25V2.25Z" fill="#FF5887"/>
</svg>
