<svg width="21" height="13" viewBox="0 0 21 13" fill="none" xmlns="http://www.w3.org/2000/svg">
<path fill-rule="evenodd" clip-rule="evenodd" d="M2.25 1.75V2.75H18.75V1.75H2.25ZM1.5 0.25C0.675 0.25 0 0.7 0 1.25V3.25C0 3.8 0.675 4.25 1.5 4.25V11C1.5 11.69 2.34 12.25 3.375 12.25H17.625C18.66 12.25 19.5 11.69 19.5 11V4.25C20.325 4.25 21 3.8 21 3.25V1.25C21 0.7 20.325 0.25 19.5 0.25H1.5ZM3.75 10.75V4.25H17.25V10.75H3.75ZM8.625 6.25C8.01 6.25 7.5 6.59 7.5 7C7.5 7.41 8.01 7.75 8.625 7.75H12.375C12.99 7.75 13.5 7.41 13.5 7C13.5 6.59 12.99 6.25 12.375 6.25H8.625Z" fill="#21232C"/>
</svg>
