<svg width="22" height="15" viewBox="0 0 22 15" fill="none" xmlns="http://www.w3.org/2000/svg">
<path d="M1.09984 8.33L12.6198 0.66C13.0098 0.4 13.5498 0.25 14.1048 0.25H20.4498C21.0348 0.25 21.4998 0.56 21.4998 0.95V5.18C21.4998 5.55 21.2748 5.91 20.8998 6.17L9.37984 13.84C8.55484 14.39 7.23484 14.39 6.40984 13.84L1.11484 10.31C0.289844 9.76 0.289844 8.88 1.11484 8.33H1.09984ZM2.80984 9.32L7.90984 12.71L19.2498 5.14V1.75H14.1648L2.80984 9.32ZM15.4998 5.25C16.3248 5.25 16.9998 4.8 16.9998 4.25C16.9998 3.7 16.3248 3.25 15.4998 3.25C14.6748 3.25 13.9998 3.7 13.9998 4.25C13.9998 4.8 14.6748 5.25 15.4998 5.25Z" fill="#21232C"/>
</svg>
