<svg width="14" height="6" viewBox="0 0 14 6" fill="none" xmlns="http://www.w3.org/2000/svg">
<path d="M1.30001 0.250009C1.15322 0.251383 1.01026 0.28145 0.888851 0.33648C0.767446 0.39151 0.672936 0.469083 0.617039 0.559584C0.561141 0.650085 0.546314 0.749533 0.574395 0.845598C0.602477 0.941664 0.672232 1.03012 0.775012 1.10001L6.47501 4.90001C6.77501 5.10001 7.22501 5.10001 7.52501 4.90001L13.225 1.10001C13.3287 1.02951 13.3987 0.94014 13.4263 0.843152C13.4539 0.746164 13.4378 0.645903 13.38 0.555003C13.3223 0.464104 13.2255 0.386634 13.1018 0.332358C12.9781 0.278082 12.8331 0.249429 12.685 0.250009H1.31501H1.30001Z" fill="#21232C"/>
</svg>
