<svg width="18" height="3" viewBox="0 0 18 3" fill="none" xmlns="http://www.w3.org/2000/svg">
<path d="M2.25 2.5C2.74728 2.5 3.22419 2.3683 3.57583 2.13388C3.92746 1.89946 4.125 1.58152 4.125 1.25C4.125 0.918479 3.92746 0.600537 3.57583 0.366117C3.22419 0.131696 2.74728 0 2.25 0C1.75272 0 1.27581 0.131696 0.924175 0.366117C0.572544 0.600537 0.375 0.918479 0.375 1.25C0.375 1.58152 0.572544 1.89946 0.924175 2.13388C1.27581 2.3683 1.75272 2.5 2.25 2.5ZM10.875 1.25C10.875 1.58152 10.6775 1.89946 10.3258 2.13388C9.97419 2.3683 9.49728 2.5 9 2.5C8.50272 2.5 8.02581 2.3683 7.67417 2.13388C7.32254 1.89946 7.125 1.58152 7.125 1.25C7.125 0.918479 7.32254 0.600537 7.67417 0.366117C8.02581 0.131696 8.50272 0 9 0C9.49728 0 9.97419 0.131696 10.3258 0.366117C10.6775 0.600537 10.875 0.918479 10.875 1.25ZM17.625 1.25C17.625 1.58152 17.4275 1.89946 17.0758 2.13388C16.7242 2.3683 16.2473 2.5 15.75 2.5C15.2527 2.5 14.7758 2.3683 14.4242 2.13388C14.0725 1.89946 13.875 1.58152 13.875 1.25C13.875 0.918479 14.0725 0.600537 14.4242 0.366117C14.7758 0.131696 15.2527 0 15.75 0C16.2473 0 16.7242 0.131696 17.0758 0.366117C17.4275 0.600537 17.625 0.918479 17.625 1.25Z" fill="#21232C"/>
</svg>
