<svg width="14" height="14" viewBox="0 0 14 14" fill="none" xmlns="http://www.w3.org/2000/svg">
<g clip-path="url(#clip0_4248_549)">
<path d="M13.5618 12.2107C13.718 12.3496 13.718 12.4971 13.5618 12.6533L12.989 13.2261C12.8328 13.3823 12.6853 13.3823 12.5464 13.2261L9.39617 10.0758C9.32675 10.0064 9.29203 9.937 9.29203 9.86757V9.50308C8.26798 10.3883 7.08772 10.8309 5.75125 10.8309C4.25857 10.8309 2.98285 10.3015 1.92408 9.24272C0.865319 8.18396 0.335938 6.90824 0.335938 5.41556C0.335938 3.92287 0.865319 2.64715 1.92408 1.58839C2.98285 0.529626 4.25857 0.000244141 5.75125 0.000244141C7.24393 0.000244141 8.51966 0.529626 9.57842 1.58839C10.6372 2.64715 11.1666 3.92287 11.1666 5.41556C11.1666 6.75203 10.724 7.93229 9.83877 8.95634H10.2033C10.29 8.95634 10.3595 8.99105 10.4115 9.06048L13.5618 12.2107ZM2.80928 8.35753C2.80928 8.35753 3.01322 8.56147 3.4211 8.96936C3.82899 9.37724 4.6057 9.58118 5.75125 9.58118C6.8968 9.58118 7.87745 9.1733 8.69322 8.35753C9.50899 7.54176 9.91687 6.5611 9.91687 5.41556C9.91687 4.27001 9.50899 3.28935 8.69322 2.47358C7.87745 1.65782 6.8968 1.24993 5.75125 1.24993C4.6057 1.24993 3.62505 1.65782 2.80928 2.47358C1.99351 3.28935 1.58562 4.27001 1.58562 5.41556C1.58562 6.5611 1.99351 7.54176 2.80928 8.35753Z" fill="#3B82F6"/>
</g>
<defs>
<clipPath id="clip0_4248_549">
<rect width="14" height="13.33" fill="white" transform="matrix(1 0 0 -1 0 13.3301)"/>
</clipPath>
</defs>
</svg>
