<svg width="20" height="19" viewBox="0 0 20 19" fill="none" xmlns="http://www.w3.org/2000/svg">
<path d="M19.3333 8.33398C19.3498 9.0004 19.3333 9.30015 19.3333 10.1673C19.3333 13.6241 19.3333 15.3529 18.259 16.4263C17.1856 17.5007 15.4567 17.5007 12 17.5007H8.33333C4.87658 17.5007 3.14775 17.5007 2.07433 16.4263C1 15.3529 1 13.6241 1 10.1673C1 6.71057 1 4.98173 2.07433 3.90832C3.14775 2.83398 4.87658 2.83398 8.33333 2.83398H11.0833" stroke="#637381" stroke-width="1.2" stroke-linecap="round"/>
<path d="M4.66602 6.5L6.6451 8.15C8.32902 9.5525 9.17052 10.2538 10.166 10.2538C11.1615 10.2538 12.0039 9.5525 13.6869 8.14908" stroke="#637381" stroke-width="1.2" stroke-linecap="round"/>
<path d="M16.584 6.5C18.1028 6.5 19.334 5.26878 19.334 3.75C19.334 2.23122 18.1028 1 16.584 1C15.0652 1 13.834 2.23122 13.834 3.75C13.834 5.26878 15.0652 6.5 16.584 6.5Z" stroke="#637381" stroke-width="1.2"/>
</svg>
