<svg width="12" height="13" viewBox="0 0 12 13" fill="none" xmlns="http://www.w3.org/2000/svg">
<path d="M3.99991 7.21631H3.05399C2.88846 7.21631 2.77021 7.09807 2.77021 6.93253V5.98661C2.77021 5.84472 2.88846 5.70283 3.05399 5.70283H3.99991C4.1418 5.70283 4.28369 5.84472 4.28369 5.98661V6.93253C4.28369 7.09807 4.1418 7.21631 3.99991 7.21631ZM6.55391 6.93253C6.55391 7.09807 6.41202 7.21631 6.27013 7.21631H5.32421C5.15867 7.21631 5.04043 7.09807 5.04043 6.93253V5.98661C5.04043 5.84472 5.15867 5.70283 5.32421 5.70283H6.27013C6.41202 5.70283 6.55391 5.84472 6.55391 5.98661V6.93253ZM8.82412 6.93253C8.82412 7.09807 8.68223 7.21631 8.54034 7.21631H7.59442C7.42889 7.21631 7.31064 7.09807 7.31064 6.93253V5.98661C7.31064 5.84472 7.42889 5.70283 7.59442 5.70283H8.54034C8.68223 5.70283 8.82412 5.84472 8.82412 5.98661V6.93253ZM6.55391 9.20275C6.55391 9.36828 6.41202 9.48652 6.27013 9.48652H5.32421C5.15867 9.48652 5.04043 9.36828 5.04043 9.20275V8.25682C5.04043 8.11494 5.15867 7.97305 5.32421 7.97305H6.27013C6.41202 7.97305 6.55391 8.11494 6.55391 8.25682V9.20275ZM4.28369 9.20275C4.28369 9.36828 4.1418 9.48652 3.99991 9.48652H3.05399C2.88846 9.48652 2.77021 9.36828 2.77021 9.20275V8.25682C2.77021 8.11494 2.88846 7.97305 3.05399 7.97305H3.99991C4.1418 7.97305 4.28369 8.11494 4.28369 8.25682V9.20275ZM8.82412 9.20275C8.82412 9.36828 8.68223 9.48652 8.54034 9.48652H7.59442C7.42889 9.48652 7.31064 9.36828 7.31064 9.20275V8.25682C7.31064 8.11494 7.42889 7.97305 7.59442 7.97305H8.54034C8.68223 7.97305 8.82412 8.11494 8.82412 8.25682V9.20275ZM11.0943 3.05425V11.3784C11.0943 12.0169 10.5741 12.5135 9.95923 12.5135H1.63511C0.99661 12.5135 0.5 12.0169 0.5 11.3784V3.05425C0.5 2.4394 0.99661 1.91914 1.63511 1.91914H2.77021V0.689441C2.77021 0.547552 2.88846 0.405664 3.05399 0.405664H3.99991C4.1418 0.405664 4.28369 0.547552 4.28369 0.689441V1.91914H7.31064V0.689441C7.31064 0.547552 7.42889 0.405664 7.59442 0.405664H8.54034C8.68223 0.405664 8.82412 0.547552 8.82412 0.689441V1.91914H9.95923C10.5741 1.91914 11.0943 2.4394 11.0943 3.05425ZM9.95923 11.2365V4.18936H1.63511V11.2365C1.63511 11.3311 1.6824 11.3784 1.777 11.3784H9.81734C9.88828 11.3784 9.95923 11.3311 9.95923 11.2365Z" fill="black" fill-opacity="0.87"/>
</svg>
