<svg width="10" height="11" viewBox="0 0 10 11" fill="none" xmlns="http://www.w3.org/2000/svg">
<g clip-path="url(#clip0_7178_849)">
<path d="M3.51758 6.125H2.73633C2.58008 6.125 2.50195 6.04688 2.50195 5.89062V5.10938C2.50195 4.95312 2.58008 4.875 2.73633 4.875H3.51758C3.67383 4.875 3.75195 4.95312 3.75195 5.10938V5.89062C3.75195 6.04688 3.67383 6.125 3.51758 6.125ZM5.62695 5.89062C5.62695 6.04688 5.54883 6.125 5.39258 6.125H4.61133C4.45508 6.125 4.37695 6.04688 4.37695 5.89062V5.10938C4.37695 4.95312 4.45508 4.875 4.61133 4.875H5.39258C5.54883 4.875 5.62695 4.95312 5.62695 5.10938V5.89062ZM7.50195 5.89062C7.50195 6.04688 7.42383 6.125 7.26758 6.125H6.48633C6.33008 6.125 6.25195 6.04688 6.25195 5.89062V5.10938C6.25195 4.95312 6.33008 4.875 6.48633 4.875H7.26758C7.42383 4.875 7.50195 4.95312 7.50195 5.10938V5.89062ZM5.62695 7.76562C5.62695 7.92188 5.54883 8 5.39258 8H4.61133C4.45508 8 4.37695 7.92188 4.37695 7.76562V6.98438C4.37695 6.82812 4.45508 6.75 4.61133 6.75H5.39258C5.54883 6.75 5.62695 6.82812 5.62695 6.98438V7.76562ZM3.75195 7.76562C3.75195 7.92188 3.67383 8 3.51758 8H2.73633C2.58008 8 2.50195 7.92188 2.50195 7.76562V6.98438C2.50195 6.82812 2.58008 6.75 2.73633 6.75H3.51758C3.67383 6.75 3.75195 6.82812 3.75195 6.98438V7.76562ZM7.50195 7.76562C7.50195 7.92188 7.42383 8 7.26758 8H6.48633C6.33008 8 6.25195 7.92188 6.25195 7.76562V6.98438C6.25195 6.82812 6.33008 6.75 6.48633 6.75H7.26758C7.42383 6.75 7.50195 6.82812 7.50195 6.98438V7.76562ZM9.37695 2.6875V9.5625C9.37695 9.82292 9.28581 10.0443 9.10352 10.2266C8.92122 10.4089 8.69987 10.5 8.43945 10.5H1.56445C1.30404 10.5 1.08268 10.4089 0.900391 10.2266C0.718099 10.0443 0.626953 9.82292 0.626953 9.5625V2.6875C0.626953 2.42708 0.718099 2.20573 0.900391 2.02344C1.08268 1.84115 1.30404 1.75 1.56445 1.75H2.50195V0.734375C2.50195 0.578125 2.58008 0.5 2.73633 0.5H3.51758C3.67383 0.5 3.75195 0.578125 3.75195 0.734375V1.75H6.25195V0.734375C6.25195 0.578125 6.33008 0.5 6.48633 0.5H7.26758C7.42383 0.5 7.50195 0.578125 7.50195 0.734375V1.75H8.43945C8.69987 1.75 8.92122 1.84115 9.10352 2.02344C9.28581 2.20573 9.37695 2.42708 9.37695 2.6875ZM8.43945 9.44531V3.625H1.56445V9.44531C1.56445 9.52344 1.60352 9.5625 1.68164 9.5625H8.32227C8.40039 9.5625 8.43945 9.52344 8.43945 9.44531Z" fill="black" fill-opacity="0.6"/>
</g>
<defs>
<clipPath id="clip0_7178_849">
<rect width="9.19" height="10" fill="white" transform="matrix(1 0 0 -1 0.40625 10.5)"/>
</clipPath>
</defs>
</svg>
