<svg width="12" height="19" viewBox="0 0 12 19" fill="none" xmlns="http://www.w3.org/2000/svg">
<g clip-path="url(#clip0_3580_5940)">
<path d="M8.57516 10.1117V10.686C8.57516 10.8774 8.47944 10.9731 8.28801 10.9731H6.46944V12.7917C6.46944 12.9831 6.37373 13.0788 6.1823 13.0788H5.60801C5.41658 13.0788 5.32087 12.9831 5.32087 12.7917V10.9731H3.5023C3.31087 10.9731 3.21516 10.8774 3.21516 10.686V10.1117C3.21516 9.92026 3.31087 9.82455 3.5023 9.82455H5.32087V8.00598C5.32087 7.81455 5.41658 7.71883 5.60801 7.71883H6.1823C6.37373 7.71883 6.46944 7.81455 6.46944 8.00598V9.82455H8.28801C8.47944 9.82455 8.57516 9.92026 8.57516 10.1117ZM11.2552 5.80455V14.2274C11.2552 14.5465 11.1435 14.8176 10.9202 15.041C10.6968 15.2643 10.4256 15.376 10.1066 15.376H1.68373C1.36468 15.376 1.09349 15.2643 0.870156 15.041C0.646823 14.8176 0.535156 14.5465 0.535156 14.2274V5.80455C0.535156 5.4855 0.646823 5.21431 0.870156 4.99098C1.09349 4.76764 1.36468 4.65598 1.68373 4.65598H2.8323V3.41169C2.8323 3.22026 2.92801 3.12455 3.11944 3.12455H4.07658C4.26801 3.12455 4.36373 3.22026 4.36373 3.41169V4.65598H7.42658V3.41169C7.42658 3.22026 7.5223 3.12455 7.71373 3.12455H8.67087C8.8623 3.12455 8.95801 3.22026 8.95801 3.41169V4.65598H10.1066C10.4256 4.65598 10.6968 4.76764 10.9202 4.99098C11.1435 5.21431 11.2552 5.4855 11.2552 5.80455ZM10.1066 14.0838V6.95312H1.68373V14.0838C1.68373 14.1795 1.73158 14.2274 1.8273 14.2274H9.96301C10.0587 14.2274 10.1066 14.1795 10.1066 14.0838Z" fill="#F8FAFC"/>
</g>
<defs>
<clipPath id="clip0_3580_5940">
<rect width="10.72" height="13" fill="white" transform="matrix(1 0 0 -1 0.535156 15.75)"/>
</clipPath>
</defs>
</svg>
