<svg width="13" height="15" viewBox="0 0 13 15" fill="none" xmlns="http://www.w3.org/2000/svg">
<path d="M4.53065 8.57605H3.436C3.21708 8.57605 3.10761 8.46659 3.10761 8.24766V7.15302C3.10761 6.93409 3.21708 6.82463 3.436 6.82463H4.53065C4.74958 6.82463 4.85904 6.93409 4.85904 7.15302V8.24766C4.85904 8.46659 4.74958 8.57605 4.53065 8.57605ZM7.48618 8.24766C7.48618 8.46659 7.37672 8.57605 7.15779 8.57605H6.06315C5.84422 8.57605 5.73475 8.46659 5.73475 8.24766V7.15302C5.73475 6.93409 5.84422 6.82463 6.06315 6.82463H7.15779C7.37672 6.82463 7.48618 6.93409 7.48618 7.15302V8.24766ZM10.1133 8.24766C10.1133 8.46659 10.0039 8.57605 9.78493 8.57605H8.69029C8.47136 8.57605 8.3619 8.46659 8.3619 8.24766V7.15302C8.3619 6.93409 8.47136 6.82463 8.69029 6.82463H9.78493C10.0039 6.82463 10.1133 6.93409 10.1133 7.15302V8.24766ZM7.48618 10.8748C7.48618 11.0937 7.37672 11.2032 7.15779 11.2032H6.06315C5.84422 11.2032 5.73475 11.0937 5.73475 10.8748V9.78016C5.73475 9.56123 5.84422 9.45177 6.06315 9.45177H7.15779C7.37672 9.45177 7.48618 9.56123 7.48618 9.78016V10.8748ZM4.85904 10.8748C4.85904 11.0937 4.74958 11.2032 4.53065 11.2032H3.436C3.21708 11.2032 3.10761 11.0937 3.10761 10.8748V9.78016C3.10761 9.56123 3.21708 9.45177 3.436 9.45177H4.53065C4.74958 9.45177 4.85904 9.56123 4.85904 9.78016V10.8748ZM10.1133 10.8748C10.1133 11.0937 10.0039 11.2032 9.78493 11.2032H8.69029C8.47136 11.2032 8.3619 11.0937 8.3619 10.8748V9.78016C8.3619 9.56123 8.47136 9.45177 8.69029 9.45177H9.78493C10.0039 9.45177 10.1133 9.56123 10.1133 9.78016V10.8748ZM12.7405 3.75963V13.3925C12.7405 13.7574 12.6128 14.0675 12.3573 14.3229C12.1019 14.5783 11.7918 14.7061 11.4269 14.7061H1.79404C1.42916 14.7061 1.11901 14.5783 0.863594 14.3229C0.608177 14.0675 0.480469 13.7574 0.480469 13.3925V3.75963C0.480469 3.39474 0.608177 3.0846 0.863594 2.82918C1.11901 2.57376 1.42916 2.44605 1.79404 2.44605H3.10761V1.02302C3.10761 0.80409 3.21708 0.694626 3.436 0.694626H4.53065C4.74958 0.694626 4.85904 0.80409 4.85904 1.02302V2.44605H8.3619V1.02302C8.3619 0.80409 8.47136 0.694626 8.69029 0.694626H9.78493C10.0039 0.694626 10.1133 0.80409 10.1133 1.02302V2.44605H11.4269C11.7918 2.44605 12.1019 2.57376 12.3573 2.82918C12.6128 3.0846 12.7405 3.39474 12.7405 3.75963ZM11.4269 13.2283V5.0732H1.79404V13.2283C1.79404 13.3378 1.84877 13.3925 1.95824 13.3925H11.2627C11.3722 13.3925 11.4269 13.3378 11.4269 13.2283Z" fill="black"/>
</svg>
