<svg width="13" height="15" viewBox="0 0 13 15" fill="none" xmlns="http://www.w3.org/2000/svg">
<g clip-path="url(#clip0_4265_6816)">
<path d="M4.57422 8.68555H3.5C3.28516 8.68555 3.17773 8.57812 3.17773 8.36328V7.28906C3.17773 7.07422 3.28516 6.9668 3.5 6.9668H4.57422C4.78906 6.9668 4.89648 7.07422 4.89648 7.28906V8.36328C4.89648 8.57812 4.78906 8.68555 4.57422 8.68555ZM7.47461 8.36328C7.47461 8.57812 7.36719 8.68555 7.15234 8.68555H6.07812C5.86328 8.68555 5.75586 8.57812 5.75586 8.36328V7.28906C5.75586 7.07422 5.86328 6.9668 6.07812 6.9668H7.15234C7.36719 6.9668 7.47461 7.07422 7.47461 7.28906V8.36328ZM10.0527 8.36328C10.0527 8.57812 9.94531 8.68555 9.73047 8.68555H8.65625C8.44141 8.68555 8.33398 8.57812 8.33398 8.36328V7.28906C8.33398 7.07422 8.44141 6.9668 8.65625 6.9668H9.73047C9.94531 6.9668 10.0527 7.07422 10.0527 7.28906V8.36328ZM7.47461 10.9414C7.47461 11.1562 7.36719 11.2637 7.15234 11.2637H6.07812C5.86328 11.2637 5.75586 11.1562 5.75586 10.9414V9.86719C5.75586 9.65234 5.86328 9.54492 6.07812 9.54492H7.15234C7.36719 9.54492 7.47461 9.65234 7.47461 9.86719V10.9414ZM4.89648 10.9414C4.89648 11.1562 4.78906 11.2637 4.57422 11.2637H3.5C3.28516 11.2637 3.17773 11.1562 3.17773 10.9414V9.86719C3.17773 9.65234 3.28516 9.54492 3.5 9.54492H4.57422C4.78906 9.54492 4.89648 9.65234 4.89648 9.86719V10.9414ZM10.0527 10.9414C10.0527 11.1562 9.94531 11.2637 9.73047 11.2637H8.65625C8.44141 11.2637 8.33398 11.1562 8.33398 10.9414V9.86719C8.33398 9.65234 8.44141 9.54492 8.65625 9.54492H9.73047C9.94531 9.54492 10.0527 9.65234 10.0527 9.86719V10.9414ZM12.6309 3.95898V13.4121C12.6309 13.7702 12.5055 14.0745 12.2549 14.3252C12.0042 14.5758 11.6999 14.7012 11.3418 14.7012H1.88867C1.5306 14.7012 1.22624 14.5758 0.975586 14.3252C0.724935 14.0745 0.599609 13.7702 0.599609 13.4121V3.95898C0.599609 3.60091 0.724935 3.29655 0.975586 3.0459C1.22624 2.79525 1.5306 2.66992 1.88867 2.66992H3.17773V1.27344C3.17773 1.05859 3.28516 0.951172 3.5 0.951172H4.57422C4.78906 0.951172 4.89648 1.05859 4.89648 1.27344V2.66992H8.33398V1.27344C8.33398 1.05859 8.44141 0.951172 8.65625 0.951172H9.73047C9.94531 0.951172 10.0527 1.05859 10.0527 1.27344V2.66992H11.3418C11.6999 2.66992 12.0042 2.79525 12.2549 3.0459C12.5055 3.29655 12.6309 3.60091 12.6309 3.95898ZM11.3418 13.251V5.24805H1.88867V13.251C1.88867 13.3584 1.94238 13.4121 2.0498 13.4121H11.1807C11.2881 13.4121 11.3418 13.3584 11.3418 13.251Z" fill="black"/>
</g>
<defs>
<clipPath id="clip0_4265_6816">
<rect width="12.27" height="13.75" fill="white" transform="matrix(1 0 0 -1 0.480469 14.7012)"/>
</clipPath>
</defs>
</svg>
