<svg width="15" height="15" viewBox="0 0 15 15" fill="none" xmlns="http://www.w3.org/2000/svg">
<g clip-path="url(#clip0_4217_24746)">
<path d="M4.71094 2.67773H1.53906C1.42969 2.67773 1.375 2.62305 1.375 2.51367V1.5293C1.375 1.41992 1.42969 1.36523 1.53906 1.36523H4.71094C4.82031 1.36523 4.875 1.41992 4.875 1.5293V2.51367C4.875 2.62305 4.82031 2.67773 4.71094 2.67773ZM14.5 2.67773V12.3027C14.5 12.6673 14.3724 12.9772 14.1172 13.2324C13.862 13.4876 13.5521 13.6152 13.1875 13.6152H1.8125C1.44792 13.6152 1.13802 13.4876 0.882812 13.2324C0.627604 12.9772 0.5 12.6673 0.5 12.3027V4.42773C0.5 4.06315 0.627604 3.75325 0.882812 3.49805C1.13802 3.24284 1.44792 3.11523 1.8125 3.11523H5.53125L6.46094 1.88477C6.71615 1.53841 7.0625 1.36523 7.5 1.36523H13.1875C13.5521 1.36523 13.862 1.49284 14.1172 1.74805C14.3724 2.00325 14.5 2.31315 14.5 2.67773ZM13.1875 4.42773H1.8125V12.3027H13.1875V4.42773ZM13.1875 2.67773H7.5L7.17188 3.11523H13.1875V2.67773ZM9.82422 6.04102C9.82422 6.04102 9.98372 6.20052 10.3027 6.51953C10.6217 6.83854 10.7812 7.45378 10.7812 8.36523C10.7812 9.27669 10.4622 10.0514 9.82422 10.6895C9.1862 11.3275 8.41146 11.6465 7.5 11.6465C6.58854 11.6465 5.8138 11.3275 5.17578 10.6895C4.53776 10.0514 4.21875 9.27669 4.21875 8.36523C4.21875 7.45378 4.53776 6.67904 5.17578 6.04102C5.8138 5.403 6.58854 5.08398 7.5 5.08398C8.41146 5.08398 9.1862 5.403 9.82422 6.04102ZM8.89453 9.75977C8.89453 9.75977 8.99023 9.66406 9.18164 9.47266C9.37305 9.28125 9.46875 8.91211 9.46875 8.36523C9.46875 7.81836 9.27734 7.35352 8.89453 6.9707C8.51172 6.58789 8.04688 6.39648 7.5 6.39648C6.95312 6.39648 6.48828 6.58789 6.10547 6.9707C5.72266 7.35352 5.53125 7.81836 5.53125 8.36523C5.53125 8.91211 5.72266 9.37695 6.10547 9.75977C6.48828 10.1426 6.95312 10.334 7.5 10.334C8.04688 10.334 8.51172 10.1426 8.89453 9.75977ZM6.84375 8.36523C6.84375 8.49284 6.80273 8.59766 6.7207 8.67969C6.63867 8.76172 6.53385 8.80273 6.40625 8.80273C6.27865 8.80273 6.17383 8.76172 6.0918 8.67969C6.00977 8.59766 5.96875 8.49284 5.96875 8.36523C5.96875 7.94596 6.11914 7.58594 6.41992 7.28516C6.7207 6.98438 7.08073 6.83398 7.5 6.83398C7.6276 6.83398 7.73242 6.875 7.81445 6.95703C7.89648 7.03906 7.9375 7.14388 7.9375 7.27148C7.9375 7.39909 7.89648 7.50391 7.81445 7.58594C7.73242 7.66797 7.6276 7.70898 7.5 7.70898C7.31771 7.70898 7.16276 7.77279 7.03516 7.90039C6.90755 8.02799 6.84375 8.18294 6.84375 8.36523Z" fill="white"/>
</g>
<defs>
<clipPath id="clip0_4217_24746">
<rect width="14" height="14" fill="white" transform="matrix(1 0 0 -1 0.5 14.4902)"/>
</clipPath>
</defs>
</svg>
