<svg width="17" height="14" viewBox="0 0 17 14" fill="none" xmlns="http://www.w3.org/2000/svg">
<path d="M15.9673 3.77155C16.047 4.01077 16.0311 4.24998 15.9194 4.4892L14.6516 7.02492C14.5399 7.26414 14.3605 7.42362 14.1133 7.50336C13.8661 7.5831 13.6309 7.55918 13.4076 7.43159L12.8574 7.16845C12.7936 7.1525 12.7298 7.16048 12.6661 7.19237C12.6023 7.22427 12.5704 7.28009 12.5704 7.35983V11.7854C12.5704 12.1522 12.4388 12.4671 12.1757 12.7303C11.9125 12.9934 11.5975 13.125 11.2307 13.125H5.48949C5.12269 13.125 4.80772 12.9934 4.54458 12.7303C4.28144 12.4671 4.14987 12.1522 4.14987 11.7854V7.33591C4.14987 7.27211 4.12196 7.22028 4.06614 7.18041C4.01032 7.14054 3.95052 7.13656 3.88673 7.16845L3.3126 7.45552C3.08933 7.56715 2.8541 7.57911 2.60691 7.4914C2.35971 7.40368 2.1803 7.24819 2.06867 7.02492L0.800806 4.4892C0.689171 4.24998 0.673223 4.01077 0.752962 3.77155C0.832702 3.53233 0.992181 3.3569 1.2314 3.24527L5.96793 0.877C5.96793 0.877 5.99584 0.920856 6.05166 1.00857C6.10748 1.09628 6.15133 1.16008 6.18323 1.19995C6.21512 1.23981 6.27493 1.30361 6.36264 1.39132C6.45036 1.47903 6.5301 1.54681 6.60186 1.59466C6.67363 1.6425 6.7733 1.7023 6.90088 1.77407C7.02847 1.84584 7.16004 1.90165 7.2956 1.94152C7.43115 1.98139 7.59063 2.01329 7.77403 2.03721C7.95743 2.06113 8.1528 2.07309 8.36012 2.07309C8.55149 2.07309 8.72692 2.06512 8.8864 2.04917C9.04588 2.03322 9.1934 2.00531 9.32895 1.96545C9.46451 1.92558 9.58412 1.88571 9.68778 1.84584C9.79144 1.80597 9.89112 1.75015 9.98681 1.67838C10.0825 1.60662 10.1622 1.5508 10.226 1.51093C10.2898 1.47106 10.3536 1.41125 10.4174 1.33152C10.4812 1.25178 10.529 1.19596 10.5609 1.16406C10.5928 1.13217 10.6327 1.08034 10.6805 1.00857C10.7284 0.936805 10.7523 0.892948 10.7523 0.877L15.4888 3.24527C15.7281 3.3569 15.8875 3.53233 15.9673 3.77155ZM13.7186 6.30727L14.7951 4.17822L11.0633 2.31231C10.3935 2.91833 9.49242 3.22134 8.36012 3.22134C7.22782 3.22134 6.32676 2.91833 5.65695 2.31231L1.92513 4.17822L3.00162 6.30727L4.74792 5.49392C4.8755 5.43013 4.99909 5.4381 5.1187 5.51784C5.23831 5.59758 5.29812 5.70124 5.29812 5.82883V11.7854C5.29812 11.913 5.36191 11.9768 5.48949 11.9768H11.2307C11.3583 11.9768 11.4221 11.913 11.4221 11.7854V5.82883C11.4221 5.6853 11.4819 5.57765 11.6015 5.50588C11.7211 5.43412 11.8447 5.43013 11.9723 5.49392L13.7186 6.30727Z" fill="white"/>
</svg>
