<svg width="37" height="32" viewBox="0 0 37 32" fill="none" xmlns="http://www.w3.org/2000/svg">
<g clip-path="url(#clip0_3777_18973)">
<path d="M24.3145 4.05664C27.5697 4.05664 30.3366 5.19596 32.6152 7.47461C34.8939 9.75326 36.0332 12.5202 36.0332 15.7754C36.0332 19.0306 34.8939 21.7975 32.6152 24.0762C30.3366 26.3548 27.5697 27.4941 24.3145 27.4941H12.5957C9.3405 27.4941 6.57357 26.3548 4.29492 24.0762C2.01628 21.7975 0.876953 19.0306 0.876953 15.7754C0.876953 12.5202 2.01628 9.75326 4.29492 7.47461C6.57357 5.19596 9.3405 4.05664 12.5957 4.05664H24.3145ZM18.0889 22.001C18.0889 22.001 18.5161 22.4282 19.3706 23.2827C20.2251 24.1372 21.873 24.5645 24.3145 24.5645C26.7559 24.5645 28.8311 23.71 30.54 22.001C32.249 20.292 33.1035 18.2168 33.1035 15.7754C33.1035 13.334 32.249 11.2588 30.54 9.5498C28.8311 7.84082 26.7559 6.98633 24.3145 6.98633C21.873 6.98633 19.7979 7.84082 18.0889 9.5498C16.3799 11.2588 15.5254 13.334 15.5254 15.7754C15.5254 18.2168 16.3799 20.292 18.0889 22.001Z" fill="#FFF7ED"/>
</g>
<defs>
<clipPath id="clip0_3777_18973">
<rect width="35.45" height="31.25" fill="white" transform="matrix(1 0 0 -1 0.730469 31.4004)"/>
</clipPath>
</defs>
</svg>
