<svg width="41" height="41" viewBox="0 0 41 41" fill="none" xmlns="http://www.w3.org/2000/svg">
<g clip-path="url(#clip0_6507_1250)">
<path d="M11.5697 13.6301C11.5697 12.3237 11.5497 11.0173 11.5735 9.71212C11.6474 5.54486 14.8496 1.82511 18.9711 1.09711C23.7952 0.244464 28.3424 3.15395 29.5134 7.88092C29.6937 8.61016 29.7526 9.38552 29.7613 10.1397C29.7914 12.7051 29.7739 15.2706 29.7726 17.836C29.7726 18.6251 29.4983 18.8943 28.7031 18.8956C27.3906 18.8981 26.0782 18.8981 24.7657 18.8956C24.0356 18.8931 23.7488 18.6089 23.7476 17.8784C23.7438 15.3129 23.7551 12.7475 23.7426 10.1821C23.7338 8.34464 22.4151 6.97093 20.6856 6.96096C18.9348 6.95098 17.5973 8.33218 17.5898 10.1896C17.5785 12.7089 17.5873 15.2269 17.586 17.7462C17.586 18.6625 17.3468 18.8968 16.4188 18.8968C15.1377 18.8968 13.8565 18.8993 12.5754 18.8968C11.8465 18.8943 11.5635 18.6089 11.5622 17.8759C11.5585 16.461 11.5622 15.0462 11.5622 13.6313C11.5647 13.6313 11.5672 13.6313 11.5697 13.6313V13.6301ZM15.9805 13.5528C15.9805 12.3735 15.978 11.2392 15.9805 10.106C15.988 7.43216 18.0193 5.37159 20.653 5.36535C23.3042 5.35787 25.3456 7.42343 25.3531 10.126C25.3556 11.1207 25.3531 12.1155 25.3543 13.1103C25.3543 13.2574 25.3669 13.4057 25.3731 13.5466H28.1684C28.1684 12.3087 28.1759 11.0996 28.1633 9.89038C28.1596 9.51891 28.1208 9.14494 28.0581 8.77845C27.4996 5.47879 24.8571 2.97569 21.4032 2.60296C18.117 2.24894 15.1214 4.10632 13.8039 7.01954C12.8496 9.12998 13.2654 11.3476 13.1527 13.5528H15.9792H15.9805ZM15.958 15.197H13.204V17.2314H15.958V15.197ZM25.3719 17.2389H28.137V15.2082H25.3719V17.2389Z" fill="#FF5887"/>
<path d="M11.2641 33.1364C11.7989 33.4954 12.375 33.8145 12.8734 34.2271C14.5941 35.6507 15.5296 37.4807 15.606 39.722C15.6336 40.5185 15.3718 40.7853 14.5565 40.7866C11.4645 40.7903 8.37245 40.7878 5.2804 40.7878C4.09317 40.7878 2.9072 40.7928 1.71997 40.7866C0.893423 40.7828 0.621664 40.4924 0.671758 39.6721C0.847087 36.7751 2.26474 34.6771 4.81703 33.3134C4.88466 33.2772 4.95103 33.2386 5.01741 33.1987C5.02993 33.1912 5.03494 33.1738 5.05873 33.1401C3.70494 32.0544 2.92473 30.6769 2.93851 28.9043C2.94978 27.4645 3.47201 26.2391 4.49518 25.2332C6.57407 23.19 9.89781 23.2574 11.9254 25.3528C13.8114 27.3012 14.1019 30.8664 11.2654 33.1351L11.2641 33.1364ZM13.9016 39.1398C13.7763 36.5046 10.946 34.0838 8.08816 34.1399C5.17896 34.196 2.38747 36.6342 2.39123 39.1398H13.9016ZM8.1082 32.5318C10.0794 32.5443 11.7237 30.9374 11.75 28.9716C11.7763 27.0307 10.1345 25.3653 8.17082 25.3454C6.20964 25.3254 4.54778 26.9547 4.53776 28.9105C4.52649 30.8851 6.13951 32.5206 8.1082 32.533V32.5318Z" fill="#FF5887"/>
<path d="M30.0974 33.1509C27.2333 30.8847 27.5088 27.2559 29.4863 25.2864C31.5802 23.2009 34.9465 23.242 36.9866 25.3724C38.8927 27.3619 39.0981 30.9296 36.2878 33.1459C36.7361 33.4252 37.207 33.6708 37.6228 33.9861C39.49 35.401 40.5345 37.2658 40.661 39.6156C40.7098 40.5231 40.4606 40.7886 39.5326 40.7899C37.4237 40.7924 35.3147 40.7899 33.2058 40.7899C31.0968 40.7899 28.9878 40.7911 26.8789 40.7899C25.9409 40.7899 25.6854 40.563 25.7418 39.6306C25.9108 36.8121 27.2909 34.7453 29.7518 33.3741C29.847 33.3217 29.9459 33.2768 30.0398 33.2232C30.0649 33.2095 30.0799 33.1771 30.0987 33.1522L30.0974 33.1509ZM27.4299 39.1332H38.954C38.8889 36.5765 36.1438 34.1607 33.2433 34.1494C29.7418 34.1345 27.6303 36.9093 27.4312 39.1332H27.4299ZM36.7975 28.9774C36.81 27.0041 35.2032 25.3674 33.2333 25.3462C31.2721 25.325 29.6178 26.9381 29.5852 28.9039C29.5539 30.8448 31.1995 32.5164 33.1582 32.5326C35.1331 32.5488 36.785 30.9345 36.7975 28.9774Z" fill="#FF5887"/>
<path d="M20.5438 23.4868C21.1136 23.6912 21.6271 23.8645 22.1318 24.0589C22.8256 24.3244 22.9821 24.8804 22.5138 25.4601C21.7323 26.4274 20.9383 27.3873 20.1393 28.3396C19.7786 28.7684 19.324 28.827 18.9521 28.5279C18.5864 28.2324 18.5551 27.7575 18.8957 27.3324C19.4468 26.6443 20.0103 25.9637 20.6052 25.2344C20.0955 25.0475 19.6321 24.8854 19.1737 24.7071C18.5638 24.4715 18.3885 24.0153 18.7066 23.4456C19.1975 22.5643 19.7022 21.6905 20.2119 20.8216C20.4937 20.3417 20.9295 20.2095 21.3553 20.4476C21.7586 20.6733 21.8725 21.1457 21.6121 21.6169C21.2752 22.2277 20.9208 22.8286 20.5426 23.4868H20.5438Z" fill="#FF5887"/>
</g>
<defs>
<clipPath id="clip0_6507_1250">
<rect width="40" height="39.8427" fill="white" transform="translate(0.666016 0.949219)"/>
</clipPath>
</defs>
</svg>
