<svg width="41" height="41" viewBox="0 0 41 41" fill="none" xmlns="http://www.w3.org/2000/svg">
<g clip-path="url(#clip0_6507_1275)">
<path d="M20.6656 22.5759C21.3121 21.9299 21.9507 21.351 22.5142 20.709C22.9254 20.2383 23.3979 20.1477 23.9634 20.2226C26.6957 20.5829 28.6649 22.82 28.6668 25.5711C28.6668 26.414 28.651 27.2588 28.6728 28.1017C28.6826 28.5015 28.5502 28.7712 28.224 29.0095C25.5569 30.9552 22.5814 31.7528 19.2955 31.4199C17.0061 31.1876 14.9559 30.3624 13.1053 29.0076C12.7969 28.7811 12.6486 28.533 12.6566 28.143C12.6783 27.2037 12.6565 26.2624 12.6645 25.323C12.6862 22.6015 15.1318 20.1891 17.8661 20.2186C18.1113 20.2206 18.4078 20.3525 18.5897 20.5219C19.2876 21.1717 19.9499 21.861 20.6637 22.5759H20.6656ZM13.9337 26.5499C13.9555 26.5519 13.9772 26.5538 13.999 26.5578C13.999 26.9162 14.0207 27.2785 13.993 27.635C13.9713 27.9087 14.084 28.0544 14.3015 28.2021C15.9563 29.3148 17.7692 29.9568 19.7621 30.1104C22.449 30.3191 24.8966 29.6555 27.1089 28.1352C27.2216 28.0584 27.3224 27.8792 27.3244 27.7433C27.3442 27.0107 27.356 26.2781 27.3284 25.5455C27.2473 23.4463 25.8456 21.8413 23.8843 21.6011C23.7261 21.5814 23.5067 21.6601 23.392 21.7704C22.6902 22.44 22.012 23.1332 21.324 23.8165C20.804 24.3325 20.5253 24.3285 19.9954 23.8047C19.3173 23.1312 18.649 22.4479 17.9571 21.7901C17.8325 21.6719 17.5992 21.5853 17.4312 21.605C15.8772 21.794 14.5387 22.9421 14.1749 24.4624C14.0148 25.1399 14.0089 25.8528 13.9337 26.5499Z" fill="#FF5887"/>
<path d="M25.3318 14.8976C25.3318 17.4793 23.248 19.5412 20.6481 19.5392C18.0621 19.5353 15.9941 17.4577 15.9981 14.8641C16.002 12.2922 18.0957 10.2382 20.7015 10.2442C23.2638 10.252 25.3318 12.3296 25.3298 14.8976H25.3318ZM20.66 11.5734C18.8549 11.5774 17.3444 13.074 17.3326 14.874C17.3207 16.6818 18.851 18.2119 20.6679 18.208C22.4729 18.204 23.9834 16.7054 23.9953 14.9055C24.0071 13.0957 22.4789 11.5675 20.66 11.5715V11.5734Z" fill="#FF5887"/>
<path d="M17.3306 36.1556C17.3346 36.77 16.9233 37.0516 16.4034 36.9177C14.8395 36.51 13.3587 35.8976 11.9886 35.0449C8.25194 32.7231 5.77072 29.4541 4.5825 25.2221C4.43224 24.6884 4.5825 24.3201 4.98582 24.2059C5.40892 24.0858 5.74106 24.328 5.89527 24.8794C6.96091 28.69 9.18116 31.6518 12.5165 33.7826C13.7818 34.5919 15.1499 35.1847 16.607 35.5667C16.9866 35.6672 17.3227 35.8149 17.3306 36.1556Z" fill="#FF5887"/>
<path d="M5.1651 17.5457C4.68071 17.5378 4.41579 17.1321 4.55418 16.6063C5.06427 14.6646 5.90056 12.8706 7.08087 11.2439C9.40392 8.03989 12.4783 5.89534 16.3098 4.84373C16.8377 4.69801 17.2133 4.85949 17.3181 5.26516C17.4229 5.67281 17.1817 6.01152 16.6617 6.15134C13.7297 6.93512 11.2584 8.46723 9.2339 10.7122C7.64236 12.4767 6.53718 14.511 5.9065 16.7993C5.75426 17.3507 5.55458 17.5516 5.16312 17.5457H5.1651Z" fill="#FF5887"/>
<path d="M36.8381 16.8578C36.7986 17.2339 36.6286 17.4722 36.2865 17.5372C35.9287 17.6041 35.6499 17.4525 35.5234 17.1138C35.4028 16.7928 35.3395 16.4482 35.2248 16.1252C33.4297 11.0602 29.9579 7.73601 24.7899 6.1783C24.697 6.15073 24.6021 6.1271 24.5111 6.09559C24.1098 5.95971 23.916 5.63477 24.0129 5.26652C24.1078 4.90023 24.4854 4.70133 24.9046 4.81161C27.0042 5.36301 28.9338 6.27479 30.6637 7.58437C33.7124 9.89238 35.7586 12.8857 36.763 16.5742C36.7927 16.6805 36.8184 16.7869 36.8361 16.8597L36.8381 16.8578Z" fill="#FF5887"/>
<path d="M24.6922 36.9635C24.3561 36.9694 24.0615 36.7371 24.0061 36.418C23.9448 36.0655 24.1208 35.7701 24.4806 35.6461C25.1212 35.4294 25.7835 35.2601 26.4043 35.0001C31.0089 33.0663 34.016 29.7027 35.4237 24.9252C35.5245 24.5846 35.6273 24.2517 36.0484 24.1907C36.5842 24.1119 36.9263 24.557 36.774 25.132C36.171 27.4066 35.1331 29.4645 33.6424 31.2861C31.3588 34.0785 28.4723 35.9612 24.9729 36.9005C24.9057 36.9182 24.8405 36.9419 24.7732 36.9576C24.7475 36.9635 24.7179 36.9616 24.6902 36.9616L24.6922 36.9635Z" fill="#FF5887"/>
<path d="M22.6669 4.93703C22.6669 5.61447 22.6728 6.28994 22.6669 6.96737C22.655 8.05442 21.7653 8.91894 20.6641 8.91697C19.5649 8.91697 18.6772 8.04851 18.6712 6.95753C18.6653 5.60462 18.6633 4.25172 18.6712 2.89882C18.6752 1.80783 19.5668 0.949219 20.67 0.949219C21.7713 0.949219 22.655 1.81374 22.6649 2.90669C22.6708 3.58413 22.6649 4.2596 22.6649 4.93703H22.6669ZM19.9998 4.9331C19.9998 5.54161 19.9959 6.14815 19.9998 6.75666C20.0038 7.26474 20.2766 7.59164 20.676 7.58376C21.0615 7.57588 21.3284 7.25686 21.3304 6.77635C21.3363 5.54751 21.3363 4.31671 21.3304 3.08787C21.3284 2.60736 21.0595 2.29031 20.674 2.28243C20.2746 2.27455 20.0018 2.60145 19.9978 3.10953C19.9939 3.71804 19.9978 4.32458 19.9978 4.9331H19.9998Z" fill="#FF5887"/>
<path d="M4.66562 22.8589C3.98551 22.8589 3.30738 22.8648 2.62727 22.8589C1.53395 22.8471 0.666016 21.9629 0.666016 20.8679C0.666016 19.771 1.53197 18.8849 2.62727 18.879C3.98551 18.8711 5.34375 18.8711 6.702 18.879C7.79729 18.8849 8.66522 19.7691 8.66522 20.8679C8.66522 21.9648 7.79927 22.849 6.70398 22.8589C6.02386 22.8648 5.34573 22.8589 4.66562 22.8589ZM4.66562 20.2023C4.05471 20.2023 3.44577 20.1984 2.83486 20.2023C2.32477 20.2063 1.99658 20.478 2.00449 20.8758C2.0124 21.2598 2.33071 21.5257 2.81509 21.5277C4.04878 21.5336 5.28444 21.5336 6.51813 21.5277C7.00054 21.5277 7.32082 21.2598 7.32675 20.8738C7.33466 20.476 7.00647 20.2043 6.49638 20.2003C5.88547 20.1964 5.27653 20.2003 4.66562 20.2003V20.2023Z" fill="#FF5887"/>
<path d="M36.6498 22.8596C35.9697 22.8596 35.2916 22.8655 34.6115 22.8596C33.5241 22.8478 32.6621 21.9538 32.666 20.8529C32.67 19.7777 33.534 18.8876 34.6016 18.8817C35.9737 18.8718 37.3457 18.8738 38.7198 18.8817C39.8092 18.8876 40.6692 19.7856 40.6652 20.8864C40.6613 21.9597 39.7953 22.8478 38.7277 22.8596C38.0338 22.8675 37.3418 22.8596 36.6478 22.8596H36.6498ZM36.7091 20.205C36.0705 20.205 35.4339 20.1991 34.7953 20.205C34.3189 20.2109 33.9986 20.4906 34.0065 20.8766C34.0144 21.2488 34.3228 21.5264 34.7736 21.5284C36.035 21.5363 37.2983 21.5363 38.5597 21.5284C39.0104 21.5264 39.3208 21.2488 39.3287 20.8785C39.3366 20.4925 39.0183 20.2109 38.5419 20.205C37.931 20.1972 37.322 20.205 36.7111 20.205H36.7091Z" fill="#FF5887"/>
<path d="M22.6676 36.8003C22.6676 37.4777 22.6735 38.1532 22.6676 38.8306C22.6577 39.9216 21.77 40.7861 20.6708 40.7861C19.5695 40.7861 18.6779 39.9216 18.6719 38.8345C18.664 37.4816 18.664 36.1287 18.6719 34.7758C18.6779 33.6848 19.5656 32.8223 20.6668 32.8203C21.77 32.8203 22.6557 33.6809 22.6676 34.7719C22.6735 35.4473 22.6676 36.1248 22.6676 36.8022V36.8003ZM20.0005 36.8101C20.0005 37.4186 19.9966 38.0252 20.0005 38.6337C20.0045 39.1378 20.2872 39.4667 20.6846 39.4529C21.0701 39.4391 21.3291 39.122 21.3311 38.6376C21.3351 37.4088 21.337 36.178 21.3311 34.9491C21.3291 34.4706 21.0543 34.1535 20.6668 34.1516C20.2793 34.1516 20.0045 34.4686 20.0005 34.9452C19.9946 35.5675 20.0005 36.1878 20.0005 36.8101Z" fill="#FF5887"/>
</g>
<defs>
<clipPath id="clip0_6507_1275">
<rect width="40" height="39.8368" fill="white" transform="translate(0.666016 0.949219)"/>
</clipPath>
</defs>
</svg>
