<svg width="117" height="118" viewBox="0 0 117 118" fill="none" xmlns="http://www.w3.org/2000/svg">
<path d="M58.5004 0.875C90.6098 0.875 116.625 26.8906 116.625 59C116.625 91.1094 90.6098 117.125 58.5004 117.125C26.391 117.125 0.375389 91.1094 0.375389 59C0.375389 26.8906 26.391 0.875 58.5004 0.875ZM58.5004 105.875C84.2816 105.875 105.375 85.0156 105.375 59C105.375 33.2188 84.2816 12.125 58.5004 12.125C32.4848 12.125 11.6254 33.2188 11.6254 59C11.6254 85.0156 32.4848 105.875 58.5004 105.875ZM39.7504 55.25C35.5316 55.25 32.2504 51.9688 32.2504 47.75C32.2504 43.7656 35.5316 40.25 39.7504 40.25C43.7348 40.25 47.2504 43.7656 47.2504 47.75C47.2504 51.9688 43.7348 55.25 39.7504 55.25ZM77.2504 40.25C81.2348 40.25 84.7504 43.7656 84.7504 47.75C84.7504 51.9688 81.2348 55.25 77.2504 55.25C73.0316 55.25 69.7504 51.9688 69.7504 47.75C69.7504 43.7656 73.0316 40.25 77.2504 40.25ZM58.5004 70.25C67.8754 70.25 76.7816 74.4688 82.641 81.7344C84.7504 84.0781 84.2816 87.5938 81.9379 89.7031C79.5941 91.8125 76.0785 91.1094 73.9691 89C70.2191 84.3125 64.3598 81.5 58.5004 81.5C52.4066 81.5 46.5473 84.3125 42.7973 89C40.6879 91.3438 37.1723 91.5781 34.8285 89.7031C32.4848 87.5938 32.016 84.0781 34.1254 81.7344C40.2191 74.4688 48.891 70.25 58.5004 70.25Z" fill="black"/>
</svg>
