<svg width="11" height="10" viewBox="0 0 11 10" fill="none" xmlns="http://www.w3.org/2000/svg">
<g clip-path="url(#clip0_7178_833)">
<path d="M2.04688 1.57227C2.04688 1.57227 2.28288 1.33626 2.75488 0.864258C3.22689 0.392253 4.13346 0.15625 5.47461 0.15625C6.81576 0.15625 7.95833 0.628255 8.90234 1.57227C9.84635 2.51628 10.3184 3.65885 10.3184 5C10.3184 6.34115 9.84635 7.48372 8.90234 8.42773C7.95833 9.37174 6.81576 9.84375 5.47461 9.84375C4.13346 9.84375 2.99089 9.37174 2.04688 8.42773C1.10286 7.48372 0.630859 6.34115 0.630859 5C0.630859 3.65885 1.10286 2.51628 2.04688 1.57227ZM2.71094 7.76367C2.71094 7.76367 2.90137 7.9541 3.28223 8.33496C3.66309 8.71582 4.39388 8.90625 5.47461 8.90625C6.55534 8.90625 7.47656 8.52539 8.23828 7.76367C9 7.00195 9.38086 6.08073 9.38086 5C9.38086 3.91927 9 2.99805 8.23828 2.23633C7.47656 1.47461 6.55534 1.09375 5.47461 1.09375C4.39388 1.09375 3.47266 1.47461 2.71094 2.23633C1.94922 2.99805 1.56836 3.91927 1.56836 5C1.56836 6.08073 1.94922 7.00195 2.71094 7.76367Z" fill="#A1A1AA"/>
</g>
<defs>
<clipPath id="clip0_7178_833">
<rect width="10.5" height="10" fill="white" transform="matrix(1 0 0 -1 0.380859 10)"/>
</clipPath>
</defs>
</svg>
