<svg width="15" height="15" viewBox="0 0 15 15" fill="none" xmlns="http://www.w3.org/2000/svg">
<path d="M14.1328 7.75C14.1328 11.4961 11.0703 14.5312 7.35156 14.5312C3.60547 14.5312 0.570312 11.4961 0.570312 7.75C0.570312 4.03125 3.60547 0.96875 7.35156 0.96875C11.0703 0.96875 14.1328 4.03125 14.1328 7.75ZM6.55859 11.3594L11.5898 6.32812C11.7539 6.16406 11.7539 5.86328 11.5898 5.69922L10.9609 5.09766C10.7969 4.90625 10.5234 4.90625 10.3594 5.09766L6.25781 9.19922L4.31641 7.28516C4.15234 7.09375 3.87891 7.09375 3.71484 7.28516L3.08594 7.88672C2.92188 8.05078 2.92188 8.35156 3.08594 8.51562L5.92969 11.3594C6.09375 11.5234 6.39453 11.5234 6.55859 11.3594Z" fill="#FF5887"/>
</svg>
