<svg width="15" height="15" viewBox="0 0 15 15" fill="none" xmlns="http://www.w3.org/2000/svg">
<path d="M14.1328 7.25C14.1328 10.9961 11.0703 14.0312 7.35156 14.0312C3.60547 14.0312 0.570312 10.9961 0.570312 7.25C0.570312 3.53125 3.60547 0.46875 7.35156 0.46875C11.0703 0.46875 14.1328 3.53125 14.1328 7.25ZM6.55859 10.8594L11.5898 5.82812C11.7539 5.66406 11.7539 5.36328 11.5898 5.19922L10.9609 4.59766C10.7969 4.40625 10.5234 4.40625 10.3594 4.59766L6.25781 8.69922L4.31641 6.78516C4.15234 6.59375 3.87891 6.59375 3.71484 6.78516L3.08594 7.38672C2.92188 7.55078 2.92188 7.85156 3.08594 8.01562L5.92969 10.8594C6.09375 11.0234 6.39453 11.0234 6.55859 10.8594Z" fill="#FF5887"/>
</svg>
