<svg width="124" height="81" viewBox="0 0 124 81" fill="none" xmlns="http://www.w3.org/2000/svg">
<path fill-rule="evenodd" clip-rule="evenodd" d="M102.107 69.6562V26.9062C102.107 25.2493 100.764 23.9062 99.1072 23.9062H26.5625C24.9056 23.9062 23.5625 25.2493 23.5625 26.9062V69.6562" fill="white"/>
<path d="M102.107 69.6562V26.9062C102.107 25.2493 100.764 23.9062 99.1072 23.9062H26.5625C24.9056 23.9062 23.5625 25.2493 23.5625 26.9062V69.6562H102.107Z" stroke="#747474" stroke-width="2" stroke-linecap="round" stroke-linejoin="round"/>
<path fill-rule="evenodd" clip-rule="evenodd" d="M15.1816 69.6638L109.732 69.6562V72.7562C109.732 74.413 108.389 75.7562 106.732 75.7562H18.1816C16.5247 75.7562 15.1816 74.413 15.1816 72.7562V69.6638Z" fill="white" stroke="#747474" stroke-width="2" stroke-linecap="round" stroke-linejoin="round"/>
<path d="M36.457 44.8066H56.457M36.457 52.8066H46.457" stroke="#B9BABB" stroke-width="3" stroke-linecap="round" stroke-linejoin="round"/>
<path d="M77.9273 55.2164C80.9395 56.7455 84.3476 57.6074 87.957 57.6074C100.211 57.6074 110.145 47.6737 110.145 35.4199C110.145 23.1661 100.211 13.2324 87.957 13.2324C75.7032 13.2324 65.7695 23.1661 65.7695 35.4199C65.7695 41.5402 68.2476 47.0817 72.2551 51.0958V59.2872C72.2551 59.8723 72.9622 60.1659 73.3766 59.7527L77.9273 55.2164Z" fill="#49516F"/>
<path d="M92.5331 35.9311C93.2131 36.3943 93.9456 36.8061 94.5794 37.3386C96.7675 39.1755 97.957 41.5368 98.0542 44.4289C98.0892 45.4568 97.7564 45.801 96.7197 45.8026C92.7879 45.8074 88.8561 45.8042 84.9242 45.8042C83.4146 45.8042 81.9065 45.8106 80.3968 45.8026C79.3458 45.7978 79.0002 45.423 79.0639 44.3646C79.2869 40.6264 81.0896 37.9192 84.335 36.1595C84.421 36.1129 84.5054 36.063 84.5898 36.0115C84.6057 36.0019 84.6121 35.9793 84.6424 35.9359C82.9209 34.5349 81.9288 32.7575 81.9463 30.4702C81.9606 28.6123 82.6247 27.0311 83.9258 25.7331C86.5693 23.0967 90.7957 23.1836 93.3739 25.8875C95.7722 28.4016 96.1416 33.002 92.5347 35.9295L92.5331 35.9311ZM95.8868 43.6777C95.7276 40.2773 92.1286 37.1536 88.4946 37.226C84.7952 37.2983 81.2456 40.4446 81.2504 43.6777H95.8868ZM88.52 35.151C91.0266 35.167 93.1175 33.0937 93.151 30.557C93.1844 28.0526 91.0967 25.9036 88.5997 25.8778C86.1059 25.8521 83.9926 27.9544 83.9799 30.4782C83.9656 33.0261 86.0167 35.1365 88.52 35.1526V35.151Z" fill="white"/>
</svg>
