<svg width="18" height="18" viewBox="0 0 18 18" fill="none" xmlns="http://www.w3.org/2000/svg">
<g clip-path="url(#clip0_6507_1521)">
<path d="M15.4272 14.3064L15.0072 13.8792L14.7612 14.1192L14.8452 14.4516L15.4272 14.3064ZM16.2 17.4L16.0548 17.982C16.1552 18.007 16.2605 18.0056 16.3602 17.9779C16.46 17.9503 16.5508 17.8972 16.624 17.824C16.6972 17.7508 16.7503 17.66 16.7779 17.5602C16.8056 17.4605 16.807 17.3552 16.782 17.2548L16.2 17.4ZM11.4 16.2L10.9752 15.7752L10.2264 16.5252L11.2548 16.782L11.4 16.2ZM11.43 16.17L11.8536 16.5948C11.9412 16.5076 11.9996 16.3954 12.0211 16.2737C12.0425 16.152 12.0258 16.0266 11.9733 15.9147C11.9207 15.8029 11.835 15.7099 11.7276 15.6487C11.6203 15.5874 11.4966 15.5608 11.3736 15.5724L11.43 16.17ZM8.4 0V3H9.6V0H8.4ZM10.8 2.4H7.2V3.6H10.8V2.4ZM18 9.6C18 7.69044 17.2414 5.85909 15.8912 4.50883C14.5409 3.15857 12.7096 2.4 10.8 2.4V3.6C11.5879 3.6 12.3681 3.75519 13.0961 4.05672C13.8241 4.35825 14.4855 4.80021 15.0426 5.35736C15.5998 5.91451 16.0418 6.57595 16.3433 7.3039C16.6448 8.03185 16.8 8.81207 16.8 9.6H18ZM15.8472 14.7348C16.53 14.0652 17.0722 13.266 17.4419 12.384C17.8115 11.5021 18.0013 10.5563 18 9.6H16.8C16.8013 10.397 16.6433 11.1851 16.3352 11.9202C16.0271 12.6552 15.5764 13.3213 15.0072 13.8792L15.8472 14.7348ZM16.7832 17.2548L16.008 14.16L14.844 14.4504L15.6168 17.544L16.7832 17.2548ZM11.2548 16.782L16.0548 17.982L16.3452 16.818L11.5452 15.618L11.2548 16.782ZM11.0052 15.7464L10.9752 15.7752L11.8248 16.6236L11.8536 16.5948L11.0052 15.7464ZM10.8 16.8C11.0316 16.8 11.2608 16.788 11.4864 16.7676L11.3736 15.5724C11.1829 15.5906 10.9915 15.5999 10.8 15.6V16.8ZM7.2 16.8H10.8V15.6H7.2V16.8ZM0 9.6C0 11.5096 0.758569 13.3409 2.10883 14.6912C3.45909 16.0414 5.29044 16.8 7.2 16.8V15.6C6.41207 15.6 5.63185 15.4448 4.9039 15.1433C4.17595 14.8418 3.51451 14.3998 2.95736 13.8426C1.83214 12.7174 1.2 11.1913 1.2 9.6H0ZM7.2 2.4C5.29044 2.4 3.45909 3.15857 2.10883 4.50883C0.758569 5.85909 0 7.69044 0 9.6H1.2C1.2 8.0087 1.83214 6.48258 2.95736 5.35736C4.08258 4.23214 5.6087 3.6 7.2 3.6V2.4ZM9 9.6C8.52261 9.6 8.06477 9.41036 7.72721 9.07279C7.38964 8.73523 7.2 8.27739 7.2 7.8H6C6 8.59565 6.31607 9.35871 6.87868 9.92132C7.44129 10.4839 8.20435 10.8 9 10.8V9.6ZM10.8 7.8C10.8 8.27739 10.6104 8.73523 10.2728 9.07279C9.93523 9.41036 9.47739 9.6 9 9.6V10.8C9.79565 10.8 10.5587 10.4839 11.1213 9.92132C11.6839 9.35871 12 8.59565 12 7.8H10.8ZM9 6C9.47739 6 9.93523 6.18964 10.2728 6.52721C10.6104 6.86477 10.8 7.32261 10.8 7.8H12C12 7.00435 11.6839 6.24129 11.1213 5.67868C10.5587 5.11607 9.79565 4.8 9 4.8V6ZM9 4.8C8.20435 4.8 7.44129 5.11607 6.87868 5.67868C6.31607 6.24129 6 7.00435 6 7.8H7.2C7.2 7.32261 7.38964 6.86477 7.72721 6.52721C8.06477 6.18964 8.52261 6 9 6V4.8ZM9 14.4C10.2768 14.4 11.4504 13.956 12.3756 13.2156L11.6244 12.2796C10.9044 12.8556 9.9936 13.2 9 13.2V14.4ZM5.6244 13.2156C6.5484 13.956 7.7244 14.4 9 14.4V13.2C8.04578 13.2018 7.11969 12.877 6.3756 12.2796L5.6244 13.2156Z" fill="#637381"/>
</g>
<defs>
<clipPath id="clip0_6507_1521">
<rect width="18" height="18" fill="white"/>
</clipPath>
</defs>
</svg>
