<svg width="241" height="81" viewBox="0 0 241 81" fill="none" xmlns="http://www.w3.org/2000/svg">
<path d="M82.668 8.30664C82.668 7.20207 83.5634 6.30664 84.668 6.30664H149.668C150.773 6.30664 151.668 7.20207 151.668 8.30664V78.3066H82.668V8.30664Z" fill="white" stroke="#747474" stroke-width="2"/>
<path d="M140.773 63.3066H120.773C119.668 63.3066 118.773 64.202 118.773 65.3066V68.3066C118.773 69.4112 119.668 70.3066 120.773 70.3066H140.773C141.877 70.3066 142.773 69.4112 142.773 68.3066V65.3066C142.773 64.202 141.877 63.3066 140.773 63.3066Z" fill="#FF5887"/>
<path d="M111.668 39.3066H91.668C90.5634 39.3066 89.668 40.202 89.668 41.3066V44.3066C89.668 45.4112 90.5634 46.3066 91.668 46.3066H111.668C112.773 46.3066 113.668 45.4112 113.668 44.3066V41.3066C113.668 40.202 112.773 39.3066 111.668 39.3066Z" fill="#DCDDDD"/>
<path d="M111.668 52.3066H91.668C90.5634 52.3066 89.668 53.202 89.668 54.3066V57.3066C89.668 58.4112 90.5634 59.3066 91.668 59.3066H111.668C112.773 59.3066 113.668 58.4112 113.668 57.3066V54.3066C113.668 53.202 112.773 52.3066 111.668 52.3066Z" fill="#FF5887"/>
<path d="M111.668 21.3066H91.668C90.5634 21.3066 89.668 22.202 89.668 23.3066V26.3066C89.668 27.4112 90.5634 28.3066 91.668 28.3066H111.668C112.773 28.3066 113.668 27.4112 113.668 26.3066V23.3066C113.668 22.202 112.773 21.3066 111.668 21.3066Z" fill="#DCDDDD"/>
<path d="M140.773 29.3066H120.773C119.668 29.3066 118.773 30.202 118.773 31.3066V34.3066C118.773 35.4112 119.668 36.3066 120.773 36.3066H140.773C141.877 36.3066 142.773 35.4112 142.773 34.3066V31.3066C142.773 30.202 141.877 29.3066 140.773 29.3066Z" fill="#FF5887"/>
<path d="M81.668 8.30664C81.668 6.64979 83.0111 5.30664 84.668 5.30664H149.668C151.325 5.30664 152.668 6.64979 152.668 8.30664V15.3066H81.668V8.30664Z" fill="#FF5887"/>
<path d="M42.3306 78.3066H35.668M194.168 78.3066H51.214" stroke="#747474" stroke-width="2" stroke-linecap="round" stroke-linejoin="round"/>
<path d="M167.168 45.6702C167.168 39.3943 172.256 34.3066 178.532 34.3066H200.19C206.466 34.3066 211.554 39.3943 211.554 45.6702C211.554 51.9462 206.466 57.0339 200.19 57.0339H178.532C172.256 57.0339 167.168 51.9462 167.168 45.6702Z" fill="white"/>
<path fill-rule="evenodd" clip-rule="evenodd" d="M200.545 45.6319C200.545 44.0629 201.787 42.791 203.319 42.791C204.851 42.791 206.093 44.0629 206.093 45.6319H200.545Z" fill="#747474"/>
<path fill-rule="evenodd" clip-rule="evenodd" d="M172.805 45.6319C172.805 44.0629 174.047 42.791 175.579 42.791C177.111 42.791 178.353 44.0629 178.353 45.6319H172.805Z" fill="#747474"/>
<path fill-rule="evenodd" clip-rule="evenodd" d="M192.921 46.3906C192.921 47.7543 191.233 48.8598 189.151 48.8598C187.069 48.8598 185.381 47.7543 185.381 46.3906H192.921Z" fill="#747474"/>
<path fill-rule="evenodd" clip-rule="evenodd" d="M164.668 45.6702C164.668 38.0136 170.875 31.8066 178.532 31.8066H200.19C207.847 31.8066 214.054 38.0136 214.054 45.6702C214.054 53.3269 207.847 59.5339 200.19 59.5339H185.735L175.085 64.0983V59.102C169.096 57.5696 164.668 52.137 164.668 45.6702ZM178.532 34.3066C172.256 34.3066 167.168 39.3943 167.168 45.6702C167.168 51.9462 172.256 57.0339 178.532 57.0339H200.19C206.466 57.0339 211.554 51.9462 211.554 45.6702C211.554 39.3943 206.466 34.3066 200.19 34.3066H178.532Z" fill="#FF5887"/>
<path fill-rule="evenodd" clip-rule="evenodd" d="M34.3542 12.6723C45.2268 6.39509 59.1295 10.1203 65.4068 20.9929C68.5422 26.4234 69.1821 32.6099 67.6825 38.2246L71.9996 45.7015C72.0755 45.8329 72.0962 45.989 72.0571 46.1356C71.9757 46.4415 71.6617 46.6235 71.3557 46.542L64.7607 44.7859C62.8714 47.6858 60.2889 50.1964 57.0863 52.0454C46.2137 58.3227 32.311 54.5975 26.0337 43.7249C19.7564 32.8523 23.4817 18.9496 34.3542 12.6723Z" fill="white" stroke="#FF5887" stroke-width="2"/>
<path d="M48.9644 32.88C49.6086 33.3222 50.3026 33.7152 50.903 34.2235C52.9759 35.9769 54.1029 38.2309 54.1949 40.9915C54.2281 41.9727 53.9128 42.3012 52.9307 42.3028C49.2058 42.3074 45.4809 42.3043 41.756 42.3043C40.3258 42.3043 38.8971 42.3105 37.4669 42.3028C36.4712 42.2982 36.1438 41.9404 36.2042 40.9301C36.4154 37.3618 38.1232 34.7777 41.1978 33.098C41.2793 33.0535 41.3593 33.0059 41.4392 32.9568C41.4543 32.9475 41.4603 32.926 41.489 32.8846C39.8582 31.5472 38.9183 29.8506 38.9349 27.6673C38.9484 25.8939 39.5775 24.3846 40.8101 23.1455C43.3145 20.629 47.3185 20.7119 49.761 23.2929C52.033 25.6927 52.383 30.084 48.9659 32.8785L48.9644 32.88ZM52.1416 40.2745C51.9908 37.0287 48.5812 34.0469 45.1385 34.116C41.6338 34.1851 38.271 37.1883 38.2756 40.2745H52.1416ZM45.1626 32.1353C47.5372 32.1507 49.5181 30.1715 49.5498 27.7502C49.5815 25.3596 47.6036 23.3083 45.238 23.2837C42.8755 23.2591 40.8735 25.2659 40.8614 27.675C40.8478 30.107 42.791 32.1215 45.1626 32.1368V32.1353Z" fill="#FF5887"/>
</svg>
