<svg width="14" height="19" viewBox="0 0 14 19" fill="none" xmlns="http://www.w3.org/2000/svg">
<path d="M12.8563 9.1375C12.8563 12.4287 10.1656 15.0953 6.89844 15.0953C3.60723 15.0953 0.940625 12.4287 0.940625 9.1375C0.940625 5.87031 3.60723 3.17969 6.89844 3.17969C10.1656 3.17969 12.8563 5.87031 12.8563 9.1375ZM6.20176 12.3086L10.6221 7.88828C10.7662 7.74414 10.7662 7.47988 10.6221 7.33574L10.0695 6.80723C9.92539 6.63906 9.68516 6.63906 9.54102 6.80723L5.9375 10.4107L4.23184 8.7291C4.0877 8.56094 3.84746 8.56094 3.70332 8.7291L3.15078 9.25762C3.00664 9.40176 3.00664 9.66602 3.15078 9.81016L5.64922 12.3086C5.79336 12.4527 6.05762 12.4527 6.20176 12.3086Z" fill="#FF5887"/>
</svg>
