<svg width="15" height="18" viewBox="0 0 15 18" fill="none" xmlns="http://www.w3.org/2000/svg">
<path d="M7.54102 1.45898C11.2598 1.45898 14.3223 4.52148 14.3223 8.24023C14.3223 11.9863 11.2598 15.0215 7.54102 15.0215C3.79492 15.0215 0.759766 11.9863 0.759766 8.24023C0.759766 4.52148 3.79492 1.45898 7.54102 1.45898ZM7.54102 2.77148C4.50586 2.77148 2.07227 5.23242 2.07227 8.24023C2.07227 11.2754 4.50586 13.709 7.54102 13.709C10.5488 13.709 13.0098 11.2754 13.0098 8.24023C13.0098 5.23242 10.5488 2.77148 7.54102 2.77148ZM11.3691 6.35352C11.4785 6.46289 11.4785 6.68164 11.3691 6.81836L6.63867 11.4941C6.50195 11.6309 6.31055 11.6309 6.17383 11.4941L3.68555 8.97852C3.57617 8.86914 3.57617 8.65039 3.68555 8.51367L4.31445 7.91211C4.45117 7.77539 4.64258 7.77539 4.7793 7.91211L6.41992 9.55273L10.2754 5.72461C10.4121 5.58789 10.6309 5.58789 10.7402 5.72461L11.3691 6.35352Z" fill="#38A169"/>
</svg>
