<svg width="33" height="33" viewBox="0 0 33 33" fill="none" xmlns="http://www.w3.org/2000/svg">
<path d="M13.7697 22.7909L7.58203 16.6018L9.64411 14.5397L13.7697 18.6639L22.0181 10.4141L24.0816 12.4776L13.7697 22.7909Z" fill="#14C8B0"/>
<path fill-rule="evenodd" clip-rule="evenodd" d="M0.289062 16.4987C0.289062 7.63932 7.47135 0.457031 16.3307 0.457031C25.1901 0.457031 32.3724 7.63932 32.3724 16.4987C32.3724 25.3581 25.1901 32.5404 16.3307 32.5404C7.47135 32.5404 0.289062 25.3581 0.289062 16.4987ZM16.3307 29.6237C14.6071 29.6237 12.9004 29.2842 11.308 28.6246C9.71561 27.965 8.26872 26.9982 7.04995 25.7795C5.83118 24.5607 4.8644 23.1138 4.20481 21.5214C3.54522 19.929 3.20573 18.2223 3.20573 16.4987C3.20573 14.7751 3.54522 13.0684 4.20481 11.476C4.8644 9.88358 5.83118 8.43669 7.04995 7.21792C8.26872 5.99915 9.71561 5.03237 11.308 4.37278C12.9004 3.71319 14.6071 3.3737 16.3307 3.3737C19.8117 3.3737 23.1501 4.75651 25.6115 7.21792C28.0729 9.67934 29.4557 13.0177 29.4557 16.4987C29.4557 19.9797 28.0729 23.3181 25.6115 25.7795C23.1501 28.2409 19.8117 29.6237 16.3307 29.6237Z" fill="#14C8B0"/>
</svg>
