<svg width="112" height="112" viewBox="0 0 112 112" fill="none" xmlns="http://www.w3.org/2000/svg">
<path d="M15.8594 17.6094C15.8594 17.6094 18.5026 14.9661 23.7891 9.67969C29.0755 4.39323 39.2292 1.75 54.25 1.75C69.2708 1.75 82.0677 7.03646 92.6406 17.6094C103.214 28.1823 108.5 40.9792 108.5 56C108.5 71.0208 103.214 83.8177 92.6406 94.3906C82.0677 104.964 69.2708 110.25 54.25 110.25C39.2292 110.25 26.4323 104.964 15.8594 94.3906C5.28646 83.8177 0 71.0208 0 56C0 40.9792 5.28646 28.1823 15.8594 17.6094ZM85.2031 25.0469C85.2031 25.0469 83.0703 22.9141 78.8047 18.6484C74.5391 14.3828 66.3542 12.25 54.25 12.25C42.1458 12.25 31.8281 16.5156 23.2969 25.0469C14.7656 33.5781 10.5 43.8958 10.5 56C10.5 68.1042 14.7656 78.4219 23.2969 86.9531C31.8281 95.4844 42.1458 99.75 54.25 99.75C66.3542 99.75 76.6719 95.4844 85.2031 86.9531C93.7344 78.4219 98 68.1042 98 56C98 43.8958 93.7344 33.5781 85.2031 25.0469ZM84.875 40.6875C86.1875 42 86.1875 43.2396 84.875 44.4062L47.25 81.8125C45.9375 83.125 44.6979 83.125 43.5312 81.8125L23.625 61.9062C22.3125 60.5938 22.3125 59.3542 23.625 58.1875L28.6562 53.1562C29.8229 51.9896 31.0625 51.9896 32.375 53.1562L45.2812 66.5L76.3438 35.6562C77.5104 34.4896 78.75 34.5625 80.0625 35.875L84.875 40.6875Z" fill="#38A169"/>
</svg>
