<svg width="14" height="15" viewBox="0 0 14 15" fill="none" xmlns="http://www.w3.org/2000/svg">
<path d="M13.9316 7.36133C13.9316 11.1074 10.8691 14.1426 7.15039 14.1426C3.4043 14.1426 0.369141 11.1074 0.369141 7.36133C0.369141 3.64258 3.4043 0.580078 7.15039 0.580078C10.8691 0.580078 13.9316 3.64258 13.9316 7.36133ZM6.35742 10.9707L11.3887 5.93945C11.5527 5.77539 11.5527 5.47461 11.3887 5.31055L10.7598 4.70898C10.5957 4.51758 10.3223 4.51758 10.1582 4.70898L6.05664 8.81055L4.11523 6.89648C3.95117 6.70508 3.67773 6.70508 3.51367 6.89648L2.88477 7.49805C2.7207 7.66211 2.7207 7.96289 2.88477 8.12695L5.72852 10.9707C5.89258 11.1348 6.19336 11.1348 6.35742 10.9707Z" fill="#38A169"/>
</svg>
