<svg width="25" height="32" viewBox="0 0 25 32" fill="none" xmlns="http://www.w3.org/2000/svg">
<g clip-path="url(#clip0_3777_18985)">
<path d="M11.0628 12.1133C11.0628 12.1133 10.778 12.3981 10.2083 12.9678C9.63867 13.5374 8.54004 13.8223 6.91243 13.8223C5.28483 13.8223 3.90137 13.2526 2.76204 12.1133C1.62272 10.974 1.05306 9.59049 1.05306 7.96289C1.05306 6.33529 1.62272 4.95182 2.76204 3.8125C3.90137 2.67318 5.28483 2.10352 6.91243 2.10352C8.54004 2.10352 9.9235 2.67318 11.0628 3.8125C12.2021 4.95182 12.7718 6.33529 12.7718 7.96289C12.7718 9.59049 12.2021 10.974 11.0628 12.1133ZM8.98763 5.8877C8.98763 5.8877 8.84521 5.74528 8.56038 5.46045C8.27555 5.17562 7.72624 5.0332 6.91243 5.0332C6.09863 5.0332 5.4069 5.31803 4.83724 5.8877C4.26758 6.45736 3.98275 7.14909 3.98275 7.96289C3.98275 8.77669 4.26758 9.46842 4.83724 10.0381C5.4069 10.6077 6.09863 10.8926 6.91243 10.8926C7.72624 10.8926 8.41797 10.6077 8.98763 10.0381C9.55729 9.46842 9.84212 8.77669 9.84212 7.96289C9.84212 7.14909 9.55729 6.45736 8.98763 5.8877ZM14.4808 19.4375C14.4808 19.4375 14.7656 19.1527 15.3353 18.583C15.9049 18.0133 17.0036 17.7285 18.6312 17.7285C20.2588 17.7285 21.6423 18.2982 22.7816 19.4375C23.9209 20.5768 24.4906 21.9603 24.4906 23.5879C24.4906 25.2155 23.9209 26.599 22.7816 27.7383C21.6423 28.8776 20.2588 29.4473 18.6312 29.4473C17.0036 29.4473 15.6201 28.8776 14.4808 27.7383C13.3415 26.599 12.7718 25.2155 12.7718 23.5879C12.7718 21.9603 13.3415 20.5768 14.4808 19.4375ZM16.556 25.6631C16.556 25.6631 16.6984 25.8055 16.9832 26.0903C17.2681 26.3752 17.8174 26.5176 18.6312 26.5176C19.445 26.5176 20.1367 26.2327 20.7064 25.6631C21.276 25.0934 21.5609 24.4017 21.5609 23.5879C21.5609 22.7741 21.276 22.0824 20.7064 21.5127C20.1367 20.943 19.445 20.6582 18.6312 20.6582C17.8174 20.6582 17.1257 20.943 16.556 21.5127C15.9863 22.0824 15.7015 22.7741 15.7015 23.5879C15.7015 24.4017 15.9863 25.0934 16.556 25.6631ZM24.3685 3.26318L4.53206 29.1421C4.3693 29.3455 4.1862 29.4473 3.98275 29.4473H1.78548C1.50065 29.4473 1.28703 29.315 1.14461 29.0505C1.0022 28.7861 1.01237 28.5317 1.17513 28.2876L21.0116 2.40869C21.1743 2.20524 21.3778 2.10352 21.6219 2.10352H23.7581C24.043 2.10352 24.2566 2.23576 24.399 2.50024C24.5414 2.76473 24.5312 3.01904 24.3685 3.26318Z" fill="#FDF2F8"/>
</g>
<defs>
<clipPath id="clip0_3777_18985">
<rect width="23.63" height="31.25" fill="white" transform="matrix(1 0 0 -1 0.949219 31.4004)"/>
</clipPath>
</defs>
</svg>
