<svg width="41" height="47" viewBox="0 0 41 47" fill="none" xmlns="http://www.w3.org/2000/svg">
<g clip-path="url(#clip0_6507_1293)">
<path d="M20.6489 37.3321C19.011 37.3321 17.3718 37.3346 15.7338 37.3321C15.1239 37.3321 15.0077 37.2228 14.9004 36.6188C14.668 35.3228 14.0568 34.1988 13.2473 33.1828C12.2685 31.9558 11.2393 30.7691 10.2543 29.5471C8.66054 27.5717 7.57826 25.3627 7.1994 22.8347C5.958 14.5486 11.382 8.16268 18.1977 6.93321C25.6284 5.59323 32.751 10.4483 34.0593 17.8163C34.8637 22.3449 33.7751 26.4101 30.7733 29.949C29.7176 31.1936 28.6833 32.4569 27.6894 33.7504C27.0138 34.6283 26.5819 35.6367 26.4202 36.7456C26.3571 37.1776 26.0919 37.3396 25.66 37.3359C23.9905 37.3246 22.3197 37.3308 20.6502 37.3308L20.6489 37.3321ZM24.0662 36.1943C24.3971 36.1943 24.6497 36.1755 24.8997 36.1993C25.2167 36.2282 25.319 36.1089 25.4478 35.8037C25.8519 34.8443 26.2358 33.8459 26.8256 32.9995C27.7109 31.7298 28.7388 30.5518 29.7529 29.3763C32.6474 26.0207 33.6994 22.1779 32.8772 17.8402C31.2292 9.16107 20.9343 4.98415 13.6236 10.0452C10.4046 12.2743 8.60244 15.3662 8.26021 19.2731C8.0291 21.9079 8.43448 24.417 9.74281 26.7516C10.6546 28.3792 11.9061 29.7506 13.1033 31.1622C14.3257 32.6039 15.4851 34.0832 15.9485 35.9708C15.97 36.0587 16.1026 36.178 16.1897 36.183C16.5421 36.2069 16.8969 36.1931 17.2682 36.1931C17.2682 35.2575 17.2657 34.3959 17.2682 33.5344C17.2708 32.9417 17.4551 32.7596 18.0651 32.747C18.3897 32.7407 18.7155 32.747 19.0969 32.747C18.9238 31.5678 18.7609 30.4601 18.5993 29.3575C17.4147 29.1566 16.58 28.5525 16.1708 27.465C16.0533 27.1548 15.9106 27.0857 15.605 27.0681C14.404 26.9978 13.5756 26.3674 13.1121 25.2823C12.775 24.4924 12.8532 23.6937 13.1942 22.9201C10.8668 21.7471 10.7455 18.7143 13.1096 17.3944C12.7648 16.4098 12.8242 15.4604 13.4569 14.5926C14.0871 13.7286 14.9761 13.3744 16.0129 13.4008C16.0571 13.3091 16.09 13.2539 16.1114 13.1961C16.6242 11.7795 17.7039 11.0587 19.1916 11.1805C19.698 11.2219 20.169 11.3601 20.7095 11.1867C21.1667 11.0411 21.7085 11.1466 22.2123 11.1566C22.9966 11.1729 23.4348 11.5962 23.4765 12.3735C23.4929 12.6699 23.5005 12.97 23.4765 13.2664C23.45 13.5917 23.5737 13.7374 23.8743 13.8969C24.3327 14.138 24.6194 14.035 24.906 13.667C25.05 13.4824 25.2319 13.3267 25.4049 13.1672C25.9605 12.6498 26.5755 12.6372 27.1249 13.1534C27.5833 13.5829 28.0304 14.0262 28.4623 14.4821C28.9586 15.0058 28.956 15.645 28.4572 16.1649C28.1428 16.4927 27.798 16.7916 27.4684 17.103C27.63 17.4785 27.7702 17.8013 27.9091 18.124C28.3549 18.124 28.7641 18.1202 29.1733 18.124C30.0244 18.1341 30.469 18.5774 30.4829 19.4376C30.4904 19.8922 30.4841 20.3469 30.4841 20.8015C30.4841 22.0033 30.1141 22.3738 28.9118 22.3738C28.2333 22.3738 27.7681 22.6769 27.5164 23.283C27.5063 23.3081 27.5151 23.342 27.5151 23.4325C27.8157 23.7175 28.1579 24.0202 28.4711 24.3492C28.9346 24.8352 28.9573 25.4669 28.5065 25.9592C28.0506 26.4565 27.5694 26.935 27.0719 27.3896C26.5528 27.8631 25.9466 27.8317 25.4225 27.3457C25.2154 27.1535 24.9843 26.9727 24.8265 26.7441C24.5335 26.3171 24.2279 26.4854 23.8541 26.6097C23.4626 26.7403 23.4676 26.994 23.4803 27.2992C23.4891 27.5177 23.5219 27.7475 23.4702 27.9547C23.3969 28.2486 23.335 28.6254 23.1267 28.7899C22.7566 29.0837 22.7124 29.4504 22.6531 29.8435C22.5975 30.214 22.5407 30.5857 22.4889 30.9575C22.4094 31.5364 22.3336 32.1166 22.2502 32.7395C22.624 32.7395 22.9208 32.737 23.2176 32.7395C23.8768 32.747 24.0662 32.9329 24.0675 33.5746C24.07 34.4324 24.0675 35.2901 24.0675 36.1956L24.0662 36.1943ZM16.023 25.9203C16.2541 25.0173 16.7454 24.3178 17.5839 23.8921C18.0941 23.6334 18.425 23.6811 18.6119 24.0252C18.8039 24.3794 18.6612 24.6381 18.1244 24.9118C18.0689 24.9407 18.0133 24.9696 17.9603 25.0035C17.1899 25.4832 16.9209 26.4728 17.3427 27.269C17.7696 28.0766 18.7205 28.4094 19.5629 28.0552C19.9101 27.9095 20.092 27.7174 20.0907 27.2854C20.0718 22.63 20.0781 17.9746 20.0781 13.3204C20.0781 12.6787 19.9897 12.528 19.3557 12.376C19.0628 12.3057 18.7256 12.2982 18.4313 12.366C17.7317 12.5267 17.2278 13.1258 17.1621 13.7801C17.0813 14.5901 17.4286 15.2255 18.1522 15.5897C18.6473 15.8384 18.7963 16.1122 18.622 16.4487C18.4503 16.7803 18.0689 16.892 17.6433 16.6082C17.1962 16.3093 16.7858 15.9338 16.4335 15.5269C16.2099 15.2695 16.1241 14.894 15.9801 14.5788C14.7236 14.3841 13.7827 15.694 14.1098 16.715C14.2058 17.0138 14.3333 17.1545 14.6528 17.1721C15.355 17.2123 15.9561 17.5036 16.4663 17.9796C16.83 18.3187 16.8868 18.6452 16.6418 18.9177C16.3968 19.1915 16.0609 19.1651 15.6947 18.8436C15.624 18.7808 15.5558 18.7155 15.48 18.659C14.8713 18.2044 13.9898 18.1868 13.3546 18.6138C12.7055 19.0508 12.4075 19.8382 12.6083 20.5867C12.9606 21.9053 14.4028 22.3675 15.5785 21.5399C15.9624 21.2699 16.2744 21.2774 16.4827 21.5839C16.7164 21.9254 16.6128 22.252 16.2882 22.429C15.7995 22.694 15.2843 22.9377 14.7526 23.0871C14.4735 23.1662 14.3182 23.2642 14.2096 23.5116C13.6665 24.7385 14.5783 25.9969 16.0218 25.9228L16.023 25.9203ZM29.2743 19.2643C28.2059 19.2204 27.159 19.4941 26.5667 18.0775C25.9643 16.6358 26.9708 16.1071 27.6313 15.3561C27.1527 14.8752 26.7119 14.4331 26.2459 13.9647C25.4731 14.6051 24.9654 15.6236 23.5207 15.0334C22.0835 14.4469 22.3247 13.3983 22.2906 12.3358H21.2286C21.2286 13.0466 21.2286 13.7198 21.2286 14.3929C21.2286 15.066 21.2286 15.7316 21.2286 16.3922C23.7038 16.7464 25.0399 18.0235 25.1435 20.1246C25.1877 21.0137 24.9212 21.825 24.3769 22.5358C23.5927 23.5605 22.5217 24.0327 21.2286 24.0842C21.2286 25.266 21.2122 26.4088 21.2463 27.5504C21.2513 27.7098 21.4736 27.9246 21.6466 27.9999C21.8234 28.0778 22.0633 28.0175 22.2755 28.0175C22.2843 27.848 22.3045 27.7525 22.2906 27.6609C22.0987 26.4339 22.6152 25.7143 23.8162 25.369C24.4969 25.173 24.8543 25.158 25.3531 25.6704C25.6448 25.9705 25.8949 26.3108 26.1083 26.567C26.6842 25.9981 27.1375 25.5511 27.5846 25.1103C27.1438 24.4396 26.0982 24.1018 26.3823 22.9389C26.765 21.3729 27.7929 20.9672 29.2718 21.295V19.2656L29.2743 19.2643ZM21.2551 22.8987C22.8943 22.9025 24.0637 21.6567 23.9804 20.0191C23.9172 18.7758 22.7364 17.4873 21.2551 17.6179V22.8987ZM22.8968 33.9577H18.4414V36.1642H22.8968V33.9577ZM21.5721 29.2344C21.2677 29.1176 21.0139 29.0636 20.8106 28.9318C20.414 28.6768 20.2233 29.1126 19.9228 29.1704C19.8609 29.183 19.8015 29.4605 19.8205 29.6062C19.9266 30.4275 20.0629 31.2463 20.1791 32.0664C20.2839 32.7998 20.2789 32.7998 21.0695 32.6842C21.2362 31.5452 21.4041 30.3898 21.5721 29.2344Z" fill="#FF5887"/>
<path d="M20.7128 38.2623C22.3179 38.2623 23.9231 38.261 25.5282 38.2623C26.123 38.2623 26.3149 38.4532 26.3212 39.0472C26.3275 39.6738 26.3288 40.2992 26.3212 40.9259C26.3137 41.4659 26.1204 41.6644 25.5774 41.6656C22.3041 41.6706 19.0307 41.6706 15.7574 41.6656C15.2143 41.6656 15.0211 41.4659 15.0135 40.9272C15.0047 40.3018 15.0072 39.6751 15.0135 39.0484C15.0186 38.4544 15.2118 38.2635 15.8041 38.2635C17.4408 38.261 19.0774 38.2635 20.7141 38.2635L20.7128 38.2623ZM16.2095 40.4977H25.1026V39.429H16.2095V40.4977Z" fill="#FF5887"/>
<path d="M20.694 42.5892C22.2852 42.5892 23.8765 42.5917 25.4677 42.5867C25.7947 42.5867 26.1736 42.5767 26.2317 42.9559C26.2696 43.1958 26.1395 43.5286 25.9716 43.7207C25.3919 44.3813 24.763 44.9992 24.1505 45.6309C23.4951 46.3065 22.707 46.6594 21.7473 46.633C20.9921 46.6129 20.2344 46.6217 19.4792 46.6305C18.6469 46.6418 17.9309 46.3555 17.3474 45.7828C16.6301 45.0795 15.928 44.3562 15.2549 43.6115C15.1172 43.4595 15.025 43.1129 15.1071 42.9584C15.2044 42.7763 15.5112 42.6068 15.731 42.603C17.3853 42.5741 19.0397 42.5867 20.694 42.5867V42.5892ZM24.2818 43.7684H17.0507C18.4449 46.2425 22.9508 46.1859 24.2818 43.7684Z" fill="#FF5887"/>
<path d="M2.96369 20.8362C2.44465 20.8362 1.92435 20.845 1.40531 20.8337C0.929209 20.8236 0.632436 20.5813 0.669059 20.2259C0.713259 19.8051 1.00119 19.657 1.39773 19.6582C2.45223 19.6607 3.50672 19.6607 4.56121 19.6582C4.95396 19.6582 5.24821 19.7926 5.29367 20.2183C5.33282 20.58 5.04615 20.8224 4.56752 20.8324C4.03333 20.845 3.49788 20.8349 2.96242 20.8349L2.96369 20.8362Z" fill="#FF5887"/>
<path d="M38.3466 19.659C38.8821 19.659 39.4175 19.6514 39.9517 19.6615C40.3925 19.669 40.6867 19.9039 40.664 20.2442C40.635 20.6687 40.347 20.8332 39.9543 20.8344C38.8846 20.8395 37.8137 20.8395 36.7441 20.8344C36.3526 20.8319 36.0609 20.6762 36.0343 20.2467C36.0129 19.9026 36.2995 19.669 36.7415 19.6615C37.277 19.6514 37.8112 19.659 38.3466 19.659Z" fill="#FF5887"/>
<path d="M12.5763 7.08429C12.4853 7.01019 12.2744 6.90847 12.1721 6.74144C11.5912 5.78073 11.0343 4.80494 10.4711 3.83292C10.2816 3.50514 10.3536 3.2163 10.6681 3.02667C10.9964 2.82824 11.2869 2.9488 11.4687 3.25649C12.0496 4.23604 12.623 5.22062 13.1786 6.21399C13.4097 6.62716 13.1332 7.0868 12.575 7.08429H12.5763Z" fill="#FF5887"/>
<path d="M28.6962 7.09289C28.1948 7.03889 27.9322 6.632 28.1229 6.28915C28.6962 5.25183 29.2923 4.22706 29.901 3.20983C30.0753 2.91722 30.3771 2.84187 30.6751 3.03276C30.9618 3.21611 31.054 3.48863 30.8734 3.80133C30.2975 4.80224 29.728 5.80565 29.1281 6.79275C29.0309 6.95224 28.7934 7.02759 28.6962 7.09289Z" fill="#FF5887"/>
<path d="M3.75865 9.95703C4.00617 10.0588 4.15772 10.1015 4.29032 10.1781C5.18948 10.6904 6.08737 11.2066 6.98275 11.7253C7.41843 11.9777 7.54219 12.2753 7.35908 12.5943C7.1747 12.9133 6.83878 12.966 6.41319 12.7236C5.47236 12.1874 4.52521 11.6637 3.60963 11.0885C3.43409 10.978 3.29518 10.649 3.31665 10.438C3.33559 10.2597 3.61089 10.1077 3.75865 9.95703Z" fill="#FF5887"/>
<path d="M38.0554 10.7325C37.9821 10.8153 37.8735 11.0163 37.7043 11.1167C36.7622 11.6794 35.8075 12.2219 34.8515 12.7644C34.5269 12.949 34.1986 12.9553 33.9889 12.6049C33.7806 12.2583 33.9195 11.972 34.2542 11.7798C35.2051 11.231 36.1535 10.6785 37.112 10.1435C37.6007 9.87095 38.0781 10.1171 38.0554 10.7325Z" fill="#FF5887"/>
<path d="M7.4223 28.3214C7.35158 28.4017 7.24297 28.6027 7.07501 28.7031C6.13292 29.2658 5.17819 29.8083 4.22346 30.3496C3.89891 30.5329 3.57309 30.5392 3.36093 30.1888C3.14877 29.8384 3.29526 29.5571 3.62613 29.365C4.5758 28.8149 5.52548 28.2623 6.48399 27.7274C6.97777 27.4523 7.4463 27.696 7.42356 28.3189L7.4223 28.3214Z" fill="#FF5887"/>
<path d="M38.0566 29.7711C38.0654 30.3186 37.6247 30.62 37.2269 30.404C36.1926 29.8439 35.176 29.2524 34.1644 28.6509C33.8689 28.475 33.8045 28.1711 33.994 27.876C34.1998 27.5545 34.5067 27.5407 34.8186 27.714C35.5031 28.0958 36.1825 28.4889 36.8632 28.8782C37.1486 29.0414 37.4479 29.1884 37.7131 29.3805C37.876 29.4986 37.9859 29.6882 38.0566 29.7711Z" fill="#FF5887"/>
<path d="M20.1002 2.61899C20.1002 2.07145 20.1002 1.5239 20.1002 0.976353C20.1002 0.603368 20.2758 0.371038 20.6584 0.36727C21.0386 0.362247 21.2318 0.585787 21.2318 0.961283C21.2343 2.08777 21.2318 3.21426 21.233 4.34075C21.233 4.71625 21.0461 4.95235 20.6736 4.9536C20.2733 4.95611 20.0939 4.70369 20.0977 4.30936C20.104 3.74674 20.099 3.18287 20.099 2.62025L20.1002 2.61899Z" fill="#FF5887"/>
</g>
<defs>
<clipPath id="clip0_6507_1293">
<rect width="40" height="46.269" fill="white" transform="translate(0.666016 0.367188)"/>
</clipPath>
</defs>
</svg>
