<svg width="17" height="22" viewBox="0 0 17 22" fill="none" xmlns="http://www.w3.org/2000/svg">
<g clip-path="url(#clip0_3582_8122)">
<path d="M15.6289 12.7812C16.0846 13.1641 16.3034 13.6517 16.2852 14.2441C16.2669 14.8366 16.0208 15.3151 15.5469 15.6797L12.7852 17.7578C12.3294 18.0859 11.8281 18.25 11.2812 18.25H0.972656C0.845052 18.25 0.740234 18.209 0.658203 18.127C0.576172 18.0449 0.535156 17.9401 0.535156 17.8125V17.375C0.535156 17.2474 0.576172 17.1426 0.658203 17.0605C0.740234 16.9785 0.845052 16.9375 0.972656 16.9375H11.2539C11.5273 16.9375 11.7734 16.8555 11.9922 16.6914L14.7539 14.6406C14.8997 14.5312 14.9727 14.39 14.9727 14.2168C14.9727 14.0436 14.9089 13.9023 14.7812 13.793C14.5443 13.5924 14.2799 13.5924 13.9883 13.793L12.3203 15.0508C12.1016 15.2148 11.8555 15.2969 11.582 15.2969H7.91797C7.84505 15.2969 7.78125 15.2786 7.72656 15.2422C7.67188 15.2057 7.6263 15.1602 7.58984 15.1055C7.55339 15.0508 7.53516 14.987 7.53516 14.9141C7.53516 14.8047 7.57161 14.7135 7.64453 14.6406C7.71745 14.5677 7.80859 14.5312 7.91797 14.5312H9.55859C9.8138 14.5312 9.99154 14.4401 10.0918 14.2578C10.1921 14.0755 10.1921 13.8932 10.0918 13.7109C9.99154 13.5286 9.82292 13.4375 9.58594 13.4375H5.64844C5.13802 13.4375 4.68229 13.5833 4.28125 13.875L3.16016 14.75H0.972656C0.845052 14.75 0.740234 14.709 0.658203 14.627C0.576172 14.5449 0.535156 14.4401 0.535156 14.3125V13.875C0.535156 13.7474 0.576172 13.6426 0.658203 13.5605C0.740234 13.4785 0.845052 13.4375 0.972656 13.4375H2.72266L3.48828 12.8359C4.1263 12.362 4.84635 12.125 5.64844 12.125H9.58594C10.1146 12.125 10.5612 12.3027 10.9258 12.6582C11.2904 13.0137 11.4727 13.4557 11.4727 13.9844H11.5547L13.2227 12.7266C13.4049 12.5807 13.6237 12.4714 13.8789 12.3984C14.1341 12.3255 14.4212 12.3164 14.7402 12.3711C15.0592 12.4258 15.3555 12.5625 15.6289 12.7812ZM7.58984 8.1875C7.27995 8.09635 7.01562 7.93685 6.79688 7.70898C6.57812 7.48112 6.45052 7.21224 6.41406 6.90234C6.35938 6.46484 6.46419 6.07747 6.72852 5.74023C6.99284 5.403 7.33464 5.21615 7.75391 5.17969V4.6875C7.75391 4.5599 7.79492 4.45508 7.87695 4.37305C7.95898 4.29102 8.0638 4.25 8.19141 4.25H8.62891C8.75651 4.25 8.86133 4.29102 8.94336 4.37305C9.02539 4.45508 9.06641 4.5599 9.06641 4.6875V5.17969C9.39453 5.21615 9.6862 5.31641 9.94141 5.48047C10.0143 5.53516 10.0553 5.61719 10.0645 5.72656C10.0736 5.83594 10.0417 5.92708 9.96875 6L9.50391 6.46484C9.39453 6.57422 9.26693 6.59245 9.12109 6.51953C9.02995 6.48307 8.92969 6.46484 8.82031 6.46484H7.94531C7.78125 6.46484 7.69922 6.53776 7.69922 6.68359C7.69922 6.8112 7.75391 6.88411 7.86328 6.90234L9.23047 7.3125C9.54036 7.40365 9.80469 7.56315 10.0234 7.79102C10.2422 8.01888 10.3698 8.28776 10.4062 8.59766C10.4609 9.03516 10.3561 9.42253 10.0918 9.75977C9.82747 10.097 9.48568 10.2839 9.06641 10.3203V10.8125C9.06641 10.9401 9.02539 11.0449 8.94336 11.127C8.86133 11.209 8.75651 11.25 8.62891 11.25H8.19141C8.0638 11.25 7.95898 11.209 7.87695 11.127C7.79492 11.0449 7.75391 10.9401 7.75391 10.8125V10.3203C7.42578 10.2839 7.13411 10.1836 6.87891 10.0195C6.80599 9.96484 6.76497 9.88281 6.75586 9.77344C6.74674 9.66406 6.77865 9.57292 6.85156 9.5L7.31641 9.03516C7.42578 8.92578 7.55339 8.90755 7.69922 8.98047C7.79036 9.01693 7.89062 9.03516 8 9.03516H8.875C9.03906 9.03516 9.12109 8.96224 9.12109 8.81641C9.12109 8.6888 9.06641 8.61589 8.95703 8.59766L7.58984 8.1875Z" fill="black"/>
</g>
<defs>
<clipPath id="clip0_3582_8122">
<rect width="15.75" height="14" fill="white" transform="matrix(1 0 0 -1 0.535156 18.25)"/>
</clipPath>
</defs>
</svg>
