<svg width="200" height="85" viewBox="0 0 200 85" fill="none" xmlns="http://www.w3.org/2000/svg">
<g clip-path="url(#clip0_4951_4209)">
<mask id="mask0_4951_4209" style="mask-type:luminance" maskUnits="userSpaceOnUse" x="40" y="0" width="120" height="80">
<path d="M40 0H160V80H40V0Z" fill="white"/>
</mask>
<g mask="url(#mask0_4951_4209)">
<path d="M121.5 2.69922C117.965 2.6995 114.503 3.69598 111.509 5.57434C108.516 7.4527 106.112 10.1369 104.574 13.3189C103.036 16.501 102.427 20.0521 102.815 23.5649C103.203 27.0777 104.574 30.4099 106.77 33.1792C106.84 33.2692 106.87 33.3792 106.87 33.4892V39.3892C106.87 39.7892 107.31 40.0292 107.64 39.8192L111.22 37.5792C111.3 37.5275 111.394 37.5 111.49 37.5C111.585 37.5 111.679 37.5275 111.76 37.5792C114.24 39.0819 117.035 39.9903 119.925 40.2332C122.816 40.4761 125.723 40.047 128.42 38.9794C131.116 37.9119 133.53 36.2349 135.47 34.0795C137.411 31.9242 138.827 29.3491 139.607 26.5556C140.387 23.762 140.51 20.8259 139.967 17.9769C139.424 15.1278 138.228 12.4432 136.475 10.1329C134.721 7.82263 132.457 5.94942 129.859 4.65981C127.261 3.3702 124.4 2.69917 121.5 2.69922Z" fill="#FF5887"/>
<path fill-rule="evenodd" clip-rule="evenodd" d="M121.5 23.2583C121.033 23.2583 120.585 23.0729 120.255 22.7428C119.925 22.4127 119.74 21.9651 119.74 21.4983C119.74 21.0315 119.925 20.5838 120.255 20.2538C120.585 19.9237 121.033 19.7383 121.5 19.7383C121.967 19.7383 122.414 19.9237 122.744 20.2538C123.074 20.5838 123.26 21.0315 123.26 21.4983C123.26 21.9651 123.074 22.4127 122.744 22.7428C122.414 23.0729 121.967 23.2583 121.5 23.2583ZM130.9 23.2583C130.433 23.2583 129.985 23.0729 129.655 22.7428C129.325 22.4127 129.14 21.9651 129.14 21.4983C129.14 21.0315 129.325 20.5838 129.655 20.2538C129.985 19.9237 130.433 19.7383 130.9 19.7383C131.367 19.7383 131.814 19.9237 132.144 20.2538C132.474 20.5838 132.66 21.0315 132.66 21.4983C132.66 21.9651 132.474 22.4127 132.144 22.7428C131.814 23.0729 131.367 23.2583 130.9 23.2583ZM112.1 23.2583C111.633 23.2583 111.185 23.0729 110.855 22.7428C110.525 22.4127 110.34 21.9651 110.34 21.4983C110.34 21.0315 110.525 20.5838 110.855 20.2538C111.185 19.9237 111.633 19.7383 112.1 19.7383C112.567 19.7383 113.014 19.9237 113.344 20.2538C113.674 20.5838 113.86 21.0315 113.86 21.4983C113.86 21.9651 113.674 22.4127 113.344 22.7428C113.014 23.0729 112.567 23.2583 112.1 23.2583Z" fill="white"/>
<path d="M89.6804 55.6084H88.9404H89.6904H89.6804ZM92.8504 38.9984C92.8504 29.6984 85.3104 22.1484 76.0004 22.1484V20.6484C80.8671 20.6484 85.5345 22.5817 88.9758 26.023C92.4171 29.4643 94.3504 34.1317 94.3504 38.9984H92.8504ZM89.2204 49.4484C91.5775 46.476 92.8572 42.7921 92.8504 38.9984H94.3504C94.3504 43.2984 92.8704 47.2484 90.4004 50.3784L89.2204 49.4484ZM88.9404 55.6084V50.2584H90.4404V55.6084H88.9404ZM86.0604 53.4484L89.2404 55.4384L88.4504 56.7084L85.2704 54.7184L86.0704 53.4484H86.0604ZM76.0004 55.8484C79.1804 55.8484 82.1504 54.9684 84.6904 53.4384L85.4604 54.7184C82.7004 56.3884 79.4604 57.3484 76.0004 57.3484V55.8484ZM59.1504 38.9984C59.1504 48.2984 66.6904 55.8484 76.0004 55.8484V57.3484C71.1337 57.3484 66.4663 55.4151 63.025 51.9738C59.5837 48.5326 57.6504 43.8652 57.6504 38.9984H59.1504ZM76.0004 22.1484C66.7004 22.1484 59.1504 29.6884 59.1504 38.9984H57.6504C57.6504 34.1317 59.5837 29.4643 63.025 26.023C66.4663 22.5817 71.1337 20.6484 76.0004 20.6484V22.1484ZM85.2704 54.7184C85.3304 54.7584 85.4104 54.7584 85.4704 54.7184L84.6904 53.4384C85.1004 53.1884 85.6404 53.1784 86.0604 53.4384L85.2604 54.7184H85.2704ZM90.4404 55.6084C90.4401 55.8404 90.3777 56.0681 90.2597 56.2679C90.1417 56.4676 89.9724 56.6322 89.7693 56.7444C89.5663 56.8567 89.3369 56.9125 89.1049 56.9062C88.873 56.8999 88.647 56.8316 88.4504 56.7084L89.2504 55.4384C89.22 55.4184 89.1848 55.4071 89.1485 55.4056C89.1121 55.4041 89.0761 55.4126 89.0442 55.4301C89.0123 55.4476 88.9858 55.4734 88.9675 55.5048C88.9492 55.5363 88.9398 55.5721 88.9404 55.6084H90.4404ZM90.4004 50.3784C90.4264 50.3438 90.4404 50.3017 90.4404 50.2584H88.9404C88.9404 49.9584 89.0404 49.6684 89.2204 49.4484L90.4004 50.3784Z" fill="#FF5887"/>
<path d="M115.951 73.5392L114.531 74.2592C112.334 75.1795 109.897 75.3617 107.588 74.7784C105.278 74.1951 103.22 72.8778 101.724 71.0246C100.227 69.1714 99.3723 66.8825 99.2881 64.5018C99.204 62.1212 99.8949 59.7776 101.257 57.8234C102.619 55.8691 104.579 54.4099 106.841 53.6649C109.104 52.92 111.547 52.9298 113.804 53.6926C116.061 54.4555 118.009 55.9303 119.355 57.8953C120.702 59.8603 121.374 62.2093 121.271 64.5892V64.9592C121.271 67.1892 119.471 68.9992 117.231 68.9992H117.131C116.3 68.9966 115.504 68.6646 114.917 68.076C114.33 67.4874 114.001 66.6903 114.001 65.8592V64.4992M110.001 68.9992C108.94 68.9992 107.923 68.5778 107.173 67.8276C106.422 67.0775 106.001 66.0601 106.001 64.9992V62.9992C106.001 61.9384 106.422 60.9209 107.173 60.1708C107.923 59.4206 108.94 58.9992 110.001 58.9992C111.062 58.9992 112.079 59.4206 112.829 60.1708C113.58 60.9209 114.001 61.9384 114.001 62.9992V64.9992C114.001 66.0601 113.58 67.0775 112.829 67.8276C112.079 68.5778 111.062 68.9992 110.001 68.9992Z" stroke="#FF5887" stroke-width="1.5" stroke-linecap="round" stroke-linejoin="round"/>
<path d="M70.3099 29.1993C71.3099 29.1993 72.2399 29.7993 72.5799 30.7593L73.5799 33.5993C73.9199 34.5593 73.5799 35.6193 72.7199 36.2293C72.5251 36.3669 72.3879 36.5715 72.3344 36.8039C72.2809 37.0364 72.3149 37.2804 72.4299 37.4893C73.5662 39.5652 75.2022 41.325 77.1899 42.6093C77.4676 42.7806 77.7936 42.8566 78.1184 42.826C78.4432 42.7953 78.7492 42.6595 78.9899 42.4393C79.3234 42.1568 79.7226 41.9628 80.1509 41.8754C80.5791 41.788 81.0224 41.81 81.4399 41.9393C82.3999 42.2393 83.4499 42.4393 84.3599 42.8593C84.6605 42.9909 84.931 43.1827 85.1545 43.4229C85.378 43.6631 85.55 43.9466 85.6596 44.2559C85.7693 44.5652 85.8143 44.8937 85.792 45.221C85.7697 45.5484 85.6805 45.8678 85.5299 46.1593C84.8599 47.4293 84.2399 48.8293 82.5499 48.7993C74.0499 48.6593 68.9599 40.3393 66.3199 33.3193C66.0199 32.4193 66.2899 31.4393 67.0099 30.8193C67.7899 30.1493 69.2299 29.1893 70.3099 29.1993Z" fill="#FF5887"/>
</g>
</g>
<defs>
<clipPath id="clip0_4951_4209">
<rect width="120" height="80" fill="white" transform="translate(40)"/>
</clipPath>
</defs>
</svg>
