<svg width="13" height="19" viewBox="0 0 13 19" fill="none" xmlns="http://www.w3.org/2000/svg">
<g clip-path="url(#clip0_3582_7704)">
<path d="M10.9825 8.79517C10.9985 9.09823 10.9985 9.40129 10.9825 9.70435L11.7242 10.135C11.9794 10.2945 12.0751 10.5098 12.0113 10.781C11.7242 11.8018 11.2058 12.6871 10.4562 13.4368C10.2488 13.6441 10.0175 13.676 9.7623 13.5325L9.02061 13.1018C8.7654 13.2773 8.50221 13.4288 8.23105 13.5564V14.4177C8.23105 14.7208 8.0875 14.9122 7.80039 14.9919C6.77956 15.2631 5.75872 15.2631 4.73789 14.9919C4.62624 14.96 4.52655 14.8883 4.43882 14.7766C4.35109 14.665 4.30723 14.5453 4.30723 14.4177V13.5564C4.03607 13.4288 3.77288 13.2773 3.51768 13.1018L2.77598 13.5325C2.52077 13.676 2.28949 13.6441 2.08213 13.4368C1.33245 12.6871 0.814063 11.8018 0.526953 10.781C0.463151 10.5098 0.558854 10.2945 0.814063 10.135L1.55576 9.70435C1.55576 9.56079 1.55576 9.40926 1.55576 9.24976C1.55576 9.09025 1.55576 8.93872 1.55576 8.79517L0.814063 8.3645C0.558854 8.205 0.463151 7.98966 0.526953 7.71851C0.814063 6.69767 1.33245 5.81242 2.08213 5.06274C2.28949 4.85539 2.52077 4.82349 2.77598 4.96704L3.51768 5.39771C3.77288 5.22225 4.03607 5.07072 4.30723 4.94312V4.08179C4.30723 3.77873 4.45078 3.58732 4.73789 3.50757C5.75872 3.23641 6.77956 3.23641 7.80039 3.50757C7.91204 3.53947 8.01173 3.61125 8.09946 3.7229C8.18719 3.83455 8.23105 3.95418 8.23105 4.08179V4.94312C8.50221 5.07072 8.7654 5.22225 9.02061 5.39771L9.7623 4.96704C10.0175 4.82349 10.2488 4.85539 10.4562 5.06274C11.2058 5.81242 11.7242 6.69767 12.0113 7.71851C12.0751 7.98966 11.9794 8.205 11.7242 8.3645L10.9825 8.79517ZM9.71445 10.3025C9.81016 9.80802 9.85801 9.45711 9.85801 9.24976C9.85801 9.0424 9.81016 8.69149 9.71445 8.19702L10.7672 7.59888C10.5758 7.08846 10.3046 6.61792 9.95371 6.18726L8.90098 6.7854C8.62982 6.56209 8.42246 6.3986 8.27891 6.29492C8.13535 6.19124 7.98382 6.10352 7.82432 6.03174C7.66481 5.95996 7.41758 5.86027 7.08262 5.73267V4.53638C6.81146 4.48853 6.5403 4.4646 6.26914 4.4646C5.99798 4.4646 5.72682 4.48853 5.45566 4.53638V5.73267C4.9931 5.90812 4.6701 6.04769 4.48667 6.15137C4.30324 6.25505 4.02012 6.46639 3.6373 6.7854L2.58457 6.18726C2.23366 6.61792 1.9625 7.08846 1.77109 7.59888L2.82383 8.19702C2.72813 8.69149 2.68027 9.0424 2.68027 9.24976C2.68027 9.45711 2.72813 9.80802 2.82383 10.3025L1.77109 10.9006C1.9625 11.4111 2.23366 11.8816 2.58457 12.3123L3.6373 11.7141C4.02012 12.0331 4.30324 12.2445 4.48667 12.3481C4.6701 12.4518 4.9931 12.5914 5.45566 12.7668V13.9631C5.72682 14.011 5.99798 14.0349 6.26914 14.0349C6.5403 14.0349 6.81146 14.011 7.08262 13.9631V12.7668C7.41758 12.6392 7.66481 12.5396 7.82432 12.4678C7.98382 12.396 8.13535 12.3083 8.27891 12.2046C8.42246 12.1009 8.62982 11.9374 8.90098 11.7141L9.95371 12.3123C10.3046 11.8816 10.5758 11.4111 10.7672 10.9006L9.71445 10.3025ZM4.64219 7.6228C4.64219 7.6228 4.75384 7.51115 4.97715 7.28784C5.20046 7.06453 5.63112 6.95288 6.26914 6.95288C6.90716 6.95288 7.44948 7.17619 7.89609 7.6228C8.34271 8.06942 8.56602 8.61173 8.56602 9.24976C8.56602 9.88778 8.34271 10.4301 7.89609 10.8767C7.44948 11.3233 6.90716 11.5466 6.26914 11.5466C5.63112 11.5466 5.0888 11.3233 4.64219 10.8767C4.19557 10.4301 3.97227 9.88778 3.97227 9.24976C3.97227 8.61173 4.19557 8.06942 4.64219 7.6228ZM5.45566 10.0632C5.45566 10.0632 5.51149 10.1191 5.62314 10.2307C5.7348 10.3424 5.95013 10.3982 6.26914 10.3982C6.58815 10.3982 6.85931 10.2865 7.08262 10.0632C7.30592 9.83993 7.41758 9.56877 7.41758 9.24976C7.41758 8.93075 7.30592 8.65959 7.08262 8.43628C6.85931 8.21297 6.58815 8.10132 6.26914 8.10132C5.95013 8.10132 5.67897 8.21297 5.45566 8.43628C5.23236 8.65959 5.1207 8.93075 5.1207 9.24976C5.1207 9.56877 5.23236 9.83993 5.45566 10.0632Z" fill="white"/>
</g>
<defs>
<clipPath id="clip0_3582_7704">
<rect width="12.25" height="13" fill="white" transform="matrix(1 0 0 -1 0.507812 15.75)"/>
</clipPath>
</defs>
</svg>
