<svg width="200" height="85" viewBox="0 0 200 85" fill="none" xmlns="http://www.w3.org/2000/svg">
<path d="M137.69 62.67C137.689 61.0359 137.105 59.4558 136.044 58.2132C134.983 56.9706 133.513 56.1469 131.9 55.89M131.9 55.89C130.57 55.25 130.44 53.32 131.48 52.26C132.58 51.13 132.48 49.43 132.48 47.81C132.48 44.39 130.68 42.01 127.28 42.01C123.86 42.01 122.06 44.39 122.06 47.81C122.06 49.43 121.96 51.13 123.06 52.26C125.26 54.48 123.96 55.25 122.64 55.89M131.9 55.89L130.75 56.75C129.746 57.5045 128.525 57.9125 127.27 57.9125C126.014 57.9125 124.793 57.5045 123.79 56.75L122.64 55.89M122.64 55.89C121.391 56.0887 120.222 56.6279 119.261 57.4483C118.299 58.2688 117.582 59.3386 117.19 60.54M131.9 46.07H127.5C126.9 46.0713 126.311 45.9172 125.788 45.6227C125.266 45.3283 124.829 44.9036 124.52 44.39L123.8 43.18M77.7397 55.88C76.4097 55.25 76.2797 53.32 77.3097 52.26C78.4097 51.13 78.3097 49.43 78.3097 47.81C78.3097 44.39 76.5097 42.01 73.1097 42.01C69.6897 42.01 67.8997 44.39 67.8997 47.81C67.8997 49.43 67.7997 51.13 68.8997 52.26C71.0897 54.48 69.7997 55.25 68.4697 55.89L69.6197 56.75C70.6239 57.5069 71.8472 57.9163 73.1047 57.9163C74.3622 57.9163 75.5855 57.5069 76.5897 56.75L77.7397 55.89C78.9862 56.0904 80.1533 56.6304 81.113 57.4507C82.0727 58.271 82.7877 59.3399 83.1797 60.54M62.6797 62.67C62.6812 61.0345 63.2661 59.4531 64.3292 58.2103C65.3924 56.9675 66.8641 56.1447 68.4797 55.89M77.7397 46.07H73.3397C72.7402 46.0713 72.1505 45.9172 71.6283 45.6227C71.106 45.3283 70.669 44.9036 70.3597 44.39L69.6297 43.18M116.85 69.04C116.847 66.4277 115.915 63.9014 114.221 61.9135C112.526 59.9255 110.179 58.6056 107.6 58.19M107.6 58.19C105.47 57.17 105.26 54.08 106.92 52.39C108.69 50.59 108.52 47.85 108.52 45.26C108.52 39.8 105.64 36 100.19 36C94.7297 36 91.8497 39.8 91.8497 45.26C91.8497 47.86 91.6897 50.59 93.4497 52.39C96.9597 55.93 94.8997 57.17 92.7697 58.19M107.6 58.19L105.76 59.57C104.153 60.7812 102.196 61.4363 100.185 61.4363C98.173 61.4363 96.216 60.7812 94.6097 59.57L92.7697 58.19M92.7697 58.19C90.1906 58.6056 87.8436 59.9255 86.1488 61.9135C84.454 63.9014 83.522 66.4277 83.5197 69.04M107.6 42.49H99.3697C98.7699 42.4875 98.1811 42.3295 97.6605 42.0316C97.14 41.7336 96.7056 41.3059 96.3997 40.79L94.6297 37.85" stroke="#FF5887" stroke-width="1.5" stroke-linecap="round" stroke-linejoin="round"/>
<path d="M125.999 3.59961C123.296 3.60007 120.648 4.36129 118.357 5.79619C116.067 7.2311 114.226 9.28175 113.046 11.7136C111.866 14.1454 111.394 16.8603 111.685 19.5476C111.976 22.2349 113.017 24.7862 114.689 26.9096C114.759 27.0096 114.799 27.1096 114.799 27.2296V31.4996C114.799 31.8896 115.229 32.1296 115.569 31.9196L118.069 30.3596C118.229 30.2596 118.439 30.2596 118.599 30.3596C120.502 31.4974 122.643 32.1802 124.854 32.3549C127.064 32.5295 129.285 32.1912 131.344 31.3664C133.402 30.5416 135.242 29.2525 136.721 27.5997C138.199 25.9469 139.276 23.9749 139.867 21.8376C140.458 19.7003 140.547 17.4554 140.128 15.2778C139.709 13.1003 138.793 11.0489 137.45 9.28372C136.108 7.51852 134.376 6.08716 132.39 5.10121C130.404 4.11526 128.217 3.60138 125.999 3.59961Z" fill="#FF5887" stroke="#FF5887"/>
<path fill-rule="evenodd" clip-rule="evenodd" d="M130.58 14.3301C131.154 14.3305 131.713 14.1515 132.18 13.8181C132.647 13.4847 132.998 13.0136 133.184 12.4708C133.37 11.928 133.381 11.3407 133.217 10.7911C133.052 10.2415 132.72 9.75713 132.266 9.40584C131.812 9.05456 131.26 8.85394 130.687 8.83208C130.114 8.81021 129.548 8.96821 129.069 9.28393C128.59 9.59965 128.222 10.0573 128.016 10.5928C127.81 11.1282 127.776 11.7147 127.92 12.2701L121.49 16.0201C121.104 15.6403 120.613 15.3836 120.08 15.2827C119.548 15.1817 118.997 15.241 118.499 15.4529C118 15.6649 117.575 16.02 117.278 16.4734C116.981 16.9268 116.825 17.4581 116.83 18.0001C116.83 18.54 116.989 19.068 117.286 19.5184C117.584 19.9687 118.008 20.3215 118.505 20.5326C119.002 20.7437 119.55 20.8039 120.081 20.7057C120.612 20.6074 121.102 20.3551 121.49 19.9801L127.92 23.7301C127.755 24.3727 127.828 25.0533 128.125 25.6466C128.422 26.2398 128.924 26.7056 129.537 26.9581C130.151 27.2106 130.835 27.2327 131.463 27.0204C132.092 26.8081 132.623 26.3757 132.958 25.8029C133.292 25.2301 133.409 24.5555 133.286 23.9036C133.162 23.2517 132.807 22.6663 132.286 22.2555C131.765 21.8447 131.113 21.6361 130.451 21.6682C129.788 21.7003 129.159 21.9709 128.68 22.4301L122.25 18.6901C122.367 18.2376 122.367 17.7626 122.25 17.3101L128.68 13.5601C129.188 14.0566 129.87 14.3332 130.58 14.3301Z" fill="white"/>
</svg>
