<svg width="15" height="15" viewBox="0 0 15 15" fill="none" xmlns="http://www.w3.org/2000/svg">
<path d="M12.4017 3.15708C12.4603 3.06923 12.494 2.96712 12.4991 2.86163C12.5042 2.75615 12.4806 2.65125 12.4308 2.55814C12.381 2.46502 12.3068 2.38717 12.2162 2.33291C12.1256 2.27864 12.022 2.24998 11.9164 2.25H2.58303C2.47752 2.25005 2.37399 2.27873 2.28348 2.33297C2.19297 2.3872 2.11887 2.46498 2.06907 2.558C2.01926 2.65102 1.99562 2.75581 2.00067 2.86121C2.00571 2.9666 2.03924 3.06866 2.0977 3.1565L6.66637 10.0101V12.1667H4.91637V13.3333H9.58303V12.1667H7.83303V10.0101L12.4017 3.15708ZM7.2497 8.78158L5.22845 5.75H9.27095L7.2497 8.78158ZM10.8267 3.41667L10.0491 4.58333H4.45028L3.6727 3.41667H10.8267Z" fill="#2563EB"/>
</svg>
