<svg width="11" height="11" viewBox="0 0 11 11" fill="none" xmlns="http://www.w3.org/2000/svg">
<g clip-path="url(#clip0_3582_8142)">
<path d="M9.58984 1.53906C9.77214 1.72135 9.86328 1.94271 9.86328 2.20312V7.4375C9.86328 7.69792 9.77214 7.91927 9.58984 8.10156C9.40755 8.28385 9.1862 8.375 8.92578 8.375H7.36328V9.3125C7.36328 9.57292 7.27214 9.79427 7.08984 9.97656C6.90755 10.1589 6.6862 10.25 6.42578 10.25H2.05078C1.79036 10.25 1.56901 10.1589 1.38672 9.97656C1.20443 9.79427 1.11328 9.57292 1.11328 9.3125V3.0625C1.11328 2.80208 1.20443 2.58073 1.38672 2.39844C1.56901 2.21615 1.79036 2.125 2.05078 2.125H3.61328V1.1875C3.61328 0.927083 3.70443 0.705729 3.88672 0.523438C4.06901 0.341146 4.29036 0.25 4.55078 0.25H7.91016C8.17057 0.25 8.39193 0.341146 8.57422 0.523438L9.58984 1.53906ZM6.30859 9.3125C6.38672 9.3125 6.42578 9.27344 6.42578 9.19531V8.375H4.55078C4.29036 8.375 4.06901 8.28385 3.88672 8.10156C3.70443 7.91927 3.61328 7.69792 3.61328 7.4375V3.0625H2.16797C2.08984 3.0625 2.05078 3.10156 2.05078 3.17969V9.19531C2.05078 9.27344 2.08984 9.3125 2.16797 9.3125H6.30859ZM8.80859 7.4375C8.88672 7.4375 8.92578 7.39844 8.92578 7.32031V3.375H7.20703C7.07682 3.375 6.96615 3.32943 6.875 3.23828C6.78385 3.14714 6.73828 3.03646 6.73828 2.90625V1.1875H4.66797C4.58984 1.1875 4.55078 1.22656 4.55078 1.30469V7.32031C4.55078 7.39844 4.58984 7.4375 4.66797 7.4375H8.80859ZM8.92578 2.4375V2.24219C8.92578 2.21615 8.91276 2.1901 8.88672 2.16406L7.94922 1.22656C7.92318 1.20052 7.89714 1.1875 7.87109 1.1875H7.67578V2.4375H8.92578Z" fill="#0F172A"/>
</g>
<defs>
<clipPath id="clip0_3582_8142">
<rect width="9.19" height="10" fill="white" transform="matrix(1 0 0 -1 0.894531 10.25)"/>
</clipPath>
</defs>
</svg>
