<svg width="12" height="11" viewBox="0 0 12 11" fill="none" xmlns="http://www.w3.org/2000/svg">
<path d="M11.372 8.86317C11.7238 9.48866 11.2742 10.251 10.551 10.251H1.18823C0.465012 10.251 0.0154419 9.46912 0.367279 8.86317L5.05844 0.71228C5.41028 0.086792 6.32896 0.106339 6.6808 0.71228L11.372 8.86317ZM5.87939 7.16263C5.37119 7.16263 4.98026 7.5731 4.98026 8.06177C4.98026 8.56998 5.37119 8.96091 5.87939 8.96091C6.36806 8.96091 6.77853 8.56998 6.77853 8.06177C6.77853 7.5731 6.36806 7.16263 5.87939 7.16263ZM5.01935 3.93745L5.15617 6.59578C5.17572 6.7326 5.27345 6.81079 5.39073 6.81079H6.34851C6.46579 6.81079 6.56352 6.7326 6.58307 6.59578L6.71989 3.93745C6.73944 3.80063 6.62216 3.68335 6.48534 3.68335H5.25391C5.11708 3.68335 4.9998 3.80063 5.01935 3.93745Z" fill="#DD6B20"/>
</svg>
