<svg width="32" height="32" viewBox="0 0 32 32" fill="none" xmlns="http://www.w3.org/2000/svg">
<g clip-path="url(#clip0_3777_18937)">
<path d="M5.02075 5.6438C5.02075 5.6438 5.75826 4.90629 7.23328 3.43127C8.70829 1.95626 11.5413 1.21875 15.7324 1.21875C19.9235 1.21875 23.4941 2.69377 26.4441 5.6438C29.3941 8.59383 30.8691 12.1644 30.8691 16.3555C30.8691 20.5465 29.3941 24.1171 26.4441 27.0671C23.4941 30.0172 19.9235 31.4922 15.7324 31.4922C11.5413 31.4922 7.97078 30.0172 5.02075 27.0671C2.07072 24.1171 0.595703 20.5465 0.595703 16.3555C0.595703 12.1644 2.07072 8.59383 5.02075 5.6438ZM7.09595 24.9919C7.09595 24.9919 7.69104 25.587 8.88123 26.7772C10.0714 27.9674 12.3551 28.5625 15.7324 28.5625C19.1097 28.5625 21.9885 27.3723 24.3689 24.9919C26.7493 22.6116 27.9395 19.7327 27.9395 16.3555C27.9395 12.9782 26.7493 10.0994 24.3689 7.71899C21.9885 5.33862 19.1097 4.14844 15.7324 4.14844C12.3551 4.14844 9.47632 5.33862 7.09595 7.71899C4.71558 10.0994 3.52539 12.9782 3.52539 16.3555C3.52539 19.7327 4.71558 22.6116 7.09595 24.9919ZM13.9319 8.69556C13.9319 8.69556 14.059 8.5684 14.3134 8.31409C14.5677 8.05977 15.0407 7.93262 15.7324 7.93262C16.4242 7.93262 17.0243 8.18693 17.533 8.69556C18.0416 9.20418 18.2959 9.80436 18.2959 10.4961C18.2959 11.1878 18.0416 11.788 17.533 12.2966C17.0243 12.8053 16.4242 13.0596 15.7324 13.0596C15.0407 13.0596 14.4405 12.8053 13.9319 12.2966C13.4233 11.788 13.1689 11.1878 13.1689 10.4961C13.1689 9.80436 13.4233 9.20418 13.9319 8.69556ZM19.1504 23.4355C19.1504 23.9238 18.9062 24.168 18.418 24.168H13.0469C12.5586 24.168 12.3145 23.9238 12.3145 23.4355V21.9707C12.3145 21.4824 12.5586 21.2383 13.0469 21.2383H13.7793V17.332H13.0469C12.5586 17.332 12.3145 17.0879 12.3145 16.5996V15.1348C12.3145 14.6465 12.5586 14.4023 13.0469 14.4023H16.9531C17.4414 14.4023 17.6855 14.6465 17.6855 15.1348V21.2383H18.418C18.9062 21.2383 19.1504 21.4824 19.1504 21.9707V23.4355Z" fill="#EFF6FF"/>
</g>
<defs>
<clipPath id="clip0_3777_18937">
<rect width="31.5" height="31.25" fill="white" transform="matrix(1 0 0 -1 0.470703 31.9805)"/>
</clipPath>
</defs>
</svg>
