<svg width="18" height="16" viewBox="0 0 18 16" fill="none" xmlns="http://www.w3.org/2000/svg">
<g opacity="0.5">
<g clip-path="url(#clip0_3586_11279)">
<path d="M7.05721 1.26993C7.24241 1.1053 7.41733 1.1053 7.58195 1.26993L14.0332 7.75207C14.2184 7.9167 14.2184 8.08132 14.0332 8.24595L7.58195 14.7281C7.41733 14.8927 7.24241 14.8927 7.05721 14.7281L6.43986 14.1107C6.37813 14.049 6.34726 13.9667 6.34726 13.8638C6.34726 13.7609 6.37813 13.6683 6.43986 13.586L11.2243 8.80156H0.698533C0.451594 8.80156 0.328125 8.67809 0.328125 8.43115V7.56687C0.328125 7.31993 0.451594 7.19646 0.698533 7.19646H11.2243L6.43986 2.41202C6.27523 2.22682 6.27523 2.0519 6.43986 1.88728L7.05721 1.26993Z" fill="black" fill-opacity="0.87"/>
</g>
</g>
<defs>
<clipPath id="clip0_3586_11279">
<rect width="16.94" height="16" fill="white" transform="matrix(1 0 0 -1 0.328125 16)"/>
</clipPath>
</defs>
</svg>
