<svg width="17" height="15" viewBox="0 0 17 15" fill="none" xmlns="http://www.w3.org/2000/svg">
<path d="M14.957 8.125C15.3216 8.125 15.6315 8.2526 15.8867 8.50781C16.1419 8.76302 16.2695 9.07292 16.2695 9.4375V12.9375C16.2695 13.3021 16.1419 13.612 15.8867 13.8672C15.6315 14.1224 15.3216 14.25 14.957 14.25H1.83203C1.46745 14.25 1.15755 14.1224 0.902344 13.8672C0.647135 13.612 0.519531 13.3021 0.519531 12.9375V9.4375C0.519531 9.07292 0.647135 8.76302 0.902344 8.50781C1.15755 8.2526 1.46745 8.125 1.83203 8.125H4.34766L3.08984 6.86719C2.6888 6.44792 2.59766 5.9694 2.81641 5.43164C3.03516 4.89388 3.4362 4.625 4.01953 4.625H5.76953V1.5625C5.76953 1.19792 5.89714 0.888021 6.15234 0.632812C6.40755 0.377604 6.71745 0.25 7.08203 0.25H9.70703C10.0716 0.25 10.3815 0.377604 10.6367 0.632812C10.8919 0.888021 11.0195 1.19792 11.0195 1.5625V4.625H12.7695C13.3529 4.625 13.7585 4.89388 13.9863 5.43164C14.2142 5.9694 14.1185 6.44792 13.6992 6.86719L12.4414 8.125H14.957ZM4.01953 5.9375L8.39453 10.3125L12.7695 5.9375H9.70703V1.5625H7.08203V5.9375H4.01953ZM14.957 12.9375V9.4375H11.1289L9.32422 11.2422C9.06901 11.4974 8.75911 11.625 8.39453 11.625C8.02995 11.625 7.72005 11.4974 7.46484 11.2422L5.66016 9.4375H1.83203V12.9375H14.957ZM12.7422 11.6523C12.7422 11.6523 12.7103 11.6204 12.6465 11.5566C12.5827 11.4928 12.5508 11.3698 12.5508 11.1875C12.5508 11.0052 12.6146 10.8503 12.7422 10.7227C12.8698 10.5951 13.0247 10.5312 13.207 10.5312C13.3893 10.5312 13.5443 10.5951 13.6719 10.7227C13.7995 10.8503 13.8633 11.0052 13.8633 11.1875C13.8633 11.3698 13.7995 11.5247 13.6719 11.6523C13.5443 11.7799 13.3893 11.8438 13.207 11.8438C13.0247 11.8438 12.8698 11.7799 12.7422 11.6523Z" fill="black"/>
</svg>
