<svg width="27" height="27" viewBox="0 0 27 27" fill="none" xmlns="http://www.w3.org/2000/svg">
<g clip-path="url(#clip0_6142_9372)">
<path d="M11.8867 12.9375C11.3112 13.1068 10.8203 13.403 10.4141 13.8262C10.0078 14.2493 9.77083 14.7487 9.70312 15.3242C9.60156 16.1367 9.79622 16.8561 10.2871 17.4824C10.778 18.1087 11.4128 18.4557 12.1914 18.5234V19.4375C12.1914 19.6745 12.2676 19.8691 12.4199 20.0215C12.5723 20.1738 12.7669 20.25 13.0039 20.25H13.8164C14.0534 20.25 14.248 20.1738 14.4004 20.0215C14.5527 19.8691 14.6289 19.6745 14.6289 19.4375V18.5234C15.2383 18.4557 15.7799 18.2695 16.2539 17.9648C16.3893 17.8633 16.4655 17.7109 16.4824 17.5078C16.4993 17.3047 16.4401 17.1354 16.3047 17L15.4414 16.1367C15.2383 15.9336 15.0013 15.8997 14.7305 16.0352C14.5612 16.1029 14.375 16.1367 14.1719 16.1367H12.5469C12.2422 16.1367 12.0898 16.0013 12.0898 15.7305C12.0898 15.4935 12.1914 15.3581 12.3945 15.3242L14.9336 14.5625C15.5091 14.3932 16 14.097 16.4062 13.6738C16.8125 13.2507 17.0495 12.7513 17.1172 12.1758C17.2188 11.3633 17.0241 10.6439 16.5332 10.0176C16.0423 9.39128 15.4076 9.04427 14.6289 8.97656V8.0625C14.6289 7.82552 14.5527 7.63086 14.4004 7.47852C14.248 7.32617 14.0534 7.25 13.8164 7.25H13.0039C12.7669 7.25 12.5723 7.32617 12.4199 7.47852C12.2676 7.63086 12.1914 7.82552 12.1914 8.0625V8.97656C11.582 9.04427 11.0404 9.23047 10.5664 9.53516C10.431 9.63672 10.3548 9.78906 10.3379 9.99219C10.321 10.1953 10.3802 10.3646 10.5156 10.5L11.3789 11.3633C11.582 11.5664 11.819 11.6003 12.0898 11.4648C12.2591 11.3971 12.4453 11.3633 12.6484 11.3633H14.2734C14.5781 11.3633 14.7305 11.4987 14.7305 11.7695C14.7305 12.0065 14.6289 12.1419 14.4258 12.1758L11.8867 12.9375ZM2.79688 9.33203C1.20573 10.3815 0.410156 11.8542 0.410156 13.75C0.410156 15.6458 1.20573 17.1185 2.79688 18.168C2.39062 19.9961 2.86458 21.5872 4.21875 22.9414C5.57292 24.2956 7.16406 24.7695 8.99219 24.3633C10.0417 25.9544 11.5143 26.75 13.4102 26.75C15.306 26.75 16.7786 25.9544 17.8281 24.3633C19.6901 24.7695 21.2897 24.2956 22.627 22.9414C23.9642 21.5872 24.4297 19.9961 24.0234 18.168C25.6146 17.1185 26.4102 15.6458 26.4102 13.75C26.4102 11.8542 25.6146 10.3815 24.0234 9.33203C24.4297 7.50391 23.9557 5.91276 22.6016 4.55859C21.2474 3.20443 19.6562 2.73047 17.8281 3.13672C16.7786 1.54557 15.306 0.75 13.4102 0.75C11.5143 0.75 10.0417 1.54557 8.99219 3.13672C7.16406 2.73047 5.57292 3.20443 4.21875 4.55859C2.86458 5.91276 2.39062 7.50391 2.79688 9.33203ZM5.89453 16.8477C5.86068 16.8477 5.7168 16.8053 5.46289 16.7207C5.20898 16.6361 5.02279 16.5684 4.9043 16.5176C4.78581 16.4668 4.59961 16.3737 4.3457 16.2383C4.0918 16.1029 3.89714 15.9674 3.76172 15.832C3.6263 15.6966 3.47396 15.5273 3.30469 15.3242C3.13542 15.1211 3.01693 14.8841 2.94922 14.6133C2.88151 14.3424 2.84766 14.0547 2.84766 13.75C2.84766 13.513 2.87305 13.293 2.92383 13.0898C2.97461 12.8867 3.04232 12.7005 3.12695 12.5312C3.21159 12.362 3.30469 12.2012 3.40625 12.0488C3.50781 11.8965 3.63477 11.7695 3.78711 11.668C3.93945 11.5664 4.07487 11.4733 4.19336 11.3887C4.31185 11.304 4.46419 11.2194 4.65039 11.1348C4.83659 11.0501 4.98047 10.9909 5.08203 10.957C5.18359 10.9232 5.33594 10.8724 5.53906 10.8047C5.74219 10.737 5.86068 10.6862 5.89453 10.6523C5.89453 10.6185 5.83529 10.4831 5.7168 10.2461C5.59831 10.0091 5.51367 9.82292 5.46289 9.6875C5.41211 9.55208 5.3444 9.35742 5.25977 9.10352C5.17513 8.84961 5.13281 8.62109 5.13281 8.41797C5.13281 8.21484 5.14128 7.98633 5.1582 7.73242C5.17513 7.47852 5.2513 7.23307 5.38672 6.99609C5.52214 6.75911 5.70833 6.52214 5.94531 6.28516C6.11458 6.11589 6.29232 5.97201 6.47852 5.85352C6.66471 5.73503 6.85091 5.65039 7.03711 5.59961C7.22331 5.54883 7.39258 5.50651 7.54492 5.47266C7.69727 5.4388 7.875 5.4388 8.07812 5.47266C8.28125 5.50651 8.45052 5.5319 8.58594 5.54883C8.72135 5.56576 8.89062 5.61654 9.09375 5.70117C9.29688 5.78581 9.44076 5.84505 9.52539 5.87891C9.61003 5.91276 9.74544 5.98047 9.93164 6.08203C10.1178 6.18359 10.2448 6.23438 10.3125 6.23438C10.3125 6.23438 10.3548 6.09896 10.4395 5.82812C10.5241 5.55729 10.6003 5.36263 10.668 5.24414C10.7357 5.12565 10.8288 4.93945 10.9473 4.68555C11.0658 4.43164 11.1927 4.23698 11.3281 4.10156C11.4635 3.96615 11.6328 3.8138 11.8359 3.64453C12.0391 3.47526 12.276 3.35677 12.5469 3.28906C12.8177 3.22135 13.1055 3.1875 13.4102 3.1875C13.681 3.1875 13.9349 3.22135 14.1719 3.28906C14.4089 3.35677 14.612 3.43294 14.7812 3.51758C14.9505 3.60221 15.1113 3.72917 15.2637 3.89844C15.416 4.06771 15.543 4.20312 15.6445 4.30469C15.7461 4.40625 15.8477 4.57552 15.9492 4.8125C16.0508 5.04948 16.127 5.21875 16.1777 5.32031C16.2285 5.42188 16.2962 5.59115 16.3809 5.82812C16.4655 6.0651 16.5078 6.20052 16.5078 6.23438C16.5417 6.23438 16.6855 6.17513 16.9395 6.05664C17.1934 5.93815 17.3796 5.85352 17.498 5.80273C17.6165 5.75195 17.8112 5.68424 18.082 5.59961C18.3529 5.51497 18.5814 5.47266 18.7676 5.47266C18.9538 5.47266 19.1738 5.48112 19.4277 5.49805C19.6816 5.51497 19.9271 5.59115 20.1641 5.72656C20.401 5.86198 20.638 6.04818 20.875 6.28516C21.0781 6.48828 21.2389 6.69141 21.3574 6.89453C21.4759 7.09766 21.5605 7.29232 21.6113 7.47852C21.6621 7.66471 21.6875 7.8763 21.6875 8.11328C21.6875 8.35026 21.679 8.53646 21.6621 8.67188C21.6452 8.80729 21.5944 8.99349 21.5098 9.23047C21.4251 9.46745 21.3659 9.63672 21.332 9.73828C21.2982 9.83984 21.222 10.0091 21.1035 10.2461C20.985 10.4831 20.9258 10.6185 20.9258 10.6523C20.9596 10.6523 21.1035 10.6947 21.3574 10.7793C21.6113 10.8639 21.7975 10.9401 21.916 11.0078C22.0345 11.0755 22.2207 11.1686 22.4746 11.2871C22.7285 11.4056 22.9232 11.5326 23.0586 11.668C23.194 11.8034 23.3464 11.9727 23.5156 12.1758C23.6849 12.3789 23.8034 12.6159 23.8711 12.8867C23.9388 13.1576 23.9727 13.4453 23.9727 13.75C23.9727 13.987 23.9473 14.2155 23.8965 14.4355C23.8457 14.6556 23.778 14.8503 23.6934 15.0195C23.6087 15.1888 23.5156 15.3411 23.4141 15.4766C23.3125 15.612 23.1855 15.7389 23.0332 15.8574C22.8809 15.9759 22.7454 16.069 22.627 16.1367C22.5085 16.2044 22.3561 16.2806 22.1699 16.3652C21.9837 16.4499 21.8398 16.5176 21.7383 16.5684C21.6367 16.6191 21.4844 16.6784 21.2812 16.7461C21.0781 16.8138 20.9596 16.8477 20.9258 16.8477C20.9258 16.8815 20.985 17.0254 21.1035 17.2793C21.222 17.5332 21.3066 17.7194 21.3574 17.8379C21.4082 17.9564 21.4759 18.151 21.5605 18.4219C21.6452 18.6927 21.6875 18.9212 21.6875 19.1074C21.6875 19.2936 21.679 19.5137 21.6621 19.7676C21.6452 20.0215 21.569 20.2669 21.4336 20.5039C21.2982 20.7409 21.112 20.9779 20.875 21.2148C20.7057 21.3841 20.5365 21.528 20.3672 21.6465C20.1979 21.765 20.0202 21.8496 19.834 21.9004C19.6478 21.9512 19.4701 21.9935 19.3008 22.0273C19.1315 22.0612 18.9538 22.0612 18.7676 22.0273C18.5814 21.9935 18.4206 21.9681 18.2852 21.9512C18.1497 21.9342 17.9805 21.8835 17.7773 21.7988C17.5742 21.7142 17.4219 21.6549 17.3203 21.6211C17.2188 21.5872 17.0749 21.528 16.8887 21.4434C16.7025 21.3587 16.5755 21.2995 16.5078 21.2656C16.5078 21.2995 16.4655 21.4434 16.3809 21.6973C16.2962 21.9512 16.2201 22.1374 16.1523 22.2559C16.0846 22.3743 15.9915 22.5605 15.873 22.8145C15.7546 23.0684 15.6276 23.263 15.4922 23.3984C15.3568 23.5339 15.1875 23.6862 14.9844 23.8555C14.7812 24.0247 14.5443 24.1432 14.2734 24.2109C14.0026 24.2786 13.7148 24.3125 13.4102 24.3125C13.1393 24.3125 12.8854 24.2786 12.6484 24.2109C12.4115 24.1432 12.2083 24.0671 12.0391 23.9824C11.8698 23.8978 11.709 23.7708 11.5566 23.6016C11.4043 23.4323 11.2773 23.2969 11.1758 23.1953C11.0742 23.0938 10.9727 22.9245 10.8711 22.6875C10.7695 22.4505 10.6934 22.2812 10.6426 22.1797C10.5918 22.0781 10.5241 21.9089 10.4395 21.6719C10.3548 21.4349 10.3125 21.2995 10.3125 21.2656C9.60156 21.5703 9.07682 21.7819 8.73828 21.9004C8.39974 22.0189 7.95964 22.0443 7.41797 21.9766C6.8763 21.9089 6.38542 21.6549 5.94531 21.2148C5.74219 21.0117 5.58138 20.8086 5.46289 20.6055C5.3444 20.4023 5.25977 20.2077 5.20898 20.0215C5.1582 19.8353 5.13281 19.6237 5.13281 19.3867C5.13281 19.1497 5.14128 18.9635 5.1582 18.8281C5.17513 18.6927 5.22591 18.5065 5.31055 18.2695C5.39518 18.0326 5.45443 17.8633 5.48828 17.7617C5.52214 17.6602 5.59831 17.4909 5.7168 17.2539C5.83529 17.0169 5.89453 16.8815 5.89453 16.8477Z" fill="#0F172A"/>
</g>
<defs>
<clipPath id="clip0_6142_9372">
<rect width="26.25" height="26" fill="white" transform="matrix(-1 0 0 -1 26.5352 26.75)"/>
</clipPath>
</defs>
</svg>
