<svg width="18" height="12" viewBox="0 0 18 12" fill="none" xmlns="http://www.w3.org/2000/svg">
<path d="M17.125 0.75C17.362 0.75 17.5671 0.836589 17.7402 1.00977C17.9134 1.18294 18 1.38802 18 1.625V10.375C18 10.612 17.9134 10.8171 17.7402 10.9902C17.5671 11.1634 17.362 11.25 17.125 11.25H1.375C1.13802 11.25 0.932943 11.1634 0.759766 10.9902C0.586589 10.8171 0.5 10.612 0.5 10.375V1.625C0.5 1.38802 0.586589 1.18294 0.759766 1.00977C0.932943 0.836589 1.13802 0.75 1.375 0.75H17.125ZM16.6875 8.1875V3.8125C16.1953 3.8125 15.7806 3.64388 15.4434 3.30664C15.1061 2.9694 14.9375 2.55469 14.9375 2.0625H3.5625C3.5625 2.55469 3.39388 2.9694 3.05664 3.30664C2.7194 3.64388 2.30469 3.8125 1.8125 3.8125V8.1875C2.30469 8.1875 2.7194 8.35612 3.05664 8.69336C3.39388 9.0306 3.5625 9.44531 3.5625 9.9375H14.9375C14.9375 9.44531 15.1061 9.0306 15.4434 8.69336C15.7806 8.35612 16.1953 8.1875 16.6875 8.1875ZM7.70508 4.14062C7.70508 4.14062 7.81217 4.01302 8.02637 3.75781C8.24056 3.5026 8.64844 3.375 9.25 3.375C9.85156 3.375 10.3665 3.63021 10.7949 4.14062C11.2233 4.65104 11.4375 5.27083 11.4375 6C11.4375 6.72917 11.2233 7.34896 10.7949 7.85938C10.3665 8.36979 9.85156 8.625 9.25 8.625C8.64844 8.625 8.13346 8.36979 7.70508 7.85938C7.27669 7.34896 7.0625 6.72917 7.0625 6C7.0625 5.27083 7.27669 4.65104 7.70508 4.14062Z" fill="#94A3B8"/>
</svg>
