<svg width="14" height="12" viewBox="0 0 14 12" fill="none" xmlns="http://www.w3.org/2000/svg">
<path d="M2.14844 0.5C2.27376 0.5 2.37671 0.540283 2.45728 0.62085C2.53784 0.701416 2.57812 0.804362 2.57812 0.929688V2.64844C2.57812 2.77376 2.53784 2.87671 2.45728 2.95728C2.37671 3.03784 2.27376 3.07812 2.14844 3.07812H0.429688C0.304362 3.07812 0.201416 3.03784 0.12085 2.95728C0.0402832 2.87671 0 2.77376 0 2.64844V0.929688C0 0.804362 0.0402832 0.701416 0.12085 0.62085C0.201416 0.540283 0.304362 0.5 0.429688 0.5H2.14844ZM2.14844 4.79688C2.27376 4.79688 2.37671 4.83716 2.45728 4.91772C2.53784 4.99829 2.57812 5.10124 2.57812 5.22656V6.94531C2.57812 7.07064 2.53784 7.17358 2.45728 7.25415C2.37671 7.33472 2.27376 7.375 2.14844 7.375H0.429688C0.304362 7.375 0.201416 7.33472 0.12085 7.25415C0.0402832 7.17358 0 7.07064 0 6.94531V5.22656C0 5.10124 0.0402832 4.99829 0.12085 4.91772C0.201416 4.83716 0.304362 4.79688 0.429688 4.79688H2.14844ZM2.14844 9.09375C2.27376 9.09375 2.37671 9.13403 2.45728 9.2146C2.53784 9.29517 2.57812 9.39811 2.57812 9.52344V11.2422C2.57812 11.3675 2.53784 11.4705 2.45728 11.551C2.37671 11.6316 2.27376 11.6719 2.14844 11.6719H0.429688C0.304362 11.6719 0.201416 11.6316 0.12085 11.551C0.0402832 11.4705 0 11.3675 0 11.2422V9.52344C0 9.39811 0.0402832 9.29517 0.12085 9.2146C0.201416 9.13403 0.304362 9.09375 0.429688 9.09375H2.14844ZM13.3203 5.44141C13.4456 5.44141 13.5486 5.48169 13.6292 5.56226C13.7097 5.64282 13.75 5.74577 13.75 5.87109V6.30078C13.75 6.42611 13.7097 6.52905 13.6292 6.60962C13.5486 6.69019 13.4456 6.73047 13.3203 6.73047H4.72656C4.60124 6.73047 4.49829 6.69019 4.41772 6.60962C4.33716 6.52905 4.29688 6.42611 4.29688 6.30078V5.87109C4.29688 5.74577 4.33716 5.64282 4.41772 5.56226C4.49829 5.48169 4.60124 5.44141 4.72656 5.44141H13.3203ZM13.3203 9.73828C13.4456 9.73828 13.5486 9.77856 13.6292 9.85913C13.7097 9.9397 13.75 10.0426 13.75 10.168V10.5977C13.75 10.723 13.7097 10.8259 13.6292 10.9065C13.5486 10.9871 13.4456 11.0273 13.3203 11.0273H4.72656C4.60124 11.0273 4.49829 10.9871 4.41772 10.9065C4.33716 10.8259 4.29688 10.723 4.29688 10.5977V10.168C4.29688 10.0426 4.33716 9.9397 4.41772 9.85913C4.49829 9.77856 4.60124 9.73828 4.72656 9.73828H13.3203ZM13.3203 1.14453C13.4456 1.14453 13.5486 1.18481 13.6292 1.26538C13.7097 1.34595 13.75 1.44889 13.75 1.57422V2.00391C13.75 2.12923 13.7097 2.23218 13.6292 2.31274C13.5486 2.39331 13.4456 2.43359 13.3203 2.43359H4.72656C4.60124 2.43359 4.49829 2.39331 4.41772 2.31274C4.33716 2.23218 4.29688 2.12923 4.29688 2.00391V1.57422C4.29688 1.44889 4.33716 1.34595 4.41772 1.26538C4.49829 1.18481 4.60124 1.14453 4.72656 1.14453H13.3203Z" fill="#3F51B5"/>
</svg>
