<svg width="12" height="12" viewBox="0 0 12 12" fill="none" xmlns="http://www.w3.org/2000/svg">
<path d="M11.1517 1.65708C11.2103 1.56923 11.244 1.46712 11.2491 1.36163C11.2542 1.25615 11.2306 1.15125 11.1808 1.05814C11.131 0.96502 11.0568 0.887174 10.9662 0.832907C10.8756 0.778639 10.772 0.749984 10.6664 0.75H1.33303C1.22752 0.750055 1.12399 0.778728 1.03348 0.832966C0.942974 0.887205 0.868872 0.964977 0.819068 1.058C0.769264 1.15102 0.745625 1.25581 0.750666 1.36121C0.755708 1.4666 0.789243 1.56866 0.847699 1.6565L5.41637 8.51008V10.6667H3.66637V11.8333H8.33303V10.6667H6.58303V8.51008L11.1517 1.65708ZM5.9997 7.28158L3.97845 4.25H8.02095L5.9997 7.28158ZM9.5767 1.91667L8.79911 3.08333H3.20028L2.4227 1.91667H9.5767Z" fill="#FF5887"/>
</svg>
