<svg width="14" height="15" viewBox="0 0 14 15" fill="none" xmlns="http://www.w3.org/2000/svg">
<path d="M13.8251 5.55791C13.8688 5.5336 13.9089 5.55183 13.9454 5.61263C13.9818 5.67342 14 5.75245 14 5.84972V7.08988C14 7.2601 13.9417 7.35736 13.8251 7.38168C13.4025 7.43032 12.6447 8.00176 11.5517 9.09602C11.1145 9.50941 10.8158 9.7769 10.6555 9.89848C9.67911 10.6523 8.94317 11.0292 8.44769 11.0292C7.86477 11.0292 7.41301 10.7374 7.09241 10.1538C6.75723 9.52157 6.62607 8.53674 6.69894 7.1993L6.7208 6.50627L6.3929 6.94398C5.25621 8.47594 3.67504 10.9684 1.6494 14.4214C1.54739 14.5916 1.42352 14.6768 1.27779 14.6768C1.07376 14.6768 0.928034 14.5552 0.840596 14.312C0.724012 14.0202 0.702153 13.7284 0.775018 13.4366L2.96097 4.06242C3.09212 3.55177 3.02654 3.11406 2.76423 2.74931C2.64765 2.57909 2.5092 2.49398 2.3489 2.49398C2.21774 2.49398 2.09387 2.55477 1.97729 2.67636L0.66572 4.17185C0.636574 4.19616 0.596499 4.20224 0.545493 4.19009C0.494488 4.17793 0.454412 4.13537 0.425266 4.06242L0.0317956 3.04111C-0.0264963 2.87089 -0.00463685 2.72499 0.097374 2.60341L1.3215 1.21734C1.77327 0.803954 2.17402 0.627656 2.52378 0.688449C2.87353 0.749241 3.18685 0.974172 3.46373 1.36324C3.75519 1.77663 3.94828 2.29337 4.04301 2.91345C4.13773 3.53353 4.11223 4.14753 3.9665 4.75545L2.72051 10.0079L3.33258 9.02307C5.21249 5.93482 6.43662 4.36638 7.00497 4.31775C7.25271 4.29343 7.44216 4.40286 7.57331 4.64603C7.79191 5.05942 7.86477 5.80108 7.79191 6.87103C7.70447 7.86802 7.74819 8.52458 7.92307 8.8407C8.03965 9.08387 8.21453 9.20545 8.44769 9.20545C8.79745 9.20545 9.38765 8.88933 10.2183 8.25709C10.3932 8.11119 10.6919 7.8437 11.1145 7.45463C12.3824 6.23879 13.2859 5.60655 13.8251 5.55791Z" fill="#0277BD"/>
</svg>
