<svg width="12" height="12" viewBox="0 0 12 12" fill="none" xmlns="http://www.w3.org/2000/svg">
<path d="M1.04232 11.5413V11.4638C1.04232 11.2829 1.09054 11.127 1.18698 10.9959C1.28343 10.8649 1.41371 10.7622 1.57782 10.6879C1.80804 10.581 2.04915 10.502 2.30115 10.4511C2.55315 10.4001 2.8141 10.3747 3.08398 10.3747C3.35387 10.3747 3.61462 10.4 3.86623 10.4505C4.11901 10.5018 4.36051 10.581 4.59073 10.6879C4.75407 10.7626 4.88415 10.8653 4.98098 10.9959C5.07782 11.1266 5.12604 11.2825 5.12565 11.4638V11.5413H1.04232ZM6.87565 11.5413V11.4638C6.87565 11.2829 6.92387 11.127 7.02032 10.9959C7.11676 10.8649 7.24704 10.7622 7.41115 10.6879C7.64137 10.581 7.88248 10.502 8.13448 10.4511C8.38648 10.4001 8.64743 10.3747 8.91732 10.3747C9.18721 10.3747 9.44796 10.4 9.69957 10.4505C9.95235 10.5018 10.1938 10.581 10.4241 10.6879C10.5874 10.7626 10.7175 10.8653 10.8143 10.9959C10.9112 11.1266 10.9594 11.2825 10.959 11.4638V11.5413H6.87565ZM3.08398 9.20801C2.83782 9.20801 2.63054 9.12362 2.46215 8.95484C2.29376 8.78606 2.20937 8.57879 2.20898 8.33301C2.2086 8.08723 2.29298 7.87995 2.46215 7.71117C2.63132 7.5424 2.8386 7.45801 3.08398 7.45801C3.32937 7.45801 3.53665 7.5424 3.70582 7.71117C3.87498 7.87995 3.95937 8.08723 3.95898 8.33301C3.9586 8.57879 3.87421 8.78606 3.70582 8.95484C3.53743 9.12362 3.33015 9.20801 3.08398 9.20801ZM8.91732 9.20801C8.67115 9.20801 8.46387 9.12362 8.29548 8.95484C8.1271 8.78606 8.04271 8.57879 8.04232 8.33301C8.04193 8.08723 8.12632 7.87995 8.29548 7.71117C8.46465 7.5424 8.67193 7.45801 8.91732 7.45801C9.16271 7.45801 9.36998 7.5424 9.53915 7.71117C9.70832 7.87995 9.79271 8.08723 9.79232 8.33301C9.79193 8.57879 9.70754 8.78606 9.53915 8.95484C9.37076 9.12362 9.16348 9.20801 8.91732 9.20801ZM6.00065 8.07517L4.50848 6.58301L4.86315 6.22834L5.74282 7.10451V5.59601H6.25848V7.10451L7.13815 6.22834L7.49282 6.58301L6.00065 8.07517ZM0.458984 4.54134V4.46376C0.458984 4.28292 0.507207 4.12698 0.603651 3.99592C0.700095 3.86487 0.830373 3.7622 0.994484 3.68792C1.22471 3.58098 1.46582 3.50204 1.71782 3.45109C1.96982 3.40015 2.23076 3.37467 2.50065 3.37467C2.71765 3.37467 2.92843 3.3912 3.13298 3.42426C3.33754 3.45692 3.52732 3.50515 3.70232 3.56892C3.60432 3.68948 3.52537 3.82287 3.46548 3.96909C3.4056 4.11531 3.37565 4.2802 3.37565 4.46376V4.54134H0.458984ZM3.95898 4.54134V4.46376C3.95898 4.28292 4.00721 4.12698 4.10365 3.99592C4.2001 3.86487 4.33037 3.7622 4.49448 3.68792C4.72471 3.58098 4.96582 3.50204 5.21782 3.45109C5.46982 3.40015 5.73076 3.37467 6.00065 3.37467C6.27054 3.37467 6.53129 3.39995 6.7829 3.45051C7.03568 3.50184 7.27718 3.58098 7.5074 3.68792C7.67073 3.76259 7.80082 3.86526 7.89765 3.99592C7.99448 4.12659 8.04271 4.28254 8.04232 4.46376V4.54134H3.95898ZM8.62565 4.54134V4.46376C8.62565 4.28098 8.59765 4.11609 8.54165 3.96909C8.48565 3.82209 8.40865 3.6887 8.31065 3.56892C8.48565 3.50515 8.67349 3.45692 8.87415 3.42426C9.07482 3.3912 9.28365 3.37467 9.50065 3.37467C9.76976 3.37467 10.0305 3.39995 10.2829 3.45051C10.5357 3.50184 10.7772 3.58098 11.0074 3.68792C11.1707 3.76259 11.3008 3.86526 11.3977 3.99592C11.4945 4.12659 11.5427 4.28254 11.5423 4.46376V4.54134H8.62565ZM2.50065 2.20801C2.25448 2.20801 2.04721 2.12362 1.87882 1.95484C1.71043 1.78606 1.62604 1.57879 1.62565 1.33301C1.62526 1.08723 1.70965 0.879952 1.87882 0.711174C2.04798 0.542397 2.25526 0.458008 2.50065 0.458008C2.74604 0.458008 2.95332 0.542397 3.12248 0.711174C3.29165 0.879952 3.37604 1.08723 3.37565 1.33301C3.37526 1.57879 3.29087 1.78606 3.12248 1.95484C2.9541 2.12362 2.74682 2.20801 2.50065 2.20801ZM6.00065 2.20801C5.75448 2.20801 5.54721 2.12362 5.37882 1.95484C5.21043 1.78606 5.12604 1.57879 5.12565 1.33301C5.12526 1.08723 5.20965 0.879952 5.37882 0.711174C5.54798 0.542397 5.75526 0.458008 6.00065 0.458008C6.24604 0.458008 6.45332 0.542397 6.62248 0.711174C6.79165 0.879952 6.87604 1.08723 6.87565 1.33301C6.87526 1.57879 6.79087 1.78606 6.62248 1.95484C6.4541 2.12362 6.24682 2.20801 6.00065 2.20801ZM9.50065 2.20801C9.25448 2.20801 9.04721 2.12362 8.87882 1.95484C8.71043 1.78606 8.62604 1.57879 8.62565 1.33301C8.62526 1.08723 8.70965 0.879952 8.87882 0.711174C9.04798 0.542397 9.25526 0.458008 9.50065 0.458008C9.74604 0.458008 9.95332 0.542397 10.1225 0.711174C10.2917 0.879952 10.376 1.08723 10.3757 1.33301C10.3753 1.57879 10.2909 1.78606 10.1225 1.95484C9.9541 2.12362 9.74682 2.20801 9.50065 2.20801Z" fill="black"/>
</svg>
