<svg width="14" height="14" viewBox="0 0 14 14" fill="none" xmlns="http://www.w3.org/2000/svg">
<path d="M0.929688 0C0.674479 0 0.455729 0.0911458 0.273438 0.273438C0.0911458 0.455729 0 0.674479 0 0.929688V13.0703C0 13.3255 0.0911458 13.5443 0.273438 13.7266C0.455729 13.9089 0.674479 14 0.929688 14H13.0703C13.3255 14 13.5443 13.9089 13.7266 13.7266C13.9089 13.5443 14 13.3255 14 13.0703V0.929688C14 0.674479 13.9089 0.455729 13.7266 0.273438C13.5443 0.0911458 13.3255 0 13.0703 0H0.929688ZM7.65625 12.6875V7.65625H12.6875V12.6875H7.65625ZM7.65625 6.34375V1.3125H12.6875V6.34375H7.65625ZM1.3125 12.6875V7.65625H6.34375V12.6875H1.3125ZM1.3125 6.34375V1.3125H6.34375V6.34375H1.3125ZM11.1562 4.375C11.3021 4.375 11.375 4.30208 11.375 4.15625V3.71875C11.375 3.57292 11.3021 3.5 11.1562 3.5H8.96875C8.82292 3.5 8.75 3.57292 8.75 3.71875V4.15625C8.75 4.30208 8.82292 4.375 8.96875 4.375H11.1562ZM5.03125 11.1562C5.17708 11.1562 5.25 11.0833 5.25 10.9375V10.5C5.25 10.3542 5.17708 10.2812 5.03125 10.2812H2.84375C2.69792 10.2812 2.625 10.3542 2.625 10.5V10.9375C2.625 11.0833 2.69792 11.1562 2.84375 11.1562H5.03125ZM5.03125 9.84375C5.17708 9.84375 5.25 9.77083 5.25 9.625V9.1875C5.25 9.04167 5.17708 8.96875 5.03125 8.96875H2.84375C2.69792 8.96875 2.625 9.04167 2.625 9.1875V9.625C2.625 9.77083 2.69792 9.84375 2.84375 9.84375H5.03125ZM5.03125 4.375C5.17708 4.375 5.25 4.30208 5.25 4.15625V3.71875C5.25 3.57292 5.17708 3.5 5.03125 3.5H4.375V2.84375C4.375 2.69792 4.30208 2.625 4.15625 2.625H3.71875C3.57292 2.625 3.5 2.69792 3.5 2.84375V3.5H2.84375C2.69792 3.5 2.625 3.57292 2.625 3.71875V4.15625C2.625 4.30208 2.69792 4.375 2.84375 4.375H3.5V5.03125C3.5 5.17708 3.57292 5.25 3.71875 5.25H4.15625C4.30208 5.25 4.375 5.17708 4.375 5.03125V4.375H5.03125ZM11.1562 10.8281C11.2474 10.737 11.2474 10.6367 11.1562 10.5273L10.6914 10.0625L11.1562 9.59766C11.2474 9.48828 11.2474 9.38802 11.1562 9.29688L10.8281 8.96875C10.737 8.8776 10.6367 8.8776 10.5273 8.96875L10.0625 9.43359L9.59766 8.96875C9.48828 8.8776 9.38802 8.8776 9.29688 8.96875L8.96875 9.29688C8.8776 9.38802 8.8776 9.48828 8.96875 9.59766L9.43359 10.0625L8.96875 10.5273C8.8776 10.6367 8.8776 10.737 8.96875 10.8281L9.29688 11.1562C9.38802 11.2474 9.48828 11.2474 9.59766 11.1562L10.0625 10.6914L10.5273 11.1562C10.6367 11.2474 10.737 11.2474 10.8281 11.1562L11.1562 10.8281Z" fill="#2563EB"/>
</svg>
