<svg width="14" height="14" viewBox="0 0 14 14" fill="none" xmlns="http://www.w3.org/2000/svg">
<path d="M6.17969 6.5625C5.86979 6.65365 5.60547 6.81315 5.38672 7.04102C5.16797 7.26888 5.04036 7.53776 5.00391 7.84766C4.94922 8.28516 5.05404 8.67253 5.31836 9.00977C5.58268 9.34701 5.92448 9.53385 6.34375 9.57031V10.0625C6.34375 10.1901 6.38477 10.2949 6.4668 10.377C6.54883 10.459 6.65365 10.5 6.78125 10.5H7.21875C7.34635 10.5 7.45117 10.459 7.5332 10.377C7.61523 10.2949 7.65625 10.1901 7.65625 10.0625V9.57031C7.98438 9.53385 8.27604 9.43359 8.53125 9.26953C8.60417 9.21484 8.64518 9.13281 8.6543 9.02344C8.66341 8.91406 8.63151 8.82292 8.55859 8.75L8.09375 8.28516C7.98438 8.17578 7.85677 8.15755 7.71094 8.23047C7.61979 8.26693 7.51953 8.28516 7.41016 8.28516H6.53516C6.37109 8.28516 6.28906 8.21224 6.28906 8.06641C6.28906 7.9388 6.34375 7.86589 6.45312 7.84766L7.82031 7.4375C8.13021 7.34635 8.39453 7.18685 8.61328 6.95898C8.83203 6.73112 8.95964 6.46224 8.99609 6.15234C9.05078 5.71484 8.94596 5.32747 8.68164 4.99023C8.41732 4.65299 8.07552 4.46615 7.65625 4.42969V3.9375C7.65625 3.8099 7.61523 3.70508 7.5332 3.62305C7.45117 3.54102 7.34635 3.5 7.21875 3.5H6.78125C6.65365 3.5 6.54883 3.54102 6.4668 3.62305C6.38477 3.70508 6.34375 3.8099 6.34375 3.9375V4.42969C6.01562 4.46615 5.72396 4.56641 5.46875 4.73047C5.39583 4.78516 5.35482 4.86719 5.3457 4.97656C5.33659 5.08594 5.36849 5.17708 5.44141 5.25L5.90625 5.71484C6.01562 5.82422 6.14323 5.84245 6.28906 5.76953C6.38021 5.73307 6.48047 5.71484 6.58984 5.71484H7.46484C7.62891 5.71484 7.71094 5.78776 7.71094 5.93359C7.71094 6.0612 7.65625 6.13411 7.54688 6.15234L6.17969 6.5625ZM1.28516 4.62109C0.428385 5.1862 0 5.97917 0 7C0 8.02083 0.428385 8.8138 1.28516 9.37891C1.06641 10.3633 1.32161 11.2201 2.05078 11.9492C2.77995 12.6784 3.63672 12.9336 4.62109 12.7148C5.1862 13.5716 5.97917 14 7 14C8.02083 14 8.8138 13.5716 9.37891 12.7148C10.3815 12.9336 11.2428 12.6784 11.9629 11.9492C12.6829 11.2201 12.9336 10.3633 12.7148 9.37891C13.5716 8.8138 14 8.02083 14 7C14 5.97917 13.5716 5.1862 12.7148 4.62109C12.9336 3.63672 12.6784 2.77995 11.9492 2.05078C11.2201 1.32161 10.3633 1.06641 9.37891 1.28516C8.8138 0.428385 8.02083 0 7 0C5.97917 0 5.1862 0.428385 4.62109 1.28516C3.63672 1.06641 2.77995 1.32161 2.05078 2.05078C1.32161 2.77995 1.06641 3.63672 1.28516 4.62109ZM2.95312 8.66797C2.9349 8.66797 2.85742 8.64518 2.7207 8.59961C2.58398 8.55404 2.48372 8.51758 2.41992 8.49023C2.35612 8.46289 2.25586 8.41276 2.11914 8.33984C1.98242 8.26693 1.8776 8.19401 1.80469 8.12109C1.73177 8.04818 1.64974 7.95703 1.55859 7.84766C1.46745 7.73828 1.40365 7.61068 1.36719 7.46484C1.33073 7.31901 1.3125 7.16406 1.3125 7C1.3125 6.8724 1.32617 6.75391 1.35352 6.64453C1.38086 6.53516 1.41732 6.4349 1.46289 6.34375C1.50846 6.2526 1.55859 6.16602 1.61328 6.08398C1.66797 6.00195 1.73633 5.93359 1.81836 5.87891C1.90039 5.82422 1.97331 5.77409 2.03711 5.72852C2.10091 5.68294 2.18294 5.63737 2.2832 5.5918C2.38346 5.54622 2.46094 5.51432 2.51562 5.49609C2.57031 5.47786 2.65234 5.45052 2.76172 5.41406C2.87109 5.3776 2.9349 5.35026 2.95312 5.33203C2.95312 5.3138 2.92122 5.24089 2.85742 5.11328C2.79362 4.98568 2.74805 4.88542 2.7207 4.8125C2.69336 4.73958 2.6569 4.63477 2.61133 4.49805C2.56576 4.36133 2.54297 4.23828 2.54297 4.12891C2.54297 4.01953 2.54753 3.89648 2.55664 3.75977C2.56576 3.62305 2.60677 3.49089 2.67969 3.36328C2.7526 3.23568 2.85286 3.10807 2.98047 2.98047C3.07161 2.88932 3.16732 2.81185 3.26758 2.74805C3.36784 2.68424 3.4681 2.63867 3.56836 2.61133C3.66862 2.58398 3.75977 2.5612 3.8418 2.54297C3.92383 2.52474 4.01953 2.52474 4.12891 2.54297C4.23828 2.5612 4.32943 2.57487 4.40234 2.58398C4.47526 2.5931 4.56641 2.62044 4.67578 2.66602C4.78516 2.71159 4.86263 2.74349 4.9082 2.76172C4.95378 2.77995 5.02669 2.81641 5.12695 2.87109C5.22721 2.92578 5.29557 2.95312 5.33203 2.95312C5.33203 2.95312 5.35482 2.88021 5.40039 2.73438C5.44596 2.58854 5.48698 2.48372 5.52344 2.41992C5.5599 2.35612 5.61003 2.25586 5.67383 2.11914C5.73763 1.98242 5.80599 1.8776 5.87891 1.80469C5.95182 1.73177 6.04297 1.64974 6.15234 1.55859C6.26172 1.46745 6.38932 1.40365 6.53516 1.36719C6.68099 1.33073 6.83594 1.3125 7 1.3125C7.14583 1.3125 7.28255 1.33073 7.41016 1.36719C7.53776 1.40365 7.64714 1.44466 7.73828 1.49023C7.82943 1.53581 7.91602 1.60417 7.99805 1.69531C8.08008 1.78646 8.14844 1.85938 8.20312 1.91406C8.25781 1.96875 8.3125 2.0599 8.36719 2.1875C8.42188 2.3151 8.46289 2.40625 8.49023 2.46094C8.51758 2.51562 8.55404 2.60677 8.59961 2.73438C8.64518 2.86198 8.66797 2.9349 8.66797 2.95312C8.6862 2.95312 8.76367 2.92122 8.90039 2.85742C9.03711 2.79362 9.13737 2.74805 9.20117 2.7207C9.26497 2.69336 9.36979 2.6569 9.51562 2.61133C9.66146 2.56576 9.78451 2.54297 9.88477 2.54297C9.98503 2.54297 10.1035 2.54753 10.2402 2.55664C10.377 2.56576 10.5091 2.60677 10.6367 2.67969C10.7643 2.7526 10.8919 2.85286 11.0195 2.98047C11.1289 3.08984 11.2155 3.19922 11.2793 3.30859C11.3431 3.41797 11.3887 3.52279 11.416 3.62305C11.4434 3.72331 11.457 3.83724 11.457 3.96484C11.457 4.09245 11.4525 4.19271 11.4434 4.26562C11.4342 4.33854 11.4069 4.4388 11.3613 4.56641C11.3158 4.69401 11.2839 4.78516 11.2656 4.83984C11.2474 4.89453 11.2064 4.98568 11.1426 5.11328C11.0788 5.24089 11.0469 5.3138 11.0469 5.33203C11.0651 5.33203 11.1426 5.35482 11.2793 5.40039C11.416 5.44596 11.5163 5.48698 11.5801 5.52344C11.6439 5.5599 11.7441 5.61003 11.8809 5.67383C12.0176 5.73763 12.1224 5.80599 12.1953 5.87891C12.2682 5.95182 12.3503 6.04297 12.4414 6.15234C12.5326 6.26172 12.5964 6.38932 12.6328 6.53516C12.6693 6.68099 12.6875 6.83594 12.6875 7C12.6875 7.1276 12.6738 7.25065 12.6465 7.36914C12.6191 7.48763 12.5827 7.59245 12.5371 7.68359C12.4915 7.77474 12.4414 7.85677 12.3867 7.92969C12.332 8.0026 12.2637 8.07096 12.1816 8.13477C12.0996 8.19857 12.0267 8.2487 11.9629 8.28516C11.8991 8.32161 11.8171 8.36263 11.7168 8.4082C11.6165 8.45378 11.5391 8.49023 11.4844 8.51758C11.4297 8.54492 11.3477 8.57682 11.2383 8.61328C11.1289 8.64974 11.0651 8.66797 11.0469 8.66797C11.0469 8.6862 11.0788 8.76367 11.1426 8.90039C11.2064 9.03711 11.252 9.13737 11.2793 9.20117C11.3066 9.26497 11.3431 9.36979 11.3887 9.51562C11.4342 9.66146 11.457 9.78451 11.457 9.88477C11.457 9.98503 11.4525 10.1035 11.4434 10.2402C11.4342 10.377 11.3932 10.5091 11.3203 10.6367C11.2474 10.7643 11.1471 10.8919 11.0195 11.0195C10.9284 11.1107 10.8372 11.1882 10.7461 11.252C10.6549 11.3158 10.5592 11.3613 10.459 11.3887C10.3587 11.416 10.263 11.4388 10.1719 11.457C10.0807 11.4753 9.98503 11.4753 9.88477 11.457C9.78451 11.4388 9.69792 11.4251 9.625 11.416C9.55208 11.4069 9.46094 11.3796 9.35156 11.334C9.24219 11.2884 9.16016 11.2565 9.10547 11.2383C9.05078 11.2201 8.97331 11.1882 8.87305 11.1426C8.77279 11.097 8.70443 11.0651 8.66797 11.0469C8.66797 11.0651 8.64518 11.1426 8.59961 11.2793C8.55404 11.416 8.51302 11.5163 8.47656 11.5801C8.4401 11.6439 8.38997 11.7441 8.32617 11.8809C8.26237 12.0176 8.19401 12.1224 8.12109 12.1953C8.04818 12.2682 7.95703 12.3503 7.84766 12.4414C7.73828 12.5326 7.61068 12.5964 7.46484 12.6328C7.31901 12.6693 7.16406 12.6875 7 12.6875C6.85417 12.6875 6.71745 12.6693 6.58984 12.6328C6.46224 12.5964 6.35286 12.5553 6.26172 12.5098C6.17057 12.4642 6.08398 12.3958 6.00195 12.3047C5.91992 12.2135 5.85156 12.1406 5.79688 12.0859C5.74219 12.0312 5.6875 11.9401 5.63281 11.8125C5.57812 11.6849 5.53711 11.5938 5.50977 11.5391C5.48242 11.4844 5.44596 11.3932 5.40039 11.2656C5.35482 11.138 5.33203 11.0651 5.33203 11.0469C4.94922 11.2109 4.66667 11.3249 4.48438 11.3887C4.30208 11.4525 4.0651 11.4661 3.77344 11.4297C3.48177 11.3932 3.21745 11.2565 2.98047 11.0195C2.87109 10.9102 2.78451 10.8008 2.7207 10.6914C2.6569 10.582 2.61133 10.4772 2.58398 10.377C2.55664 10.2767 2.54297 10.1628 2.54297 10.0352C2.54297 9.90755 2.54753 9.80729 2.55664 9.73438C2.56576 9.66146 2.5931 9.5612 2.63867 9.43359C2.68424 9.30599 2.71615 9.21484 2.73438 9.16016C2.7526 9.10547 2.79362 9.01432 2.85742 8.88672C2.92122 8.75911 2.95312 8.6862 2.95312 8.66797Z" fill="#0F172A"/>
</svg>
