<svg width="14" height="14" viewBox="0 0 14 14" fill="none" xmlns="http://www.w3.org/2000/svg">
<path d="M6.99935 5.25C6.68993 5.25 6.39318 5.37292 6.17439 5.59171C5.9556 5.8105 5.83268 6.10725 5.83268 6.41667C5.83268 6.72609 5.9556 7.02283 6.17439 7.24162C6.39318 7.46042 6.68993 7.58333 6.99935 7.58333C7.30877 7.58333 7.60551 7.46042 7.82431 7.24162C8.0431 7.02283 8.16602 6.72609 8.16602 6.41667C8.16602 6.10725 8.0431 5.8105 7.82431 5.59171C7.60551 5.37292 7.30877 5.25 6.99935 5.25ZM4.66602 10.2083C4.66602 9.7442 4.85039 9.29908 5.17858 8.9709C5.50677 8.64271 5.95189 8.45833 6.41602 8.45833H7.58268C8.04681 8.45833 8.49193 8.64271 8.82012 8.9709C9.14831 9.29908 9.33268 9.7442 9.33268 10.2083C9.33268 10.363 9.27122 10.5114 9.16183 10.6208C9.05243 10.7302 8.90406 10.7917 8.74935 10.7917H5.24935C5.09464 10.7917 4.94627 10.7302 4.83687 10.6208C4.72747 10.5114 4.66602 10.363 4.66602 10.2083Z" fill="#EF6C00"/>
<path fill-rule="evenodd" clip-rule="evenodd" d="M4.08268 1.3125C3.65723 1.3125 3.2492 1.48151 2.94837 1.78235C2.64753 2.08319 2.47852 2.49122 2.47852 2.91667V11.0833C2.47852 11.5088 2.64753 11.9168 2.94837 12.2177C3.2492 12.5185 3.65723 12.6875 4.08268 12.6875H9.91602C10.3415 12.6875 10.7495 12.5185 11.0503 12.2177C11.3512 11.9168 11.5202 11.5088 11.5202 11.0833V4.78217C11.5202 4.56871 11.4533 4.36062 11.3289 4.18717L9.57068 1.73833C9.47623 1.60666 9.35179 1.49936 9.20765 1.42531C9.06351 1.35126 8.90381 1.31259 8.74177 1.3125H4.08268ZM3.35352 2.91667C3.35352 2.51417 3.68018 2.1875 4.08268 2.1875H8.31185V4.75242C8.31185 4.99392 8.50785 5.18992 8.74935 5.18992H10.6452V11.0833C10.6452 11.4858 10.3185 11.8125 9.91602 11.8125H4.08268C3.68018 11.8125 3.35352 11.4858 3.35352 11.0833V2.91667Z" fill="#EF6C00"/>
</svg>
