<svg width="15" height="15" viewBox="0 0 15 15" fill="none" xmlns="http://www.w3.org/2000/svg">
<path d="M0.75 2.25V13.25C0.75 13.6667 0.895833 14.0208 1.1875 14.3125C1.47917 14.6042 1.83333 14.75 2.25 14.75H13.25C13.6667 14.75 14.0208 14.6042 14.3125 14.3125C14.6042 14.0208 14.75 13.6667 14.75 13.25V2.25C14.75 1.83333 14.6042 1.47917 14.3125 1.1875C14.0208 0.895833 13.6667 0.75 13.25 0.75H2.25C1.83333 0.75 1.47917 0.895833 1.1875 1.1875C0.895833 1.47917 0.75 1.83333 0.75 2.25ZM2.25 13.0625V2.4375C2.25 2.3125 2.3125 2.25 2.4375 2.25H13.0625C13.1875 2.25 13.25 2.3125 13.25 2.4375V13.0625C13.25 13.1875 13.1875 13.25 13.0625 13.25H2.4375C2.3125 13.25 2.25 13.1875 2.25 13.0625ZM4.40625 6.03125C4.40625 6.51042 4.52083 6.91667 4.75 7.25C4.97917 7.58333 5.23958 7.82292 5.53125 7.96875C5.82292 8.11458 6.08333 8.27083 6.3125 8.4375C6.54167 8.60417 6.65625 8.77083 6.65625 8.9375V9.125C6.65625 9.22917 6.69271 9.31771 6.76562 9.39062C6.83854 9.46354 6.92708 9.5 7.03125 9.5H8.46875C8.57292 9.5 8.66146 9.46354 8.73438 9.39062C8.80729 9.31771 8.84375 9.22917 8.84375 9.125V8.84375C8.84375 8.59375 8.80208 8.36458 8.71875 8.15625C8.63542 7.94792 8.5 7.76042 8.3125 7.59375C8.125 7.42708 7.97917 7.30729 7.875 7.23438C7.77083 7.16146 7.59375 7.0625 7.34375 6.9375C7.13542 6.8125 6.97917 6.71354 6.875 6.64062C6.77083 6.56771 6.67708 6.47396 6.59375 6.35938C6.51042 6.24479 6.46875 6.125 6.46875 6C6.46875 5.75 6.59896 5.54167 6.85938 5.375C7.11979 5.20833 7.40625 5.125 7.71875 5.125C7.94792 5.125 8.15104 5.16146 8.32812 5.23438C8.50521 5.30729 8.65625 5.40625 8.78125 5.53125C8.90625 5.65625 9.0625 5.83333 9.25 6.0625C9.39583 6.25 9.5625 6.27083 9.75 6.125L10.625 5.46875C10.8125 5.32292 10.8438 5.14583 10.7188 4.9375C9.94792 3.8125 8.89583 3.25 7.5625 3.25C6.77083 3.25 6.04688 3.52083 5.39062 4.0625C4.73438 4.60417 4.40625 5.26042 4.40625 6.03125ZM6.82812 10.3281C6.82812 10.3281 6.76302 10.3932 6.63281 10.5234C6.5026 10.6536 6.4375 10.8958 6.4375 11.25C6.4375 11.6042 6.56771 11.9115 6.82812 12.1719C7.08854 12.4323 7.39583 12.5625 7.75 12.5625C8.10417 12.5625 8.41146 12.4323 8.67188 12.1719C8.93229 11.9115 9.0625 11.6042 9.0625 11.25C9.0625 10.8958 8.93229 10.5885 8.67188 10.3281C8.41146 10.0677 8.10417 9.9375 7.75 9.9375C7.39583 9.9375 7.08854 10.0677 6.82812 10.3281Z" fill="#9333EA"/>
</svg>
