<svg width="18" height="13" viewBox="0 0 18 13" fill="none" xmlns="http://www.w3.org/2000/svg">
<path d="M14.7168 5.93555C14.7168 5.93555 14.5915 6.06087 14.3408 6.31152C14.0902 6.56217 13.6068 6.6875 12.8906 6.6875C12.1745 6.6875 11.5658 6.43685 11.0645 5.93555C10.5632 5.43424 10.3125 4.82552 10.3125 4.10938C10.3125 3.39323 10.5632 2.78451 11.0645 2.2832C11.5658 1.7819 12.1745 1.53125 12.8906 1.53125C13.6068 1.53125 14.2155 1.7819 14.7168 2.2832C15.2181 2.78451 15.4688 3.39323 15.4688 4.10938C15.4688 4.82552 15.2181 5.43424 14.7168 5.93555ZM13.8037 3.19629C13.8037 3.19629 13.741 3.13363 13.6157 3.0083C13.4904 2.88298 13.2487 2.82031 12.8906 2.82031C12.5326 2.82031 12.2282 2.94564 11.9775 3.19629C11.7269 3.44694 11.6016 3.7513 11.6016 4.10938C11.6016 4.46745 11.7269 4.77181 11.9775 5.02246C12.2282 5.27311 12.5326 5.39844 12.8906 5.39844C13.2487 5.39844 13.5531 5.27311 13.8037 5.02246C14.0544 4.77181 14.1797 4.46745 14.1797 4.10938C14.1797 3.7513 14.0544 3.44694 13.8037 3.19629ZM7.30469 7.22461C8.39681 7.22461 9.22038 7.64535 9.77539 8.48682C10.1335 9.00602 10.3125 9.57894 10.3125 10.2056V11.4141C10.3125 11.7721 10.1872 12.0765 9.93652 12.3271C9.68587 12.5778 9.38151 12.7031 9.02344 12.7031H1.28906C0.93099 12.7031 0.626628 12.5778 0.375977 12.3271C0.125326 12.0765 0 11.7721 0 11.4141V10.2056C0 9.57894 0.170085 9.00602 0.510254 8.48682C1.08317 7.64535 1.91569 7.22461 3.00781 7.22461C3.33008 7.22461 3.64339 7.26937 3.94775 7.35889C4.34163 7.48421 4.73999 7.54688 5.14282 7.54688C5.54565 7.54688 5.95296 7.48421 6.36475 7.35889C6.66911 7.26937 6.98242 7.22461 7.30469 7.22461ZM9.02344 11.4141V10.2056C9.02344 9.82959 8.91602 9.48494 8.70117 9.17163C8.48633 8.85832 8.19987 8.639 7.8418 8.51367C7.55534 8.40625 7.26888 8.40625 6.98242 8.51367C6.3916 8.72852 5.78288 8.83594 5.15625 8.83594C4.52962 8.83594 3.9209 8.72852 3.33008 8.51367C3.04362 8.40625 2.75716 8.40625 2.4707 8.51367C2.13053 8.639 1.84855 8.85832 1.62476 9.17163C1.40096 9.48494 1.28906 9.82959 1.28906 10.2056V11.4141H9.02344ZM7.27783 5.80127C7.27783 5.80127 7.13013 5.94897 6.83472 6.24438C6.53931 6.53979 5.97982 6.6875 5.15625 6.6875C4.33268 6.6875 3.62549 6.39209 3.03467 5.80127C2.44385 5.21045 2.14844 4.50326 2.14844 3.67969C2.14844 2.85612 2.44385 2.14893 3.03467 1.55811C3.62549 0.967285 4.33268 0.671875 5.15625 0.671875C5.97982 0.671875 6.68701 0.967285 7.27783 1.55811C7.86865 2.14893 8.16406 2.85612 8.16406 3.67969C8.16406 4.50326 7.86865 5.21045 7.27783 5.80127ZM6.36475 2.47119C6.36475 2.47119 6.2797 2.38615 6.10962 2.21606C5.93953 2.04598 5.62174 1.96094 5.15625 1.96094C4.69076 1.96094 4.28792 2.13102 3.94775 2.47119C3.60758 2.81136 3.4375 3.21419 3.4375 3.67969C3.4375 4.14518 3.60758 4.54801 3.94775 4.88818C4.28792 5.22835 4.69076 5.39844 5.15625 5.39844C5.62174 5.39844 6.02458 5.22835 6.36475 4.88818C6.70492 4.54801 6.875 4.14518 6.875 3.67969C6.875 3.21419 6.70492 2.81136 6.36475 2.47119ZM16.7578 8.32568C17.0443 8.75537 17.1875 9.23877 17.1875 9.77588V10.7695C17.1875 11.0739 17.0846 11.329 16.8787 11.5349C16.6728 11.7408 16.4176 11.8438 16.1133 11.8438H11.1182C11.154 11.7005 11.1719 11.5573 11.1719 11.4141V10.5547H15.8984V9.74902C15.8984 9.49837 15.8268 9.26562 15.6836 9.05078C15.4688 8.72852 15.1375 8.56738 14.6899 8.56738C14.5825 8.56738 14.3498 8.61214 13.9917 8.70166C13.6336 8.79118 13.2666 8.83594 12.8906 8.83594C12.5146 8.83594 12.1476 8.79118 11.7896 8.70166C11.4315 8.61214 11.1987 8.56738 11.0913 8.56738C11.0018 8.56738 10.9123 8.57633 10.8228 8.59424C10.7153 8.37939 10.6079 8.18245 10.5005 8.00342C10.3931 7.84229 10.2498 7.6722 10.0708 7.49316C10.411 7.34993 10.7511 7.27832 11.0913 7.27832C11.342 7.27832 11.6284 7.32308 11.9507 7.4126C12.2729 7.50212 12.5863 7.54688 12.8906 7.54688C13.195 7.54688 13.5083 7.50212 13.8306 7.4126C14.1528 7.32308 14.4393 7.27832 14.6899 7.27832C15.5851 7.27832 16.2744 7.62744 16.7578 8.32568Z" fill="#6D45BC"/>
</svg>
