<svg width="16" height="12" viewBox="0 0 16 12" fill="none" xmlns="http://www.w3.org/2000/svg">
<path d="M10.7422 4.57031H4.72656V7.14844H10.7422V4.57031ZM11.3867 3.28125C11.5658 3.28125 11.7179 3.34391 11.8433 3.46924C11.9686 3.59456 12.0312 3.74674 12.0312 3.92578V7.79297C12.0312 7.97201 11.9686 8.12419 11.8433 8.24951C11.7179 8.37484 11.5658 8.4375 11.3867 8.4375H4.08203C3.90299 8.4375 3.75081 8.37484 3.62549 8.24951C3.50016 8.12419 3.4375 7.97201 3.4375 7.79297V3.92578C3.4375 3.74674 3.50016 3.59456 3.62549 3.46924C3.75081 3.34391 3.90299 3.28125 4.08203 3.28125H11.3867ZM15.2539 4.78516C14.9495 4.78516 14.6944 4.8881 14.4885 5.09399C14.2826 5.29989 14.1797 5.55501 14.1797 5.85938C14.1797 6.16374 14.2826 6.41886 14.4885 6.62476C14.6944 6.83065 14.9495 6.93359 15.2539 6.93359H15.4688V9.72656C15.4688 10.0846 15.3434 10.389 15.0928 10.6396C14.8421 10.8903 14.5378 11.0156 14.1797 11.0156H1.28906C0.93099 11.0156 0.626628 10.8903 0.375977 10.6396C0.125326 10.389 0 10.0846 0 9.72656V6.93359H0.214844C0.519206 6.93359 0.774333 6.83065 0.980225 6.62476C1.18612 6.41886 1.28906 6.16374 1.28906 5.85938C1.28906 5.55501 1.18612 5.29989 0.980225 5.09399C0.774333 4.8881 0.519206 4.78516 0.214844 4.78516H0V1.99219C0 1.63411 0.125326 1.32975 0.375977 1.0791C0.626628 0.828451 0.93099 0.703125 1.28906 0.703125H14.1797C14.5378 0.703125 14.8421 0.828451 15.0928 1.0791C15.3434 1.32975 15.4688 1.63411 15.4688 1.99219V4.78516H15.2539ZM14.1797 3.76465V1.99219H1.28906V3.76465C1.68294 3.96159 1.99626 4.24805 2.229 4.62402C2.46175 5 2.57812 5.41178 2.57812 5.85938C2.57812 6.30697 2.46175 6.71875 2.229 7.09473C1.99626 7.4707 1.68294 7.75716 1.28906 7.9541V9.72656H14.1797V7.9541C13.7858 7.75716 13.4725 7.4707 13.2397 7.09473C13.007 6.71875 12.8906 6.30697 12.8906 5.85938C12.8906 5.41178 13.007 5 13.2397 4.62402C13.4725 4.24805 13.7858 3.96159 14.1797 3.76465Z" fill="#178D81"/>
</svg>
