<svg width="31" height="27" viewBox="0 0 31 27" fill="none" xmlns="http://www.w3.org/2000/svg">
<g clip-path="url(#clip0_6142_9384)">
<path d="M9.73047 11.3125H21.1055V16.1875H9.73047V11.3125ZM8.51172 8.875C8.17318 8.875 7.88542 8.99349 7.64844 9.23047C7.41146 9.46745 7.29297 9.75521 7.29297 10.0938V17.4062C7.29297 17.7448 7.41146 18.0326 7.64844 18.2695C7.88542 18.5065 8.17318 18.625 8.51172 18.625H22.3242C22.6628 18.625 22.9505 18.5065 23.1875 18.2695C23.4245 18.0326 23.543 17.7448 23.543 17.4062V10.0938C23.543 9.75521 23.4245 9.46745 23.1875 9.23047C22.9505 8.99349 22.6628 8.875 22.3242 8.875H8.51172ZM1.19922 11.7188C1.77474 11.7188 2.25716 11.9134 2.64648 12.3027C3.03581 12.6921 3.23047 13.1745 3.23047 13.75C3.23047 14.3255 3.03581 14.8079 2.64648 15.1973C2.25716 15.5866 1.77474 15.7812 1.19922 15.7812H0.792969V21.0625C0.792969 21.7396 1.02995 22.3151 1.50391 22.7891C1.97786 23.263 2.55339 23.5 3.23047 23.5H27.6055C28.2826 23.5 28.8581 23.263 29.332 22.7891C29.806 22.3151 30.043 21.7396 30.043 21.0625V15.7812H29.6367C29.0612 15.7812 28.5788 15.5866 28.1895 15.1973C27.8001 14.8079 27.6055 14.3255 27.6055 13.75C27.6055 13.1745 27.8001 12.6921 28.1895 12.3027C28.5788 11.9134 29.0612 11.7188 29.6367 11.7188H30.043V6.4375C30.043 5.76042 29.806 5.1849 29.332 4.71094C28.8581 4.23698 28.2826 4 27.6055 4H3.23047C2.55339 4 1.97786 4.23698 1.50391 4.71094C1.02995 5.1849 0.792969 5.76042 0.792969 6.4375V11.7188H1.19922ZM3.23047 9.78906V6.4375H27.6055V9.78906C26.8607 10.1615 26.2682 10.7031 25.8281 11.4141C25.388 12.125 25.168 12.9036 25.168 13.75C25.168 14.5964 25.388 15.375 25.8281 16.0859C26.2682 16.7969 26.8607 17.3385 27.6055 17.7109V21.0625H3.23047V17.7109C3.97526 17.3385 4.56771 16.7969 5.00781 16.0859C5.44792 15.375 5.66797 14.5964 5.66797 13.75C5.66797 12.9036 5.44792 12.125 5.00781 11.4141C4.56771 10.7031 3.97526 10.1615 3.23047 9.78906Z" fill="#0D9488"/>
</g>
<defs>
<clipPath id="clip0_6142_9384">
<rect width="29.53" height="26" fill="white" transform="matrix(-1 0 0 -1 30.1836 26.75)"/>
</clipPath>
</defs>
</svg>
