<svg width="17" height="15" viewBox="0 0 17 15" fill="none" xmlns="http://www.w3.org/2000/svg">
<g clip-path="url(#clip0_3777_19017)">
<path d="M11.8691 5.96094H5.85352V8.53906H11.8691V5.96094ZM12.5137 4.67188C12.6927 4.67188 12.8449 4.73454 12.9702 4.85986C13.0955 4.98519 13.1582 5.13737 13.1582 5.31641V9.18359C13.1582 9.36263 13.0955 9.51481 12.9702 9.64014C12.8449 9.76546 12.6927 9.82812 12.5137 9.82812H5.20898C5.02995 9.82812 4.87777 9.76546 4.75244 9.64014C4.62712 9.51481 4.56445 9.36263 4.56445 9.18359V5.31641C4.56445 5.13737 4.62712 4.98519 4.75244 4.85986C4.87777 4.73454 5.02995 4.67188 5.20898 4.67188H12.5137ZM16.3809 6.17578C16.0765 6.17578 15.8214 6.27873 15.6155 6.48462C15.4096 6.69051 15.3066 6.94564 15.3066 7.25C15.3066 7.55436 15.4096 7.80949 15.6155 8.01538C15.8214 8.22127 16.0765 8.32422 16.3809 8.32422H16.5957V11.1172C16.5957 11.4753 16.4704 11.7796 16.2197 12.0303C15.9691 12.2809 15.6647 12.4062 15.3066 12.4062H2.41602C2.05794 12.4062 1.75358 12.2809 1.50293 12.0303C1.25228 11.7796 1.12695 11.4753 1.12695 11.1172V8.32422H1.3418C1.64616 8.32422 1.90129 8.22127 2.10718 8.01538C2.31307 7.80949 2.41602 7.55436 2.41602 7.25C2.41602 6.94564 2.31307 6.69051 2.10718 6.48462C1.90129 6.27873 1.64616 6.17578 1.3418 6.17578H1.12695V3.38281C1.12695 3.02474 1.25228 2.72038 1.50293 2.46973C1.75358 2.21908 2.05794 2.09375 2.41602 2.09375H15.3066C15.6647 2.09375 15.9691 2.21908 16.2197 2.46973C16.4704 2.72038 16.5957 3.02474 16.5957 3.38281V6.17578H16.3809ZM15.3066 5.15527V3.38281H2.41602V5.15527C2.8099 5.35221 3.12321 5.63867 3.35596 6.01465C3.5887 6.39062 3.70508 6.80241 3.70508 7.25C3.70508 7.69759 3.5887 8.10938 3.35596 8.48535C3.12321 8.86133 2.8099 9.14779 2.41602 9.34473V11.1172H15.3066V9.34473C14.9128 9.14779 14.5994 8.86133 14.3667 8.48535C14.134 8.10938 14.0176 7.69759 14.0176 7.25C14.0176 6.80241 14.134 6.39062 14.3667 6.01465C14.5994 5.63867 14.9128 5.35221 15.3066 5.15527Z" fill="#178D81"/>
</g>
<defs>
<clipPath id="clip0_3777_19017">
<rect width="15.76" height="13.75" fill="white" transform="matrix(1 0 0 -1 0.980469 14.125)"/>
</clipPath>
</defs>
</svg>
