<svg width="10" height="15" viewBox="0 0 10 15" fill="none" xmlns="http://www.w3.org/2000/svg">
<g clip-path="url(#clip0_4248_707)">
<path d="M6.46045 7.25635L9.33398 10.1567C9.54883 10.3537 9.54883 10.5506 9.33398 10.7476L8.6626 11.4189C8.46566 11.6338 8.26872 11.6338 8.07178 11.4189L5.17139 8.54541L2.271 11.4189C2.07406 11.6338 1.87712 11.6338 1.68018 11.4189L1.00879 10.7476C0.793945 10.5506 0.793945 10.3537 1.00879 10.1567L3.88232 7.25635L1.00879 4.35596C0.793945 4.15902 0.793945 3.96208 1.00879 3.76514L1.68018 3.09375C1.87712 2.87891 2.07406 2.87891 2.271 3.09375L5.17139 5.96729L8.07178 3.09375C8.26872 2.87891 8.46566 2.87891 8.6626 3.09375L9.33398 3.76514C9.54883 3.96208 9.54883 4.15902 9.33398 4.35596L6.46045 7.25635Z" fill="#94A3B8"/>
</g>
<defs>
<clipPath id="clip0_4248_707">
<rect width="8.75" height="13.75" fill="white" transform="matrix(1 0 0 -1 0.769531 14.1309)"/>
</clipPath>
</defs>
</svg>
