<svg width="9" height="10" viewBox="0 0 9 10" fill="none" xmlns="http://www.w3.org/2000/svg">
<path d="M5.84766 5L8.77344 7.95312C8.99219 8.15365 8.99219 8.35417 8.77344 8.55469L8.08984 9.23828C7.88932 9.45703 7.6888 9.45703 7.48828 9.23828L4.53516 6.3125L1.58203 9.23828C1.38151 9.45703 1.18099 9.45703 0.980469 9.23828L0.296875 8.55469C0.078125 8.35417 0.078125 8.15365 0.296875 7.95312L3.22266 5L0.296875 2.04688C0.078125 1.84635 0.078125 1.64583 0.296875 1.44531L0.980469 0.761719C1.18099 0.542969 1.38151 0.542969 1.58203 0.761719L4.53516 3.6875L7.48828 0.761719C7.6888 0.542969 7.88932 0.542969 8.08984 0.761719L8.77344 1.44531C8.99219 1.64583 8.99219 1.84635 8.77344 2.04688L5.84766 5Z" fill="#E4E4E7"/>
</svg>
