<svg width="56" height="56" viewBox="0 0 56 56" fill="none" xmlns="http://www.w3.org/2000/svg">
<path d="M28.0123 28.0229C33.5903 28.0229 38.1373 23.0549 38.1373 17.0079C38.1373 11.0079 33.6373 6.29688 28.0123 6.29688C22.4573 6.29688 17.8873 11.1019 17.8873 17.0549C17.9103 23.0779 22.4573 28.0229 28.0123 28.0229ZM28.0123 24.4839C24.5903 24.4839 21.6603 21.2039 21.6603 17.0539C21.6603 12.9769 24.5433 9.83588 28.0123 9.83588C31.5273 9.83588 34.3633 12.9299 34.3633 17.0079C34.3633 21.1559 31.4803 24.4839 28.0123 24.4839ZM13.2933 49.7039H42.7313C46.6213 49.7039 48.4733 48.5309 48.4733 45.9539C48.4733 39.8119 40.7383 30.9299 28.0123 30.9299C15.2853 30.9299 7.52734 39.8129 7.52734 45.9529C7.52734 48.5309 9.37934 49.7039 13.2933 49.7039ZM12.1683 46.1629C11.5583 46.1629 11.3013 45.9989 11.3013 45.5069C11.3013 41.6629 17.2543 34.4669 28.0113 34.4669C38.7703 34.4669 44.6993 41.6629 44.6993 45.5069C44.6993 45.9989 44.4653 46.1629 43.8563 46.1629H12.1683Z" fill="black"/>
</svg>
