<svg width="13" height="14" viewBox="0 0 13 14" fill="none" xmlns="http://www.w3.org/2000/svg">
<g clip-path="url(#clip0_3756_6192)">
<path d="M4.54688 7.875H3.45312C3.23438 7.875 3.125 7.76562 3.125 7.54688V6.45312C3.125 6.23438 3.23438 6.125 3.45312 6.125H4.54688C4.76562 6.125 4.875 6.23438 4.875 6.45312V7.54688C4.875 7.76562 4.76562 7.875 4.54688 7.875ZM7.5 7.54688C7.5 7.76562 7.39062 7.875 7.17188 7.875H6.07812C5.85938 7.875 5.75 7.76562 5.75 7.54688V6.45312C5.75 6.23438 5.85938 6.125 6.07812 6.125H7.17188C7.39062 6.125 7.5 6.23438 7.5 6.45312V7.54688ZM10.125 7.54688C10.125 7.76562 10.0156 7.875 9.79688 7.875H8.70312C8.48438 7.875 8.375 7.76562 8.375 7.54688V6.45312C8.375 6.23438 8.48438 6.125 8.70312 6.125H9.79688C10.0156 6.125 10.125 6.23438 10.125 6.45312V7.54688ZM7.5 10.1719C7.5 10.3906 7.39062 10.5 7.17188 10.5H6.07812C5.85938 10.5 5.75 10.3906 5.75 10.1719V9.07812C5.75 8.85938 5.85938 8.75 6.07812 8.75H7.17188C7.39062 8.75 7.5 8.85938 7.5 9.07812V10.1719ZM4.875 10.1719C4.875 10.3906 4.76562 10.5 4.54688 10.5H3.45312C3.23438 10.5 3.125 10.3906 3.125 10.1719V9.07812C3.125 8.85938 3.23438 8.75 3.45312 8.75H4.54688C4.76562 8.75 4.875 8.85938 4.875 9.07812V10.1719ZM10.125 10.1719C10.125 10.3906 10.0156 10.5 9.79688 10.5H8.70312C8.48438 10.5 8.375 10.3906 8.375 10.1719V9.07812C8.375 8.85938 8.48438 8.75 8.70312 8.75H9.79688C10.0156 8.75 10.125 8.85938 10.125 9.07812V10.1719ZM12.75 3.0625V12.6875C12.75 13.0521 12.6224 13.362 12.3672 13.6172C12.112 13.8724 11.8021 14 11.4375 14H1.8125C1.44792 14 1.13802 13.8724 0.882812 13.6172C0.627604 13.362 0.5 13.0521 0.5 12.6875V3.0625C0.5 2.69792 0.627604 2.38802 0.882812 2.13281C1.13802 1.8776 1.44792 1.75 1.8125 1.75H3.125V0.328125C3.125 0.109375 3.23438 0 3.45312 0H4.54688C4.76562 0 4.875 0.109375 4.875 0.328125V1.75H8.375V0.328125C8.375 0.109375 8.48438 0 8.70312 0H9.79688C10.0156 0 10.125 0.109375 10.125 0.328125V1.75H11.4375C11.8021 1.75 12.112 1.8776 12.3672 2.13281C12.6224 2.38802 12.75 2.69792 12.75 3.0625ZM11.4375 12.5234V4.375H1.8125V12.5234C1.8125 12.6328 1.86719 12.6875 1.97656 12.6875H11.2734C11.3828 12.6875 11.4375 12.6328 11.4375 12.5234Z" fill="black"/>
</g>
<defs>
<clipPath id="clip0_3756_6192">
<rect width="12.25" height="14" fill="white" transform="matrix(1 0 0 -1 0.5 14)"/>
</clipPath>
</defs>
</svg>
