<svg width="15" height="25" viewBox="0 0 15 25" fill="none" xmlns="http://www.w3.org/2000/svg">
<g clip-path="url(#clip0_3565_417)">
<path d="M7.69931 17.9551C7.51475 18.1191 7.34045 18.1191 7.17641 17.9551L0.74779 11.4957C0.563237 11.3317 0.563237 11.1676 0.74779 11.0036L7.17641 4.5442C7.34045 4.38015 7.51475 4.38015 7.69931 4.5442L8.31449 5.15938C8.47853 5.32342 8.47853 5.49772 8.31449 5.68228L3.54685 10.4499H14.0356C14.2817 10.4499 14.4048 10.5729 14.4048 10.819V11.6803C14.4048 11.9263 14.2817 12.0494 14.0356 12.0494H3.54685L8.31449 16.817C8.47853 17.0016 8.47853 17.1759 8.31449 17.3399L7.69931 17.9551Z" fill="#334155"/>
</g>
<defs>
<clipPath id="clip0_3565_417">
<rect width="13.78" height="16" fill="white" transform="matrix(1 0 0 -1 0.609375 19.25)"/>
</clipPath>
</defs>
</svg>
