<svg width="23" height="28" viewBox="0 0 23 28" fill="none" xmlns="http://www.w3.org/2000/svg">
<g clip-path="url(#clip0_4217_24663)">
<path d="M11.8274 25.1719C11.5198 25.4453 11.2292 25.4453 10.9558 25.1719L0.240479 14.4053C-0.0671387 14.1318 -0.0671387 13.8584 0.240479 13.585L10.9558 2.81836C11.2292 2.54492 11.5198 2.54492 11.8274 2.81836L12.8528 3.84375C13.1262 4.11719 13.1262 4.40771 12.8528 4.71533L4.90601 12.6621H22.3889C22.7991 12.6621 23.0042 12.8672 23.0042 13.2773V14.7129C23.0042 15.123 22.7991 15.3281 22.3889 15.3281H4.90601L12.8528 23.2749C13.1262 23.5825 13.1262 23.873 12.8528 24.1465L11.8274 25.1719Z" fill="#1E293B"/>
</g>
<defs>
<clipPath id="clip0_4217_24663">
<rect width="22.97" height="26.25" fill="white" transform="matrix(1 0 0 -1 0.00976562 27.1201)"/>
</clipPath>
</defs>
</svg>
