<svg width="13" height="14" viewBox="0 0 13 14" fill="none" xmlns="http://www.w3.org/2000/svg">
<path d="M6.68164 12.9609C6.51758 13.1068 6.36263 13.1068 6.2168 12.9609L0.501953 7.21875C0.337891 7.07292 0.337891 6.92708 0.501953 6.78125L6.2168 1.03906C6.36263 0.893229 6.51758 0.893229 6.68164 1.03906L7.22852 1.58594C7.37435 1.73177 7.37435 1.88672 7.22852 2.05078L2.99023 6.28906H12.3145C12.5332 6.28906 12.6426 6.39844 12.6426 6.61719V7.38281C12.6426 7.60156 12.5332 7.71094 12.3145 7.71094H2.99023L7.22852 11.9492C7.37435 12.1133 7.37435 12.2682 7.22852 12.4141L6.68164 12.9609Z" fill="white"/>
</svg>
