<svg width="13" height="13" viewBox="0 0 13 13" fill="none" xmlns="http://www.w3.org/2000/svg">
<path d="M6.5918 0.539062C6.75586 0.393229 6.91081 0.393229 7.05664 0.539062L12.7715 6.28125C12.9355 6.42708 12.9355 6.57292 12.7715 6.71875L7.05664 12.4609C6.91081 12.6068 6.75586 12.6068 6.5918 12.4609L6.04492 11.9141C5.99023 11.8594 5.96289 11.7865 5.96289 11.6953C5.96289 11.6042 5.99023 11.5221 6.04492 11.4492L10.2832 7.21094H0.958984C0.740234 7.21094 0.630859 7.10156 0.630859 6.88281V6.11719C0.630859 5.89844 0.740234 5.78906 0.958984 5.78906H10.2832L6.04492 1.55078C5.89909 1.38672 5.89909 1.23177 6.04492 1.08594L6.5918 0.539062Z" fill="white"/>
</svg>
