<svg width="15" height="15" viewBox="0 0 15 15" fill="none" xmlns="http://www.w3.org/2000/svg">
<path d="M7.34508 14.4604C7.16039 14.6245 6.98596 14.6245 6.8218 14.4604L0.388516 7.99631C0.203828 7.83214 0.203828 7.66798 0.388516 7.50381L6.8218 1.03975C6.98596 0.875579 7.16039 0.875579 7.34508 1.03975L7.9607 1.65537C8.12487 1.81954 8.12487 1.99396 7.9607 2.17865L3.18961 6.94975H13.686C13.9323 6.94975 14.0554 7.07287 14.0554 7.31912V8.181C14.0554 8.42725 13.9323 8.55037 13.686 8.55037H3.18961L7.9607 13.3215C8.12487 13.5062 8.12487 13.6806 7.9607 13.8447L7.34508 14.4604Z" fill="#334155"/>
</svg>
