<svg width="13" height="14" viewBox="0 0 13 14" fill="none" xmlns="http://www.w3.org/2000/svg">
<path d="M7.00977 12.9609C6.8457 13.1068 6.69076 13.1068 6.54492 12.9609L0.830078 7.21875C0.666016 7.07292 0.666016 6.92708 0.830078 6.78125L6.54492 1.03906C6.69076 0.893229 6.8457 0.893229 7.00977 1.03906L7.55664 1.58594C7.70247 1.73177 7.70247 1.88672 7.55664 2.05078L3.31836 6.28906H12.6426C12.8613 6.28906 12.9707 6.39844 12.9707 6.61719V7.38281C12.9707 7.60156 12.8613 7.71094 12.6426 7.71094H3.31836L7.55664 11.9492C7.70247 12.1133 7.70247 12.2682 7.55664 12.4141L7.00977 12.9609Z" fill="#E4E4E7"/>
</svg>
