<svg width="16" height="16" viewBox="0 0 16 16" fill="none" xmlns="http://www.w3.org/2000/svg">
<path d="M7.64453 0.761719C7.84375 0.584635 8.0319 0.584635 8.20898 0.761719L15.1484 7.73438C15.3477 7.91146 15.3477 8.08854 15.1484 8.26562L8.20898 15.2383C8.0319 15.4154 7.84375 15.4154 7.64453 15.2383L6.98047 14.5742C6.91406 14.5078 6.88086 14.4193 6.88086 14.3086C6.88086 14.1979 6.91406 14.0983 6.98047 14.0098L12.127 8.86328H0.804688C0.539062 8.86328 0.40625 8.73047 0.40625 8.46484V7.53516C0.40625 7.26953 0.539062 7.13672 0.804688 7.13672H12.127L6.98047 1.99023C6.80339 1.79102 6.80339 1.60286 6.98047 1.42578L7.64453 0.761719Z" fill="white"/>
</svg>
