<svg width="241" height="81" viewBox="0 0 241 81" fill="none" xmlns="http://www.w3.org/2000/svg">
<path fill-rule="evenodd" clip-rule="evenodd" d="M125.137 78.3066V19.3066C125.137 17.6497 123.794 16.3066 122.137 16.3066H40.1367C38.4798 16.3066 37.1367 17.6497 37.1367 19.3066V78.3066" fill="#D1D1D1"/>
<path d="M125.137 78.3066V19.3066C125.137 17.6497 123.794 16.3066 122.137 16.3066H40.1367C38.4798 16.3066 37.1367 17.6497 37.1367 19.3066V78.3066H125.137Z" stroke="#FF5887" stroke-width="2" stroke-linecap="round" stroke-linejoin="round"/>
<path d="M105.137 27.3066H57.1367C56.0321 27.3066 55.1367 28.2021 55.1367 29.3066V68.3066C55.1367 69.4112 56.0321 70.3066 57.1367 70.3066H105.137C106.241 70.3066 107.137 69.4112 107.137 68.3066V29.3066C107.137 28.2021 106.241 27.3066 105.137 27.3066Z" fill="white"/>
<path d="M90.1367 58.3066H72.1367C71.0321 58.3066 70.1367 59.202 70.1367 60.3066V62.3066C70.1367 63.4112 71.0321 64.3066 72.1367 64.3066H90.1367C91.2413 64.3066 92.1367 63.4112 92.1367 62.3066V60.3066C92.1367 59.202 91.2413 58.3066 90.1367 58.3066Z" fill="#FF5887"/>
<path d="M67.3867 40.3066H94.8867M67.3867 46.3066H81.1367" stroke="#FF5887" stroke-width="3" stroke-linecap="round" stroke-linejoin="round"/>
<path d="M171.643 78.3066H15.1367M199.137 78.3066H194.907M186.447 78.3066H177.988" stroke="#747474" stroke-width="2" stroke-linecap="round" stroke-linejoin="round"/>
<path d="M153.447 45.0957L157.356 49.3302L153.447 53.5647" stroke="#FF5887" stroke-width="2" stroke-linecap="round" stroke-linejoin="round"/>
<path d="M157.137 49.3066H145.137" stroke="#FF5887" stroke-width="2" stroke-linecap="round" stroke-linejoin="round"/>
<path d="M169.301 38.49C171.716 37.5498 174.4 37.5808 176.792 38.5767C179.184 39.5725 181.098 41.4559 182.133 43.8322C182.675 45.0277 182.965 46.3221 182.985 47.6346C183.005 48.9472 182.755 50.2499 182.251 51.4616C181.768 52.7064 181.039 53.8412 180.109 54.7982C179.178 55.7552 178.064 56.5148 176.834 57.0317C175.604 57.5485 174.282 57.8121 172.947 57.8066C171.612 57.8011 170.293 57.5266 169.067 56.9995C167.884 56.5289 166.808 55.8243 165.904 54.9279C165 54.0315 164.286 52.9617 163.806 51.7827C163.275 50.5512 162.997 49.2258 162.987 47.8848C162.977 46.5438 163.236 45.2144 163.748 43.9752C164.26 42.736 165.016 41.6121 165.97 40.67C166.923 39.7279 168.056 38.9866 169.301 38.49ZM171.94 45.1168C171.634 44.9131 171.368 44.7016 171.079 44.5371C170.452 44.2226 169.729 44.161 169.059 44.3648C168.389 44.5046 167.79 44.8762 167.368 45.4144C166.99 45.9896 166.793 46.6644 166.801 47.3525C166.81 48.0405 167.023 48.7104 167.415 49.2761C168.073 50.1684 168.942 50.8841 169.943 51.3597C171.425 52.0826 173.01 52.5713 174.641 52.8088C174.735 52.8352 174.834 52.8312 174.926 52.7975C175.017 52.7637 175.095 52.7019 175.15 52.6208C176.317 51.2009 177.21 49.575 177.78 47.827C178.222 46.6247 178.2 45.3009 177.718 44.1142C177.461 43.4733 176.992 42.94 176.389 42.6035C175.786 42.267 175.086 42.1478 174.406 42.2656C173.624 42.4333 172.927 42.8749 172.441 43.511C172.105 43.978 171.929 44.5415 171.94 45.1168Z" fill="#FF5887"/>
<path d="M139.137 49.3066H134.137" stroke="#FF5887" stroke-width="2" stroke-linecap="round" stroke-linejoin="round"/>
</svg>
