<svg width="17" height="16" viewBox="0 0 17 16" fill="none" xmlns="http://www.w3.org/2000/svg">
<path d="M13.375 15.6438C13.2448 15.6438 13.1357 15.5998 13.0477 15.5118C12.9604 15.4244 12.9167 15.3156 12.9167 15.1854V12.8938H10.625C10.4948 12.8938 10.3861 12.8498 10.2987 12.7618C10.2107 12.6738 10.1667 12.5647 10.1667 12.4345C10.1667 12.3043 10.2107 12.1956 10.2987 12.1082C10.3867 12.0208 10.4954 11.9771 10.625 11.9771H12.9167V9.68542C12.9167 9.55586 12.9607 9.44708 13.0487 9.35908C13.1367 9.27108 13.2457 9.22708 13.3759 9.22708C13.5061 9.22708 13.6149 9.27108 13.7022 9.35908C13.7896 9.44708 13.8333 9.55586 13.8333 9.68542V11.9771H16.125C16.2552 11.9771 16.3639 12.0211 16.4513 12.1091C16.5393 12.1971 16.5833 12.3062 16.5833 12.4363C16.5833 12.5665 16.5393 12.6753 16.4513 12.7627C16.3639 12.8501 16.2552 12.8938 16.125 12.8938H13.8333V15.1854C13.8333 15.3156 13.7893 15.4244 13.7013 15.5118C13.6133 15.5998 13.5052 15.6438 13.375 15.6438ZM4.20833 12.9167C4.07817 12.9167 3.96939 12.8727 3.882 12.7847C3.794 12.6967 3.75 12.5879 3.75 12.4583C3.75 12.3288 3.794 12.22 3.882 12.132C3.97 12.044 4.07878 12 4.20833 12H8.139C8.26917 12 8.37825 12.044 8.46625 12.132C8.55364 12.22 8.59733 12.3291 8.59733 12.4593C8.59733 12.5894 8.55364 12.6982 8.46625 12.7856C8.37825 12.873 8.26917 12.9167 8.139 12.9167H4.20833ZM4.20833 9.25C4.07817 9.25 3.96939 9.206 3.882 9.118C3.794 9.03 3.75 8.92122 3.75 8.79167C3.75 8.66211 3.794 8.55333 3.882 8.46533C3.97 8.37733 4.07878 8.33333 4.20833 8.33333H8.139C8.26917 8.33333 8.37825 8.37733 8.46625 8.46533C8.55364 8.55333 8.59733 8.66242 8.59733 8.79258C8.59733 8.92275 8.55364 9.03153 8.46625 9.11892C8.37825 9.20631 8.26917 9.25 8.139 9.25H4.20833ZM4.20833 5.58333C4.07817 5.58333 3.96939 5.53933 3.882 5.45133C3.794 5.36333 3.75 5.25456 3.75 5.125C3.75 4.99544 3.794 4.88667 3.882 4.79867C3.97 4.71067 4.07878 4.66667 4.20833 4.66667H14.2917C14.4218 4.66667 14.5306 4.71067 14.618 4.79867C14.706 4.88667 14.75 4.99575 14.75 5.12592C14.75 5.25608 14.706 5.36486 14.618 5.45225C14.5306 5.53964 14.4218 5.58333 14.2917 5.58333H4.20833ZM4.20833 1.91667C4.07817 1.91667 3.96939 1.87267 3.882 1.78467C3.794 1.69667 3.75 1.58758 3.75 1.45742C3.75 1.32725 3.794 1.21847 3.882 1.13108C3.97 1.04369 4.07878 1 4.20833 1H14.2917C14.4218 1 14.5306 1.044 14.618 1.132C14.706 1.22 14.75 1.32908 14.75 1.45925C14.75 1.58942 14.706 1.69819 14.618 1.78558C14.5306 1.87297 14.4218 1.91667 14.2917 1.91667H4.20833ZM1.45833 1.91667C1.32817 1.91667 1.21908 1.87267 1.13108 1.78467C1.04369 1.69667 1 1.58758 1 1.45742C1 1.32725 1.044 1.21847 1.132 1.13108C1.22 1.04369 1.32878 1 1.45833 1C1.58789 1 1.69667 1.044 1.78467 1.132C1.87206 1.22 1.91575 1.32908 1.91575 1.45925C1.91575 1.58942 1.87175 1.69819 1.78375 1.78558C1.69575 1.87297 1.58667 1.91667 1.4565 1.91667M1.4565 5.58333C1.32694 5.58333 1.21817 5.53933 1.13017 5.45133C1.04339 5.36333 1 5.25456 1 5.125C1 4.99544 1.044 4.88667 1.132 4.79867C1.22 4.71067 1.32878 4.66667 1.45833 4.66667C1.58789 4.66667 1.69667 4.71067 1.78467 4.79867C1.87267 4.88667 1.91667 4.99544 1.91667 5.125C1.91667 5.25456 1.87267 5.36333 1.78467 5.45133C1.69667 5.53872 1.58758 5.58242 1.45742 5.58242M1.45742 9.24908C1.32786 9.24908 1.21908 9.20508 1.13108 9.11708C1.04369 9.02969 1 8.92122 1 8.79167C1 8.66211 1.044 8.55333 1.132 8.46533C1.22 8.37733 1.32878 8.33333 1.45833 8.33333C1.58789 8.33333 1.69667 8.37733 1.78467 8.46533C1.87206 8.55333 1.91575 8.66242 1.91575 8.79258C1.91575 8.92275 1.87175 9.03153 1.78375 9.11892C1.69575 9.20631 1.58667 9.25 1.4565 9.25M1.4565 12.9167C1.32694 12.9167 1.21817 12.8727 1.13017 12.7847C1.04339 12.6967 1 12.5879 1 12.4583C1 12.3288 1.044 12.22 1.132 12.132C1.22 12.044 1.32878 12 1.45833 12C1.58789 12 1.69667 12.044 1.78467 12.132C1.87206 12.22 1.91575 12.3291 1.91575 12.4593C1.91575 12.5894 1.87175 12.6982 1.78375 12.7856C1.69575 12.873 1.58667 12.9167 1.4565 12.9167Z" fill="#637381"/>
<path d="M1.45833 1.91667C1.32817 1.91667 1.21908 1.87267 1.13108 1.78467C1.04369 1.69667 1 1.58758 1 1.45742C1 1.32725 1.044 1.21847 1.132 1.13108C1.22 1.04369 1.32878 1 1.45833 1C1.58789 1 1.69667 1.044 1.78467 1.132C1.87206 1.22 1.91575 1.32908 1.91575 1.45925C1.91575 1.58942 1.87175 1.69819 1.78375 1.78558C1.69575 1.87297 1.58667 1.91667 1.4565 1.91667M1.4565 5.58333C1.32694 5.58333 1.21817 5.53933 1.13017 5.45133C1.04339 5.36333 1 5.25456 1 5.125C1 4.99544 1.044 4.88667 1.132 4.79867C1.22 4.71067 1.32878 4.66667 1.45833 4.66667C1.58789 4.66667 1.69667 4.71067 1.78467 4.79867C1.87267 4.88667 1.91667 4.99544 1.91667 5.125C1.91667 5.25456 1.87267 5.36333 1.78467 5.45133C1.69667 5.53872 1.58758 5.58242 1.45742 5.58242M1.45742 9.24908C1.32786 9.24908 1.21908 9.20508 1.13108 9.11708C1.04369 9.02969 1 8.92122 1 8.79167C1 8.66211 1.044 8.55333 1.132 8.46533C1.22 8.37733 1.32878 8.33333 1.45833 8.33333C1.58789 8.33333 1.69667 8.37733 1.78467 8.46533C1.87206 8.55333 1.91575 8.66242 1.91575 8.79258C1.91575 8.92275 1.87175 9.03153 1.78375 9.11892C1.69575 9.20631 1.58667 9.25 1.4565 9.25M13.375 15.6438C13.2448 15.6438 13.1357 15.5998 13.0477 15.5118C12.9604 15.4244 12.9167 15.3156 12.9167 15.1854V12.8938H10.625C10.4948 12.8938 10.3861 12.8498 10.2987 12.7618C10.2107 12.6738 10.1667 12.5647 10.1667 12.4345C10.1667 12.3043 10.2107 12.1956 10.2987 12.1082C10.3867 12.0208 10.4954 11.9771 10.625 11.9771H12.9167V9.68542C12.9167 9.55586 12.9607 9.44708 13.0487 9.35908C13.1367 9.27108 13.2457 9.22708 13.3759 9.22708C13.5061 9.22708 13.6149 9.27108 13.7022 9.35908C13.7896 9.44708 13.8333 9.55586 13.8333 9.68542V11.9771H16.125C16.2552 11.9771 16.3639 12.0211 16.4513 12.1091C16.5393 12.1971 16.5833 12.3062 16.5833 12.4363C16.5833 12.5665 16.5393 12.6753 16.4513 12.7627C16.3639 12.8501 16.2552 12.8938 16.125 12.8938H13.8333V15.1854C13.8333 15.3156 13.7893 15.4244 13.7013 15.5118C13.6133 15.5998 13.5052 15.6438 13.375 15.6438ZM4.20833 12.9167C4.07817 12.9167 3.96939 12.8727 3.882 12.7847C3.794 12.6967 3.75 12.5879 3.75 12.4583C3.75 12.3288 3.794 12.22 3.882 12.132C3.97 12.044 4.07878 12 4.20833 12H8.139C8.26917 12 8.37825 12.044 8.46625 12.132C8.55364 12.22 8.59733 12.3291 8.59733 12.4593C8.59733 12.5894 8.55364 12.6982 8.46625 12.7856C8.37825 12.873 8.26917 12.9167 8.139 12.9167H4.20833ZM4.20833 9.25C4.07817 9.25 3.96939 9.206 3.882 9.118C3.794 9.03 3.75 8.92122 3.75 8.79167C3.75 8.66211 3.794 8.55333 3.882 8.46533C3.97 8.37733 4.07878 8.33333 4.20833 8.33333H8.139C8.26917 8.33333 8.37825 8.37733 8.46625 8.46533C8.55364 8.55333 8.59733 8.66242 8.59733 8.79258C8.59733 8.92275 8.55364 9.03153 8.46625 9.11892C8.37825 9.20631 8.26917 9.25 8.139 9.25H4.20833ZM4.20833 5.58333C4.07817 5.58333 3.96939 5.53933 3.882 5.45133C3.794 5.36333 3.75 5.25456 3.75 5.125C3.75 4.99544 3.794 4.88667 3.882 4.79867C3.97 4.71067 4.07878 4.66667 4.20833 4.66667H14.2917C14.4218 4.66667 14.5306 4.71067 14.618 4.79867C14.706 4.88667 14.75 4.99575 14.75 5.12592C14.75 5.25608 14.706 5.36486 14.618 5.45225C14.5306 5.53964 14.4218 5.58333 14.2917 5.58333H4.20833ZM4.20833 1.91667C4.07817 1.91667 3.96939 1.87267 3.882 1.78467C3.794 1.69667 3.75 1.58758 3.75 1.45742C3.75 1.32725 3.794 1.21847 3.882 1.13108C3.97 1.04369 4.07878 1 4.20833 1H14.2917C14.4218 1 14.5306 1.044 14.618 1.132C14.706 1.22 14.75 1.32908 14.75 1.45925C14.75 1.58942 14.706 1.69819 14.618 1.78558C14.5306 1.87297 14.4218 1.91667 14.2917 1.91667H4.20833ZM1.4565 12.9167C1.32694 12.9167 1.21817 12.8727 1.13017 12.7847C1.04339 12.6967 1 12.5879 1 12.4583C1 12.3288 1.044 12.22 1.132 12.132C1.22 12.044 1.32878 12 1.45833 12C1.58789 12 1.69667 12.044 1.78467 12.132C1.87206 12.22 1.91575 12.3291 1.91575 12.4593C1.91575 12.5894 1.87175 12.6982 1.78375 12.7856C1.69575 12.873 1.58667 12.9167 1.4565 12.9167Z" stroke="#637381" stroke-width="0.3"/>
</svg>
