<svg width="40" height="38" viewBox="0 0 40 38" fill="none" xmlns="http://www.w3.org/2000/svg">
<path d="M2.82354 18.8235C2.8236 16.2213 3.45837 13.6583 4.67281 11.3568C5.88725 9.05535 7.64471 7.08481 9.79284 5.61606C11.941 4.1473 14.4149 3.22466 17.0002 2.92811C19.5855 2.63156 22.2041 2.97006 24.629 3.91427C27.0539 4.85847 29.2119 6.37988 30.9159 8.3466C32.62 10.3133 33.8186 12.666 34.4079 15.2006C34.9972 17.7353 34.9593 20.3754 34.2977 22.8921C33.636 25.4088 32.3705 27.7262 30.6108 29.6433L32.4781 31.7797C35.8024 28.2859 37.6535 23.6461 37.647 18.8235C37.647 8.42729 29.2198 0 18.8235 0C8.4273 0 1.67071e-05 8.42729 1.67071e-05 18.8235C-0.0064155 23.6461 1.84466 28.2859 5.16895 31.7797L7.03813 29.6452C4.32275 26.6961 2.81797 22.8323 2.82354 18.8235ZM32.4706 19.0588C32.4754 22.3282 31.2813 25.4859 29.1143 27.9341L27.2358 25.7882C28.5013 24.2504 29.3074 22.3868 29.5616 20.4116C29.8158 18.4363 29.5077 16.4293 28.6728 14.6212C27.8379 12.8131 26.5099 11.2771 24.8414 10.1897C23.1729 9.10221 21.2316 8.50737 19.2403 8.47345C17.249 8.43953 15.2885 8.96791 13.584 9.99791C11.8794 11.0279 10.4999 12.5178 9.60389 14.2964C8.70786 16.075 8.33163 18.0703 8.5184 20.0531C8.70517 22.0359 9.44737 23.9258 10.6598 25.5059L8.76989 27.663C7.38701 26.0099 6.42291 24.0478 5.95923 21.943C5.49556 19.8382 5.54597 17.6527 6.10621 15.5715C6.66644 13.4903 7.71999 11.5748 9.17762 9.98719C10.6353 8.39958 12.454 7.18665 14.4799 6.45112C16.5058 5.71559 18.6791 5.47913 20.8158 5.76178C22.9524 6.04442 24.9895 6.83784 26.7544 8.07483C28.5194 9.31182 29.9602 10.9559 30.9549 12.868C31.9496 14.78 32.4708 16.9035 32.4706 19.0588ZM26.8216 18.8235C26.8243 20.5236 26.2828 22.18 25.2762 23.5501L23.3449 21.344C23.7834 20.556 24.0084 19.6672 23.9977 18.7656C23.9871 17.8639 23.741 16.9807 23.284 16.2033C22.827 15.426 22.1748 14.7815 21.3921 14.3338C20.6095 13.886 19.7234 13.6504 18.8216 13.6504C17.9199 13.6504 17.0338 13.886 16.2511 14.3338C15.4685 14.7815 14.8163 15.426 14.3593 16.2033C13.9023 16.9807 13.6562 17.8639 13.6455 18.7656C13.6349 19.6672 13.8599 20.556 14.2984 21.344L12.3689 23.5482C11.6223 22.5285 11.1279 21.3465 10.9261 20.0989C10.7244 18.8513 10.8211 17.5736 11.2083 16.3706C11.5956 15.1676 12.2623 14.0734 13.154 13.1778C14.0456 12.2821 15.1368 11.6104 16.338 11.2178C17.5393 10.8251 18.8165 10.7227 20.065 10.9188C21.3135 11.1149 22.4978 11.604 23.5208 12.3461C24.5438 13.0881 25.3765 14.062 25.9505 15.1879C26.5246 16.3138 26.8219 17.5597 26.8216 18.8235ZM19.8852 20.2466C19.7527 20.0954 19.5894 19.9743 19.4063 19.8913C19.2232 19.8083 19.0245 19.7654 18.8235 19.7654C18.6225 19.7654 18.4238 19.8083 18.2407 19.8913C18.0576 19.9743 17.8944 20.0954 17.7619 20.2466L4.58542 35.3054C4.4068 35.5094 4.29072 35.7606 4.25108 36.0289C4.21144 36.2972 4.24991 36.5712 4.3619 36.8182C4.47388 37.0652 4.65463 37.2747 4.88254 37.4217C5.11045 37.5687 5.37587 37.6469 5.64707 37.647H32C32.2712 37.6469 32.5366 37.5687 32.7645 37.4217C32.9924 37.2747 33.1732 37.0652 33.2852 36.8182C33.3971 36.5712 33.4356 36.2972 33.396 36.0289C33.3563 35.7606 33.2403 35.5094 33.0616 35.3054L19.8852 20.2466ZM28.8885 34.8235H8.7586L18.8235 23.3204L28.8885 34.8235Z" fill="#D2D2D2"/>
<path d="M5.17511 18.8235C5.17516 16.2213 5.80993 13.6583 7.02437 11.3568C8.23881 9.05535 9.99628 7.08481 12.1444 5.61606C14.2925 4.1473 16.7665 3.22466 19.3518 2.92811C21.937 2.63156 24.5557 2.97006 26.9806 3.91427C29.4055 4.85847 31.5635 6.37988 33.2675 8.3466C34.9715 10.3133 36.1701 12.666 36.7594 15.2006C37.3487 17.7353 37.3109 20.3754 36.6492 22.8921C35.9876 25.4088 34.722 27.7262 32.9624 29.6433L34.8297 31.7797C38.154 28.2859 40.005 23.6461 39.9986 18.8235C39.9986 8.42729 31.5713 0 21.1751 0C10.7789 0 2.35158 8.42729 2.35158 18.8235C2.34515 23.6461 4.19623 28.2859 7.52051 31.7797L9.38969 29.6452C6.67431 26.6961 5.16953 22.8323 5.17511 18.8235ZM34.8221 19.0588C34.827 22.3282 33.6329 25.4859 31.4659 27.9341L29.5873 25.7882C30.8528 24.2504 31.659 22.3868 31.9132 20.4116C32.1673 18.4363 31.8593 16.4293 31.0244 14.6212C30.1894 12.8131 28.8615 11.2771 27.193 10.1897C25.5245 9.10221 23.5831 8.50737 21.5919 8.47345C19.6006 8.43953 17.6401 8.96791 15.9355 9.99791C14.231 11.0279 12.8515 12.5178 11.9555 14.2964C11.0594 16.075 10.6832 18.0703 10.87 20.0531C11.0567 22.0359 11.7989 23.9258 13.0113 25.5059L11.1215 27.663C9.73857 26.0099 8.77447 24.0478 8.3108 21.943C7.84712 19.8382 7.89754 17.6527 8.45777 15.5715C9.018 13.4903 10.0716 11.5748 11.5292 9.98719C12.9868 8.39958 14.8056 7.18665 16.8315 6.45112C18.8574 5.71559 21.0307 5.47913 23.1673 5.76178C25.304 6.04442 27.3411 6.83784 29.106 8.07483C30.871 9.31182 32.3118 10.9559 33.3065 12.868C34.3012 14.78 34.8223 16.9035 34.8221 19.0588ZM29.1732 18.8235C29.1759 20.5236 28.6343 22.18 27.6278 23.5501L25.6965 21.344C26.135 20.556 26.36 19.6672 26.3493 18.7656C26.3386 17.8639 26.0926 16.9807 25.6356 16.2033C25.1786 15.426 24.5264 14.7815 23.7437 14.3338C22.961 13.886 22.0749 13.6504 21.1732 13.6504C20.2715 13.6504 19.3854 13.886 18.6027 14.3338C17.82 14.7815 17.1679 15.426 16.7108 16.2033C16.2538 16.9807 16.0078 17.8639 15.9971 18.7656C15.9864 19.6672 16.2115 20.556 16.6499 21.344L14.7205 23.5482C13.9739 22.5285 13.4794 21.3465 13.2777 20.0989C13.0759 18.8513 13.1727 17.5736 13.5599 16.3706C13.9471 15.1676 14.6139 14.0734 15.5055 13.1778C16.3972 12.2821 17.4883 11.6104 18.6896 11.2178C19.8908 10.8251 21.168 10.7227 22.4165 10.9188C23.665 11.1149 24.8493 11.604 25.8723 12.3461C26.8954 13.0881 27.728 14.062 28.3021 15.1879C28.8762 16.3138 29.1735 17.5597 29.1732 18.8235ZM22.2367 20.2466C22.1042 20.0954 21.941 19.9743 21.7579 19.8913C21.5748 19.8083 21.3761 19.7654 21.1751 19.7654C20.9741 19.7654 20.7754 19.8083 20.5923 19.8913C20.4092 19.9743 20.2459 20.0954 20.1134 20.2466L6.93699 35.3054C6.75836 35.5094 6.64229 35.7606 6.60265 36.0289C6.56301 36.2972 6.60148 36.5712 6.71346 36.8182C6.82544 37.0652 7.00619 37.2747 7.2341 37.4217C7.46202 37.5687 7.72744 37.6469 7.99863 37.647H34.3516C34.6227 37.6469 34.8882 37.5687 35.1161 37.4217C35.344 37.2747 35.5247 37.0652 35.6367 36.8182C35.7487 36.5712 35.7872 36.2972 35.7475 36.0289C35.7079 35.7606 35.5918 35.5094 35.4132 35.3054L22.2367 20.2466ZM31.24 34.8235H11.1102L21.1751 23.3204L31.24 34.8235Z" fill="#FAB400"/>
</svg>
