<svg width="17" height="15" viewBox="0 0 17 15" fill="none" xmlns="http://www.w3.org/2000/svg">
<path fill-rule="evenodd" clip-rule="evenodd" d="M2.96929 0.780712C2.78069 0.598554 2.52808 0.497759 2.26589 0.500038C2.00369 0.502316 1.75288 0.607485 1.56747 0.792893C1.38206 0.978301 1.27689 1.22911 1.27461 1.49131C1.27234 1.75351 1.37313 2.00611 1.55529 2.19471L6.84829 7.48771L1.55529 12.7807C1.45978 12.873 1.3836 12.9833 1.33119 13.1053C1.27878 13.2273 1.25119 13.3585 1.25004 13.4913C1.24888 13.6241 1.27419 13.7558 1.32447 13.8787C1.37475 14.0016 1.449 14.1132 1.54289 14.2071C1.63679 14.301 1.74844 14.3753 1.87133 14.4255C1.99423 14.4758 2.12591 14.5011 2.25869 14.5C2.39147 14.4988 2.52269 14.4712 2.64469 14.4188C2.7667 14.3664 2.87704 14.2902 2.96929 14.1947L8.26229 8.90171L13.5553 14.1947C13.7439 14.3769 13.9965 14.4777 14.2587 14.4754C14.5209 14.4731 14.7717 14.3679 14.9571 14.1825C15.1425 13.9971 15.2477 13.7463 15.25 13.4841C15.2522 13.2219 15.1514 12.9693 14.9693 12.7807L9.67629 7.48771L14.9693 2.19471C15.1514 2.00611 15.2522 1.75351 15.25 1.49131C15.2477 1.22911 15.1425 0.978301 14.9571 0.792893C14.7717 0.607485 14.5209 0.502316 14.2587 0.500038C13.9965 0.497759 13.7439 0.598554 13.5553 0.780712L8.26229 6.07371L2.96929 0.780712Z" fill="black" fill-opacity="0.6"/>
</svg>
