<svg width="12" height="13" viewBox="0 0 12 13" fill="none" xmlns="http://www.w3.org/2000/svg">
<path d="M2.97617 0.617871C3.81699 0.617871 4.51367 1.31455 4.51367 2.15537C4.51367 3.02021 3.81699 3.69287 2.97617 3.69287C2.11133 3.69287 1.43867 3.02021 1.43867 2.15537C1.43867 1.31455 2.11133 0.617871 2.97617 0.617871ZM4.1293 4.07725C4.75391 4.07725 5.28242 4.60576 5.28242 5.23037V8.49756C5.28242 8.83389 5.01816 9.07412 4.70586 9.07412H4.32148V12.3413C4.32148 12.6776 4.05723 12.9179 3.74492 12.9179H2.20742C1.87109 12.9179 1.63086 12.6776 1.63086 12.3413V9.07412H1.24648C0.910156 9.07412 0.669922 8.83389 0.669922 8.49756V5.23037C0.669922 4.60576 1.17441 4.07725 1.82305 4.07725H2.0873C2.66387 4.3415 3.28848 4.3415 3.84102 4.07725H4.1293Z" fill="#6366F1"/>
<path d="M8.35742 0.617871C9.19824 0.617871 9.89492 1.31455 9.89492 2.15537C9.89492 3.02021 9.19824 3.69287 8.35742 3.69287C7.49258 3.69287 6.81992 3.02021 6.81992 2.15537C6.81992 1.31455 7.49258 0.617871 8.35742 0.617871ZM11.2162 9.14619C11.3123 9.50654 11.024 9.84287 10.6637 9.84287H9.31836V12.3413C9.31836 12.6776 9.0541 12.9179 8.7418 12.9179H7.97305C7.63672 12.9179 7.39648 12.6776 7.39648 12.3413V9.84287H6.05117C5.6668 9.84287 5.37852 9.50654 5.47461 9.14619L6.62773 4.53369C6.6998 4.26943 6.91602 4.07725 7.2043 4.07725H7.46855C8.04512 4.3415 8.66973 4.3415 9.22227 4.07725H9.51055C9.7748 4.07725 9.99102 4.26943 10.0631 4.53369L11.2162 9.14619Z" fill="#EC4899"/>
</svg>
