<svg width="133" height="132" viewBox="0 0 133 132" fill="none" xmlns="http://www.w3.org/2000/svg">
<path d="M113.242 0.509765V131.291H19.9609V0.509765H113.242ZM113.477 0.275391H19.7266V131.525H113.477V0.275391Z" fill="#FF0000"/>
<path d="M131.992 19.2598V112.541H1.21094V19.2598H131.992ZM132.227 19.0254H0.976562V112.775H132.227V19.0254Z" fill="#4600F0"/>
<path d="M122.617 9.88477V121.916H10.5859V9.88477H122.617ZM122.852 9.65039H10.3516V122.15H122.852V9.65039Z" fill="#F0C800"/>
<path d="M66.6016 5.19727C100.073 5.19727 127.305 32.4293 127.305 65.9004C127.305 99.3715 100.073 126.604 66.6016 126.604C33.1305 126.604 5.89844 99.3715 5.89844 65.9004C5.89844 32.4293 33.1305 5.19727 66.6016 5.19727ZM66.6016 4.96289C32.9477 4.96289 5.66406 32.2465 5.66406 65.9004C5.66406 99.5543 32.9477 126.838 66.6016 126.838C100.255 126.838 127.539 99.5543 127.539 65.9004C127.539 32.2465 100.255 4.96289 66.6016 4.96289Z" fill="#00F096"/>
</svg>
