<svg width="95" height="52" viewBox="0 0 95 52" fill="none" xmlns="http://www.w3.org/2000/svg">
<path d="M38.2266 28.4629H33.5391C28.3617 28.4629 24.1641 32.6605 24.1641 37.8379V51.9004H47.6016V37.8379C47.6016 32.6605 43.4039 28.4629 38.2266 28.4629Z" fill="#0A5078"/>
<path d="M61.6641 28.4629H56.9766C51.7992 28.4629 47.6016 32.6605 47.6016 37.8379V51.9004H71.0391V37.8379C71.0391 32.6605 66.8414 28.4629 61.6641 28.4629Z" fill="#C80A50"/>
<path d="M12.4453 28.4629C8.56172 28.4629 5.41406 25.3152 5.41406 21.4316V16.7441C5.41406 12.8605 8.56172 9.71289 12.4453 9.71289C16.3289 9.71289 19.4766 12.8605 19.4766 16.7441V21.4316C19.4766 25.3152 16.3289 28.4629 12.4453 28.4629Z" fill="#F2C8A0"/>
<path d="M35.8828 28.4629C31.9992 28.4629 28.8516 25.3152 28.8516 21.4316V16.7441C28.8516 12.8605 31.9992 9.71289 35.8828 9.71289C39.7664 9.71289 42.9141 12.8605 42.9141 16.7441V21.4316C42.9141 25.3152 39.7664 28.4629 35.8828 28.4629Z" fill="#F2C8A0"/>
<path d="M59.3203 28.4629C55.4367 28.4629 52.2891 25.3152 52.2891 21.4316V16.7441C52.2891 12.8605 55.4367 9.71289 59.3203 9.71289C63.2039 9.71289 66.3516 12.8605 66.3516 16.7441V21.4316C66.3516 25.3152 63.2039 28.4629 59.3203 28.4629Z" fill="#F2C8A0"/>
<path d="M82.7578 28.4629C78.8742 28.4629 75.7266 25.3152 75.7266 21.4316V16.7441C75.7266 12.8605 78.8742 9.71289 82.7578 9.71289C86.6414 9.71289 89.7891 12.8605 89.7891 16.7441V21.4316C89.7891 25.3152 86.6414 28.4629 82.7578 28.4629Z" fill="#F2C8A0"/>
<path d="M24.1641 37.8379V51.9004H0.726562V9.71289H5.41406V28.4629H14.7891C19.9688 28.4629 24.1641 32.6582 24.1641 37.8379Z" fill="#C80A50"/>
<path d="M94.4766 9.71289V51.9004H71.0391V37.8379C71.0391 32.6582 75.2344 28.4629 80.4141 28.4629H89.7891V9.71289H94.4766Z" fill="#0A5078"/>
<path d="M5.41406 2.68164V9.71289H0.726562V2.68164C0.726562 1.39258 1.78125 0.337891 3.07031 0.337891C4.35938 0.337891 5.41406 1.39258 5.41406 2.68164Z" fill="#F2C8A0"/>
<path d="M94.4766 2.68164V9.71289H89.7891V2.68164C89.7891 1.39258 90.8438 0.337891 92.1328 0.337891C93.4219 0.337891 94.4766 1.39258 94.4766 2.68164Z" fill="#F2C8A0"/>
</svg>
