<svg width="67" height="62" viewBox="0 0 67 62" fill="none" xmlns="http://www.w3.org/2000/svg">
<path d="M47.7396 5.4236H44.3496V2.71179C44.3496 1.2149 43.1376 0 41.638 0C40.1384 0 38.9261 1.2149 38.9261 2.71179V5.4236H17.2317V2.71179C17.2317 1.2149 16.0196 0 14.5199 0C13.0203 0 11.8081 1.2149 11.8081 2.71179V5.4236H8.41839C4.30459 5.4236 0.960938 8.76726 0.960938 12.8811V43.3887C0.960938 47.8741 4.61102 51.5241 9.09632 51.5241H22.6553C24.1549 51.5241 25.3671 50.3094 25.3671 48.8125C25.3671 47.3156 24.1549 46.1006 22.6553 46.1006H9.09632C7.59944 46.1006 6.38454 44.8829 6.38454 43.3887V21.6944H49.7734C49.7734 23.1913 50.9855 24.4062 52.485 24.4062C53.9846 24.4062 55.1969 23.1913 55.1969 21.6944V12.8811C55.1969 8.76726 51.8534 5.4236 47.7396 5.4236Z" fill="#FF5887"/>
<path opacity="0.48" d="M48.4157 26C38.6967 26 30.7891 33.9076 30.7891 43.6266C30.7891 53.3456 38.6967 61.2533 48.4157 61.2533C58.135 61.2533 66.0423 53.3456 66.0423 43.6266C66.0423 33.9076 58.135 26 48.4157 26ZM56.5674 40.6574L47.7542 50.8266C47.2605 51.3961 46.5528 51.7322 45.8017 51.7621C45.7692 51.7621 45.7366 51.7621 45.7041 51.7621C44.9855 51.7621 44.2965 51.4775 43.7868 50.9674L39.041 46.222C37.9808 45.1614 37.9808 43.4477 39.041 42.3874C40.1016 41.3271 41.8154 41.3271 42.8756 42.3874L45.563 45.0747L52.4671 37.1074C53.449 35.974 55.1628 35.8575 56.2934 36.8337C57.4244 37.8126 57.5463 39.5264 56.5674 40.6574Z" fill="#FF5887"/>
</svg>
