<svg width="78" height="78" viewBox="0 0 78 78" fill="none" xmlns="http://www.w3.org/2000/svg">
<path d="M53.4375 19.5029V21.9092M53.4375 31.5342V33.9404M53.4375 43.5654V45.9717M53.4375 55.5967V58.0029M24.5625 41.1592H41.4062M24.5625 48.3779H34.1875M11.3281 17.0967C9.33575 17.0967 7.71875 18.7137 7.71875 20.7061V30.4145C9.18414 31.2582 10.4013 32.4732 11.2477 33.9371C12.094 35.4009 12.5396 37.062 12.5396 38.7529C12.5396 40.4439 12.094 42.1049 11.2477 43.5688C10.4013 45.0327 9.18414 46.2477 7.71875 47.0914V56.7998C7.71875 58.7922 9.33575 60.4092 11.3281 60.4092H66.6719C68.6642 60.4092 70.2812 58.7922 70.2812 56.7998V47.0914C68.8159 46.2477 67.5987 45.0327 66.7523 43.5688C65.906 42.1049 65.4604 40.4439 65.4604 38.7529C65.4604 37.062 65.906 35.4009 66.7523 33.9371C67.5987 32.4732 68.8159 31.2582 70.2812 30.4145V20.7061C70.2812 18.7137 68.6642 17.0967 66.6719 17.0967H11.3281Z" stroke="#FF5887" stroke-width="4" stroke-linecap="round" stroke-linejoin="round"/>
</svg>
