<svg width="13" height="15" viewBox="0 0 13 15" fill="none" xmlns="http://www.w3.org/2000/svg">
<g clip-path="url(#clip0_4217_24729)">
<path d="M9.09961 7.33984C9.09961 7.33984 8.92871 7.51074 8.58691 7.85254C8.24512 8.19434 7.59115 8.36523 6.625 8.36523C5.65885 8.36523 4.83398 8.02344 4.15039 7.33984C3.4668 6.65625 3.125 5.83138 3.125 4.86523V0.490234L4.875 1.36523L6.625 0.490234L8.375 1.36523L10.125 0.490234V4.86523C10.125 5.83138 9.7832 6.65625 9.09961 7.33984ZM4.4375 3.99023V4.86523C4.4375 5.4668 4.65169 5.98177 5.08008 6.41016C5.50846 6.83854 6.02344 7.05273 6.625 7.05273C7.22656 7.05273 7.74154 6.83854 8.16992 6.41016C8.59831 5.98177 8.8125 5.4668 8.8125 4.86523V3.99023H4.4375ZM9.08594 8.80273C10.0885 8.80273 10.9499 9.16276 11.6699 9.88281C12.39 10.6029 12.75 11.4642 12.75 12.4668V13.1777C12.75 13.5423 12.6224 13.8522 12.3672 14.1074C12.112 14.3626 11.8021 14.4902 11.4375 14.4902H1.8125C1.44792 14.4902 1.13802 14.3626 0.882812 14.1074C0.627604 13.8522 0.5 13.5423 0.5 13.1777V12.4668C0.5 11.4642 0.860026 10.6029 1.58008 9.88281C2.30013 9.16276 3.16146 8.80273 4.16406 8.80273C4.4375 8.80273 4.73828 8.85742 5.06641 8.9668C5.57682 9.14909 6.09635 9.24023 6.625 9.24023C7.15365 9.24023 7.67318 9.14909 8.18359 8.9668C8.51172 8.85742 8.8125 8.80273 9.08594 8.80273ZM11.4375 13.1777V12.4668C11.4375 11.8288 11.2051 11.2773 10.7402 10.8125C10.2754 10.3477 9.72396 10.1152 9.08594 10.1152C8.95833 10.1152 8.80339 10.1517 8.62109 10.2246C7.98307 10.4434 7.31771 10.5527 6.625 10.5527C5.93229 10.5527 5.26693 10.4434 4.62891 10.2246C4.44661 10.1517 4.29167 10.1152 4.16406 10.1152C3.52604 10.1152 2.97461 10.3477 2.50977 10.8125C2.04492 11.2773 1.8125 11.8288 1.8125 12.4668V13.1777H11.4375Z" fill="white"/>
</g>
<defs>
<clipPath id="clip0_4217_24729">
<rect width="12.25" height="14" fill="white" transform="matrix(1 0 0 -1 0.5 14.4902)"/>
</clipPath>
</defs>
</svg>
