<svg width="5" height="11" viewBox="0 0 5 11" fill="none" xmlns="http://www.w3.org/2000/svg">
<path d="M2.08984 0.0625C2.80762 0.0625 3.40234 0.657227 3.40234 1.375C3.40234 2.11328 2.80762 2.6875 2.08984 2.6875C1.35156 2.6875 0.777344 2.11328 0.777344 1.375C0.777344 0.657227 1.35156 0.0625 2.08984 0.0625ZM3.07422 3.01562C3.60742 3.01562 4.05859 3.4668 4.05859 4V6.78906C4.05859 7.07617 3.83301 7.28125 3.56641 7.28125H3.23828V10.0703C3.23828 10.3574 3.0127 10.5625 2.74609 10.5625H1.43359C1.14648 10.5625 0.941406 10.3574 0.941406 10.0703V7.28125H0.613281C0.326172 7.28125 0.121094 7.07617 0.121094 6.78906V4C0.121094 3.4668 0.551758 3.01562 1.10547 3.01562H1.33105C1.82324 3.24121 2.35645 3.24121 2.82812 3.01562H3.07422Z" fill="#94A3B8"/>
</svg>
