<svg width="6" height="13" viewBox="0 0 6 13" fill="none" xmlns="http://www.w3.org/2000/svg">
<path d="M3.62822 0.780664C4.4559 0.780664 5.1417 1.46646 5.1417 2.29414C5.1417 3.14547 4.4559 3.80762 3.62822 3.80762C2.77689 3.80762 2.11475 3.14547 2.11475 2.29414C2.11475 1.46646 2.77689 0.780664 3.62822 0.780664ZM4.76333 4.18599C5.37818 4.18599 5.89844 4.70624 5.89844 5.32109V8.53723C5.89844 8.8683 5.63831 9.10479 5.33088 9.10479H4.95251V12.3209C4.95251 12.652 4.69239 12.8885 4.38496 12.8885H2.87148C2.54041 12.8885 2.30393 12.652 2.30393 12.3209V9.10479H1.92556C1.59449 9.10479 1.35801 8.8683 1.35801 8.53723V5.32109C1.35801 4.70624 1.85462 4.18599 2.49311 4.18599H2.75324C3.3208 4.44611 3.93565 4.44611 4.47955 4.18599H4.76333Z" fill="#334155"/>
</svg>
