<svg width="6" height="15" viewBox="0 0 6 15" fill="none" xmlns="http://www.w3.org/2000/svg">
<path d="M3.21484 0.710449C4.17188 0.710449 4.96484 1.50342 4.96484 2.46045C4.96484 3.44482 4.17188 4.21045 3.21484 4.21045C2.23047 4.21045 1.46484 3.44482 1.46484 2.46045C1.46484 1.50342 2.23047 0.710449 3.21484 0.710449ZM4.52734 4.64795C5.23828 4.64795 5.83984 5.24951 5.83984 5.96045V9.6792C5.83984 10.062 5.53906 10.3354 5.18359 10.3354H4.74609V14.0542C4.74609 14.437 4.44531 14.7104 4.08984 14.7104H2.33984C1.95703 14.7104 1.68359 14.437 1.68359 14.0542V10.3354H1.24609C0.863281 10.3354 0.589844 10.062 0.589844 9.6792V5.96045C0.589844 5.24951 1.16406 4.64795 1.90234 4.64795H2.20312C2.85938 4.94873 3.57031 4.94873 4.19922 4.64795H4.52734Z" fill="white"/>
</svg>
