<svg width="12" height="13" viewBox="0 0 12 13" fill="none" xmlns="http://www.w3.org/2000/svg">
<path d="M7.90185 7.59468C9.6518 7.59468 11.0943 9.03721 11.0943 10.7872V11.3784C11.0943 12.0169 10.5741 12.5135 9.95923 12.5135H1.63511C0.99661 12.5135 0.5 12.0169 0.5 11.3784V10.7872C0.5 9.03721 1.91888 7.59468 3.66884 7.59468C4.35464 7.59468 4.66206 7.97305 5.79717 7.97305C6.90863 7.97305 7.21605 7.59468 7.90185 7.59468ZM9.95923 11.3784V10.7872C9.95923 9.65206 9.03695 8.72979 7.90185 8.72979C7.54713 8.72979 7.00322 9.10815 5.79717 9.10815C4.56747 9.10815 4.02356 8.72979 3.66884 8.72979C2.53373 8.72979 1.63511 9.65206 1.63511 10.7872V11.3784H9.95923ZM5.79717 7.21631C3.90532 7.21631 2.39185 5.70283 2.39185 3.81099C2.39185 1.94279 3.90532 0.405664 5.79717 0.405664C7.66537 0.405664 9.20249 1.94279 9.20249 3.81099C9.20249 5.70283 7.66537 7.21631 5.79717 7.21631ZM5.79717 1.54077C4.54382 1.54077 3.52695 2.58129 3.52695 3.81099C3.52695 5.06433 4.54382 6.0812 5.79717 6.0812C7.02687 6.0812 8.06738 5.06433 8.06738 3.81099C8.06738 2.58129 7.02687 1.54077 5.79717 1.54077Z" fill="black" fill-opacity="0.87"/>
</svg>
