<svg width="19" height="14" viewBox="0 0 19 14" fill="none" xmlns="http://www.w3.org/2000/svg">
<g clip-path="url(#clip0_4217_24762)">
<path d="M9.81445 6.72168C9.81445 6.72168 9.62305 6.91309 9.24023 7.2959C8.85742 7.67871 8.11914 7.87012 7.02539 7.87012C5.93164 7.87012 5.00195 7.4873 4.23633 6.72168C3.4707 5.95605 3.08789 5.02637 3.08789 3.93262C3.08789 2.83887 3.4707 1.90918 4.23633 1.14355C5.00195 0.37793 5.93164 -0.00488281 7.02539 -0.00488281C8.11914 -0.00488281 9.04883 0.37793 9.81445 1.14355C10.5801 1.90918 10.9629 2.83887 10.9629 3.93262C10.9629 5.02637 10.5801 5.95605 9.81445 6.72168ZM8.88477 2.07324C8.88477 2.07324 8.75716 1.94564 8.50195 1.69043C8.24674 1.43522 7.75456 1.30762 7.02539 1.30762C6.29622 1.30762 5.67643 1.56283 5.16602 2.07324C4.6556 2.58366 4.40039 3.20345 4.40039 3.93262C4.40039 4.66178 4.6556 5.28158 5.16602 5.79199C5.67643 6.30241 6.29622 6.55762 7.02539 6.55762C7.75456 6.55762 8.37435 6.30241 8.88477 5.79199C9.39518 5.28158 9.65039 4.66178 9.65039 3.93262C9.65039 3.20345 9.39518 2.58366 8.88477 2.07324ZM9.48633 8.30762C10.4889 8.30762 11.3503 8.66764 12.0703 9.3877C12.7904 10.1077 13.1504 10.9691 13.1504 11.9717V12.6826C13.1504 13.0472 13.0228 13.3571 12.7676 13.6123C12.5124 13.8675 12.2025 13.9951 11.8379 13.9951H2.21289C1.84831 13.9951 1.53841 13.8675 1.2832 13.6123C1.02799 13.3571 0.900391 13.0472 0.900391 12.6826V11.9717C0.900391 10.9691 1.26042 10.1077 1.98047 9.3877C2.70052 8.66764 3.56185 8.30762 4.56445 8.30762C4.80143 8.30762 5.15234 8.38053 5.61719 8.52637C6.08203 8.6722 6.55143 8.74512 7.02539 8.74512C7.49935 8.74512 7.97331 8.6722 8.44727 8.52637C8.92122 8.38053 9.26758 8.30762 9.48633 8.30762ZM11.8379 12.6826V11.9717C11.8379 11.3337 11.6055 10.7822 11.1406 10.3174C10.6758 9.85254 10.1243 9.62012 9.48633 9.62012C9.43164 9.62012 9.14453 9.69303 8.625 9.83887C8.10547 9.9847 7.57227 10.0576 7.02539 10.0576C6.47852 10.0576 5.94531 9.9847 5.42578 9.83887C4.90625 9.69303 4.61914 9.62012 4.56445 9.62012C3.92643 9.62012 3.375 9.85254 2.91016 10.3174C2.44531 10.7822 2.21289 11.3337 2.21289 11.9717V12.6826H11.8379ZM17.9629 5.90137C18.0905 5.90137 18.1953 5.94238 18.2773 6.02441C18.3594 6.10645 18.4004 6.21126 18.4004 6.33887V6.77637C18.4004 6.90397 18.3594 7.00879 18.2773 7.09082C18.1953 7.17285 18.0905 7.21387 17.9629 7.21387H15.9941V9.18262C15.9941 9.31022 15.9531 9.41504 15.8711 9.49707C15.7891 9.5791 15.6842 9.62012 15.5566 9.62012H15.1191C14.9915 9.62012 14.8867 9.5791 14.8047 9.49707C14.7227 9.41504 14.6816 9.31022 14.6816 9.18262V7.21387H12.7129C12.5853 7.21387 12.4805 7.17285 12.3984 7.09082C12.3164 7.00879 12.2754 6.90397 12.2754 6.77637V6.33887C12.2754 6.21126 12.3164 6.10645 12.3984 6.02441C12.4805 5.94238 12.5853 5.90137 12.7129 5.90137H14.6816V3.93262C14.6816 3.80501 14.7227 3.7002 14.8047 3.61816C14.8867 3.53613 14.9915 3.49512 15.1191 3.49512H15.5566C15.6842 3.49512 15.7891 3.53613 15.8711 3.61816C15.9531 3.7002 15.9941 3.80501 15.9941 3.93262V5.90137H17.9629Z" fill="white"/>
</g>
<defs>
<clipPath id="clip0_4217_24762">
<rect width="17.5" height="14" fill="white" transform="matrix(1 0 0 -1 0.900391 13.9951)"/>
</clipPath>
</defs>
</svg>
