<svg width="15" height="14" viewBox="0 0 15 14" fill="none" xmlns="http://www.w3.org/2000/svg">
<path d="M10.9727 7.41016C10.9727 7.41016 11.0046 7.37826 11.0684 7.31445C11.1322 7.25065 11.2552 7.21875 11.4375 7.21875C11.6198 7.21875 11.7747 7.28255 11.9023 7.41016C12.0299 7.53776 12.0938 7.69271 12.0938 7.875C12.0938 8.05729 12.0299 8.21224 11.9023 8.33984C11.7747 8.46745 11.6198 8.53125 11.4375 8.53125C11.2552 8.53125 11.1003 8.46745 10.9727 8.33984C10.8451 8.21224 10.7812 8.05729 10.7812 7.875C10.7812 7.69271 10.8451 7.53776 10.9727 7.41016ZM12.3125 4.8125C12.9141 4.8125 13.429 5.02669 13.8574 5.45508C14.2858 5.88346 14.5 6.39844 14.5 7V10.5C14.5 10.6276 14.459 10.7324 14.377 10.8145C14.2949 10.8965 14.1901 10.9375 14.0625 10.9375H12.3125V13.5625C12.3125 13.6901 12.2715 13.7949 12.1895 13.877C12.1074 13.959 12.0026 14 11.875 14H3.125C2.9974 14 2.89258 13.959 2.81055 13.877C2.72852 13.7949 2.6875 13.6901 2.6875 13.5625V10.9375H0.9375C0.809896 10.9375 0.705078 10.8965 0.623047 10.8145C0.541016 10.7324 0.5 10.6276 0.5 10.5V7C0.5 6.39844 0.714193 5.88346 1.14258 5.45508C1.57096 5.02669 2.08594 4.8125 2.6875 4.8125V0.875C2.6875 0.638021 2.76953 0.432942 2.93359 0.259766C3.09766 0.0865889 3.28906 0 3.50781 0H9.57812C9.94271 0 10.2526 0.127604 10.5078 0.382812L11.9297 1.80469C12.1849 2.0599 12.3125 2.36979 12.3125 2.73438V4.8125ZM4 1.3125V4.8125H11V3.0625H9.6875C9.5599 3.0625 9.45508 3.02148 9.37305 2.93945C9.29102 2.85742 9.25 2.7526 9.25 2.625V1.3125H4ZM11 12.6875V10.9375H4V12.6875H11ZM13.1875 9.625V7C13.1875 6.76302 13.1009 6.55794 12.9277 6.38477C12.7546 6.21159 12.5495 6.125 12.3125 6.125H2.6875C2.45052 6.125 2.24544 6.21159 2.07227 6.38477C1.89909 6.55794 1.8125 6.76302 1.8125 7V9.625H13.1875Z" fill="#94A3B8"/>
</svg>
