<svg width="6" height="11" viewBox="0 0 6 11" fill="none" xmlns="http://www.w3.org/2000/svg">
<g clip-path="url(#clip0_3580_5888)">
<path d="M4.99609 3.52734C5.26953 3.67057 5.48438 3.87565 5.64062 4.14258C5.79688 4.40951 5.875 4.69922 5.875 5.01172V6.75C5.875 6.9974 5.80664 7.22526 5.66992 7.43359C5.5332 7.64193 5.35417 7.79167 5.13281 7.88281V9.25C5.13281 9.58854 5.00911 9.88151 4.76172 10.1289C4.51432 10.3763 4.22135 10.5 3.88281 10.5H2.86719C2.52865 10.5 2.23568 10.3763 1.98828 10.1289C1.74089 9.88151 1.61719 9.58854 1.61719 9.25V7.88281C1.39583 7.79167 1.2168 7.64193 1.08008 7.43359C0.943359 7.22526 0.875 6.9974 0.875 6.75V5.01172C0.875 4.80339 0.910807 4.60482 0.982422 4.41602C1.05404 4.22721 1.15495 4.05794 1.28516 3.9082C1.41536 3.75846 1.57161 3.63151 1.75391 3.52734C1.53255 3.20182 1.42188 2.84375 1.42188 2.45312C1.42188 1.91927 1.61393 1.46029 1.99805 1.07617C2.38216 0.692058 2.84115 0.5 3.375 0.5C3.90885 0.5 4.36784 0.692058 4.75195 1.07617C5.13607 1.46029 5.32812 1.91927 5.32812 2.45312C5.32812 2.84375 5.21745 3.20182 4.99609 3.52734ZM4.09766 1.73047C4.09766 1.73047 4.04883 1.68164 3.95117 1.58398C3.85352 1.48633 3.66146 1.4375 3.375 1.4375C3.08854 1.4375 2.84766 1.53516 2.65234 1.73047C2.45703 1.92578 2.35938 2.16667 2.35938 2.45312C2.35938 2.73958 2.45703 2.98047 2.65234 3.17578C2.84766 3.37109 3.08854 3.46875 3.375 3.46875C3.66146 3.46875 3.90234 3.37109 4.09766 3.17578C4.29297 2.98047 4.39062 2.73958 4.39062 2.45312C4.39062 2.16667 4.29297 1.92578 4.09766 1.73047ZM4.9375 6.75V5.01172C4.9375 4.80339 4.86263 4.62435 4.71289 4.47461C4.56315 4.32487 4.37109 4.25 4.13672 4.25C3.62891 4.47135 3.12109 4.47135 2.61328 4.25C2.48307 4.25 2.36914 4.27279 2.27148 4.31836C2.17383 4.36393 2.09245 4.42253 2.02734 4.49414C1.96224 4.56576 1.91016 4.64714 1.87109 4.73828C1.83203 4.82943 1.8125 4.92057 1.8125 5.01172V6.75C1.8125 6.84115 1.8418 6.91602 1.90039 6.97461C1.95898 7.0332 2.03385 7.0625 2.125 7.0625H2.55469V9.25C2.55469 9.34115 2.58398 9.41602 2.64258 9.47461C2.70117 9.5332 2.77604 9.5625 2.86719 9.5625H3.88281C3.97396 9.5625 4.04883 9.5332 4.10742 9.47461C4.16602 9.41602 4.19531 9.34115 4.19531 9.25V7.0625H4.625C4.71615 7.0625 4.79102 7.0332 4.84961 6.97461C4.9082 6.91602 4.9375 6.84115 4.9375 6.75Z" fill="#3F51B5"/>
</g>
<defs>
<clipPath id="clip0_3580_5888">
<rect width="5.25" height="10" fill="white" transform="matrix(1 0 0 -1 0.75 10.5)"/>
</clipPath>
</defs>
</svg>
