<svg width="37" height="32" viewBox="0 0 37 32" fill="none" xmlns="http://www.w3.org/2000/svg">
<g clip-path="url(#clip0_3777_18998)">
<path d="M1 4.51406C1 3.57819 1.26449 2.73387 1.79346 1.9811C2.32243 1.22833 2.9633 0.68919 3.71606 0.363668C4.46883 0.038147 5.29281 -0.0635777 6.18799 0.0584927C7.08317 0.180563 7.87663 0.56712 8.56836 1.21816L17.6016 9.57998C17.7236 7.70823 18.5171 6.06028 19.9819 4.63613C20.7957 3.78164 22.5251 2.43886 25.1699 0.607809C26.2279 -0.0839233 27.3265 -0.185648 28.4658 0.302633C29.6051 0.790915 30.3783 1.60472 30.7852 2.74404C32.0872 3.19163 32.9417 4.06647 33.3486 5.36855C34.5286 5.77545 35.3628 6.54856 35.8511 7.68789C36.3394 8.82721 36.2376 9.9055 35.5459 10.9228C33.7148 13.5676 32.3721 15.3173 31.5176 16.1718C30.2562 17.4332 28.8117 18.1859 27.1841 18.4301L30.7852 21.848C31.721 22.7025 32.1991 23.7707 32.2195 25.0524C32.2398 26.3341 31.8024 27.4226 30.9072 28.3178L29.3203 29.9047C28.4251 30.8406 27.3367 31.2881 26.0549 31.2475C24.7732 31.2068 23.7051 30.7388 22.8506 29.8436C22.8099 29.7623 21.4061 28.1143 18.6392 24.8998L14.3667 29.7216C13.5122 30.6981 12.4339 31.2068 11.1318 31.2475C9.82975 31.2881 8.73112 30.8406 7.83594 29.9047L6.18799 28.3178C5.25212 27.4226 4.80452 26.324 4.84521 25.0219C4.88591 23.7198 5.39453 22.6415 6.37109 21.787L10.5215 18.1249C7.30697 17.4332 4.91642 15.8971 3.34985 13.5167C1.78328 11.1364 1 8.13548 1 4.51406ZM22.2402 13.9135C23.3389 14.9714 24.5392 15.5411 25.8413 15.6225C27.1434 15.7038 28.3438 15.2156 29.4424 14.1576C29.6865 13.9135 29.9714 13.588 30.2969 13.1811C30.6224 12.7742 30.9479 12.3571 31.2734 11.9298C31.599 11.5026 31.9041 11.0855 32.189 10.6786C32.4738 10.2717 32.7179 9.92584 32.9214 9.64101L33.1655 9.2748C33.2469 9.15273 33.2266 8.96963 33.1045 8.72548C32.9824 8.48134 32.7993 8.29824 32.5552 8.17617C32.311 8.0541 32.1279 8.03375 32.0059 8.11513L27.2451 12.8759C27.0417 13.0793 26.7568 12.9979 26.3906 12.6317C26.0244 12.2655 25.943 11.9603 26.1465 11.7162L30.6021 6.71132C30.6834 6.58925 30.6936 6.44684 30.6326 6.28408C30.5715 6.12132 30.4698 5.9789 30.3274 5.85683C30.185 5.73476 30.0324 5.63304 29.8696 5.55166C29.7069 5.47028 29.5645 5.47028 29.4424 5.55166L24.4375 10.0072C24.2747 10.1293 24.0713 10.1293 23.8271 10.0072C23.583 9.88515 23.3999 9.70205 23.2778 9.45791C23.1558 9.21377 23.1558 9.03066 23.2778 8.90859L28.0386 4.14785C28.12 4.02578 28.0996 3.84267 27.9775 3.59853C27.8555 3.35439 27.6724 3.16111 27.4282 3.0187C27.1841 2.87628 27.001 2.86611 26.8789 2.98818C24.3968 4.69716 22.7896 5.93821 22.0571 6.71132C20.9585 7.85065 20.4499 9.07135 20.5312 10.3734C20.6126 11.6755 21.1823 12.8555 22.2402 13.9135ZM13.8174 19.1625L8.38525 23.9232C8.01904 24.2488 7.83594 24.6353 7.83594 25.0829C7.83594 25.5305 7.9987 25.9171 8.32422 26.2426L9.91113 27.8295C10.2367 28.155 10.6232 28.3178 11.0708 28.3178C11.5184 28.3178 11.9049 28.1347 12.2305 27.7685L16.7471 22.6415L13.8174 19.1625ZM3.92969 4.51406C3.92969 11.9197 7.51042 15.6225 14.6719 15.6225L24.9868 27.8295C25.3123 28.155 25.6989 28.3178 26.1465 28.3178C26.5941 28.3178 26.9603 28.155 27.2451 27.8295L28.832 26.2426C29.1576 25.9577 29.3203 25.5814 29.3203 25.1134C29.3203 24.6455 29.1576 24.2691 28.832 23.9843L6.61523 3.35439C6.08626 2.86611 5.50643 2.76439 4.87573 3.04922C4.24504 3.33405 3.92969 3.82233 3.92969 4.51406Z" fill="#FFF7ED"/>
</g>
<defs>
<clipPath id="clip0_3777_18998">
<rect width="35.45" height="31.25" fill="white" transform="matrix(1 0 0 -1 0.800781 31.3906)"/>
</clipPath>
</defs>
</svg>
