<svg width="24" height="28" viewBox="0 0 24 28" fill="none" xmlns="http://www.w3.org/2000/svg">
<g clip-path="url(#clip0_3777_18925)">
<path d="M12.3274 25.1719C12.0198 25.4453 11.7292 25.4453 11.4558 25.1719L0.740479 14.4053C0.432861 14.1318 0.432861 13.8584 0.740479 13.585L11.4558 2.81836C11.7292 2.54492 12.0198 2.54492 12.3274 2.81836L13.3528 3.84375C13.6262 4.11719 13.6262 4.40771 13.3528 4.71533L5.40601 12.6621H22.8889C23.2991 12.6621 23.5042 12.8672 23.5042 13.2773V14.7129C23.5042 15.123 23.2991 15.3281 22.8889 15.3281H5.40601L13.3528 23.2749C13.6262 23.5825 13.6262 23.873 13.3528 24.1465L12.3274 25.1719Z" fill="#1E293B"/>
</g>
<defs>
<clipPath id="clip0_3777_18925">
<rect width="22.97" height="26.25" fill="white" transform="matrix(1 0 0 -1 0.509766 27.1201)"/>
</clipPath>
</defs>
</svg>
