<svg width="10" height="11" viewBox="0 0 10 11" fill="none" xmlns="http://www.w3.org/2000/svg">
<g clip-path="url(#clip0_3777_18897)">
<path d="M8.04883 1.75977C8.30925 1.75977 8.5306 1.85091 8.71289 2.0332C8.89518 2.2155 8.98633 2.43685 8.98633 2.69727V9.57227C8.98633 9.83268 8.89518 10.054 8.71289 10.2363C8.5306 10.4186 8.30925 10.5098 8.04883 10.5098H1.17383C0.913411 10.5098 0.692057 10.4186 0.509766 10.2363C0.327474 10.054 0.236328 9.83268 0.236328 9.57227V2.69727C0.236328 2.43685 0.327474 2.2155 0.509766 2.0332C0.692057 1.85091 0.913411 1.75977 1.17383 1.75977H2.11133V0.744141C2.11133 0.587891 2.18945 0.509766 2.3457 0.509766H3.12695C3.2832 0.509766 3.36133 0.587891 3.36133 0.744141V1.75977H5.86133V0.744141C5.86133 0.587891 5.93945 0.509766 6.0957 0.509766H6.87695C7.0332 0.509766 7.11133 0.587891 7.11133 0.744141V1.75977H8.04883ZM7.93164 9.57227C8.00977 9.57227 8.04883 9.5332 8.04883 9.45508V3.63477H1.17383V9.45508C1.17383 9.5332 1.21289 9.57227 1.29102 9.57227H7.93164Z" fill="#334155"/>
</g>
<defs>
<clipPath id="clip0_3777_18897">
<rect width="9.2" height="10" fill="white" transform="matrix(1 0 0 -1 0.0117188 10.5098)"/>
</clipPath>
</defs>
</svg>
