<svg width="17" height="17" viewBox="0 0 17 17" fill="none" xmlns="http://www.w3.org/2000/svg">
<g clip-path="url(#clip0_3779_19280)">
<path d="M8.30469 7.57848C8.30469 7.57848 8.37651 7.6503 8.52016 7.79395C8.6638 7.93759 8.73563 8.21462 8.73563 8.62504C8.73563 9.03546 8.59198 9.38431 8.30469 9.6716C8.0174 9.95889 7.66854 10.1025 7.25813 10.1025C6.84771 10.1025 6.49885 9.95889 6.21156 9.6716C5.92427 9.38431 5.78063 9.03546 5.78063 8.62504C5.78063 8.21462 5.92427 7.86577 6.21156 7.57848C6.49885 7.29119 6.84771 7.14754 7.25813 7.14754C7.66854 7.14754 8.0174 7.29119 8.30469 7.57848ZM11.3828 7.57848C11.3828 7.57848 11.4546 7.50665 11.5983 7.36301C11.7419 7.21936 12.019 7.14754 12.4294 7.14754C12.8398 7.14754 13.1886 7.29119 13.4759 7.57848C13.7632 7.86577 13.9069 8.21462 13.9069 8.62504C13.9069 9.03546 13.7632 9.38431 13.4759 9.6716C13.1886 9.95889 12.8398 10.1025 12.4294 10.1025C12.019 10.1025 11.6701 9.95889 11.3828 9.6716C11.0955 9.38431 10.9519 9.03546 10.9519 8.62504C10.9519 8.21462 11.0955 7.86577 11.3828 7.57848ZM1.04031 7.57848C1.04031 7.57848 1.11214 7.50665 1.25578 7.36301C1.39943 7.21936 1.67646 7.14754 2.08688 7.14754C2.49729 7.14754 2.84615 7.29119 3.13344 7.57848C3.42073 7.86577 3.56438 8.21462 3.56438 8.62504C3.56438 9.03546 3.42073 9.38431 3.13344 9.6716C2.84615 9.95889 2.49729 10.1025 2.08688 10.1025C1.67646 10.1025 1.3276 9.95889 1.04031 9.6716C0.753021 9.38431 0.609375 9.03546 0.609375 8.62504C0.609375 8.21462 0.753021 7.86577 1.04031 7.57848Z" fill="#334155"/>
</g>
<defs>
<clipPath id="clip0_3779_19280">
<rect width="15.76" height="16.25" fill="white" transform="matrix(1 0 0 -1 0.609375 16.75)"/>
</clipPath>
</defs>
</svg>
