<svg width="12" height="11" viewBox="0 0 12 11" fill="none" xmlns="http://www.w3.org/2000/svg">
<g clip-path="url(#clip0_3777_18913)">
<path d="M9.60547 5.13867C9.61849 5.38607 9.61849 5.63346 9.60547 5.88086L10.2109 6.23242C10.4193 6.36263 10.4974 6.53841 10.4453 6.75977C10.2109 7.5931 9.78776 8.31576 9.17578 8.92773C9.00651 9.09701 8.81771 9.12305 8.60938 9.00586L8.00391 8.6543C7.79557 8.79753 7.58073 8.92122 7.35938 9.02539V9.72852C7.35938 9.97591 7.24219 10.1322 7.00781 10.1973C6.17448 10.4186 5.34115 10.4186 4.50781 10.1973C4.41667 10.1712 4.33529 10.1126 4.26367 10.0215C4.19206 9.93034 4.15625 9.83268 4.15625 9.72852V9.02539C3.9349 8.92122 3.72005 8.79753 3.51172 8.6543L2.90625 9.00586C2.69792 9.12305 2.50911 9.09701 2.33984 8.92773C1.72786 8.31576 1.30469 7.5931 1.07031 6.75977C1.01823 6.53841 1.09635 6.36263 1.30469 6.23242L1.91016 5.88086C1.91016 5.76367 1.91016 5.63997 1.91016 5.50977C1.91016 5.37956 1.91016 5.25586 1.91016 5.13867L1.30469 4.78711C1.09635 4.6569 1.01823 4.48112 1.07031 4.25977C1.30469 3.42643 1.72786 2.70378 2.33984 2.0918C2.50911 1.92253 2.69792 1.89648 2.90625 2.01367L3.51172 2.36523C3.72005 2.222 3.9349 2.09831 4.15625 1.99414V1.29102C4.15625 1.04362 4.27344 0.88737 4.50781 0.822266C5.34115 0.600911 6.17448 0.600911 7.00781 0.822266C7.09896 0.848308 7.18034 0.906901 7.25195 0.998047C7.32357 1.08919 7.35938 1.18685 7.35938 1.29102V1.99414C7.58073 2.09831 7.79557 2.222 8.00391 2.36523L8.60938 2.01367C8.81771 1.89648 9.00651 1.92253 9.17578 2.0918C9.78776 2.70378 10.2109 3.42643 10.4453 4.25977C10.4974 4.48112 10.4193 4.6569 10.2109 4.78711L9.60547 5.13867ZM8.57031 6.36914C8.64844 5.96549 8.6875 5.67904 8.6875 5.50977C8.6875 5.34049 8.64844 5.05404 8.57031 4.65039L9.42969 4.16211C9.27344 3.74544 9.05208 3.36133 8.76562 3.00977L7.90625 3.49805C7.6849 3.31576 7.51562 3.18229 7.39844 3.09766C7.28125 3.01302 7.15755 2.94141 7.02734 2.88281C6.89714 2.82422 6.69531 2.74284 6.42188 2.63867V1.66211C6.20052 1.62305 5.97917 1.60352 5.75781 1.60352C5.53646 1.60352 5.3151 1.62305 5.09375 1.66211V2.63867C4.71615 2.7819 4.45247 2.89583 4.30273 2.98047C4.15299 3.0651 3.92188 3.23763 3.60938 3.49805L2.75 3.00977C2.46354 3.36133 2.24219 3.74544 2.08594 4.16211L2.94531 4.65039C2.86719 5.05404 2.82812 5.34049 2.82812 5.50977C2.82812 5.67904 2.86719 5.96549 2.94531 6.36914L2.08594 6.85742C2.24219 7.27409 2.46354 7.6582 2.75 8.00977L3.60938 7.52148C3.92188 7.7819 4.15299 7.95443 4.30273 8.03906C4.45247 8.1237 4.71615 8.23763 5.09375 8.38086V9.35742C5.3151 9.39648 5.53646 9.41602 5.75781 9.41602C5.97917 9.41602 6.20052 9.39648 6.42188 9.35742V8.38086C6.69531 8.27669 6.89714 8.19531 7.02734 8.13672C7.15755 8.07812 7.28125 8.00651 7.39844 7.92188C7.51562 7.83724 7.6849 7.70378 7.90625 7.52148L8.76562 8.00977C9.05208 7.6582 9.27344 7.27409 9.42969 6.85742L8.57031 6.36914ZM4.42969 4.18164C4.42969 4.18164 4.52083 4.09049 4.70312 3.9082C4.88542 3.72591 5.23698 3.63477 5.75781 3.63477C6.27865 3.63477 6.72135 3.81706 7.08594 4.18164C7.45052 4.54622 7.63281 4.98893 7.63281 5.50977C7.63281 6.0306 7.45052 6.47331 7.08594 6.83789C6.72135 7.20247 6.27865 7.38477 5.75781 7.38477C5.23698 7.38477 4.79427 7.20247 4.42969 6.83789C4.0651 6.47331 3.88281 6.0306 3.88281 5.50977C3.88281 4.98893 4.0651 4.54622 4.42969 4.18164ZM5.09375 6.17383C5.09375 6.17383 5.13932 6.2194 5.23047 6.31055C5.32161 6.40169 5.4974 6.44727 5.75781 6.44727C6.01823 6.44727 6.23958 6.35612 6.42188 6.17383C6.60417 5.99154 6.69531 5.77018 6.69531 5.50977C6.69531 5.24935 6.60417 5.02799 6.42188 4.8457C6.23958 4.66341 6.01823 4.57227 5.75781 4.57227C5.4974 4.57227 5.27604 4.66341 5.09375 4.8457C4.91146 5.02799 4.82031 5.24935 4.82031 5.50977C4.82031 5.77018 4.91146 5.99154 5.09375 6.17383Z" fill="#475569" fill-opacity="0.5"/>
</g>
<defs>
<clipPath id="clip0_3777_18913">
<rect width="10.51" height="10" fill="white" transform="matrix(1 0 0 -1 0.800781 10.5098)"/>
</clipPath>
</defs>
</svg>
