<svg width="18" height="15" viewBox="0 0 18 15" fill="none" xmlns="http://www.w3.org/2000/svg">
<g clip-path="url(#clip0_3777_19030)">
<path d="M14.8828 6.48828C14.8828 6.48828 14.7575 6.61361 14.5068 6.86426C14.2562 7.11491 13.7728 7.24023 13.0566 7.24023C12.3405 7.24023 11.7318 6.98958 11.2305 6.48828C10.7292 5.98698 10.4785 5.37826 10.4785 4.66211C10.4785 3.94596 10.7292 3.33724 11.2305 2.83594C11.7318 2.33464 12.3405 2.08398 13.0566 2.08398C13.7728 2.08398 14.3815 2.33464 14.8828 2.83594C15.3841 3.33724 15.6348 3.94596 15.6348 4.66211C15.6348 5.37826 15.3841 5.98698 14.8828 6.48828ZM13.9697 3.74902C13.9697 3.74902 13.9071 3.68636 13.7817 3.56104C13.6564 3.43571 13.4147 3.37305 13.0566 3.37305C12.6986 3.37305 12.3942 3.49837 12.1436 3.74902C11.8929 3.99967 11.7676 4.30404 11.7676 4.66211C11.7676 5.02018 11.8929 5.32454 12.1436 5.5752C12.3942 5.82585 12.6986 5.95117 13.0566 5.95117C13.4147 5.95117 13.7191 5.82585 13.9697 5.5752C14.2204 5.32454 14.3457 5.02018 14.3457 4.66211C14.3457 4.30404 14.2204 3.99967 13.9697 3.74902ZM7.4707 7.77734C8.56283 7.77734 9.38639 8.19808 9.94141 9.03955C10.2995 9.55876 10.4785 10.1317 10.4785 10.7583V11.9668C10.4785 12.3249 10.3532 12.6292 10.1025 12.8799C9.85189 13.1305 9.54753 13.2559 9.18945 13.2559H1.45508C1.09701 13.2559 0.792643 13.1305 0.541992 12.8799C0.291341 12.6292 0.166016 12.3249 0.166016 11.9668V10.7583C0.166016 10.1317 0.3361 9.55876 0.67627 9.03955C1.24919 8.19808 2.08171 7.77734 3.17383 7.77734C3.49609 7.77734 3.80941 7.8221 4.11377 7.91162C4.50765 8.03695 4.90601 8.09961 5.30884 8.09961C5.71167 8.09961 6.11898 8.03695 6.53076 7.91162C6.83512 7.8221 7.14844 7.77734 7.4707 7.77734ZM9.18945 11.9668V10.7583C9.18945 10.3823 9.08203 10.0377 8.86719 9.72437C8.65234 9.41105 8.36589 9.19173 8.00781 9.06641C7.72135 8.95898 7.4349 8.95898 7.14844 9.06641C6.55762 9.28125 5.94889 9.38867 5.32227 9.38867C4.69564 9.38867 4.08691 9.28125 3.49609 9.06641C3.20964 8.95898 2.92318 8.95898 2.63672 9.06641C2.29655 9.19173 2.01457 9.41105 1.79077 9.72437C1.56698 10.0377 1.45508 10.3823 1.45508 10.7583V11.9668H9.18945ZM7.44385 6.354C7.44385 6.354 7.29614 6.50171 7.00073 6.79712C6.70532 7.09253 6.14583 7.24023 5.32227 7.24023C4.4987 7.24023 3.7915 6.94482 3.20068 6.354C2.60986 5.76318 2.31445 5.05599 2.31445 4.23242C2.31445 3.40885 2.60986 2.70166 3.20068 2.11084C3.7915 1.52002 4.4987 1.22461 5.32227 1.22461C6.14583 1.22461 6.85303 1.52002 7.44385 2.11084C8.03467 2.70166 8.33008 3.40885 8.33008 4.23242C8.33008 5.05599 8.03467 5.76318 7.44385 6.354ZM6.53076 3.02393C6.53076 3.02393 6.44572 2.93888 6.27563 2.7688C6.10555 2.59871 5.78776 2.51367 5.32227 2.51367C4.85677 2.51367 4.45394 2.68376 4.11377 3.02393C3.7736 3.36409 3.60352 3.76693 3.60352 4.23242C3.60352 4.69792 3.7736 5.10075 4.11377 5.44092C4.45394 5.78109 4.85677 5.95117 5.32227 5.95117C5.78776 5.95117 6.19059 5.78109 6.53076 5.44092C6.87093 5.10075 7.04102 4.69792 7.04102 4.23242C7.04102 3.76693 6.87093 3.36409 6.53076 3.02393ZM16.9238 8.87842C17.2103 9.30811 17.3535 9.7915 17.3535 10.3286V11.3223C17.3535 11.6266 17.2506 11.8818 17.0447 12.0876C16.8388 12.2935 16.5837 12.3965 16.2793 12.3965H11.2842C11.32 12.2533 11.3379 12.11 11.3379 11.9668V11.1074H16.0645V10.3018C16.0645 10.0511 15.9928 9.81836 15.8496 9.60352C15.6348 9.28125 15.3035 9.12012 14.856 9.12012C14.7485 9.12012 14.5158 9.16488 14.1577 9.25439C13.7996 9.34391 13.4326 9.38867 13.0566 9.38867C12.6807 9.38867 12.3136 9.34391 11.9556 9.25439C11.5975 9.16488 11.3647 9.12012 11.2573 9.12012C11.1678 9.12012 11.0783 9.12907 10.9888 9.14697C10.8813 8.93213 10.7739 8.73519 10.6665 8.55615C10.5591 8.39502 10.4159 8.22494 10.2368 8.0459C10.577 7.90267 10.9172 7.83105 11.2573 7.83105C11.508 7.83105 11.7944 7.87581 12.1167 7.96533C12.439 8.05485 12.7523 8.09961 13.0566 8.09961C13.361 8.09961 13.6743 8.05485 13.9966 7.96533C14.3188 7.87581 14.6053 7.83105 14.856 7.83105C15.7511 7.83105 16.4404 8.18018 16.9238 8.87842Z" fill="#6D45BC"/>
</g>
<defs>
<clipPath id="clip0_3777_19030">
<rect width="17.5" height="13.75" fill="white" transform="matrix(1 0 0 -1 0.00976562 14.1152)"/>
</clipPath>
</defs>
</svg>
