<svg width="13" height="11" viewBox="0 0 13 11" fill="none" xmlns="http://www.w3.org/2000/svg">
<g clip-path="url(#clip0_3779_19259)">
<path d="M0.814453 1.95524C0.814453 1.65576 0.899089 1.38558 1.06836 1.14469C1.23763 0.903809 1.44271 0.731283 1.68359 0.627116C1.92448 0.522949 2.18815 0.490397 2.47461 0.52946C2.76107 0.568522 3.01497 0.692221 3.23633 0.900554L6.12695 3.57633C6.16602 2.97738 6.41992 2.45003 6.88867 1.9943C7.14909 1.72087 7.70247 1.29118 8.54883 0.705241C8.88737 0.483887 9.23893 0.451335 9.60352 0.607585C9.9681 0.763835 10.2155 1.02425 10.3457 1.38883C10.7624 1.53206 11.0358 1.81201 11.166 2.22868C11.5436 2.35889 11.8105 2.60628 11.9668 2.97087C12.123 3.33545 12.0905 3.6805 11.8691 4.00602C11.2832 4.85238 10.8535 5.41227 10.5801 5.68571C10.1764 6.08936 9.71419 6.33024 9.19336 6.40837L10.3457 7.50212C10.6452 7.77555 10.7982 8.11735 10.8047 8.52751C10.8112 8.93766 10.6712 9.28597 10.3848 9.57243L9.87695 10.0802C9.5905 10.3797 9.24219 10.5229 8.83203 10.5099C8.42188 10.4969 8.08008 10.3472 7.80664 10.0607C7.79362 10.0347 7.3444 9.50732 6.45898 8.47868L5.0918 10.0216C4.81836 10.3341 4.47331 10.4969 4.05664 10.5099C3.63997 10.5229 3.28841 10.3797 3.00195 10.0802L2.47461 9.57243C2.17513 9.28597 2.0319 8.93441 2.04492 8.51774C2.05794 8.10107 2.2207 7.75602 2.5332 7.48258L3.86133 6.31071C2.83268 6.08936 2.06771 5.59782 1.56641 4.8361C1.0651 4.07438 0.814453 3.1141 0.814453 1.95524ZM7.61133 4.96305C7.96289 5.3016 8.34701 5.48389 8.76367 5.50993C9.18034 5.53597 9.56445 5.37972 9.91602 5.04118C9.99414 4.96305 10.0853 4.85889 10.1895 4.72868C10.2936 4.59847 10.3978 4.46501 10.502 4.32829C10.6061 4.19157 10.7038 4.05811 10.7949 3.9279C10.8861 3.79769 10.9642 3.68701 11.0293 3.59587L11.1074 3.47868C11.1335 3.43962 11.127 3.38102 11.0879 3.3029C11.0488 3.22477 10.9902 3.16618 10.9121 3.12712C10.834 3.08805 10.7754 3.08154 10.7363 3.10758L9.21289 4.63102C9.14779 4.69613 9.05664 4.67008 8.93945 4.5529C8.82227 4.43571 8.79622 4.33805 8.86133 4.25993L10.2871 2.65837C10.3132 2.6193 10.3164 2.57373 10.2969 2.52165C10.2773 2.46956 10.2448 2.42399 10.1992 2.38493C10.1536 2.34587 10.1048 2.31331 10.0527 2.28727C10.0007 2.26123 9.95508 2.26123 9.91602 2.28727L8.31445 3.71305C8.26237 3.75212 8.19727 3.75212 8.11914 3.71305C8.04102 3.67399 7.98242 3.6154 7.94336 3.53727C7.9043 3.45915 7.9043 3.40055 7.94336 3.36149L9.4668 1.83805C9.49284 1.79899 9.48633 1.7404 9.44727 1.66227C9.4082 1.58415 9.34961 1.5223 9.27148 1.47673C9.19336 1.43115 9.13477 1.4279 9.0957 1.46696C8.30143 2.01383 7.78711 2.41097 7.55273 2.65837C7.20117 3.02295 7.03841 3.41357 7.06445 3.83024C7.09049 4.24691 7.27279 4.62451 7.61133 4.96305ZM4.91602 6.64274L3.17773 8.16618C3.06055 8.27035 3.00195 8.39404 3.00195 8.53727C3.00195 8.6805 3.05404 8.8042 3.1582 8.90837L3.66602 9.41618C3.77018 9.52035 3.89388 9.57243 4.03711 9.57243C4.18034 9.57243 4.30404 9.51383 4.4082 9.39665L5.85352 7.75602L4.91602 6.64274ZM1.75195 1.95524C1.75195 4.32503 2.89779 5.50993 5.18945 5.50993L8.49023 9.41618C8.5944 9.52035 8.7181 9.57243 8.86133 9.57243C9.00456 9.57243 9.12175 9.52035 9.21289 9.41618L9.7207 8.90837C9.82487 8.81722 9.87695 8.69678 9.87695 8.54704C9.87695 8.3973 9.82487 8.27686 9.7207 8.18571L2.61133 1.58415C2.44206 1.4279 2.25651 1.39535 2.05469 1.48649C1.85286 1.57764 1.75195 1.73389 1.75195 1.95524Z" fill="#475569" fill-opacity="0.5"/>
</g>
<defs>
<clipPath id="clip0_3779_19259">
<rect width="11.82" height="10" fill="white" transform="matrix(1 0 0 -1 0.529297 10.5098)"/>
</clipPath>
</defs>
</svg>
