<svg width="13" height="15" viewBox="0 0 13 15" fill="none" xmlns="http://www.w3.org/2000/svg">
<g clip-path="url(#clip0_4265_6817)">
<path d="M4.57422 8.15527H3.5C3.28516 8.15527 3.17773 8.04785 3.17773 7.83301V6.75879C3.17773 6.54395 3.28516 6.43652 3.5 6.43652H4.57422C4.78906 6.43652 4.89648 6.54395 4.89648 6.75879V7.83301C4.89648 8.04785 4.78906 8.15527 4.57422 8.15527ZM7.47461 7.83301C7.47461 8.04785 7.36719 8.15527 7.15234 8.15527H6.07812C5.86328 8.15527 5.75586 8.04785 5.75586 7.83301V6.75879C5.75586 6.54395 5.86328 6.43652 6.07812 6.43652H7.15234C7.36719 6.43652 7.47461 6.54395 7.47461 6.75879V7.83301ZM10.0527 7.83301C10.0527 8.04785 9.94531 8.15527 9.73047 8.15527H8.65625C8.44141 8.15527 8.33398 8.04785 8.33398 7.83301V6.75879C8.33398 6.54395 8.44141 6.43652 8.65625 6.43652H9.73047C9.94531 6.43652 10.0527 6.54395 10.0527 6.75879V7.83301ZM7.47461 10.4111C7.47461 10.626 7.36719 10.7334 7.15234 10.7334H6.07812C5.86328 10.7334 5.75586 10.626 5.75586 10.4111V9.33691C5.75586 9.12207 5.86328 9.01465 6.07812 9.01465H7.15234C7.36719 9.01465 7.47461 9.12207 7.47461 9.33691V10.4111ZM4.89648 10.4111C4.89648 10.626 4.78906 10.7334 4.57422 10.7334H3.5C3.28516 10.7334 3.17773 10.626 3.17773 10.4111V9.33691C3.17773 9.12207 3.28516 9.01465 3.5 9.01465H4.57422C4.78906 9.01465 4.89648 9.12207 4.89648 9.33691V10.4111ZM10.0527 10.4111C10.0527 10.626 9.94531 10.7334 9.73047 10.7334H8.65625C8.44141 10.7334 8.33398 10.626 8.33398 10.4111V9.33691C8.33398 9.12207 8.44141 9.01465 8.65625 9.01465H9.73047C9.94531 9.01465 10.0527 9.12207 10.0527 9.33691V10.4111ZM12.6309 3.42871V12.8818C12.6309 13.2399 12.5055 13.5443 12.2549 13.7949C12.0042 14.0456 11.6999 14.1709 11.3418 14.1709H1.88867C1.5306 14.1709 1.22624 14.0456 0.975586 13.7949C0.724935 13.5443 0.599609 13.2399 0.599609 12.8818V3.42871C0.599609 3.07064 0.724935 2.76628 0.975586 2.51562C1.22624 2.26497 1.5306 2.13965 1.88867 2.13965H3.17773V0.743164C3.17773 0.52832 3.28516 0.420898 3.5 0.420898H4.57422C4.78906 0.420898 4.89648 0.52832 4.89648 0.743164V2.13965H8.33398V0.743164C8.33398 0.52832 8.44141 0.420898 8.65625 0.420898H9.73047C9.94531 0.420898 10.0527 0.52832 10.0527 0.743164V2.13965H11.3418C11.6999 2.13965 12.0042 2.26497 12.2549 2.51562C12.5055 2.76628 12.6309 3.07064 12.6309 3.42871ZM11.3418 12.7207V4.71777H1.88867V12.7207C1.88867 12.8281 1.94238 12.8818 2.0498 12.8818H11.1807C11.2881 12.8818 11.3418 12.8281 11.3418 12.7207Z" fill="black"/>
</g>
<defs>
<clipPath id="clip0_4265_6817">
<rect width="12.27" height="13.75" fill="white" transform="matrix(1 0 0 -1 0.480469 14.1709)"/>
</clipPath>
</defs>
</svg>
