<svg width="37" height="32" viewBox="0 0 37 32" fill="none" xmlns="http://www.w3.org/2000/svg">
<g clip-path="url(#clip0_3777_18974)">
<path d="M24.3145 4.04688C27.5697 4.04688 30.3366 5.1862 32.6152 7.46484C34.8939 9.74349 36.0332 12.5104 36.0332 15.7656C36.0332 19.0208 34.8939 21.7878 32.6152 24.0664C30.3366 26.3451 27.5697 27.4844 24.3145 27.4844H12.5957C9.3405 27.4844 6.57357 26.3451 4.29492 24.0664C2.01628 21.7878 0.876953 19.0208 0.876953 15.7656C0.876953 12.5104 2.01628 9.74349 4.29492 7.46484C6.57357 5.1862 9.3405 4.04688 12.5957 4.04688H24.3145ZM18.0889 21.9912C18.0889 21.9912 18.5161 22.4185 19.3706 23.2729C20.2251 24.1274 21.873 24.5547 24.3145 24.5547C26.7559 24.5547 28.8311 23.7002 30.54 21.9912C32.249 20.2822 33.1035 18.207 33.1035 15.7656C33.1035 13.3242 32.249 11.249 30.54 9.54004C28.8311 7.83105 26.7559 6.97656 24.3145 6.97656C21.873 6.97656 19.7979 7.83105 18.0889 9.54004C16.3799 11.249 15.5254 13.3242 15.5254 15.7656C15.5254 18.207 16.3799 20.2822 18.0889 21.9912Z" fill="#FFF7ED"/>
</g>
<defs>
<clipPath id="clip0_3777_18974">
<rect width="35.45" height="31.25" fill="white" transform="matrix(1 0 0 -1 0.730469 31.3906)"/>
</clipPath>
</defs>
</svg>
