<svg width="12" height="15" viewBox="0 0 12 15" fill="none" xmlns="http://www.w3.org/2000/svg">
<g clip-path="url(#clip0_3777_19038)">
<path d="M3.99316 8.0459C3.92155 8.11751 3.85889 8.11751 3.80518 8.0459L2.81152 7.05225C2.73991 6.98063 2.73991 6.90902 2.81152 6.8374L3.13379 6.51514C3.2054 6.44352 3.27702 6.44352 3.34863 6.51514L3.9126 7.0791L5.1748 5.79004C5.24642 5.73633 5.31803 5.73633 5.38965 5.79004L5.71191 6.13916C5.78353 6.21077 5.78353 6.28239 5.71191 6.354L3.99316 8.0459ZM9.63281 2.08398C9.99089 2.08398 10.2952 2.20931 10.5459 2.45996C10.7965 2.71061 10.9219 3.01497 10.9219 3.37305V12.8262C10.9219 13.1842 10.7965 13.4886 10.5459 13.7393C10.2952 13.9899 9.99089 14.1152 9.63281 14.1152H1.89844C1.54036 14.1152 1.236 13.9899 0.985352 13.7393C0.734701 13.4886 0.609375 13.1842 0.609375 12.8262V3.37305C0.609375 3.01497 0.734701 2.71061 0.985352 2.45996C1.236 2.20931 1.54036 2.08398 1.89844 2.08398H4.04688C4.04688 1.61849 4.21696 1.21566 4.55713 0.875488C4.8973 0.535319 5.30013 0.365234 5.76562 0.365234C6.23112 0.365234 6.63395 0.535319 6.97412 0.875488C7.31429 1.21566 7.48438 1.61849 7.48438 2.08398H9.63281ZM6.07446 1.77515C6.07446 1.77515 6.05432 1.755 6.01404 1.71472C5.97375 1.67444 5.89095 1.6543 5.76562 1.6543C5.6403 1.6543 5.53735 1.69458 5.45679 1.77515C5.37622 1.85571 5.33594 1.95866 5.33594 2.08398C5.33594 2.20931 5.37622 2.31226 5.45679 2.39282C5.53735 2.47339 5.6403 2.51367 5.76562 2.51367C5.89095 2.51367 5.9939 2.47339 6.07446 2.39282C6.15503 2.31226 6.19531 2.20931 6.19531 2.08398C6.19531 1.95866 6.15503 1.85571 6.07446 1.77515ZM9.63281 12.6113V3.58789C9.63281 3.44466 9.5612 3.37305 9.41797 3.37305H8.34375V4.23242C8.34375 4.35775 8.30347 4.46069 8.2229 4.54126C8.14233 4.62183 8.03939 4.66211 7.91406 4.66211H3.61719C3.49186 4.66211 3.38892 4.62183 3.30835 4.54126C3.22778 4.46069 3.1875 4.35775 3.1875 4.23242V3.37305H2.11328C1.97005 3.37305 1.89844 3.44466 1.89844 3.58789V12.6113C1.89844 12.7546 1.97005 12.8262 2.11328 12.8262H9.41797C9.5612 12.8262 9.63281 12.7546 9.63281 12.6113ZM3.16064 9.36182C3.16064 9.36182 3.19198 9.33048 3.25464 9.26782C3.3173 9.20516 3.43815 9.17383 3.61719 9.17383C3.79622 9.17383 3.94841 9.23649 4.07373 9.36182C4.19906 9.48714 4.26172 9.63932 4.26172 9.81836C4.26172 9.9974 4.19906 10.1496 4.07373 10.2749C3.94841 10.4002 3.79622 10.4629 3.61719 10.4629C3.43815 10.4629 3.28597 10.4002 3.16064 10.2749C3.03532 10.1496 2.97266 9.9974 2.97266 9.81836C2.97266 9.63932 3.03532 9.48714 3.16064 9.36182ZM8.12891 6.81055C8.27214 6.81055 8.34375 6.88216 8.34375 7.02539V7.45508C8.34375 7.59831 8.27214 7.66992 8.12891 7.66992H5.60449L6.32959 6.97168C6.34749 6.95378 6.3654 6.92244 6.3833 6.87769C6.4012 6.83293 6.41911 6.81055 6.43701 6.81055H8.12891ZM8.12891 9.38867C8.27214 9.38867 8.34375 9.46029 8.34375 9.60352V10.0332C8.34375 10.1764 8.27214 10.248 8.12891 10.248H5.12109C4.97786 10.248 4.90625 10.1764 4.90625 10.0332V9.60352C4.90625 9.46029 4.97786 9.38867 5.12109 9.38867H8.12891Z" fill="#E91E63"/>
</g>
<defs>
<clipPath id="clip0_3777_19038">
<rect width="10.51" height="13.75" fill="white" transform="matrix(1 0 0 -1 0.509766 14.1152)"/>
</clipPath>
</defs>
</svg>
