<svg width="9" height="11" viewBox="0 0 9 11" fill="none" xmlns="http://www.w3.org/2000/svg">
<g clip-path="url(#clip0_3580_5904)">
<path d="M3.24219 6.08594C3.1901 6.13802 3.14453 6.13802 3.10547 6.08594L2.38281 5.36328C2.33073 5.3112 2.33073 5.25911 2.38281 5.20703L2.61719 4.97266C2.66927 4.92057 2.72135 4.92057 2.77344 4.97266L3.18359 5.38281L4.10156 4.44531C4.15365 4.40625 4.20573 4.40625 4.25781 4.44531L4.49219 4.69922C4.54427 4.7513 4.54427 4.80339 4.49219 4.85547L3.24219 6.08594ZM7.34375 1.75C7.60417 1.75 7.82552 1.84115 8.00781 2.02344C8.1901 2.20573 8.28125 2.42708 8.28125 2.6875V9.5625C8.28125 9.82292 8.1901 10.0443 8.00781 10.2266C7.82552 10.4089 7.60417 10.5 7.34375 10.5H1.71875C1.45833 10.5 1.23698 10.4089 1.05469 10.2266C0.872396 10.0443 0.78125 9.82292 0.78125 9.5625V2.6875C0.78125 2.42708 0.872396 2.20573 1.05469 2.02344C1.23698 1.84115 1.45833 1.75 1.71875 1.75H3.28125C3.28125 1.41146 3.40495 1.11849 3.65234 0.871094C3.89974 0.623698 4.19271 0.5 4.53125 0.5C4.86979 0.5 5.16276 0.623698 5.41016 0.871094C5.65755 1.11849 5.78125 1.41146 5.78125 1.75H7.34375ZM4.75586 1.52539C4.75586 1.52539 4.74121 1.51074 4.71191 1.48145C4.68262 1.45215 4.6224 1.4375 4.53125 1.4375C4.4401 1.4375 4.36523 1.4668 4.30664 1.52539C4.24805 1.58398 4.21875 1.65885 4.21875 1.75C4.21875 1.84115 4.24805 1.91602 4.30664 1.97461C4.36523 2.0332 4.4401 2.0625 4.53125 2.0625C4.6224 2.0625 4.69727 2.0332 4.75586 1.97461C4.81445 1.91602 4.84375 1.84115 4.84375 1.75C4.84375 1.65885 4.81445 1.58398 4.75586 1.52539ZM7.34375 9.40625V2.84375C7.34375 2.73958 7.29167 2.6875 7.1875 2.6875H6.40625V3.3125C6.40625 3.40365 6.37695 3.47852 6.31836 3.53711C6.25977 3.5957 6.1849 3.625 6.09375 3.625H2.96875C2.8776 3.625 2.80273 3.5957 2.74414 3.53711C2.68555 3.47852 2.65625 3.40365 2.65625 3.3125V2.6875H1.875C1.77083 2.6875 1.71875 2.73958 1.71875 2.84375V9.40625C1.71875 9.51042 1.77083 9.5625 1.875 9.5625H7.1875C7.29167 9.5625 7.34375 9.51042 7.34375 9.40625ZM2.63672 7.04297C2.63672 7.04297 2.65951 7.02018 2.70508 6.97461C2.75065 6.92904 2.83854 6.90625 2.96875 6.90625C3.09896 6.90625 3.20964 6.95182 3.30078 7.04297C3.39193 7.13411 3.4375 7.24479 3.4375 7.375C3.4375 7.50521 3.39193 7.61589 3.30078 7.70703C3.20964 7.79818 3.09896 7.84375 2.96875 7.84375C2.83854 7.84375 2.72786 7.79818 2.63672 7.70703C2.54557 7.61589 2.5 7.50521 2.5 7.375C2.5 7.24479 2.54557 7.13411 2.63672 7.04297ZM6.25 5.1875C6.35417 5.1875 6.40625 5.23958 6.40625 5.34375V5.65625C6.40625 5.76042 6.35417 5.8125 6.25 5.8125H4.41406L4.94141 5.30469C4.95443 5.29167 4.96745 5.26888 4.98047 5.23633C4.99349 5.20378 5.00651 5.1875 5.01953 5.1875H6.25ZM6.25 7.0625C6.35417 7.0625 6.40625 7.11458 6.40625 7.21875V7.53125C6.40625 7.63542 6.35417 7.6875 6.25 7.6875H4.0625C3.95833 7.6875 3.90625 7.63542 3.90625 7.53125V7.21875C3.90625 7.11458 3.95833 7.0625 4.0625 7.0625H6.25Z" fill="#E91E63"/>
</g>
<defs>
<clipPath id="clip0_3580_5904">
<rect width="7.88" height="10" fill="white" transform="matrix(1 0 0 -1 0.589844 10.5)"/>
</clipPath>
</defs>
</svg>
