<svg width="5" height="14" viewBox="0 0 5 14" fill="none" xmlns="http://www.w3.org/2000/svg">
<g clip-path="url(#clip0_3580_5876)">
<path d="M1.21094 6.07031C1.21094 6.07031 1.27474 6.00651 1.40234 5.87891C1.52995 5.7513 1.77604 5.6875 2.14062 5.6875C2.50521 5.6875 2.8151 5.8151 3.07031 6.07031C3.32552 6.32552 3.45312 6.63542 3.45312 7C3.45312 7.36458 3.32552 7.67448 3.07031 7.92969C2.8151 8.1849 2.50521 8.3125 2.14062 8.3125C1.77604 8.3125 1.46615 8.1849 1.21094 7.92969C0.955729 7.67448 0.828125 7.36458 0.828125 7C0.828125 6.63542 0.955729 6.32552 1.21094 6.07031ZM1.21094 3.77344C1.21094 3.77344 1.14714 3.70964 1.01953 3.58203C0.891927 3.45443 0.828125 3.20833 0.828125 2.84375C0.828125 2.47917 0.955729 2.16927 1.21094 1.91406C1.46615 1.65885 1.77604 1.53125 2.14062 1.53125C2.50521 1.53125 2.8151 1.65885 3.07031 1.91406C3.32552 2.16927 3.45312 2.47917 3.45312 2.84375C3.45312 3.20833 3.32552 3.51823 3.07031 3.77344C2.8151 4.02865 2.50521 4.15625 2.14062 4.15625C1.77604 4.15625 1.46615 4.02865 1.21094 3.77344ZM1.21094 12.0859C1.21094 12.0859 1.14714 12.0221 1.01953 11.8945C0.891927 11.7669 0.828125 11.5208 0.828125 11.1562C0.828125 10.7917 0.955729 10.4818 1.21094 10.2266C1.46615 9.97135 1.77604 9.84375 2.14062 9.84375C2.50521 9.84375 2.8151 9.97135 3.07031 10.2266C3.32552 10.4818 3.45312 10.7917 3.45312 11.1562C3.45312 11.5208 3.32552 11.8307 3.07031 12.0859C2.8151 12.3411 2.50521 12.4688 2.14062 12.4688C1.77604 12.4688 1.46615 12.3411 1.21094 12.0859Z" fill="black"/>
</g>
<defs>
<clipPath id="clip0_3580_5876">
<rect width="3.5" height="14" fill="white" transform="matrix(1 0 0 -1 0.828125 14)"/>
</clipPath>
</defs>
</svg>
