<svg width="7" height="11" viewBox="0 0 7 11" fill="none" xmlns="http://www.w3.org/2000/svg">
<g clip-path="url(#clip0_3580_5913)">
<path d="M5.16406 3.52734C5.4375 3.67057 5.65234 3.87565 5.80859 4.14258C5.96484 4.40951 6.04297 4.69922 6.04297 5.01172V6.75C6.04297 6.9974 5.97461 7.22526 5.83789 7.43359C5.70117 7.64193 5.52214 7.79167 5.30078 7.88281V9.25C5.30078 9.58854 5.17708 9.88151 4.92969 10.1289C4.68229 10.3763 4.38932 10.5 4.05078 10.5H3.03516C2.69661 10.5 2.40365 10.3763 2.15625 10.1289C1.90885 9.88151 1.78516 9.58854 1.78516 9.25V7.88281C1.5638 7.79167 1.38477 7.64193 1.24805 7.43359C1.11133 7.22526 1.04297 6.9974 1.04297 6.75V5.01172C1.04297 4.80339 1.07878 4.60482 1.15039 4.41602C1.22201 4.22721 1.32292 4.05794 1.45312 3.9082C1.58333 3.75846 1.73958 3.63151 1.92188 3.52734C1.70052 3.20182 1.58984 2.84375 1.58984 2.45312C1.58984 1.91927 1.7819 1.46029 2.16602 1.07617C2.55013 0.692058 3.00911 0.5 3.54297 0.5C4.07682 0.5 4.53581 0.692058 4.91992 1.07617C5.30404 1.46029 5.49609 1.91927 5.49609 2.45312C5.49609 2.84375 5.38542 3.20182 5.16406 3.52734ZM4.26562 1.73047C4.26562 1.73047 4.2168 1.68164 4.11914 1.58398C4.02148 1.48633 3.82943 1.4375 3.54297 1.4375C3.25651 1.4375 3.01562 1.53516 2.82031 1.73047C2.625 1.92578 2.52734 2.16667 2.52734 2.45312C2.52734 2.73958 2.625 2.98047 2.82031 3.17578C3.01562 3.37109 3.25651 3.46875 3.54297 3.46875C3.82943 3.46875 4.07031 3.37109 4.26562 3.17578C4.46094 2.98047 4.55859 2.73958 4.55859 2.45312C4.55859 2.16667 4.46094 1.92578 4.26562 1.73047ZM5.10547 6.75V5.01172C5.10547 4.80339 5.0306 4.62435 4.88086 4.47461C4.73112 4.32487 4.53906 4.25 4.30469 4.25C3.79688 4.47135 3.28906 4.47135 2.78125 4.25C2.65104 4.25 2.53711 4.27279 2.43945 4.31836C2.3418 4.36393 2.26042 4.42253 2.19531 4.49414C2.13021 4.56576 2.07812 4.64714 2.03906 4.73828C2 4.82943 1.98047 4.92057 1.98047 5.01172V6.75C1.98047 6.84115 2.00977 6.91602 2.06836 6.97461C2.12695 7.0332 2.20182 7.0625 2.29297 7.0625H2.72266V9.25C2.72266 9.34115 2.75195 9.41602 2.81055 9.47461C2.86914 9.5332 2.94401 9.5625 3.03516 9.5625H4.05078C4.14193 9.5625 4.2168 9.5332 4.27539 9.47461C4.33398 9.41602 4.36328 9.34115 4.36328 9.25V7.0625H4.79297C4.88411 7.0625 4.95898 7.0332 5.01758 6.97461C5.07617 6.91602 5.10547 6.84115 5.10547 6.75Z" fill="#6D45BC"/>
</g>
<defs>
<clipPath id="clip0_3580_5913">
<rect width="5.25" height="10" fill="white" transform="matrix(1 0 0 -1 0.917969 10.5)"/>
</clipPath>
</defs>
</svg>
