<svg width="22" height="18" viewBox="0 0 22 18" fill="none" xmlns="http://www.w3.org/2000/svg">
<g clip-path="url(#clip0_3580_5794)">
<path d="M13.3984 9.33203C13.3984 9.33203 13.6309 9.09961 14.0957 8.63477C14.5605 8.16992 15.457 7.9375 16.7852 7.9375C18.1133 7.9375 19.2422 8.40234 20.1719 9.33203C21.1016 10.2617 21.5664 11.3906 21.5664 12.7188C21.5664 14.0469 21.1016 15.1758 20.1719 16.1055C19.2422 17.0352 18.1133 17.5 16.7852 17.5C15.457 17.5 14.3281 17.0352 13.3984 16.1055C12.4688 15.1758 12.0039 14.0469 12.0039 12.7188C12.0039 11.3906 12.4688 10.2617 13.3984 9.33203ZM18.9102 12.918V12.5195C18.9102 12.2982 18.7995 12.1875 18.5781 12.1875H17.3164V10.3945C17.3164 10.1732 17.2057 10.0625 16.9844 10.0625H16.5859C16.3646 10.0625 16.2539 10.1732 16.2539 10.3945V12.918C16.2539 13.1393 16.3646 13.25 16.5859 13.25H18.5781C18.7995 13.25 18.9102 13.1393 18.9102 12.918ZM7.48828 11.125C7.26693 11.125 7.07878 11.0475 6.92383 10.8926C6.76888 10.7376 6.69141 10.5495 6.69141 10.3281V9.53125H1.91016V13.582C1.91016 13.7148 1.97656 13.7812 2.10938 13.7812H11.041C11.1517 14.3346 11.3288 14.8659 11.5723 15.375H1.91016C1.46745 15.375 1.09115 15.2201 0.78125 14.9102C0.471354 14.6003 0.316406 14.224 0.316406 13.7812V5.28125C0.316406 4.83854 0.471354 4.46224 0.78125 4.15234C1.09115 3.84245 1.46745 3.6875 1.91016 3.6875H4.56641V2.09375C4.56641 1.65104 4.72135 1.27474 5.03125 0.964844C5.34115 0.654947 5.71745 0.5 6.16016 0.5H11.4727C11.9154 0.5 12.2917 0.654947 12.6016 0.964844C12.9115 1.27474 13.0664 1.65104 13.0664 2.09375V3.6875H15.7227C16.1654 3.6875 16.5417 3.84245 16.8516 4.15234C17.1615 4.46224 17.3164 4.83854 17.3164 5.28125V6.9082C17.1172 6.88607 16.9401 6.875 16.7852 6.875C16.4531 6.875 16.099 6.9082 15.7227 6.97461V5.48047C15.7227 5.34766 15.6562 5.28125 15.5234 5.28125H2.10938C1.97656 5.28125 1.91016 5.34766 1.91016 5.48047V7.9375H13.4316C12.8118 8.38021 12.3027 8.91146 11.9043 9.53125H10.9414V10.3281C10.9414 10.5495 10.8639 10.7376 10.709 10.8926C10.554 11.0475 10.3659 11.125 10.1445 11.125H7.48828ZM6.16016 2.09375V3.6875H11.4727V2.09375H6.16016Z" fill="#94A3B8"/>
</g>
<defs>
<clipPath id="clip0_3580_5794">
<rect width="21.88" height="17" fill="white" transform="matrix(1 0 0 -1 0 17.5)"/>
</clipPath>
</defs>
</svg>
