<svg width="13" height="11" viewBox="0 0 13 11" fill="none" xmlns="http://www.w3.org/2000/svg">
<g clip-path="url(#clip0_3580_5896)">
<path d="M8.64062 4.5625H4.26562V6.4375H8.64062V4.5625ZM9.10938 3.625C9.23958 3.625 9.35026 3.67057 9.44141 3.76172C9.53255 3.85286 9.57812 3.96354 9.57812 4.09375V6.90625C9.57812 7.03646 9.53255 7.14714 9.44141 7.23828C9.35026 7.32943 9.23958 7.375 9.10938 7.375H3.79688C3.66667 7.375 3.55599 7.32943 3.46484 7.23828C3.3737 7.14714 3.32812 7.03646 3.32812 6.90625V4.09375C3.32812 3.96354 3.3737 3.85286 3.46484 3.76172C3.55599 3.67057 3.66667 3.625 3.79688 3.625H9.10938ZM11.9219 4.71875C11.7005 4.71875 11.515 4.79362 11.3652 4.94336C11.2155 5.0931 11.1406 5.27865 11.1406 5.5C11.1406 5.72135 11.2155 5.9069 11.3652 6.05664C11.515 6.20638 11.7005 6.28125 11.9219 6.28125H12.0781V8.3125C12.0781 8.57292 11.987 8.79427 11.8047 8.97656C11.6224 9.15885 11.401 9.25 11.1406 9.25H1.76562C1.50521 9.25 1.28385 9.15885 1.10156 8.97656C0.919271 8.79427 0.828125 8.57292 0.828125 8.3125V6.28125H0.984375C1.20573 6.28125 1.39128 6.20638 1.54102 6.05664C1.69076 5.9069 1.76562 5.72135 1.76562 5.5C1.76562 5.27865 1.69076 5.0931 1.54102 4.94336C1.39128 4.79362 1.20573 4.71875 0.984375 4.71875H0.828125V2.6875C0.828125 2.42708 0.919271 2.20573 1.10156 2.02344C1.28385 1.84115 1.50521 1.75 1.76562 1.75H11.1406C11.401 1.75 11.6224 1.84115 11.8047 2.02344C11.987 2.20573 12.0781 2.42708 12.0781 2.6875V4.71875H11.9219ZM11.1406 3.97656V2.6875H1.76562V3.97656C2.05208 4.11979 2.27995 4.32812 2.44922 4.60156C2.61849 4.875 2.70312 5.17448 2.70312 5.5C2.70312 5.82552 2.61849 6.125 2.44922 6.39844C2.27995 6.67188 2.05208 6.88021 1.76562 7.02344V8.3125H11.1406V7.02344C10.8542 6.88021 10.6263 6.67188 10.457 6.39844C10.2878 6.125 10.2031 5.82552 10.2031 5.5C10.2031 5.17448 10.2878 4.875 10.457 4.60156C10.6263 4.32812 10.8542 4.11979 11.1406 3.97656Z" fill="#178D81"/>
</g>
<defs>
<clipPath id="clip0_3580_5896">
<rect width="11.81" height="10" fill="white" transform="matrix(1 0 0 -1 0.546875 10.5)"/>
</clipPath>
</defs>
</svg>
