<svg width="12" height="13" viewBox="0 0 12 13" fill="none" xmlns="http://www.w3.org/2000/svg">
<g clip-path="url(#clip0_4265_6807)">
<path d="M3.71484 7.49512C3.6123 7.49512 3.52808 7.46216 3.46216 7.39624C3.39624 7.33032 3.36328 7.24609 3.36328 7.14355V5.7373C3.36328 5.63477 3.39624 5.55054 3.46216 5.48462C3.52808 5.4187 3.6123 5.38574 3.71484 5.38574H8.63672C8.73926 5.38574 8.82349 5.4187 8.8894 5.48462C8.95532 5.55054 8.98828 5.63477 8.98828 5.7373V7.14355C8.98828 7.24609 8.95532 7.33032 8.8894 7.39624C8.82349 7.46216 8.73926 7.49512 8.63672 7.49512H3.71484ZM10.043 2.22168C10.3359 2.22168 10.585 2.32422 10.79 2.5293C10.9951 2.73437 11.0977 2.9834 11.0977 3.27637V11.0107C11.0977 11.3037 10.9951 11.5527 10.79 11.7578C10.585 11.9629 10.3359 12.0654 10.043 12.0654H2.30859C2.01563 12.0654 1.7666 11.9629 1.56152 11.7578C1.35645 11.5527 1.25391 11.3037 1.25391 11.0107V3.27637C1.25391 2.9834 1.35645 2.73437 1.56152 2.5293C1.7666 2.32422 2.01563 2.22168 2.30859 2.22168H3.36328V1.16699C3.36328 1.06445 3.39624 0.980225 3.46216 0.914307C3.52808 0.848389 3.6123 0.81543 3.71484 0.81543H4.41797C4.52051 0.81543 4.60474 0.848389 4.67065 0.914307C4.73657 0.980225 4.76953 1.06445 4.76953 1.16699V2.22168H7.58203V1.16699C7.58203 1.06445 7.61499 0.980225 7.68091 0.914307C7.74683 0.848389 7.83105 0.81543 7.93359 0.81543H8.63672C8.73926 0.81543 8.82349 0.848389 8.8894 0.914307C8.95532 0.980225 8.98828 1.06445 8.98828 1.16699V2.22168H10.043ZM10.043 10.8789V4.33105H2.30859V10.8789C2.30859 10.9668 2.35254 11.0107 2.44043 11.0107H9.91113C9.99902 11.0107 10.043 10.9668 10.043 10.8789Z" fill="#0F172A"/>
</g>
<defs>
<clipPath id="clip0_4265_6807">
<rect width="10.41" height="11.25" fill="white" transform="matrix(1 0 0 -1 0.970703 12.0654)"/>
</clipPath>
</defs>
</svg>
