<svg width="27" height="28" viewBox="0 0 27 28" fill="none" xmlns="http://www.w3.org/2000/svg">
<g clip-path="url(#clip0_3777_18962)">
<path d="M12.4844 21.9912C10.4336 20.7266 8.75024 18.9919 7.43433 16.7874C6.11841 14.5828 5.35791 12.0449 5.15283 9.17383L12.4844 6.09766V21.9912ZM23.251 5.27734C23.7295 5.44824 24.1055 5.73877 24.3789 6.14893C24.6523 6.55908 24.7891 7.02051 24.7891 7.5332C24.7891 9.68652 24.5327 11.7458 24.02 13.7112C23.5073 15.6765 22.8579 17.3684 22.0718 18.7869C21.2856 20.2053 20.3713 21.4871 19.3289 22.6321C18.2864 23.7771 17.2781 24.7 16.304 25.4006C15.3298 26.1013 14.3643 26.6396 13.4072 27.0156C12.792 27.2891 12.1768 27.2891 11.5615 27.0156C10.126 26.4346 8.75024 25.5715 7.43433 24.4265C6.11841 23.2815 4.91357 21.8972 3.81982 20.2737C2.72607 18.6501 1.84595 16.7275 1.17944 14.5059C0.512939 12.2842 0.179688 9.95996 0.179688 7.5332C0.179688 7.32812 0.205322 7.13159 0.256592 6.9436C0.307861 6.75562 0.376221 6.57617 0.46167 6.40527C0.547119 6.23438 0.649658 6.08057 0.769287 5.94385C0.888916 5.80713 1.02563 5.67896 1.17944 5.55933C1.33325 5.4397 1.5127 5.3457 1.71777 5.27734L11.5615 1.17578C11.835 1.03906 12.1426 0.970703 12.4844 0.970703C12.8262 0.970703 13.1338 1.03906 13.4072 1.17578L23.251 5.27734ZM12.4844 24.7598C15.1162 23.666 17.4148 21.564 19.3801 18.4536C21.3455 15.3433 22.3281 11.7031 22.3281 7.5332L12.4844 3.43164L2.64062 7.5332C2.64062 11.6348 3.6062 15.2493 5.53735 18.3767C7.46851 21.5042 9.78418 23.6318 12.4844 24.7598Z" fill="#FFF7ED"/>
</g>
<defs>
<clipPath id="clip0_3777_18962">
<rect width="26.25" height="26.25" fill="white" transform="matrix(1 0 0 -1 0.179688 27.2207)"/>
</clipPath>
</defs>
</svg>
