<svg width="15" height="14" viewBox="0 0 15 14" fill="none" xmlns="http://www.w3.org/2000/svg">
<g clip-path="url(#clip0_3580_5834)">
<path d="M10.8867 9.625C10.7956 9.625 10.7135 9.58854 10.6406 9.51562C10.5677 9.44271 10.5312 9.36068 10.5312 9.26953V2.98047C10.5312 2.88932 10.5677 2.80729 10.6406 2.73438C10.7135 2.66146 10.7956 2.625 10.8867 2.625H11.4883C11.5794 2.625 11.6615 2.66146 11.7344 2.73438C11.8073 2.80729 11.8438 2.88932 11.8438 2.98047V9.26953C11.8438 9.36068 11.8073 9.44271 11.7344 9.51562C11.6615 9.58854 11.5794 9.625 11.4883 9.625H10.8867ZM5.63672 9.625C5.54557 9.625 5.46354 9.58854 5.39062 9.51562C5.31771 9.44271 5.28125 9.36068 5.28125 9.26953V3.85547C5.28125 3.76432 5.31771 3.68229 5.39062 3.60938C5.46354 3.53646 5.54557 3.5 5.63672 3.5H6.23828C6.32943 3.5 6.41146 3.53646 6.48438 3.60938C6.55729 3.68229 6.59375 3.76432 6.59375 3.85547V9.26953C6.59375 9.36068 6.55729 9.44271 6.48438 9.51562C6.41146 9.58854 6.32943 9.625 6.23828 9.625H5.63672ZM8.26172 9.625C8.17057 9.625 8.08854 9.58854 8.01562 9.51562C7.94271 9.44271 7.90625 9.36068 7.90625 9.26953V5.60547C7.90625 5.51432 7.94271 5.43229 8.01562 5.35938C8.08854 5.28646 8.17057 5.25 8.26172 5.25H8.86328C8.95443 5.25 9.03646 5.28646 9.10938 5.35938C9.18229 5.43229 9.21875 5.51432 9.21875 5.60547V9.26953C9.21875 9.36068 9.18229 9.44271 9.10938 9.51562C9.03646 9.58854 8.95443 9.625 8.86328 9.625H8.26172ZM13.5938 10.9375C13.7214 10.9375 13.8262 10.9785 13.9082 11.0605C13.9902 11.1426 14.0312 11.2474 14.0312 11.375V11.8125C14.0312 11.9401 13.9902 12.0449 13.9082 12.127C13.8262 12.209 13.7214 12.25 13.5938 12.25H0.90625C0.669271 12.25 0.464193 12.1634 0.291016 11.9902C0.117839 11.8171 0.03125 11.612 0.03125 11.375V2.1875C0.03125 2.0599 0.0722656 1.95508 0.154297 1.87305C0.236328 1.79102 0.341146 1.75 0.46875 1.75H0.90625C1.03385 1.75 1.13867 1.79102 1.2207 1.87305C1.30273 1.95508 1.34375 2.0599 1.34375 2.1875V10.9375H13.5938ZM3.01172 9.625C2.92057 9.625 2.83854 9.58854 2.76562 9.51562C2.69271 9.44271 2.65625 9.36068 2.65625 9.26953V7.35547C2.65625 7.26432 2.69271 7.18229 2.76562 7.10938C2.83854 7.03646 2.92057 7 3.01172 7H3.61328C3.70443 7 3.78646 7.03646 3.85938 7.10938C3.93229 7.18229 3.96875 7.26432 3.96875 7.35547V9.26953C3.96875 9.36068 3.93229 9.44271 3.85938 9.51562C3.78646 9.58854 3.70443 9.625 3.61328 9.625H3.01172Z" fill="white"/>
</g>
<defs>
<clipPath id="clip0_3580_5834">
<rect width="14" height="14" fill="white" transform="matrix(1 0 0 -1 0.03125 14)"/>
</clipPath>
</defs>
</svg>
