<svg width="15" height="14" viewBox="0 0 15 14" fill="none" xmlns="http://www.w3.org/2000/svg">
<g clip-path="url(#clip0_3580_5844)">
<path d="M12.5023 6.48047C12.5206 6.82682 12.5206 7.17318 12.5023 7.51953L13.35 8.01172C13.6417 8.19401 13.751 8.4401 13.6781 8.75C13.35 9.91667 12.7576 10.9284 11.9008 11.7852C11.6638 12.0221 11.3995 12.0586 11.1078 11.8945L10.2602 11.4023C9.96849 11.6029 9.66771 11.776 9.35781 11.9219V12.9062C9.35781 13.2526 9.19375 13.4714 8.86562 13.5625C7.69896 13.8724 6.53229 13.8724 5.36562 13.5625C5.23802 13.526 5.12409 13.444 5.02383 13.3164C4.92357 13.1888 4.87344 13.0521 4.87344 12.9062V11.9219C4.56354 11.776 4.26276 11.6029 3.97109 11.4023L3.12344 11.8945C2.83177 12.0586 2.56745 12.0221 2.33047 11.7852C1.4737 10.9284 0.88125 9.91667 0.553125 8.75C0.480208 8.4401 0.589583 8.19401 0.88125 8.01172L1.72891 7.51953C1.72891 7.35547 1.72891 7.18229 1.72891 7C1.72891 6.81771 1.72891 6.64453 1.72891 6.48047L0.88125 5.98828C0.589583 5.80599 0.480208 5.5599 0.553125 5.25C0.88125 4.08333 1.4737 3.07161 2.33047 2.21484C2.56745 1.97786 2.83177 1.94141 3.12344 2.10547L3.97109 2.59766C4.26276 2.39714 4.56354 2.22396 4.87344 2.07812V1.09375C4.87344 0.747396 5.0375 0.528646 5.36562 0.4375C6.53229 0.127604 7.69896 0.127604 8.86562 0.4375C8.99323 0.473958 9.10716 0.555989 9.20742 0.683594C9.30768 0.811198 9.35781 0.947917 9.35781 1.09375V2.07812C9.66771 2.22396 9.96849 2.39714 10.2602 2.59766L11.1078 2.10547C11.3995 1.94141 11.6638 1.97786 11.9008 2.21484C12.7576 3.07161 13.35 4.08333 13.6781 5.25C13.751 5.5599 13.6417 5.80599 13.35 5.98828L12.5023 6.48047ZM11.0531 8.20312C11.1625 7.63802 11.2172 7.23698 11.2172 7C11.2172 6.76302 11.1625 6.36198 11.0531 5.79688L12.2562 5.11328C12.0375 4.52995 11.7276 3.99219 11.3266 3.5L10.1234 4.18359C9.81354 3.92839 9.57656 3.74154 9.4125 3.62305C9.24844 3.50456 9.07526 3.4043 8.89297 3.32227C8.71068 3.24023 8.42812 3.1263 8.04531 2.98047V1.61328C7.73542 1.55859 7.42552 1.53125 7.11562 1.53125C6.80573 1.53125 6.49583 1.55859 6.18594 1.61328V2.98047C5.65729 3.18099 5.28815 3.3405 5.07852 3.45898C4.86888 3.57747 4.54531 3.81901 4.10781 4.18359L2.90469 3.5C2.50365 3.99219 2.19375 4.52995 1.975 5.11328L3.17813 5.79688C3.06875 6.36198 3.01406 6.76302 3.01406 7C3.01406 7.23698 3.06875 7.63802 3.17813 8.20312L1.975 8.88672C2.19375 9.47005 2.50365 10.0078 2.90469 10.5L4.10781 9.81641C4.54531 10.181 4.86888 10.4225 5.07852 10.541C5.28815 10.6595 5.65729 10.819 6.18594 11.0195V12.3867C6.49583 12.4414 6.80573 12.4688 7.11562 12.4688C7.42552 12.4688 7.73542 12.4414 8.04531 12.3867V11.0195C8.42812 10.8737 8.71068 10.7598 8.89297 10.6777C9.07526 10.5957 9.24844 10.4954 9.4125 10.377C9.57656 10.2585 9.81354 10.0716 10.1234 9.81641L11.3266 10.5C11.7276 10.0078 12.0375 9.47005 12.2562 8.88672L11.0531 8.20312ZM5.25625 5.14062C5.25625 5.14062 5.38385 5.01302 5.63906 4.75781C5.89427 4.5026 6.38646 4.375 7.11562 4.375C7.84479 4.375 8.46458 4.63021 8.975 5.14062C9.48542 5.65104 9.74062 6.27083 9.74062 7C9.74062 7.72917 9.48542 8.34896 8.975 8.85938C8.46458 9.36979 7.84479 9.625 7.11562 9.625C6.38646 9.625 5.76667 9.36979 5.25625 8.85938C4.74583 8.34896 4.49063 7.72917 4.49063 7C4.49063 6.27083 4.74583 5.65104 5.25625 5.14062ZM6.18594 7.92969C6.18594 7.92969 6.24974 7.99349 6.37734 8.12109C6.50495 8.2487 6.75104 8.3125 7.11562 8.3125C7.48021 8.3125 7.7901 8.1849 8.04531 7.92969C8.30052 7.67448 8.42812 7.36458 8.42812 7C8.42812 6.63542 8.30052 6.32552 8.04531 6.07031C7.7901 5.8151 7.48021 5.6875 7.11562 5.6875C6.75104 5.6875 6.44115 5.8151 6.18594 6.07031C5.93073 6.32552 5.80312 6.63542 5.80312 7C5.80312 7.36458 5.93073 7.67448 6.18594 7.92969Z" fill="white"/>
</g>
<defs>
<clipPath id="clip0_3580_5844">
<rect width="14" height="14" fill="white" transform="matrix(1 0 0 -1 0.53125 14)"/>
</clipPath>
</defs>
</svg>
