<svg width="11" height="13" viewBox="0 0 11 13" fill="none" xmlns="http://www.w3.org/2000/svg">
<g clip-path="url(#clip0_4265_6801)">
<path d="M3.29492 8.90137C3.19238 8.90137 3.10815 8.86841 3.04224 8.80249C2.97632 8.73657 2.94336 8.65234 2.94336 8.5498V6.44043C2.94336 6.33789 2.97632 6.25366 3.04224 6.18774C3.10815 6.12183 3.19238 6.08887 3.29492 6.08887H5.4043C5.50684 6.08887 5.59106 6.12183 5.65698 6.18774C5.7229 6.25366 5.75586 6.33789 5.75586 6.44043V8.5498C5.75586 8.65234 5.7229 8.73657 5.65698 8.80249C5.59106 8.86841 5.50684 8.90137 5.4043 8.90137H3.29492ZM9.62305 2.22168C9.91602 2.22168 10.165 2.32422 10.3701 2.5293C10.5752 2.73437 10.6777 2.9834 10.6777 3.27637V11.0107C10.6777 11.3037 10.5752 11.5527 10.3701 11.7578C10.165 11.9629 9.91602 12.0654 9.62305 12.0654H1.88867C1.5957 12.0654 1.34668 11.9629 1.1416 11.7578C0.936523 11.5527 0.833984 11.3037 0.833984 11.0107V3.27637C0.833984 2.9834 0.936523 2.73437 1.1416 2.5293C1.34668 2.32422 1.5957 2.22168 1.88867 2.22168H2.94336V1.16699C2.94336 1.06445 2.97632 0.980225 3.04224 0.914307C3.10815 0.848389 3.19238 0.81543 3.29492 0.81543H3.99805C4.10059 0.81543 4.18481 0.848389 4.25073 0.914307C4.31665 0.980225 4.34961 1.06445 4.34961 1.16699V2.22168H7.16211V1.16699C7.16211 1.06445 7.19507 0.980225 7.26099 0.914307C7.3269 0.848389 7.41113 0.81543 7.51367 0.81543H8.2168C8.31934 0.81543 8.40356 0.848389 8.46948 0.914307C8.5354 0.980225 8.56836 1.06445 8.56836 1.16699V2.22168H9.62305ZM9.62305 10.8789V4.33105H1.88867V10.8789C1.88867 10.9668 1.93262 11.0107 2.02051 11.0107H9.49121C9.5791 11.0107 9.62305 10.9668 9.62305 10.8789Z" fill="black"/>
</g>
<defs>
<clipPath id="clip0_4265_6801">
<rect width="10.41" height="11.25" fill="white" transform="matrix(1 0 0 -1 0.550781 12.0654)"/>
</clipPath>
</defs>
</svg>
