<svg width="34" height="28" viewBox="0 0 34 28" fill="none" xmlns="http://www.w3.org/2000/svg">
<g clip-path="url(#clip0_3777_18950)">
<path d="M32.7826 11.1221C32.8851 11.0879 32.9791 11.1135 33.0645 11.199C33.15 11.2844 33.1927 11.3955 33.1927 11.5322V13.2752C33.1927 13.5145 33.056 13.6512 32.7826 13.6854C31.7914 13.7537 30.0142 14.5569 27.4509 16.0948C26.4256 16.6758 25.725 17.0518 25.349 17.2227C23.0592 18.2822 21.3332 18.8119 20.1712 18.8119C18.8041 18.8119 17.7446 18.4018 16.9927 17.5815C16.2067 16.6929 15.8991 15.3088 16.07 13.429L16.1212 12.455L15.3522 13.0702C12.6864 15.2233 8.97821 18.7265 4.2276 23.5796C3.98836 23.8189 3.69785 23.9385 3.35608 23.9385C2.8776 23.9385 2.53583 23.7676 2.33077 23.4258C2.05735 23.0157 2.00609 22.6056 2.17697 22.1954L7.30354 9.02018C7.61113 8.30246 7.45733 7.68727 6.84215 7.17462C6.56873 6.93538 6.24405 6.81576 5.8681 6.81576C5.56051 6.81576 5.27 6.9012 4.99658 7.07209L1.92065 9.17398C1.85229 9.20815 1.75831 9.2167 1.63869 9.19961C1.51907 9.18252 1.42508 9.12271 1.35672 9.02018L0.433943 7.58474C0.297235 7.3455 0.3485 7.14044 0.58774 6.96955L3.45861 5.02146C4.5181 4.44045 5.45797 4.19267 6.27822 4.27811C7.09847 4.36355 7.83328 4.67969 8.48265 5.22652C9.16619 5.80754 9.61903 6.5338 9.84118 7.40531C10.0633 8.27683 10.0035 9.1398 9.66176 9.99423L6.73961 17.3765L8.17505 15.9923C12.5839 11.6518 15.4548 9.44739 16.7877 9.37904C17.3687 9.34486 17.813 9.49866 18.1206 9.84043C18.6332 10.4214 18.8041 11.4638 18.6332 12.9676C18.4282 14.3689 18.5307 15.2917 18.9408 15.736C19.2143 16.0777 19.6244 16.2486 20.1712 16.2486C20.9915 16.2486 22.3756 15.8043 24.3237 14.9157C24.7338 14.7107 25.4345 14.3347 26.4256 13.7879C29.399 12.079 31.518 11.1904 32.7826 11.1221Z" fill="#FFF7ED"/>
</g>
<defs>
<clipPath id="clip0_3777_18950">
<rect width="32.81" height="26.25" fill="white" transform="matrix(1 0 0 -1 0.359375 27.2207)"/>
</clipPath>
</defs>
</svg>
