<svg width="121" height="125" viewBox="0 0 121 125" fill="none" xmlns="http://www.w3.org/2000/svg">
<g clip-path="url(#clip0_8534_4892)">
<path d="M60.5 2.5C62.8438 2.65625 64.0937 3.90625 64.25 6.25V58.75H116.75C119.094 58.9063 120.344 60.1562 120.5 62.5C120.344 64.8438 119.094 66.0937 116.75 66.25H64.25V118.75C64.0937 121.094 62.8438 122.344 60.5 122.5C58.1562 122.344 56.9063 121.094 56.75 118.75V66.25H4.25C1.90625 66.0937 0.65625 64.8438 0.5 62.5C0.65625 60.1562 1.90625 58.9063 4.25 58.75H56.75V6.25C56.9063 3.90625 58.1562 2.65625 60.5 2.5ZM81.125 25H90.5V15.625V13.75C90.6563 11.4062 91.9062 10.1563 94.25 10C96.5938 10.1563 97.8437 11.4062 98 13.75V15.625V25H107.375H109.25C111.594 25.1563 112.844 26.4062 113 28.75C112.844 31.0938 111.594 32.3437 109.25 32.5H107.375H98V41.875V43.75C97.8437 46.0938 96.5938 47.3437 94.25 47.5C91.9062 47.3437 90.6563 46.0938 90.5 43.75V41.875V32.5H81.125H79.25C76.9062 32.3437 75.6563 31.0938 75.5 28.75C75.6563 26.4062 76.9062 25.1563 79.25 25H81.125ZM12.9219 82.4219C14.6406 81.0156 16.4375 81.0156 18.3125 82.4219L26.75 90.8594L35.1875 82.4219C37.0625 81.0156 38.8594 81.0156 40.5781 82.4219C41.9844 84.1406 41.9844 85.9375 40.5781 87.8125L32.1406 96.25L40.5781 104.688C41.9844 106.562 41.9844 108.359 40.5781 110.078C38.8594 111.484 37.0625 111.484 35.1875 110.078L26.75 101.641L18.3125 110.078C16.4375 111.484 14.6406 111.484 12.9219 110.078C11.5156 108.359 11.5156 106.562 12.9219 104.688L21.3594 96.25L12.9219 87.8125C11.5156 85.9375 11.5156 84.1406 12.9219 82.4219ZM11.75 25H41.75C44.0938 25.1563 45.3437 26.4062 45.5 28.75C45.3437 31.0938 44.0938 32.3437 41.75 32.5H11.75C9.40625 32.3437 8.15625 31.0938 8 28.75C8.15625 26.4062 9.40625 25.1563 11.75 25ZM79.25 85H109.25C111.594 85.1563 112.844 86.4062 113 88.75C112.844 91.0938 111.594 92.3437 109.25 92.5H79.25C76.9062 92.3437 75.6563 91.0938 75.5 88.75C75.6563 86.4062 76.9062 85.1563 79.25 85ZM79.25 100H109.25C111.594 100.156 112.844 101.406 113 103.75C112.844 106.094 111.594 107.344 109.25 107.5H79.25C76.9062 107.344 75.6563 106.094 75.5 103.75C75.6563 101.406 76.9062 100.156 79.25 100Z" fill="black"/>
</g>
<defs>
<clipPath id="clip0_8534_4892">
<rect width="120" height="125" fill="white" transform="matrix(1 0 0 -1 0.5 125)"/>
</clipPath>
</defs>
</svg>
