<svg width="11" height="11" viewBox="0 0 11 11" fill="none" xmlns="http://www.w3.org/2000/svg">
<g clip-path="url(#clip0_3779_19249)">
<path d="M9.10547 5.13867C9.11849 5.38607 9.11849 5.63346 9.10547 5.88086L9.71094 6.23242C9.91927 6.36263 9.9974 6.53841 9.94531 6.75977C9.71094 7.5931 9.28776 8.31576 8.67578 8.92773C8.50651 9.09701 8.31771 9.12305 8.10938 9.00586L7.50391 8.6543C7.29557 8.79753 7.08073 8.92122 6.85938 9.02539V9.72852C6.85938 9.97591 6.74219 10.1322 6.50781 10.1973C5.67448 10.4186 4.84115 10.4186 4.00781 10.1973C3.91667 10.1712 3.83529 10.1126 3.76367 10.0215C3.69206 9.93034 3.65625 9.83268 3.65625 9.72852V9.02539C3.4349 8.92122 3.22005 8.79753 3.01172 8.6543L2.40625 9.00586C2.19792 9.12305 2.00911 9.09701 1.83984 8.92773C1.22786 8.31576 0.804688 7.5931 0.570313 6.75977C0.518229 6.53841 0.596354 6.36263 0.804688 6.23242L1.41016 5.88086C1.41016 5.76367 1.41016 5.63997 1.41016 5.50977C1.41016 5.37956 1.41016 5.25586 1.41016 5.13867L0.804688 4.78711C0.596354 4.6569 0.518229 4.48112 0.570313 4.25977C0.804688 3.42643 1.22786 2.70378 1.83984 2.0918C2.00911 1.92253 2.19792 1.89648 2.40625 2.01367L3.01172 2.36523C3.22005 2.222 3.4349 2.09831 3.65625 1.99414V1.29102C3.65625 1.04362 3.77344 0.88737 4.00781 0.822266C4.84115 0.600911 5.67448 0.600911 6.50781 0.822266C6.59896 0.848308 6.68034 0.906901 6.75195 0.998047C6.82357 1.08919 6.85938 1.18685 6.85938 1.29102V1.99414C7.08073 2.09831 7.29557 2.222 7.50391 2.36523L8.10938 2.01367C8.31771 1.89648 8.50651 1.92253 8.67578 2.0918C9.28776 2.70378 9.71094 3.42643 9.94531 4.25977C9.9974 4.48112 9.91927 4.6569 9.71094 4.78711L9.10547 5.13867ZM8.07031 6.36914C8.14844 5.96549 8.1875 5.67904 8.1875 5.50977C8.1875 5.34049 8.14844 5.05404 8.07031 4.65039L8.92969 4.16211C8.77344 3.74544 8.55208 3.36133 8.26562 3.00977L7.40625 3.49805C7.1849 3.31576 7.01562 3.18229 6.89844 3.09766C6.78125 3.01302 6.65755 2.94141 6.52734 2.88281C6.39714 2.82422 6.19531 2.74284 5.92188 2.63867V1.66211C5.70052 1.62305 5.47917 1.60352 5.25781 1.60352C5.03646 1.60352 4.8151 1.62305 4.59375 1.66211V2.63867C4.21615 2.7819 3.95247 2.89583 3.80273 2.98047C3.65299 3.0651 3.42188 3.23763 3.10938 3.49805L2.25 3.00977C1.96354 3.36133 1.74219 3.74544 1.58594 4.16211L2.44531 4.65039C2.36719 5.05404 2.32812 5.34049 2.32812 5.50977C2.32812 5.67904 2.36719 5.96549 2.44531 6.36914L1.58594 6.85742C1.74219 7.27409 1.96354 7.6582 2.25 8.00977L3.10938 7.52148C3.42188 7.7819 3.65299 7.95443 3.80273 8.03906C3.95247 8.1237 4.21615 8.23763 4.59375 8.38086V9.35742C4.8151 9.39648 5.03646 9.41602 5.25781 9.41602C5.47917 9.41602 5.70052 9.39648 5.92188 9.35742V8.38086C6.19531 8.27669 6.39714 8.19531 6.52734 8.13672C6.65755 8.07812 6.78125 8.00651 6.89844 7.92188C7.01562 7.83724 7.1849 7.70378 7.40625 7.52148L8.26562 8.00977C8.55208 7.6582 8.77344 7.27409 8.92969 6.85742L8.07031 6.36914ZM3.92969 4.18164C3.92969 4.18164 4.02083 4.09049 4.20312 3.9082C4.38542 3.72591 4.73698 3.63477 5.25781 3.63477C5.77865 3.63477 6.22135 3.81706 6.58594 4.18164C6.95052 4.54622 7.13281 4.98893 7.13281 5.50977C7.13281 6.0306 6.95052 6.47331 6.58594 6.83789C6.22135 7.20247 5.77865 7.38477 5.25781 7.38477C4.73698 7.38477 4.29427 7.20247 3.92969 6.83789C3.5651 6.47331 3.38281 6.0306 3.38281 5.50977C3.38281 4.98893 3.5651 4.54622 3.92969 4.18164ZM4.59375 6.17383C4.59375 6.17383 4.63932 6.2194 4.73047 6.31055C4.82161 6.40169 4.9974 6.44727 5.25781 6.44727C5.51823 6.44727 5.73958 6.35612 5.92188 6.17383C6.10417 5.99154 6.19531 5.77018 6.19531 5.50977C6.19531 5.24935 6.10417 5.02799 5.92188 4.8457C5.73958 4.66341 5.51823 4.57227 5.25781 4.57227C4.9974 4.57227 4.77604 4.66341 4.59375 4.8457C4.41146 5.02799 4.32031 5.24935 4.32031 5.50977C4.32031 5.77018 4.41146 5.99154 4.59375 6.17383Z" fill="#334155"/>
</g>
<defs>
<clipPath id="clip0_3779_19249">
<rect width="10.51" height="10" fill="white" transform="matrix(1 0 0 -1 0.300781 10.5098)"/>
</clipPath>
</defs>
</svg>
