<svg width="32" height="32" viewBox="0 0 32 32" fill="none" xmlns="http://www.w3.org/2000/svg">
<g clip-path="url(#clip0_3777_18938)">
<path d="M5.02075 5.63403C5.02075 5.63403 5.75826 4.89652 7.23328 3.42151C8.70829 1.94649 11.5413 1.20898 15.7324 1.20898C19.9235 1.20898 23.4941 2.684 26.4441 5.63403C29.3941 8.58407 30.8691 12.1546 30.8691 16.3457C30.8691 20.5368 29.3941 24.1073 26.4441 27.0574C23.4941 30.0074 19.9235 31.4824 15.7324 31.4824C11.5413 31.4824 7.97078 30.0074 5.02075 27.0574C2.07072 24.1073 0.595703 20.5368 0.595703 16.3457C0.595703 12.1546 2.07072 8.58407 5.02075 5.63403ZM7.09595 24.9822C7.09595 24.9822 7.69104 25.5773 8.88123 26.7675C10.0714 27.9576 12.3551 28.5527 15.7324 28.5527C19.1097 28.5527 21.9885 27.3625 24.3689 24.9822C26.7493 22.6018 27.9395 19.723 27.9395 16.3457C27.9395 12.9684 26.7493 10.0896 24.3689 7.70923C21.9885 5.32886 19.1097 4.13867 15.7324 4.13867C12.3551 4.13867 9.47632 5.32886 7.09595 7.70923C4.71558 10.0896 3.52539 12.9684 3.52539 16.3457C3.52539 19.723 4.71558 22.6018 7.09595 24.9822ZM13.9319 8.68579C13.9319 8.68579 14.059 8.55863 14.3134 8.30432C14.5677 8.05001 15.0407 7.92285 15.7324 7.92285C16.4242 7.92285 17.0243 8.17716 17.533 8.68579C18.0416 9.19442 18.2959 9.7946 18.2959 10.4863C18.2959 11.1781 18.0416 11.7782 17.533 12.2869C17.0243 12.7955 16.4242 13.0498 15.7324 13.0498C15.0407 13.0498 14.4405 12.7955 13.9319 12.2869C13.4233 11.7782 13.1689 11.1781 13.1689 10.4863C13.1689 9.7946 13.4233 9.19442 13.9319 8.68579ZM19.1504 23.4258C19.1504 23.9141 18.9062 24.1582 18.418 24.1582H13.0469C12.5586 24.1582 12.3145 23.9141 12.3145 23.4258V21.9609C12.3145 21.4727 12.5586 21.2285 13.0469 21.2285H13.7793V17.3223H13.0469C12.5586 17.3223 12.3145 17.0781 12.3145 16.5898V15.125C12.3145 14.6367 12.5586 14.3926 13.0469 14.3926H16.9531C17.4414 14.3926 17.6855 14.6367 17.6855 15.125V21.2285H18.418C18.9062 21.2285 19.1504 21.4727 19.1504 21.9609V23.4258Z" fill="#EFF6FF"/>
</g>
<defs>
<clipPath id="clip0_3777_18938">
<rect width="31.5" height="31.25" fill="white" transform="matrix(1 0 0 -1 0.470703 31.9707)"/>
</clipPath>
</defs>
</svg>
