<svg width="14" height="14" viewBox="0 0 14 14" fill="none" xmlns="http://www.w3.org/2000/svg">
<g clip-path="url(#clip0_3580_5812)">
<path d="M11.8164 1.75C12.181 1.75 12.4909 1.8776 12.7461 2.13281C13.0013 2.38802 13.1289 2.69792 13.1289 3.0625V12.6875C13.1289 13.0521 13.0013 13.362 12.7461 13.6172C12.4909 13.8724 12.181 14 11.8164 14H2.19141C1.82682 14 1.51693 13.8724 1.26172 13.6172C1.00651 13.362 0.878906 13.0521 0.878906 12.6875V3.0625C0.878906 2.69792 1.00651 2.38802 1.26172 2.13281C1.51693 1.8776 1.82682 1.75 2.19141 1.75H3.50391V0.328125C3.50391 0.109375 3.61328 0 3.83203 0H4.92578C5.14453 0 5.25391 0.109375 5.25391 0.328125V1.75H8.75391V0.328125C8.75391 0.109375 8.86328 0 9.08203 0H10.1758C10.3945 0 10.5039 0.109375 10.5039 0.328125V1.75H11.8164ZM11.6523 12.6875C11.7617 12.6875 11.8164 12.6328 11.8164 12.5234V4.375H2.19141V12.5234C2.19141 12.6328 2.24609 12.6875 2.35547 12.6875H11.6523Z" fill="white"/>
</g>
<defs>
<clipPath id="clip0_3580_5812">
<rect width="12.25" height="14" fill="white" transform="matrix(1 0 0 -1 0.878906 14)"/>
</clipPath>
</defs>
</svg>
