<svg width="17" height="15" viewBox="0 0 17 15" fill="none" xmlns="http://www.w3.org/2000/svg">
<g clip-path="url(#clip0_3777_19018)">
<path d="M11.8691 5.95117H5.85352V8.5293H11.8691V5.95117ZM12.5137 4.66211C12.6927 4.66211 12.8449 4.72477 12.9702 4.8501C13.0955 4.97542 13.1582 5.1276 13.1582 5.30664V9.17383C13.1582 9.35286 13.0955 9.50505 12.9702 9.63037C12.8449 9.7557 12.6927 9.81836 12.5137 9.81836H5.20898C5.02995 9.81836 4.87777 9.7557 4.75244 9.63037C4.62712 9.50505 4.56445 9.35286 4.56445 9.17383V5.30664C4.56445 5.1276 4.62712 4.97542 4.75244 4.8501C4.87777 4.72477 5.02995 4.66211 5.20898 4.66211H12.5137ZM16.3809 6.16602C16.0765 6.16602 15.8214 6.26896 15.6155 6.47485C15.4096 6.68075 15.3066 6.93587 15.3066 7.24023C15.3066 7.5446 15.4096 7.79972 15.6155 8.00562C15.8214 8.21151 16.0765 8.31445 16.3809 8.31445H16.5957V11.1074C16.5957 11.4655 16.4704 11.7699 16.2197 12.0205C15.9691 12.2712 15.6647 12.3965 15.3066 12.3965H2.41602C2.05794 12.3965 1.75358 12.2712 1.50293 12.0205C1.25228 11.7699 1.12695 11.4655 1.12695 11.1074V8.31445H1.3418C1.64616 8.31445 1.90129 8.21151 2.10718 8.00562C2.31307 7.79972 2.41602 7.5446 2.41602 7.24023C2.41602 6.93587 2.31307 6.68075 2.10718 6.47485C1.90129 6.26896 1.64616 6.16602 1.3418 6.16602H1.12695V3.37305C1.12695 3.01497 1.25228 2.71061 1.50293 2.45996C1.75358 2.20931 2.05794 2.08398 2.41602 2.08398H15.3066C15.6647 2.08398 15.9691 2.20931 16.2197 2.45996C16.4704 2.71061 16.5957 3.01497 16.5957 3.37305V6.16602H16.3809ZM15.3066 5.14551V3.37305H2.41602V5.14551C2.8099 5.34245 3.12321 5.62891 3.35596 6.00488C3.5887 6.38086 3.70508 6.79264 3.70508 7.24023C3.70508 7.68783 3.5887 8.09961 3.35596 8.47559C3.12321 8.85156 2.8099 9.13802 2.41602 9.33496V11.1074H15.3066V9.33496C14.9128 9.13802 14.5994 8.85156 14.3667 8.47559C14.134 8.09961 14.0176 7.68783 14.0176 7.24023C14.0176 6.79264 14.134 6.38086 14.3667 6.00488C14.5994 5.62891 14.9128 5.34245 15.3066 5.14551Z" fill="#178D81"/>
</g>
<defs>
<clipPath id="clip0_3777_19018">
<rect width="15.76" height="13.75" fill="white" transform="matrix(1 0 0 -1 0.980469 14.1152)"/>
</clipPath>
</defs>
</svg>
