<svg width="14" height="15" viewBox="0 0 14 15" fill="none" xmlns="http://www.w3.org/2000/svg">
<g clip-path="url(#clip0_3777_19024)">
<path d="M12.0312 0.365234C12.264 0.365234 12.4654 0.450276 12.6355 0.620361C12.8056 0.790446 12.8906 0.991862 12.8906 1.22461V13.2559C12.8906 13.4886 12.8056 13.69 12.6355 13.8601C12.4654 14.0302 12.264 14.1152 12.0312 14.1152H2.57812C2.09473 14.1152 1.68742 13.9496 1.3562 13.6184C1.02498 13.2872 0.859375 12.8799 0.859375 12.3965V2.08398C0.859375 1.60059 1.02498 1.19328 1.3562 0.862061C1.68742 0.530843 2.09473 0.365234 2.57812 0.365234H12.0312ZM11.6016 12.8262V1.6543H2.57812C2.4528 1.6543 2.34985 1.69458 2.26929 1.77515C2.18872 1.85571 2.14844 1.95866 2.14844 2.08398V12.3965C2.14844 12.5218 2.18872 12.6248 2.26929 12.7053C2.34985 12.7859 2.4528 12.8262 2.57812 12.8262H11.6016ZM3.86719 11.5371C3.74186 11.5371 3.63892 11.4968 3.55835 11.4163C3.47778 11.3357 3.4375 11.2327 3.4375 11.1074C3.4375 10.9821 3.47778 10.8792 3.55835 10.7986C3.63892 10.718 3.74186 10.6777 3.86719 10.6777H9.88281C10.0081 10.6777 10.1111 10.718 10.1917 10.7986C10.2722 10.8792 10.3125 10.9821 10.3125 11.1074C10.3125 11.2327 10.2722 11.3357 10.1917 11.4163C10.1111 11.4968 10.0081 11.5371 9.88281 11.5371H3.86719ZM9.15771 8.23389C9.15771 8.23389 9.00106 8.39054 8.68774 8.70386C8.37443 9.01717 7.77018 9.17383 6.875 9.17383C5.97982 9.17383 5.21891 8.86051 4.59229 8.23389C3.96566 7.60726 3.65234 6.84635 3.65234 5.95117C3.65234 5.05599 3.96566 4.29508 4.59229 3.66846C5.21891 3.04183 5.97982 2.72852 6.875 2.72852C7.77018 2.72852 8.53109 3.04183 9.15771 3.66846C9.78434 4.29508 10.0977 5.05599 10.0977 5.95117C10.0977 6.84635 9.78434 7.60726 9.15771 8.23389ZM9.18457 5.52148C9.05925 4.76953 8.64746 4.21452 7.94922 3.85645C8.12826 4.33984 8.23568 4.89486 8.27148 5.52148H9.18457ZM8.27148 6.38086C8.23568 7.00749 8.12826 7.5625 7.94922 8.0459C8.64746 7.68783 9.05925 7.13281 9.18457 6.38086H8.27148ZM6.875 3.6416C6.57064 3.99967 6.3916 4.6263 6.33789 5.52148H7.41211C7.3584 4.6263 7.17936 3.99967 6.875 3.6416ZM7.41211 6.38086H6.33789C6.3916 7.27604 6.57064 7.90267 6.875 8.26074C7.17936 7.90267 7.3584 7.27604 7.41211 6.38086ZM5.80078 3.85645C5.10254 4.21452 4.69076 4.76953 4.56543 5.52148H5.47852C5.51432 4.89486 5.62174 4.33984 5.80078 3.85645ZM5.47852 6.38086H4.56543C4.69076 7.13281 5.10254 7.68783 5.80078 8.0459C5.62174 7.5625 5.51432 7.00749 5.47852 6.38086Z" fill="#CA8A04"/>
</g>
<defs>
<clipPath id="clip0_3777_19024">
<rect width="12.27" height="13.75" fill="white" transform="matrix(1 0 0 -1 0.740234 14.1152)"/>
</clipPath>
</defs>
</svg>
