<svg width="15" height="15" viewBox="0 0 15 15" fill="none" xmlns="http://www.w3.org/2000/svg">
<g clip-path="url(#clip0_3777_19012)">
<path d="M3.25391 1.6543C3.37923 1.6543 3.48218 1.69458 3.56274 1.77515C3.64331 1.85571 3.68359 1.95866 3.68359 2.08398V3.80273C3.68359 3.92806 3.64331 4.03101 3.56274 4.11157C3.48218 4.19214 3.37923 4.23242 3.25391 4.23242H1.53516C1.40983 4.23242 1.30688 4.19214 1.22632 4.11157C1.14575 4.03101 1.10547 3.92806 1.10547 3.80273V2.08398C1.10547 1.95866 1.14575 1.85571 1.22632 1.77515C1.30688 1.69458 1.40983 1.6543 1.53516 1.6543H3.25391ZM3.25391 5.95117C3.37923 5.95117 3.48218 5.99146 3.56274 6.07202C3.64331 6.15259 3.68359 6.25553 3.68359 6.38086V8.09961C3.68359 8.22494 3.64331 8.32788 3.56274 8.40845C3.48218 8.48901 3.37923 8.5293 3.25391 8.5293H1.53516C1.40983 8.5293 1.30688 8.48901 1.22632 8.40845C1.14575 8.32788 1.10547 8.22494 1.10547 8.09961V6.38086C1.10547 6.25553 1.14575 6.15259 1.22632 6.07202C1.30688 5.99146 1.40983 5.95117 1.53516 5.95117H3.25391ZM3.25391 10.248C3.37923 10.248 3.48218 10.2883 3.56274 10.3689C3.64331 10.4495 3.68359 10.5524 3.68359 10.6777V12.3965C3.68359 12.5218 3.64331 12.6248 3.56274 12.7053C3.48218 12.7859 3.37923 12.8262 3.25391 12.8262H1.53516C1.40983 12.8262 1.30688 12.7859 1.22632 12.7053C1.14575 12.6248 1.10547 12.5218 1.10547 12.3965V10.6777C1.10547 10.5524 1.14575 10.4495 1.22632 10.3689C1.30688 10.2883 1.40983 10.248 1.53516 10.248H3.25391ZM14.4258 6.5957C14.5511 6.5957 14.6541 6.63599 14.7346 6.71655C14.8152 6.79712 14.8555 6.90006 14.8555 7.02539V7.45508C14.8555 7.5804 14.8152 7.68335 14.7346 7.76392C14.6541 7.84448 14.5511 7.88477 14.4258 7.88477H5.83203C5.70671 7.88477 5.60376 7.84448 5.52319 7.76392C5.44263 7.68335 5.40234 7.5804 5.40234 7.45508V7.02539C5.40234 6.90006 5.44263 6.79712 5.52319 6.71655C5.60376 6.63599 5.70671 6.5957 5.83203 6.5957H14.4258ZM14.4258 10.8926C14.5511 10.8926 14.6541 10.9329 14.7346 11.0134C14.8152 11.094 14.8555 11.1969 14.8555 11.3223V11.752C14.8555 11.8773 14.8152 11.9802 14.7346 12.0608C14.6541 12.1414 14.5511 12.1816 14.4258 12.1816H5.83203C5.70671 12.1816 5.60376 12.1414 5.52319 12.0608C5.44263 11.9802 5.40234 11.8773 5.40234 11.752V11.3223C5.40234 11.1969 5.44263 11.094 5.52319 11.0134C5.60376 10.9329 5.70671 10.8926 5.83203 10.8926H14.4258ZM14.4258 2.29883C14.5511 2.29883 14.6541 2.33911 14.7346 2.41968C14.8152 2.50024 14.8555 2.60319 14.8555 2.72852V3.1582C14.8555 3.28353 14.8152 3.38647 14.7346 3.46704C14.6541 3.54761 14.5511 3.58789 14.4258 3.58789H5.83203C5.70671 3.58789 5.60376 3.54761 5.52319 3.46704C5.44263 3.38647 5.40234 3.28353 5.40234 3.1582V2.72852C5.40234 2.60319 5.44263 2.50024 5.52319 2.41968C5.60376 2.33911 5.70671 2.29883 5.83203 2.29883H14.4258Z" fill="#3F51B5"/>
</g>
<defs>
<clipPath id="clip0_3777_19012">
<rect width="14" height="13.75" fill="white" transform="matrix(1 0 0 -1 0.980469 14.1152)"/>
</clipPath>
</defs>
</svg>
