<svg width="25" height="32" viewBox="0 0 25 32" fill="none" xmlns="http://www.w3.org/2000/svg">
<g clip-path="url(#clip0_3777_18986)">
<path d="M11.0628 12.1035C11.0628 12.1035 10.778 12.3883 10.2083 12.958C9.63867 13.5277 8.54004 13.8125 6.91243 13.8125C5.28483 13.8125 3.90137 13.2428 2.76204 12.1035C1.62272 10.9642 1.05306 9.58073 1.05306 7.95312C1.05306 6.32552 1.62272 4.94206 2.76204 3.80273C3.90137 2.66341 5.28483 2.09375 6.91243 2.09375C8.54004 2.09375 9.9235 2.66341 11.0628 3.80273C12.2021 4.94206 12.7718 6.32552 12.7718 7.95312C12.7718 9.58073 12.2021 10.9642 11.0628 12.1035ZM8.98763 5.87793C8.98763 5.87793 8.84521 5.73551 8.56038 5.45068C8.27555 5.16585 7.72624 5.02344 6.91243 5.02344C6.09863 5.02344 5.4069 5.30827 4.83724 5.87793C4.26758 6.44759 3.98275 7.13932 3.98275 7.95312C3.98275 8.76693 4.26758 9.45866 4.83724 10.0283C5.4069 10.598 6.09863 10.8828 6.91243 10.8828C7.72624 10.8828 8.41797 10.598 8.98763 10.0283C9.55729 9.45866 9.84212 8.76693 9.84212 7.95312C9.84212 7.13932 9.55729 6.44759 8.98763 5.87793ZM14.4808 19.4277C14.4808 19.4277 14.7656 19.1429 15.3353 18.5732C15.9049 18.0036 17.0036 17.7188 18.6312 17.7188C20.2588 17.7188 21.6423 18.2884 22.7816 19.4277C23.9209 20.5671 24.4906 21.9505 24.4906 23.5781C24.4906 25.2057 23.9209 26.5892 22.7816 27.7285C21.6423 28.8678 20.2588 29.4375 18.6312 29.4375C17.0036 29.4375 15.6201 28.8678 14.4808 27.7285C13.3415 26.5892 12.7718 25.2057 12.7718 23.5781C12.7718 21.9505 13.3415 20.5671 14.4808 19.4277ZM16.556 25.6533C16.556 25.6533 16.6984 25.7957 16.9832 26.0806C17.2681 26.3654 17.8174 26.5078 18.6312 26.5078C19.445 26.5078 20.1367 26.223 20.7064 25.6533C21.276 25.0837 21.5609 24.3919 21.5609 23.5781C21.5609 22.7643 21.276 22.0726 20.7064 21.5029C20.1367 20.9333 19.445 20.6484 18.6312 20.6484C17.8174 20.6484 17.1257 20.9333 16.556 21.5029C15.9863 22.0726 15.7015 22.7643 15.7015 23.5781C15.7015 24.3919 15.9863 25.0837 16.556 25.6533ZM24.3685 3.25342L4.53206 29.1323C4.3693 29.3358 4.1862 29.4375 3.98275 29.4375H1.78548C1.50065 29.4375 1.28703 29.3053 1.14461 29.0408C1.0022 28.7763 1.01237 28.522 1.17513 28.2778L21.0116 2.39893C21.1743 2.19547 21.3778 2.09375 21.6219 2.09375H23.7581C24.043 2.09375 24.2566 2.22599 24.399 2.49048C24.5414 2.75496 24.5312 3.00928 24.3685 3.25342Z" fill="#FDF2F8"/>
</g>
<defs>
<clipPath id="clip0_3777_18986">
<rect width="23.63" height="31.25" fill="white" transform="matrix(1 0 0 -1 0.949219 31.3906)"/>
</clipPath>
</defs>
</svg>
