<svg width="12" height="13" viewBox="0 0 12 13" fill="none" xmlns="http://www.w3.org/2000/svg">
<path d="M6.19023 0.894532C9.35117 0.894532 11.9543 3.49766 11.9543 6.65859C11.9543 9.84277 9.35117 12.4227 6.19023 12.4227C3.00605 12.4227 0.426172 9.84277 0.426172 6.65859C0.426172 3.49766 3.00605 0.894532 6.19023 0.894532ZM6.19023 3.45117C5.63242 3.45117 5.21406 3.89277 5.21406 4.42734C5.21406 4.98516 5.63242 5.40352 6.19023 5.40352C6.7248 5.40352 7.16641 4.98516 7.16641 4.42734C7.16641 3.89277 6.7248 3.45117 6.19023 3.45117ZM7.4918 9.35469V8.79688C7.4918 8.65742 7.35234 8.51797 7.21289 8.51797H6.93398V6.19375C6.93398 6.0543 6.79453 5.91484 6.65508 5.91484H5.16758C5.00488 5.91484 4.88867 6.0543 4.88867 6.19375V6.75156C4.88867 6.91426 5.00488 7.03047 5.16758 7.03047H5.44648V8.51797H5.16758C5.00488 8.51797 4.88867 8.65742 4.88867 8.79688V9.35469C4.88867 9.51738 5.00488 9.63359 5.16758 9.63359H7.21289C7.35234 9.63359 7.4918 9.51738 7.4918 9.35469Z" fill="#0F172A"/>
</svg>
