<svg width="46" height="46" viewBox="0 0 46 46" fill="none" xmlns="http://www.w3.org/2000/svg">
<rect width="46" height="46" rx="23" fill="#D32F2F"/>
<path d="M28.1193 20H26.5341C26.4403 19.544 26.2763 19.1435 26.0419 18.7983C25.8118 18.4531 25.5305 18.1634 25.1982 17.929C24.87 17.6903 24.5057 17.5114 24.1051 17.392C23.7045 17.2727 23.2869 17.2131 22.8523 17.2131C22.0597 17.2131 21.3416 17.4134 20.6982 17.8139C20.0589 18.2145 19.5497 18.8047 19.1705 19.5845C18.7955 20.3643 18.608 21.321 18.608 22.4545C18.608 23.5881 18.7955 24.5447 19.1705 25.3246C19.5497 26.1044 20.0589 26.6946 20.6982 27.0952C21.3416 27.4957 22.0597 27.696 22.8523 27.696C23.2869 27.696 23.7045 27.6364 24.1051 27.517C24.5057 27.3977 24.87 27.2209 25.1982 26.9865C25.5305 26.7479 25.8118 26.456 26.0419 26.1108C26.2763 25.7614 26.4403 25.3608 26.5341 24.9091H28.1193C28 25.5781 27.7827 26.1768 27.4673 26.7053C27.152 27.2337 26.7599 27.6832 26.2912 28.054C25.8224 28.4205 25.2962 28.6996 24.7124 28.8913C24.1328 29.0831 23.5128 29.179 22.8523 29.179C21.7358 29.179 20.7429 28.9062 19.8736 28.3608C19.0043 27.8153 18.3203 27.0398 17.8217 26.0341C17.3232 25.0284 17.0739 23.8352 17.0739 22.4545C17.0739 21.0739 17.3232 19.8807 17.8217 18.875C18.3203 17.8693 19.0043 17.0938 19.8736 16.5483C20.7429 16.0028 21.7358 15.7301 22.8523 15.7301C23.5128 15.7301 24.1328 15.826 24.7124 16.0178C25.2962 16.2095 25.8224 16.4908 26.2912 16.8615C26.7599 17.228 27.152 17.6754 27.4673 18.2038C27.7827 18.728 28 19.3267 28.1193 20Z" fill="white"/>
</svg>
