<svg width="46" height="46" viewBox="0 0 46 46" fill="none" xmlns="http://www.w3.org/2000/svg">
<rect width="46" height="46" rx="23" fill="#FBC02D"/>
<path d="M24.5966 15.9091H26.1818V25.267C26.1818 26.1023 26.0284 26.8118 25.7216 27.3956C25.4148 27.9794 24.9822 28.4226 24.424 28.7251C23.8658 29.0277 23.2074 29.179 22.4489 29.179C21.733 29.179 21.0959 29.049 20.5376 28.7891C19.9794 28.5249 19.5405 28.1499 19.2209 27.6641C18.9013 27.1783 18.7415 26.6009 18.7415 25.9318H20.3011C20.3011 26.3026 20.3928 26.6264 20.576 26.9034C20.7635 27.1761 21.0192 27.3892 21.343 27.5426C21.6669 27.696 22.0355 27.7727 22.4489 27.7727C22.9048 27.7727 23.2926 27.6768 23.6122 27.4851C23.9318 27.2933 24.1747 27.0121 24.3409 26.6413C24.5114 26.2663 24.5966 25.8082 24.5966 25.267V15.9091Z" fill="white"/>
</svg>
