<svg width="21" height="21" viewBox="0 0 21 21" fill="none" xmlns="http://www.w3.org/2000/svg">
<path d="M5.89838 0.680315H15.7294C16.3574 0.702315 16.8424 0.884315 17.1364 1.29031C17.3704 1.61231 17.4914 2.01831 17.5164 2.53131L17.5154 4.62431H18.7144C19.3414 4.64631 19.8264 4.82731 20.1204 5.23331C20.3544 5.55531 20.4754 5.96231 20.5004 6.47531V14.5723C20.4984 15.1983 20.4544 15.6663 20.2814 15.9903C20.0134 16.4903 19.5174 16.7133 18.6914 16.7793L17.5164 16.7783V18.7273C17.5164 19.1843 17.4344 19.5863 17.2594 19.9273C17.0134 20.4053 16.5444 20.6463 15.9424 20.6603H5.22538C4.63138 20.6603 4.14337 20.4433 3.83938 19.9983C3.59637 19.6413 3.46938 19.2193 3.45438 18.7273V16.7783H2.43438C1.69738 16.7783 1.13438 16.5583 0.835375 16.0463C0.612375 15.6643 0.508375 15.1753 0.502375 14.5703V6.68531C0.480375 6.04931 0.610375 5.52831 0.927375 5.14231C1.31038 4.67431 1.97438 4.54831 2.88337 4.62431L3.51638 4.62331L3.51737 2.74131C3.49537 2.10531 3.62538 1.58531 3.94237 1.19831C4.32537 0.731314 4.99038 0.605315 5.89838 0.680315ZM16.1774 12.8113H4.79338V18.7063C4.80038 18.9333 4.85338 19.1063 4.94538 19.2423C4.97838 19.2903 5.04538 19.3203 5.22538 19.3203H15.9264C15.9698 19.3197 16.0131 19.3177 16.0564 19.3143H16.0684C16.1384 19.1793 16.1784 18.9843 16.1784 18.7273L16.1774 12.8113ZM14.7994 17.3453C14.9771 17.3453 15.1475 17.4159 15.2731 17.5416C15.3988 17.6672 15.4694 17.8376 15.4694 18.0153C15.4694 18.193 15.3988 18.3634 15.2731 18.4891C15.1475 18.6147 14.9771 18.6853 14.7994 18.6853H6.21938C6.04168 18.6853 5.87126 18.6147 5.74561 18.4891C5.61996 18.3634 5.54938 18.193 5.54938 18.0153C5.54938 17.8376 5.61996 17.6672 5.74561 17.5416C5.87126 17.4159 6.04168 17.3453 6.21938 17.3453H14.7994ZM14.7994 15.4483C14.9771 15.4483 15.1475 15.5189 15.2731 15.6446C15.3988 15.7702 15.4694 15.9406 15.4694 16.1183C15.4694 16.296 15.3988 16.4664 15.2731 16.5921C15.1475 16.7177 14.9771 16.7883 14.7994 16.7883H6.21938C6.04168 16.7883 5.87126 16.7177 5.74561 16.5921C5.61996 16.4664 5.54938 16.296 5.54938 16.1183C5.54938 15.9406 5.61996 15.7702 5.74561 15.6446C5.87126 15.5189 6.04168 15.4483 6.21938 15.4483H14.7994ZM2.82938 5.96231C2.26038 5.96431 2.12937 5.96431 2.00937 6.10231C1.88937 6.24231 1.82938 6.30031 1.84137 6.66231V14.5643C1.84537 14.9483 1.85738 15.1323 1.94438 15.2723C2.03138 15.4123 2.12438 15.4393 2.43438 15.4393L3.45438 15.4383V12.8113H3.32037C3.14268 12.8113 2.97226 12.7407 2.84661 12.6151C2.72096 12.4894 2.65038 12.319 2.65038 12.1413C2.65038 11.9636 2.72096 11.7932 2.84661 11.6676C2.97226 11.5419 3.14268 11.4713 3.32037 11.4713H17.7244C17.9021 11.4713 18.0725 11.5419 18.1981 11.6676C18.3238 11.7932 18.3944 11.9636 18.3944 12.1413C18.3944 12.319 18.3238 12.4894 18.1981 12.6151C18.0725 12.7407 17.9021 12.8113 17.7244 12.8113H17.5164V15.4383L18.6364 15.4413C18.8444 15.4243 18.9634 15.4463 19.0714 15.3333C19.1794 15.2193 19.1604 14.9433 19.1614 14.5703V6.50831C19.1504 6.27031 19.1284 6.19031 19.0544 6.10331C18.9804 6.01531 18.9244 5.97331 18.6914 5.96431L2.82938 5.96231ZM14.7994 13.5523C14.9771 13.5523 15.1475 13.6229 15.2731 13.7486C15.3988 13.8742 15.4694 14.0446 15.4694 14.2223C15.4694 14.4 15.3988 14.5704 15.2731 14.6961C15.1475 14.8217 14.9771 14.8923 14.7994 14.8923H6.21938C6.04168 14.8923 5.87126 14.8217 5.74561 14.6961C5.61996 14.5704 5.54938 14.4 5.54938 14.2223C5.54938 14.0446 5.61996 13.8742 5.74561 13.7486C5.87126 13.6229 6.04168 13.5523 6.21938 13.5523H14.7994ZM16.5844 6.57431C16.8483 6.57445 17.1097 6.62657 17.3535 6.7277C17.5973 6.82883 17.8188 6.977 18.0054 7.16374C18.1919 7.35048 18.3399 7.57213 18.4408 7.81604C18.5416 8.05996 18.5935 8.32136 18.5934 8.58531C18.5932 8.84927 18.5411 9.11062 18.44 9.35443C18.3389 9.59825 18.1907 9.81975 18.004 10.0063C17.8172 10.1929 17.5956 10.3408 17.3516 10.4417C17.1077 10.5426 16.8463 10.5944 16.5824 10.5943C16.0493 10.594 15.5381 10.382 15.1614 10.0049C14.7846 9.62776 14.5731 9.1164 14.5734 8.58331C14.5736 8.05023 14.7857 7.53908 15.1628 7.16232C15.5399 6.78556 16.0513 6.57405 16.5844 6.57431ZM16.5844 7.91431C16.4067 7.91431 16.2363 7.9849 16.1106 8.11055C15.985 8.2362 15.9144 8.40662 15.9144 8.58431C15.9144 8.76201 15.985 8.93243 16.1106 9.05808C16.2363 9.18373 16.4067 9.25431 16.5844 9.25431C16.7621 9.25431 16.9325 9.18373 17.0581 9.05808C17.1838 8.93243 17.2544 8.76201 17.2544 8.58431C17.2544 8.40662 17.1838 8.2362 17.0581 8.11055C16.9325 7.9849 16.7621 7.91431 16.5844 7.91431ZM4.97838 2.04831C4.89638 2.14831 4.84438 2.35731 4.85638 2.71831L4.85538 4.62331L16.1764 4.62431L16.1774 2.56431C16.1654 2.32731 16.1184 2.16731 16.0524 2.07731C16.0474 2.06931 15.9404 2.02931 15.7064 2.02131L5.84438 2.01831C5.28737 1.97331 4.99338 2.02931 4.97838 2.04831Z" fill="white"/>
</svg>
