<svg width="15" height="15" viewBox="0 0 15 15" fill="none" xmlns="http://www.w3.org/2000/svg">
<g clip-path="url(#clip0_7178_802)">
<path d="M2.48242 2.70117C2.48242 2.70117 2.81283 2.37077 3.47363 1.70996C4.13444 1.04915 5.40365 0.71875 7.28125 0.71875C9.15885 0.71875 10.7585 1.37956 12.0801 2.70117C13.4017 4.02279 14.0625 5.6224 14.0625 7.5C14.0625 9.3776 13.4017 10.9772 12.0801 12.2988C10.7585 13.6204 9.15885 14.2812 7.28125 14.2812C5.40365 14.2812 3.80404 13.6204 2.48242 12.2988C1.16081 10.9772 0.5 9.3776 0.5 7.5C0.5 5.6224 1.16081 4.02279 2.48242 2.70117ZM3.41211 11.3691C3.41211 11.3691 3.67871 11.6357 4.21191 12.1689C4.74512 12.7021 5.76823 12.9688 7.28125 12.9688C8.79427 12.9688 10.084 12.4355 11.1504 11.3691C12.2168 10.3027 12.75 9.01302 12.75 7.5C12.75 5.98698 12.2168 4.69727 11.1504 3.63086C10.084 2.56445 8.79427 2.03125 7.28125 2.03125C5.76823 2.03125 4.47852 2.56445 3.41211 3.63086C2.3457 4.69727 1.8125 5.98698 1.8125 7.5C1.8125 9.01302 2.3457 10.3027 3.41211 11.3691ZM6.47461 4.06836C6.47461 4.06836 6.53158 4.01139 6.64551 3.89746C6.75944 3.78353 6.97135 3.72656 7.28125 3.72656C7.59115 3.72656 7.86003 3.84049 8.08789 4.06836C8.31576 4.29622 8.42969 4.5651 8.42969 4.875C8.42969 5.1849 8.31576 5.45378 8.08789 5.68164C7.86003 5.90951 7.59115 6.02344 7.28125 6.02344C6.97135 6.02344 6.70247 5.90951 6.47461 5.68164C6.24674 5.45378 6.13281 5.1849 6.13281 4.875C6.13281 4.5651 6.24674 4.29622 6.47461 4.06836ZM8.8125 10.6719C8.8125 10.8906 8.70312 11 8.48438 11H6.07812C5.85938 11 5.75 10.8906 5.75 10.6719V10.0156C5.75 9.79688 5.85938 9.6875 6.07812 9.6875H6.40625V7.9375H6.07812C5.85938 7.9375 5.75 7.82812 5.75 7.60938V6.95312C5.75 6.73438 5.85938 6.625 6.07812 6.625H7.82812C8.04688 6.625 8.15625 6.73438 8.15625 6.95312V9.6875H8.48438C8.70312 9.6875 8.8125 9.79688 8.8125 10.0156V10.6719Z" fill="#3B82F6"/>
</g>
<defs>
<clipPath id="clip0_7178_802">
<rect width="14" height="14" fill="white" transform="matrix(1 0 0 -1 0.5 14.5)"/>
</clipPath>
</defs>
</svg>
