<svg width="17" height="22" viewBox="0 0 17 22" fill="none" xmlns="http://www.w3.org/2000/svg">
<g clip-path="url(#clip0_3582_8102)">
<path d="M13.2812 6.92969C13.5365 7.1849 13.6641 7.49479 13.6641 7.85938V16.9375C13.6641 17.3021 13.5365 17.612 13.2812 17.8672C13.026 18.1224 12.7161 18.25 12.3516 18.25H4.47656C4.11198 18.25 3.80208 18.1224 3.54688 17.8672C3.29167 17.612 3.16406 17.3021 3.16406 16.9375V5.5625C3.16406 5.32552 3.22331 5.10677 3.3418 4.90625C3.46029 4.70573 3.61979 4.54622 3.82031 4.42773C4.02083 4.30925 4.23958 4.25 4.47656 4.25H10.0547C10.4193 4.25 10.7292 4.3776 10.9844 4.63281L13.2812 6.92969ZM10.1641 5.67188V7.75H12.2422L10.1641 5.67188ZM12.3516 16.9375V9.0625H9.50781C9.32552 9.0625 9.17057 8.9987 9.04297 8.87109C8.91536 8.74349 8.85156 8.58854 8.85156 8.40625V5.5625H4.47656V16.9375H12.3516ZM8.85156 10.1562V10.8125C9.16146 10.8307 9.44401 10.9401 9.69922 11.1406C9.84505 11.2318 9.85417 11.3411 9.72656 11.4688L9.39844 11.7695C9.32552 11.8424 9.23438 11.8516 9.125 11.7969C9.01562 11.724 8.89714 11.6875 8.76953 11.6875H8.00391C7.91276 11.6875 7.83529 11.724 7.77148 11.7969C7.70768 11.8698 7.67578 11.9518 7.67578 12.043C7.67578 12.2253 7.75781 12.3438 7.92188 12.3984L9.15234 12.7539C9.40755 12.8451 9.61719 13 9.78125 13.2188C9.94531 13.4375 10.0273 13.6836 10.0273 13.957C10.0273 14.0846 10.0046 14.2122 9.95898 14.3398C9.91341 14.4674 9.85872 14.5814 9.79492 14.6816C9.73112 14.7819 9.64909 14.8685 9.54883 14.9414C9.44857 15.0143 9.33919 15.0736 9.2207 15.1191C9.10221 15.1647 8.97917 15.1875 8.85156 15.1875V15.8438C8.85156 15.9896 8.77865 16.0625 8.63281 16.0625H8.19531C8.04948 16.0625 7.97656 15.9896 7.97656 15.8438V15.1875C7.66667 15.1693 7.38411 15.0599 7.12891 14.8594C6.98307 14.7682 6.97396 14.6589 7.10156 14.5312L7.42969 14.2305C7.5026 14.1576 7.59375 14.1484 7.70312 14.2031C7.8125 14.276 7.93099 14.3125 8.05859 14.3125H8.82422C8.91536 14.3125 8.99284 14.276 9.05664 14.2031C9.12044 14.1302 9.15234 14.0482 9.15234 13.957C9.15234 13.7747 9.07031 13.6562 8.90625 13.6016L7.67578 13.2461C7.42057 13.1549 7.21094 13 7.04688 12.7812C6.88281 12.5625 6.80078 12.3164 6.80078 12.043C6.80078 11.7148 6.91471 11.4323 7.14258 11.1953C7.37044 10.9583 7.64844 10.8307 7.97656 10.8125V10.1562C7.97656 10.0104 8.04948 9.9375 8.19531 9.9375H8.63281C8.77865 9.9375 8.85156 10.0104 8.85156 10.1562ZM5.57031 7.3125C5.42448 7.3125 5.35156 7.23958 5.35156 7.09375V6.65625C5.35156 6.51042 5.42448 6.4375 5.57031 6.4375H7.75781C7.90365 6.4375 7.97656 6.51042 7.97656 6.65625V7.09375C7.97656 7.23958 7.90365 7.3125 7.75781 7.3125H5.57031ZM7.97656 8.84375C7.97656 8.98958 7.90365 9.0625 7.75781 9.0625H5.57031C5.42448 9.0625 5.35156 8.98958 5.35156 8.84375V8.40625C5.35156 8.26042 5.42448 8.1875 5.57031 8.1875H7.75781C7.90365 8.1875 7.97656 8.26042 7.97656 8.40625V8.84375Z" fill="black"/>
</g>
<defs>
<clipPath id="clip0_3582_8102">
<rect width="10.5" height="14" fill="white" transform="matrix(1 0 0 -1 3.16406 18.25)"/>
</clipPath>
</defs>
</svg>
