<svg width="12" height="12" viewBox="0 0 12 12" fill="none" xmlns="http://www.w3.org/2000/svg">
<path d="M1.69922 1.69922C1.69922 1.69922 1.98242 1.41602 2.54883 0.849609C3.11523 0.283203 4.20312 0 5.8125 0C7.42188 0 8.79297 0.566406 9.92578 1.69922C11.0586 2.83203 11.625 4.20312 11.625 5.8125C11.625 7.42188 11.0586 8.79297 9.92578 9.92578C8.79297 11.0586 7.42188 11.625 5.8125 11.625C4.20312 11.625 2.83203 11.0586 1.69922 9.92578C0.566406 8.79297 0 7.42188 0 5.8125C0 4.20312 0.566406 2.83203 1.69922 1.69922ZM2.49609 9.12891C2.49609 9.12891 2.72461 9.35742 3.18164 9.81445C3.63867 10.2715 4.51562 10.5 5.8125 10.5C7.10938 10.5 8.21484 10.043 9.12891 9.12891C10.043 8.21484 10.5 7.10938 10.5 5.8125C10.5 4.51562 10.043 3.41016 9.12891 2.49609C8.21484 1.58203 7.10938 1.125 5.8125 1.125C4.51562 1.125 3.41016 1.58203 2.49609 2.49609C1.58203 3.41016 1.125 4.51562 1.125 5.8125C1.125 7.10938 1.58203 8.21484 2.49609 9.12891ZM5.12109 2.87109C5.12109 2.87109 5.16992 2.82227 5.26758 2.72461C5.36523 2.62695 5.54688 2.57812 5.8125 2.57812C6.07812 2.57812 6.30859 2.67578 6.50391 2.87109C6.69922 3.06641 6.79688 3.29688 6.79688 3.5625C6.79688 3.82812 6.69922 4.05859 6.50391 4.25391C6.30859 4.44922 6.07812 4.54688 5.8125 4.54688C5.54688 4.54688 5.31641 4.44922 5.12109 4.25391C4.92578 4.05859 4.82812 3.82812 4.82812 3.5625C4.82812 3.29688 4.92578 3.06641 5.12109 2.87109ZM7.125 8.53125C7.125 8.71875 7.03125 8.8125 6.84375 8.8125H4.78125C4.59375 8.8125 4.5 8.71875 4.5 8.53125V7.96875C4.5 7.78125 4.59375 7.6875 4.78125 7.6875H5.0625V6.1875H4.78125C4.59375 6.1875 4.5 6.09375 4.5 5.90625V5.34375C4.5 5.15625 4.59375 5.0625 4.78125 5.0625H6.28125C6.46875 5.0625 6.5625 5.15625 6.5625 5.34375V7.6875H6.84375C7.03125 7.6875 7.125 7.78125 7.125 7.96875V8.53125Z" fill="#1E3A8A"/>
</svg>
