<svg width="15" height="15" viewBox="0 0 15 15" fill="none" xmlns="http://www.w3.org/2000/svg">
<path d="M6.54068 4.28519C5.41916 4.47211 4.40445 4.97946 3.63007 5.72714L0.639343 1.48138C0.452423 1.18765 0.666046 0.787109 1.01318 0.787109H3.9772C4.27094 0.787109 4.56467 0.97403 4.69818 1.21436L6.54068 4.28519ZM13.8039 0.787109C14.151 0.787109 14.3646 1.18765 14.1777 1.48138L11.187 5.72714C10.4126 4.97946 9.39789 4.47211 8.27637 4.28519L10.1189 1.21436C10.2791 0.947327 10.5461 0.787109 10.8398 0.787109H13.8039ZM7.42188 5.05957C10.0121 5.05957 12.1216 7.1691 12.1216 9.75928C12.1216 12.3762 10.0121 14.459 7.42188 14.459C4.80499 14.459 2.72217 12.3762 2.72217 9.75928C2.72217 7.1691 4.80499 5.05957 7.42188 5.05957ZM9.87854 9.27863C10.0655 9.09171 9.95865 8.79797 9.71832 8.74457L8.30307 8.55765L7.6889 7.27591C7.6355 7.1691 7.52869 7.11569 7.39517 7.11569C7.28836 7.11569 7.18155 7.1691 7.12814 7.27591L6.51398 8.55765L5.09872 8.74457C4.8584 8.79797 4.75159 9.09171 4.93851 9.27863L5.95322 10.2666L5.71289 11.6552C5.65948 11.8955 5.92651 12.0824 6.16684 11.9756L7.42188 11.308L8.65021 11.9756C8.89053 12.0824 9.15756 11.8955 9.10416 11.6552L8.86383 10.2666L9.87854 9.27863Z" fill="#CEAF4E"/>
</svg>
