<svg width="19" height="19" viewBox="0 0 19 19" fill="none" xmlns="http://www.w3.org/2000/svg">
<path d="M10.1105 14.9899L10.1102 14.9896C10.0286 14.9079 9.93179 14.8432 9.82518 14.799C9.71858 14.7548 9.60431 14.732 9.48891 14.732C9.37352 14.732 9.25925 14.7548 9.15264 14.799C9.04604 14.8432 8.94919 14.9079 8.86764 14.9896L8.86756 14.9897L8.33389 15.5233C7.68972 16.1675 6.81604 16.5294 5.90505 16.5294C4.99405 16.5294 4.12037 16.1675 3.4762 15.5233C2.83203 14.8792 2.47014 14.0055 2.47014 13.0945C2.47014 12.1835 2.83203 11.3098 3.4762 10.6656L3.47626 10.6656L5.64139 8.50226C5.64141 8.50224 5.64143 8.50222 5.64145 8.5022L10.1105 14.9899ZM10.1105 14.9899C10.1924 15.0715 10.2573 15.1684 10.3017 15.2752C10.346 15.3819 10.3688 15.4963 10.3688 15.6119C10.3688 15.7275 10.346 15.8419 10.3017 15.9487C10.2573 16.0554 10.1924 16.1523 10.1105 16.2339L10.1103 16.2342M10.1105 14.9899L10.1103 16.2342M10.1103 16.2342L9.57659 16.7678C8.60284 17.7416 7.28214 18.2886 5.90505 18.2886C4.52795 18.2886 3.20725 17.7416 2.2335 16.7678C1.25975 15.7941 0.712695 14.4734 0.712695 13.0963C0.712695 11.7192 1.25973 10.3985 2.23347 9.42477C2.23348 9.42476 2.23349 9.42475 2.2335 9.42474L4.4005 7.25864L4.40071 7.25843C5.3363 6.32052 6.59511 5.77584 7.91928 5.73595C9.24345 5.69606 10.5328 6.16399 11.5231 7.04389M10.1103 16.2342L11.5231 7.04389M11.5231 7.04389C11.6096 7.12082 11.6802 7.21404 11.7307 7.31823L11.9107 7.23098L11.5231 7.04389ZM13.3589 10.501L13.3588 10.5011C12.7391 11.1204 11.9062 11.4795 11.0305 11.5048C10.1548 11.5302 9.30254 11.22 8.64807 10.6376C8.56152 10.5607 8.46065 10.5015 8.35124 10.4636C8.24183 10.4256 8.12602 10.4096 8.01041 10.4164C7.8948 10.4232 7.78167 10.4527 7.67746 10.5032C7.57326 10.5537 7.48002 10.6243 7.40308 10.7108C7.32615 10.7974 7.26701 10.8983 7.22905 11.0077C7.19109 11.1171 7.17505 11.2329 7.18186 11.3485C7.18866 11.4641 7.21816 11.5772 7.26868 11.6815C7.31921 11.7857 7.38976 11.8789 7.47632 11.9558C8.46598 12.8355 9.75442 13.3037 11.078 13.2647C12.4015 13.2256 13.6601 12.6822 14.5961 11.7456L14.5962 11.7455L16.7631 9.5795L13.3589 10.501ZM13.3589 10.501L15.525 8.33404C15.525 8.33403 15.525 8.33402 15.525 8.33401C16.1692 7.68984 16.531 6.81617 16.531 5.90519C16.531 4.9942 16.1692 4.12052 15.525 3.47635C14.8808 2.83218 14.0071 2.47029 13.0961 2.47029C12.1851 2.47029 11.3115 2.83218 10.6673 3.47635L10.1336 4.01002C9.96859 4.17505 9.74476 4.26777 9.51138 4.26777C9.27799 4.26777 9.05416 4.17505 8.88912 4.01002C8.72409 3.84499 8.63138 3.62116 8.63138 3.38777C8.63138 3.15438 8.72409 2.93055 8.88912 2.76552L9.42263 2.23201L13.3589 10.501ZM16.7073 2.17493V2.17433C15.7387 1.23814 14.4435 0.713672 13.0943 0.713672C11.7178 0.713672 10.3974 1.25965 9.4228 2.23185L16.7073 2.17493ZM16.7073 2.17493L16.7657 2.23348M16.7073 2.17493L16.7657 2.23348M16.7657 2.23348C17.7385 3.20852 18.2846 4.52973 18.2841 5.90703C18.2836 7.28428 17.7366 8.60506 16.7632 9.57941L16.7657 2.23348Z" fill="#FF5887" stroke="white" stroke-width="0.4"/>
</svg>
