<svg width="15" height="14" viewBox="0 0 15 14" fill="none" xmlns="http://www.w3.org/2000/svg">
<path d="M9.08594 5.41406C9.77865 6.10677 10.1523 6.94531 10.207 7.92969C10.2617 8.91406 9.97917 9.77995 9.35938 10.5273C9.26823 10.6367 8.49349 11.4206 7.03516 12.8789C6.28776 13.6263 5.38542 14 4.32812 14C3.27083 14 2.36849 13.6263 1.62109 12.8789C0.873698 12.1315 0.5 11.2292 0.5 10.1719C0.5 9.11458 0.873698 8.21224 1.62109 7.46484C1.94922 7.13672 2.29557 6.79036 2.66016 6.42578C3.02474 6.0612 3.2526 5.83333 3.34375 5.74219C3.45312 5.63281 3.57617 5.60547 3.71289 5.66016C3.84961 5.71484 3.91797 5.8151 3.91797 5.96094C3.91797 6.30729 3.96354 6.65365 4.05469 7C4.07292 7.10938 4.03646 7.20964 3.94531 7.30078L2.71484 8.55859C2.25911 8.99609 2.03125 9.53385 2.03125 10.1719C2.03125 10.8099 2.25456 11.3522 2.70117 11.7988C3.14779 12.2454 3.6901 12.4688 4.32812 12.4688C4.96615 12.4688 5.50391 12.2409 5.94141 11.7852L8.01953 9.73438C8.45703 9.29688 8.67578 8.75911 8.67578 8.12109C8.67578 7.48307 8.45703 6.9362 8.01953 6.48047C7.83724 6.29818 7.6276 6.15234 7.39062 6.04297C7.24479 5.97005 7.18099 5.86068 7.19922 5.71484C7.23568 5.38672 7.3724 5.10417 7.60938 4.86719L7.71875 4.75781C7.84635 4.64844 7.97396 4.63021 8.10156 4.70312C8.46615 4.88542 8.79427 5.1224 9.08594 5.41406ZM10.6719 0C10.6719 0 10.9362 0 11.4648 0C11.9935 0 12.6315 0.373698 13.3789 1.12109C14.1263 1.86849 14.5 2.77083 14.5 3.82812C14.5 4.88542 14.1263 5.78776 13.3789 6.53516C13.0508 6.86328 12.7044 7.20964 12.3398 7.57422C11.9753 7.9388 11.7474 8.16667 11.6562 8.25781C11.5469 8.36719 11.4238 8.39453 11.2871 8.33984C11.1504 8.28516 11.082 8.1849 11.082 8.03906C11.082 7.69271 11.0365 7.34635 10.9453 7C10.9271 6.89062 10.9635 6.79036 11.0547 6.69922L12.2852 5.44141C12.7409 5.00391 12.9688 4.46615 12.9688 3.82812C12.9688 3.1901 12.7454 2.64779 12.2988 2.20117C11.8522 1.75456 11.3099 1.53125 10.6719 1.53125C10.0339 1.53125 9.49609 1.75911 9.05859 2.21484L6.98047 4.26562C6.54297 4.70312 6.32422 5.24089 6.32422 5.87891C6.32422 6.51693 6.54297 7.0638 6.98047 7.51953C7.16276 7.70182 7.3724 7.84766 7.60938 7.95703C7.75521 8.02995 7.81901 8.13932 7.80078 8.28516C7.76432 8.61328 7.6276 8.89583 7.39062 9.13281L7.28125 9.24219C7.15365 9.35156 7.02604 9.36979 6.89844 9.29688C6.53385 9.11458 6.20573 8.8776 5.91406 8.58594C5.22135 7.89323 4.84766 7.05469 4.79297 6.07031C4.73828 5.08594 5.02083 4.22005 5.64062 3.47266C5.73177 3.36328 6.50651 2.57943 7.96484 1.12109C8.71224 0.373698 9.61458 0 10.6719 0Z" fill="#94A3B8"/>
</svg>
