<svg width="241" height="81" viewBox="0 0 241 81" fill="none" xmlns="http://www.w3.org/2000/svg">
<g clip-path="url(#clip0_6507_1174)">
<mask id="mask0_6507_1174" style="mask-type:luminance" maskUnits="userSpaceOnUse" x="0" y="0" width="241" height="81">
<path d="M240.568 0.306641H0.568359V80.3066H240.568V0.306641Z" fill="white"/>
</mask>
<g mask="url(#mask0_6507_1174)">
<path d="M113.568 66.1058C129.474 66.1058 142.368 53.2117 142.368 37.3059C142.368 21.4001 129.474 8.50586 113.568 8.50586C97.6618 8.50586 84.7676 21.4001 84.7676 37.3059C84.7676 53.2117 97.6618 66.1058 113.568 66.1058Z" fill="#FF5887"/>
<path d="M113.424 65.5301C121.297 65.5301 127.68 52.8938 127.68 37.3061C127.68 21.7184 121.297 9.08203 113.424 9.08203C105.551 9.08203 99.168 21.7184 99.168 37.3061C99.168 52.8938 105.551 65.5301 113.424 65.5301Z" stroke="white" stroke-width="2"/>
<path d="M84.7676 46.5215H142.368" stroke="white" stroke-width="2" stroke-linecap="round"/>
<path d="M130.669 27.8008H142.368M84.7676 27.8008H122.792" stroke="white" stroke-width="2" stroke-linecap="round"/>
<path d="M113.424 8.50586V66.1058" stroke="white" stroke-width="2"/>
<path d="M140.786 53.719C152.809 53.719 162.555 43.9729 162.555 31.9503C162.555 19.9278 152.809 10.1816 140.786 10.1816C128.764 10.1816 119.018 19.9278 119.018 31.9503C119.018 43.9729 128.764 53.719 140.786 53.719Z" fill="white" stroke="#747474" stroke-width="2"/>
<path d="M144.834 31.4311C145.514 31.8943 146.246 32.3061 146.88 32.8386C149.068 34.6755 150.258 37.0368 150.355 39.9289C150.39 40.9568 150.057 41.301 149.02 41.3026C145.089 41.3074 141.157 41.3042 137.225 41.3042C135.715 41.3042 134.207 41.3106 132.698 41.3026C131.647 41.2978 131.301 40.923 131.365 39.8646C131.588 36.1264 133.39 33.4192 136.636 31.6595C136.722 31.6129 136.806 31.563 136.891 31.5115C136.907 31.5019 136.913 31.4793 136.943 31.4359C135.222 30.0349 134.23 28.2575 134.247 25.9702C134.261 24.1123 134.925 22.5311 136.227 21.2331C138.87 18.5967 143.096 18.6836 145.675 21.3875C148.073 23.9016 148.442 28.502 144.835 31.4295L144.834 31.4311ZM148.188 39.1777C148.028 35.7773 144.429 32.6536 140.795 32.726C137.096 32.7983 133.546 35.9446 133.551 39.1777H148.188ZM140.821 30.651C143.327 30.667 145.418 28.5937 145.452 26.057C145.485 23.5526 143.397 21.4036 140.9 21.3778C138.407 21.3521 136.293 23.4544 136.281 25.9782C136.266 28.5261 138.317 30.6365 140.821 30.6526V30.651Z" fill="#FF5887"/>
<path d="M156.396 47.4746L160.952 52.0309" stroke="#747474" stroke-width="2.5" stroke-linecap="round" stroke-linejoin="round"/>
<path fill-rule="evenodd" clip-rule="evenodd" d="M179.933 71.0971C178.355 72.6754 175.797 72.6754 174.217 71.0971L160.026 56.9058C158.447 55.3274 158.447 52.768 160.026 51.1896C161.604 49.6113 164.164 49.6113 165.742 51.1896L179.933 65.3809C181.512 66.9604 181.512 69.5187 179.933 71.0971Z" fill="#FF5887"/>
<path d="M188.568 26.3061V25.3061M188.568 31.3061V30.6395M180.568 20.3061V19.3061M180.568 25.6395V24.6395M176.568 20.3061V19.3061M176.568 25.6395V24.6395M180.568 30.9728V29.9728M176.568 30.9728V29.9728M172.568 28.6826V16.3066C172.568 15.7543 173.016 15.3066 173.568 15.3066H183.568C184.12 15.3066 184.568 15.7543 184.568 16.3066V35.3066C184.568 35.8589 184.12 36.3066 183.568 36.3066H173.568C173.016 36.3066 172.568 35.8589 172.568 35.3066V33.8987M184.568 28.3851V22.3057C184.568 21.7534 185.016 21.3057 185.568 21.3057H191.568C192.12 21.3057 192.568 21.7534 192.568 22.3057V35.3066C192.568 35.8589 192.12 36.3066 191.568 36.3066H181.901" stroke="#FF5887" stroke-width="2" stroke-linecap="round" stroke-linejoin="round"/>
</g>
</g>
<defs>
<clipPath id="clip0_6507_1174">
<rect width="240" height="80" fill="white" transform="translate(0.568359 0.306641)"/>
</clipPath>
</defs>
</svg>
