<svg width="18" height="14" viewBox="0 0 18 14" fill="none" xmlns="http://www.w3.org/2000/svg">
<path d="M6.13636 1.1875C5.80909 1.1875 5.53091 1.36958 5.4 1.63875L5.39182 1.65458L3.10091 5.66042C3.41182 5.58125 3.74727 5.54167 4.09091 5.54167C5.20364 5.54167 6.21818 5.96917 6.95455 6.67375V1.97917C6.95455 1.54375 6.58636 1.1875 6.13636 1.1875ZM6.95455 9.5C6.95455 7.97208 5.67 6.72917 4.09091 6.72917C3.21545 6.72917 2.43 7.10917 1.90636 7.70292C1.48091 8.19375 1.22727 8.81125 1.22727 9.5C1.22727 11.0279 2.51182 12.2708 4.09091 12.2708C5.67 12.2708 6.95455 11.0279 6.95455 9.5ZM8.13273 10.0937C7.83818 11.9937 6.14455 13.4583 4.09091 13.4583C1.83273 13.4583 0 11.685 0 9.5C0 8.55 0.351818 7.67125 0.932727 6.9825L4.29545 1.11625C4.62273 0.45125 5.32636 0 6.13636 0C7.05273 0 7.83 0.585833 8.09182 1.38542H9.90818C10.17 0.585833 10.9473 0 11.8636 0C12.6736 0 13.3691 0.45125 13.7045 1.10833L17.0673 6.9825C17.6482 7.67917 18 8.55 18 9.5C18 11.685 16.1673 13.4583 13.9091 13.4583C11.8636 13.4583 10.1618 11.9937 9.86727 10.0937H8.13273ZM11.0455 9.5C11.0455 11.0279 12.33 12.2708 13.9091 12.2708C15.4882 12.2708 16.7727 11.0279 16.7727 9.5C16.7727 8.81125 16.5191 8.19375 16.0936 7.70292C15.57 7.10917 14.7845 6.72917 13.9091 6.72917C12.33 6.72917 11.0455 7.97208 11.0455 9.5ZM11.0455 6.67375C11.7818 5.96917 12.7964 5.54167 13.9091 5.54167C14.2527 5.54167 14.5882 5.58125 14.9073 5.66042L12.6164 1.65458L12.6 1.63875C12.4691 1.36958 12.1909 1.1875 11.8636 1.1875C11.4136 1.1875 11.0455 1.54375 11.0455 1.97917V6.67375ZM9.81818 6.53125V2.57292H8.18182V6.53125H9.81818ZM8.18182 7.71875V8.90625H9.81818V7.71875H8.18182Z" fill="#637381"/>
</svg>
