<svg width="17" height="14" viewBox="0 0 17 14" fill="none" xmlns="http://www.w3.org/2000/svg">
<path d="M3.0918 0.351562C3.23535 0.351562 3.35327 0.397705 3.44556 0.48999C3.53784 0.582275 3.58398 0.700195 3.58398 0.84375V2.8125C3.58398 2.95605 3.53784 3.07397 3.44556 3.16626C3.35327 3.25854 3.23535 3.30469 3.0918 3.30469H1.12305C0.979492 3.30469 0.861572 3.25854 0.769287 3.16626C0.677002 3.07397 0.630859 2.95605 0.630859 2.8125V0.84375C0.630859 0.700195 0.677002 0.582275 0.769287 0.48999C0.861572 0.397705 0.979492 0.351562 1.12305 0.351562H3.0918ZM3.0918 5.27344C3.23535 5.27344 3.35327 5.31958 3.44556 5.41187C3.53784 5.50415 3.58398 5.62207 3.58398 5.76562V7.73438C3.58398 7.87793 3.53784 7.99585 3.44556 8.08813C3.35327 8.18042 3.23535 8.22656 3.0918 8.22656H1.12305C0.979492 8.22656 0.861572 8.18042 0.769287 8.08813C0.677002 7.99585 0.630859 7.87793 0.630859 7.73438V5.76562C0.630859 5.62207 0.677002 5.50415 0.769287 5.41187C0.861572 5.31958 0.979492 5.27344 1.12305 5.27344H3.0918ZM3.0918 10.1953C3.23535 10.1953 3.35327 10.2415 3.44556 10.3337C3.53784 10.426 3.58398 10.5439 3.58398 10.6875V12.6562C3.58398 12.7998 3.53784 12.9177 3.44556 13.01C3.35327 13.1023 3.23535 13.1484 3.0918 13.1484H1.12305C0.979492 13.1484 0.861572 13.1023 0.769287 13.01C0.677002 12.9177 0.630859 12.7998 0.630859 12.6562V10.6875C0.630859 10.5439 0.677002 10.426 0.769287 10.3337C0.861572 10.2415 0.979492 10.1953 1.12305 10.1953H3.0918ZM15.8887 6.01172C16.0322 6.01172 16.1501 6.05786 16.2424 6.15015C16.3347 6.24243 16.3809 6.36035 16.3809 6.50391V6.99609C16.3809 7.13965 16.3347 7.25757 16.2424 7.34985C16.1501 7.44214 16.0322 7.48828 15.8887 7.48828H6.04492C5.90137 7.48828 5.78345 7.44214 5.69116 7.34985C5.59888 7.25757 5.55273 7.13965 5.55273 6.99609V6.50391C5.55273 6.36035 5.59888 6.24243 5.69116 6.15015C5.78345 6.05786 5.90137 6.01172 6.04492 6.01172H15.8887ZM15.8887 10.9336C16.0322 10.9336 16.1501 10.9797 16.2424 11.072C16.3347 11.1643 16.3809 11.2822 16.3809 11.4258V11.918C16.3809 12.0615 16.3347 12.1794 16.2424 12.2717C16.1501 12.364 16.0322 12.4102 15.8887 12.4102H6.04492C5.90137 12.4102 5.78345 12.364 5.69116 12.2717C5.59888 12.1794 5.55273 12.0615 5.55273 11.918V11.4258C5.55273 11.2822 5.59888 11.1643 5.69116 11.072C5.78345 10.9797 5.90137 10.9336 6.04492 10.9336H15.8887ZM15.8887 1.08984C16.0322 1.08984 16.1501 1.13599 16.2424 1.22827C16.3347 1.32056 16.3809 1.43848 16.3809 1.58203V2.07422C16.3809 2.21777 16.3347 2.33569 16.2424 2.42798C16.1501 2.52026 16.0322 2.56641 15.8887 2.56641H6.04492C5.90137 2.56641 5.78345 2.52026 5.69116 2.42798C5.59888 2.33569 5.55273 2.21777 5.55273 2.07422V1.58203C5.55273 1.43848 5.59888 1.32056 5.69116 1.22827C5.78345 1.13599 5.90137 1.08984 6.04492 1.08984H15.8887Z" fill="#334155"/>
</svg>
