<svg width="24" height="24" viewBox="0 0 24 24" fill="none" xmlns="http://www.w3.org/2000/svg">
<path d="M20.4659 0.0431118L1.52904 4.19197C1.2814 4.24563 1.04638 4.34973 0.83748 4.49828C0.628578 4.64684 0.449914 4.83693 0.31175 5.05762C0.173587 5.27832 0.0786475 5.52528 0.0323863 5.78431C-0.0138749 6.04335 -0.0105461 6.30935 0.0421815 6.56703L1.24943 12.4184C1.35823 12.936 1.65881 13.3879 2.0858 13.6758C2.51279 13.9638 3.03165 14.0645 3.52953 13.956L22.4663 9.80712C22.8984 9.71466 23.2867 9.47008 23.566 9.1145C23.8453 8.75891 23.9985 8.314 24 7.85457C23.9998 7.71255 23.9853 7.57093 23.9568 7.43206L22.7495 1.58065C22.6405 1.06245 22.3393 0.610109 21.9116 0.322134C21.4839 0.0341587 20.9642 -0.0661278 20.4659 0.0431118ZM3.13711 11.9997H3.12631L1.92626 6.14952L3.83074 5.73326L5.03919 11.5834L3.13711 11.9997ZM6.91367 11.1722L5.70762 5.3195L7.6157 4.90199L8.82295 10.7496L6.91367 11.1722ZM10.7022 10.3421L9.49498 4.48948L17.0841 2.82693L18.2914 8.67959L10.7022 10.3421ZM20.8727 1.99941L22.0727 7.84957L20.1682 8.26583L18.9598 2.41567L20.8619 1.99941H20.8727ZM0.95902 15.9998L0.95902 21.9999C0.95902 22.5304 1.16131 23.0391 1.5214 23.4142C1.88148 23.7893 2.36986 24 2.8791 24H22.0799C22.5892 24 23.0775 23.7893 23.4376 23.4142C23.7977 23.0391 24 22.5304 24 21.9999V15.9998C24 15.4693 23.7977 14.9606 23.4376 14.5855C23.0775 14.2105 22.5892 13.9997 22.0799 13.9997L2.8791 13.9997C2.36986 13.9997 1.88148 14.2105 1.5214 14.5855C1.16131 14.9606 0.95902 15.4693 0.95902 15.9998ZM2.8791 21.9999L2.8791 15.9998H4.79918L4.79918 21.9999H2.8791ZM6.71927 21.9999L6.71927 15.9998L18.2398 15.9998V21.9999H6.71927ZM22.0799 15.9998V21.9999H20.1598V15.9998H22.0799Z" fill="#4B5563"/>
</svg>
