<svg width="126" height="126" viewBox="0 0 126 126" fill="none" xmlns="http://www.w3.org/2000/svg">
<rect width="126" height="126" rx="63" fill="#F1F5F9"/>
<g clip-path="url(#clip0_8513_3279)">
<path d="M54.8838 41.2308C55.8506 42.1 55.9287 43.5746 55.0596 44.5414L48.0283 52.3539C47.5986 52.8324 46.9932 53.1156 46.3486 53.1254C45.7041 53.1351 45.0889 52.891 44.6299 52.4418L40.7139 48.5355C39.8057 47.6175 39.8057 46.1332 40.7139 45.2152C41.6221 44.2972 43.1162 44.2972 44.0244 45.2152L46.1826 47.3734L51.5635 41.3968C52.4326 40.43 53.9072 40.3519 54.874 41.2211L54.8838 41.2308ZM54.8838 56.8558C55.8506 57.725 55.9287 59.1996 55.0596 60.1664L48.0283 67.9789C47.5986 68.4574 46.9932 68.7406 46.3486 68.7504C45.7041 68.7601 45.0889 68.516 44.6299 68.0668L40.7139 64.1605C39.7959 63.2425 39.7959 61.7582 40.7139 60.85C41.6318 59.9418 43.1162 59.932 44.0244 60.85L46.1826 63.0082L51.5635 57.0316C52.4326 56.0648 53.9072 55.9867 54.874 56.8558H54.8838ZM61.9053 46.8754C61.9053 45.1468 63.3018 43.7504 65.0303 43.7504H86.9053C88.6338 43.7504 90.0303 45.1468 90.0303 46.8754C90.0303 48.6039 88.6338 50.0004 86.9053 50.0004H65.0303C63.3018 50.0004 61.9053 48.6039 61.9053 46.8754ZM61.9053 62.5004C61.9053 60.7718 63.3018 59.3754 65.0303 59.3754H86.9053C88.6338 59.3754 90.0303 60.7718 90.0303 62.5004C90.0303 64.2289 88.6338 65.6254 86.9053 65.6254H65.0303C63.3018 65.6254 61.9053 64.2289 61.9053 62.5004ZM55.6553 78.1254C55.6553 76.3968 57.0518 75.0004 58.7803 75.0004H86.9053C88.6338 75.0004 90.0303 76.3968 90.0303 78.1254C90.0303 79.8539 88.6338 81.2504 86.9053 81.2504H58.7803C57.0518 81.2504 55.6553 79.8539 55.6553 78.1254ZM44.7178 73.4379C45.961 73.4379 47.1533 73.9317 48.0323 74.8108C48.9114 75.6899 49.4053 76.8822 49.4053 78.1254C49.4053 79.3686 48.9114 80.5608 48.0323 81.4399C47.1533 82.319 45.961 82.8129 44.7178 82.8129C43.4746 82.8129 42.2823 82.319 41.4032 81.4399C40.5241 80.5608 40.0303 79.3686 40.0303 78.1254C40.0303 76.8822 40.5241 75.6899 41.4032 74.8108C42.2823 73.9317 43.4746 73.4379 44.7178 73.4379Z" fill="#94A3B8"/>
</g>
<defs>
<clipPath id="clip0_8513_3279">
<rect width="50" height="50" fill="white" transform="translate(40.0293 37.5)"/>
</clipPath>
</defs>
</svg>
