<svg width="17" height="22" viewBox="0 0 17 22" fill="none" xmlns="http://www.w3.org/2000/svg">
<g clip-path="url(#clip0_3582_8111)">
<path d="M11.6914 14.0938C11.8372 14.0938 11.9102 14.1667 11.9102 14.3125V15.1875C11.9102 15.3333 11.8372 15.4062 11.6914 15.4062H7.75391C7.60807 15.4062 7.53516 15.3333 7.53516 15.1875V14.3125C7.53516 14.1667 7.60807 14.0938 7.75391 14.0938H11.6914ZM5.34766 15.625C5.22005 15.625 5.11523 15.584 5.0332 15.502C4.95117 15.4199 4.91016 15.3151 4.91016 15.1875V14.3125C4.91016 14.1849 4.95117 14.0801 5.0332 13.998C5.11523 13.916 5.22005 13.875 5.34766 13.875H6.22266C6.35026 13.875 6.45508 13.916 6.53711 13.998C6.61914 14.0801 6.66016 14.1849 6.66016 14.3125V15.1875C6.66016 15.3151 6.61914 15.4199 6.53711 15.502C6.45508 15.584 6.35026 15.625 6.22266 15.625H5.34766ZM5.34766 8.625C5.22005 8.625 5.11523 8.58398 5.0332 8.50195C4.95117 8.41992 4.91016 8.3151 4.91016 8.1875V7.3125C4.91016 7.1849 4.95117 7.08008 5.0332 6.99805C5.11523 6.91602 5.22005 6.875 5.34766 6.875H6.22266C6.35026 6.875 6.45508 6.91602 6.53711 6.99805C6.61914 7.08008 6.66016 7.1849 6.66016 7.3125V8.1875C6.66016 8.3151 6.61914 8.41992 6.53711 8.50195C6.45508 8.58398 6.35026 8.625 6.22266 8.625H5.34766ZM7.75391 8.40625C7.60807 8.40625 7.53516 8.33333 7.53516 8.1875V7.3125C7.53516 7.16667 7.60807 7.09375 7.75391 7.09375H11.6914C11.8372 7.09375 11.9102 7.16667 11.9102 7.3125V8.1875C11.9102 8.33333 11.8372 8.40625 11.6914 8.40625H7.75391ZM13.6602 4.25C13.8971 4.25 14.1022 4.33659 14.2754 4.50977C14.4486 4.68294 14.5352 4.88802 14.5352 5.125V17.375C14.5352 17.612 14.4486 17.8171 14.2754 17.9902C14.1022 18.1634 13.8971 18.25 13.6602 18.25H3.16016C2.92318 18.25 2.7181 18.1634 2.54492 17.9902C2.37174 17.8171 2.28516 17.612 2.28516 17.375V5.125C2.28516 4.88802 2.37174 4.68294 2.54492 4.50977C2.7181 4.33659 2.92318 4.25 3.16016 4.25H13.6602ZM13.2227 16.9375V5.5625H3.59766V16.9375H13.2227ZM5.97656 12.0703L4.96484 11.0586C4.89193 10.9857 4.89193 10.9128 4.96484 10.8398L5.29297 10.5117C5.36589 10.4388 5.4388 10.4388 5.51172 10.5117L6.08594 11.0859L7.37109 9.77344C7.44401 9.71875 7.51693 9.71875 7.58984 9.77344L7.91797 10.1289C7.99089 10.2018 7.99089 10.2747 7.91797 10.3477L6.16797 12.0703C6.09505 12.1432 6.03125 12.1432 5.97656 12.0703ZM11.6914 10.5938C11.8372 10.5938 11.9102 10.6667 11.9102 10.8125V11.6875C11.9102 11.8333 11.8372 11.9062 11.6914 11.9062H7.58984L8.54688 10.9766C8.63802 10.8672 8.71094 10.7396 8.76562 10.5938H11.6914Z" fill="black"/>
</g>
<defs>
<clipPath id="clip0_3582_8111">
<rect width="12.25" height="14" fill="white" transform="matrix(1 0 0 -1 2.28516 18.25)"/>
</clipPath>
</defs>
</svg>
