<svg width="51" height="43" viewBox="0 0 51 43" fill="none" xmlns="http://www.w3.org/2000/svg">
<path d="M14.8838 1.23083C15.8506 2.09997 15.9287 3.57458 15.0596 4.54138L8.02832 12.3539C7.59863 12.8324 6.99316 13.1156 6.34863 13.1254C5.7041 13.1351 5.08887 12.891 4.62988 12.4418L0.713867 8.53552C-0.194336 7.61755 -0.194336 6.13317 0.713867 5.2152C1.62207 4.29724 3.11621 4.29724 4.02441 5.2152L6.18262 7.37341L11.5635 1.39684C12.4326 0.430048 13.9072 0.351922 14.874 1.22106L14.8838 1.23083ZM14.8838 16.8558C15.8506 17.725 15.9287 19.1996 15.0596 20.1664L8.02832 27.9789C7.59863 28.4574 6.99316 28.7406 6.34863 28.7504C5.7041 28.7601 5.08887 28.516 4.62988 28.0668L0.713867 24.1605C-0.204102 23.2425 -0.204102 21.7582 0.713867 20.85C1.63184 19.9418 3.11621 19.932 4.02441 20.85L6.18262 23.0082L11.5635 17.0316C12.4326 16.0648 13.9072 15.9867 14.874 16.8558H14.8838ZM21.9053 6.87536C21.9053 5.14684 23.3018 3.75036 25.0303 3.75036H46.9053C48.6338 3.75036 50.0303 5.14684 50.0303 6.87536C50.0303 8.60388 48.6338 10.0004 46.9053 10.0004H25.0303C23.3018 10.0004 21.9053 8.60388 21.9053 6.87536ZM21.9053 22.5004C21.9053 20.7718 23.3018 19.3754 25.0303 19.3754H46.9053C48.6338 19.3754 50.0303 20.7718 50.0303 22.5004C50.0303 24.2289 48.6338 25.6254 46.9053 25.6254H25.0303C23.3018 25.6254 21.9053 24.2289 21.9053 22.5004ZM15.6553 38.1254C15.6553 36.3968 17.0518 35.0004 18.7803 35.0004H46.9053C48.6338 35.0004 50.0303 36.3968 50.0303 38.1254C50.0303 39.8539 48.6338 41.2504 46.9053 41.2504H18.7803C17.0518 41.2504 15.6553 39.8539 15.6553 38.1254ZM4.71777 33.4379C5.96098 33.4379 7.15326 33.9317 8.03234 34.8108C8.91141 35.6899 9.40527 36.8822 9.40527 38.1254C9.40527 39.3686 8.91141 40.5608 8.03234 41.4399C7.15326 42.319 5.96098 42.8129 4.71777 42.8129C3.47457 42.8129 2.28229 42.319 1.40321 41.4399C0.524133 40.5608 0.0302734 39.3686 0.0302734 38.1254C0.0302734 36.8822 0.524133 35.6899 1.40321 34.8108C2.28229 33.9317 3.47457 33.4379 4.71777 33.4379Z" fill="#94A3B8"/>
</svg>
