<svg width="15" height="15" viewBox="0 0 15 15" fill="none" xmlns="http://www.w3.org/2000/svg">
<g clip-path="url(#clip0_3777_19011)">
<path d="M3.25391 1.66406C3.37923 1.66406 3.48218 1.70435 3.56274 1.78491C3.64331 1.86548 3.68359 1.96842 3.68359 2.09375V3.8125C3.68359 3.93783 3.64331 4.04077 3.56274 4.12134C3.48218 4.2019 3.37923 4.24219 3.25391 4.24219H1.53516C1.40983 4.24219 1.30688 4.2019 1.22632 4.12134C1.14575 4.04077 1.10547 3.93783 1.10547 3.8125V2.09375C1.10547 1.96842 1.14575 1.86548 1.22632 1.78491C1.30688 1.70435 1.40983 1.66406 1.53516 1.66406H3.25391ZM3.25391 5.96094C3.37923 5.96094 3.48218 6.00122 3.56274 6.08179C3.64331 6.16235 3.68359 6.2653 3.68359 6.39062V8.10938C3.68359 8.2347 3.64331 8.33765 3.56274 8.41821C3.48218 8.49878 3.37923 8.53906 3.25391 8.53906H1.53516C1.40983 8.53906 1.30688 8.49878 1.22632 8.41821C1.14575 8.33765 1.10547 8.2347 1.10547 8.10938V6.39062C1.10547 6.2653 1.14575 6.16235 1.22632 6.08179C1.30688 6.00122 1.40983 5.96094 1.53516 5.96094H3.25391ZM3.25391 10.2578C3.37923 10.2578 3.48218 10.2981 3.56274 10.3787C3.64331 10.4592 3.68359 10.5622 3.68359 10.6875V12.4062C3.68359 12.5316 3.64331 12.6345 3.56274 12.7151C3.48218 12.7957 3.37923 12.8359 3.25391 12.8359H1.53516C1.40983 12.8359 1.30688 12.7957 1.22632 12.7151C1.14575 12.6345 1.10547 12.5316 1.10547 12.4062V10.6875C1.10547 10.5622 1.14575 10.4592 1.22632 10.3787C1.30688 10.2981 1.40983 10.2578 1.53516 10.2578H3.25391ZM14.4258 6.60547C14.5511 6.60547 14.6541 6.64575 14.7346 6.72632C14.8152 6.80688 14.8555 6.90983 14.8555 7.03516V7.46484C14.8555 7.59017 14.8152 7.69312 14.7346 7.77368C14.6541 7.85425 14.5511 7.89453 14.4258 7.89453H5.83203C5.70671 7.89453 5.60376 7.85425 5.52319 7.77368C5.44263 7.69312 5.40234 7.59017 5.40234 7.46484V7.03516C5.40234 6.90983 5.44263 6.80688 5.52319 6.72632C5.60376 6.64575 5.70671 6.60547 5.83203 6.60547H14.4258ZM14.4258 10.9023C14.5511 10.9023 14.6541 10.9426 14.7346 11.0232C14.8152 11.1038 14.8555 11.2067 14.8555 11.332V11.7617C14.8555 11.887 14.8152 11.99 14.7346 12.0706C14.6541 12.1511 14.5511 12.1914 14.4258 12.1914H5.83203C5.70671 12.1914 5.60376 12.1511 5.52319 12.0706C5.44263 11.99 5.40234 11.887 5.40234 11.7617V11.332C5.40234 11.2067 5.44263 11.1038 5.52319 11.0232C5.60376 10.9426 5.70671 10.9023 5.83203 10.9023H14.4258ZM14.4258 2.30859C14.5511 2.30859 14.6541 2.34888 14.7346 2.42944C14.8152 2.51001 14.8555 2.61296 14.8555 2.73828V3.16797C14.8555 3.29329 14.8152 3.39624 14.7346 3.47681C14.6541 3.55737 14.5511 3.59766 14.4258 3.59766H5.83203C5.70671 3.59766 5.60376 3.55737 5.52319 3.47681C5.44263 3.39624 5.40234 3.29329 5.40234 3.16797V2.73828C5.40234 2.61296 5.44263 2.51001 5.52319 2.42944C5.60376 2.34888 5.70671 2.30859 5.83203 2.30859H14.4258Z" fill="#3F51B5"/>
</g>
<defs>
<clipPath id="clip0_3777_19011">
<rect width="14" height="13.75" fill="white" transform="matrix(1 0 0 -1 0.980469 14.125)"/>
</clipPath>
</defs>
</svg>
