<svg width="60" height="85" viewBox="0 0 60 85" fill="none" xmlns="http://www.w3.org/2000/svg">
<path d="M59.181 29.9401C59.181 26.1099 58.4266 22.3172 56.9608 18.7785C55.495 15.2398 53.3466 12.0245 50.6383 9.31616C47.9299 6.60778 44.7146 4.45938 41.1759 2.99362C37.6373 1.52786 33.8445 0.773438 30.0143 0.773438C26.1841 0.773438 22.3914 1.52786 18.8527 2.99362C15.3141 4.45938 12.0988 6.60778 9.39037 9.31616C6.682 12.0245 4.5336 15.2398 3.06784 18.7785C1.60207 22.3172 0.847656 26.1099 0.847656 29.9401C0.847656 35.7193 2.55182 41.0943 5.45182 45.6276H5.41849L30.0143 84.1068L54.6102 45.6276H54.581C57.5846 40.9467 59.1812 35.5018 59.181 29.9401ZM30.0143 42.4401C26.6991 42.4401 23.5197 41.1231 21.1755 38.7789C18.8313 36.4347 17.5143 33.2553 17.5143 29.9401C17.5143 26.6249 18.8313 23.4455 21.1755 21.1013C23.5197 18.7571 26.6991 17.4401 30.0143 17.4401C33.3295 17.4401 36.509 18.7571 38.8532 21.1013C41.1974 23.4455 42.5143 26.6249 42.5143 29.9401C42.5143 33.2553 41.1974 36.4347 38.8532 38.7789C36.509 41.1231 33.3295 42.4401 30.0143 42.4401Z" fill="#FF5887" fill-opacity="0.3"/>
</svg>
