<svg width="15" height="14" viewBox="0 0 15 14" fill="none" xmlns="http://www.w3.org/2000/svg">
<path d="M2.48206 2.20135C2.48206 2.20135 2.8124 1.87101 3.47308 1.21033C4.13377 0.54964 5.40274 0.219296 7.28 0.219296C9.15726 0.219296 10.7566 0.879982 12.0779 2.20135C13.3993 3.52272 14.06 5.12204 14.06 6.9993C14.06 8.87655 13.3993 10.4759 12.0779 11.7972C10.7566 13.1186 9.15726 13.7793 7.28 13.7793C5.40274 13.7793 3.80343 13.1186 2.48206 11.7972C1.16069 10.4759 0.5 8.87655 0.5 6.9993C0.5 5.12204 1.16069 3.52272 2.48206 2.20135ZM12.1736 4.59349C11.5904 3.40881 10.6973 2.54309 9.49444 1.99631C9.87718 2.72535 10.1597 3.59107 10.3419 4.59349H12.1736ZM8.20952 2.37906C8.20952 2.37906 8.12294 2.23781 7.9498 1.95531C7.77665 1.6728 7.55339 1.53156 7.28 1.53156C7.00661 1.53156 6.69677 1.81405 6.35048 2.37906C6.00419 2.94405 5.73992 3.6822 5.55766 4.59349H9.00234C8.82008 3.6822 8.55581 2.94405 8.20952 2.37906ZM1.92161 5.90575C1.84871 6.27026 1.81226 6.63478 1.81226 6.9993C1.81226 7.36381 1.84871 7.72833 1.92161 8.09285H4.05403C4.01758 7.69188 3.99935 7.32736 3.99935 6.9993C3.99935 6.67123 4.01758 6.30672 4.05403 5.90575H1.92161ZM2.38637 9.4051C2.65976 9.98833 3.02883 10.4987 3.49359 10.9361C3.95835 11.3735 4.48234 11.7289 5.06556 12.0023C4.68282 11.2732 4.40032 10.4075 4.21806 9.4051H2.38637ZM4.21806 4.59349C4.40032 3.59107 4.68282 2.72535 5.06556 1.99631C3.86266 2.54309 2.9696 3.40881 2.38637 4.59349H4.21806ZM6.35048 11.6195C6.35048 11.6195 6.43706 11.7608 6.6102 12.0433C6.78335 12.3258 7.00661 12.467 7.28 12.467C7.55339 12.467 7.86323 12.1845 8.20952 11.6195C8.55581 11.0545 8.82008 10.3164 9.00234 9.4051H5.55766C5.73992 10.3164 6.00419 11.0545 6.35048 11.6195ZM9.19371 8.09285C9.23016 7.67365 9.24839 7.30914 9.24839 6.9993C9.24839 6.67123 9.23016 6.30672 9.19371 5.90575H5.36629C5.32984 6.30672 5.31161 6.67123 5.31161 6.9993C5.31161 7.32736 5.32984 7.69188 5.36629 8.09285H9.19371ZM9.49444 12.0023C10.6973 11.4555 11.5904 10.5898 12.1736 9.4051H10.3419C10.1597 10.4075 9.87718 11.2732 9.49444 12.0023ZM10.506 8.09285H12.6384C12.7113 7.72833 12.7477 7.36381 12.7477 6.9993C12.7477 6.63478 12.7113 6.27026 12.6384 5.90575H10.506C10.5424 6.30672 10.5606 6.67123 10.5606 6.9993C10.5606 7.32736 10.5424 7.69188 10.506 8.09285Z" fill="#94A3B8"/>
</svg>
