<svg width="10" height="10" viewBox="0 0 10 10" fill="none" xmlns="http://www.w3.org/2000/svg">
<path d="M9.13521 4.23292C9.24689 4.23292 9.33863 4.26882 9.41043 4.34061C9.48223 4.41241 9.51812 4.50415 9.51812 4.61583V5.38167C9.51812 5.49335 9.48223 5.58509 9.41043 5.65689C9.33863 5.72868 9.24689 5.76458 9.13521 5.76458H5.68896V9.21083C5.68896 9.32252 5.65306 9.41426 5.58126 9.48605C5.50947 9.55785 5.41773 9.59375 5.30604 9.59375H4.54021C4.42852 9.59375 4.33678 9.55785 4.26499 9.48605C4.19319 9.41426 4.15729 9.32252 4.15729 9.21083V5.76458H0.711042C0.599358 5.76458 0.507617 5.72868 0.43582 5.65689C0.364023 5.58509 0.328125 5.49335 0.328125 5.38167V4.61583C0.328125 4.50415 0.364023 4.41241 0.43582 4.34061C0.507617 4.26882 0.599358 4.23292 0.711042 4.23292H4.15729V0.786667C4.15729 0.674983 4.19319 0.583242 4.26499 0.511445C4.33678 0.439649 4.42852 0.40375 4.54021 0.40375H5.30604C5.41773 0.40375 5.50947 0.439649 5.58126 0.511445C5.65306 0.583242 5.68896 0.674983 5.68896 0.786667V4.23292H9.13521Z" fill="white"/>
</svg>
