<svg width="12" height="11" viewBox="0 0 12 11" fill="none" xmlns="http://www.w3.org/2000/svg">
<path d="M10.8633 4.50098C10.9886 4.50098 11.0916 4.54126 11.1721 4.62183C11.2527 4.70239 11.293 4.80534 11.293 4.93066V5.79004C11.293 5.91536 11.2527 6.01831 11.1721 6.09888C11.0916 6.17944 10.9886 6.21973 10.8633 6.21973H6.99609V10.0869C6.99609 10.2122 6.95581 10.3152 6.87524 10.3958C6.79468 10.4763 6.69173 10.5166 6.56641 10.5166H5.70703C5.58171 10.5166 5.47876 10.4763 5.39819 10.3958C5.31763 10.3152 5.27734 10.2122 5.27734 10.0869V6.21973H1.41016C1.28483 6.21973 1.18188 6.17944 1.10132 6.09888C1.02075 6.01831 0.980469 5.91536 0.980469 5.79004V4.93066C0.980469 4.80534 1.02075 4.70239 1.10132 4.62183C1.18188 4.54126 1.28483 4.50098 1.41016 4.50098H5.27734V0.633789C5.27734 0.508464 5.31763 0.405518 5.39819 0.324951C5.47876 0.244385 5.58171 0.204102 5.70703 0.204102H6.56641C6.69173 0.204102 6.79468 0.244385 6.87524 0.324951C6.95581 0.405518 6.99609 0.508464 6.99609 0.633789V4.50098H10.8633Z" fill="#94A3B8"/>
</svg>
