<svg width="24" height="24" viewBox="0 0 24 24" fill="none" xmlns="http://www.w3.org/2000/svg">
<path d="M4 7.99939L4.04 10.1164L19.5 6.06439C19.7955 5.98749 20.1046 5.97935 20.4037 6.04062C20.7028 6.10188 20.9839 6.23091 21.2253 6.41778C21.4668 6.60465 21.6621 6.84439 21.7964 7.11857C21.9307 7.39275 22.0004 7.69408 22 7.99939V15.9994C22.0006 16.3047 21.9311 16.6062 21.7969 16.8804C21.6626 17.1547 21.4672 17.3945 21.2257 17.5813C20.9842 17.7681 20.703 17.8971 20.4038 17.9581C20.1046 18.0191 19.7954 18.0107 19.5 17.9334L4 13.8814V15.9994C4 16.2646 3.89464 16.519 3.70711 16.7065C3.51957 16.894 3.26522 16.9994 3 16.9994C2.73478 16.9994 2.48043 16.894 2.29289 16.7065C2.10536 16.519 2 16.2646 2 15.9994V7.99939C2 7.73417 2.10536 7.47982 2.29289 7.29228C2.48043 7.10474 2.73478 6.99939 3 6.99939C3.26522 6.99939 3.51957 7.10474 3.70711 7.29228C3.89464 7.47982 4 7.73417 4 7.99939ZM6 11.6634V12.3434L20 15.9994V7.99939L6 11.6634Z" fill="black"/>
<path d="M7.5 14.5V16.5H9L10 15" stroke="black" stroke-linejoin="round"/>
</svg>
