<svg width="13" height="10" viewBox="0 0 13 10" fill="none" xmlns="http://www.w3.org/2000/svg">
<path d="M11.4727 0.41914C12.0876 0.41914 12.6078 0.939398 12.6078 1.55425V8.36489C12.6078 9.00339 12.0876 9.5 11.4727 9.5H1.63511C0.99661 9.5 0.5 9.00339 0.5 8.36489V1.55425C0.5 0.939398 0.99661 0.41914 1.63511 0.41914H11.4727ZM11.4727 1.55425H1.63511V2.52382C2.15537 2.97313 3.0067 3.63528 4.80395 5.05416C5.20597 5.36159 5.98635 6.11833 6.55391 6.09468C7.09781 6.11833 7.8782 5.36159 8.28022 5.05416C10.0775 3.63528 10.9288 2.97313 11.4727 2.52382V1.55425ZM1.63511 8.36489H11.4727V3.99C10.9288 4.41566 10.1484 5.03051 8.98966 5.95279C8.44575 6.35481 7.54713 7.25343 6.55391 7.22979C5.53704 7.25343 4.61476 6.35481 4.09451 5.95279C2.93575 5.03051 2.15537 4.41566 1.63511 3.99V8.36489Z" fill="black" fill-opacity="0.38"/>
</svg>
