<svg width="18" height="18" viewBox="0 0 18 18" fill="none" xmlns="http://www.w3.org/2000/svg">
<path d="M5.30176 15.9547C6.44004 16.561 7.71033 16.8771 9.00001 16.875C13.3493 16.875 16.875 13.3492 16.875 9C16.875 4.65075 13.3493 1.125 9.00001 1.125C4.65076 1.125 1.12501 4.65075 1.12501 9C1.12501 10.3387 1.45876 11.598 2.04676 12.7005C2.18395 12.9573 2.21621 13.2574 2.13676 13.5375L1.21126 16.7902L4.46476 15.8655C4.7448 15.7858 5.04482 15.8178 5.30176 15.9547ZM9.00001 18C7.5256 18.0021 6.07344 17.6404 4.77226 16.947L1.19476 17.9647C1.03417 18.0104 0.864303 18.0123 0.702725 17.9703C0.541147 17.9283 0.393715 17.8439 0.275666 17.7258C0.157616 17.6078 0.0732307 17.4604 0.0312306 17.2988C-0.0107695 17.1372 -0.00886083 16.9673 0.0367592 16.8067L1.05376 13.2292C0.359851 11.9277 -0.00210176 10.475 9.18061e-06 9C9.18061e-06 4.02975 4.02976 0 9.00001 0C13.9703 0 18 4.02975 18 9C18 13.9702 13.9703 18 9.00001 18Z" fill="#637381"/>
</svg>
