<svg width="18" height="18" viewBox="0 0 18 18" fill="none" xmlns="http://www.w3.org/2000/svg">
<path d="M5.30176 15.9547C6.44004 16.561 7.71033 16.8771 9.00001 16.875C13.3493 16.875 16.875 13.3492 16.875 9C16.875 4.65075 13.3493 1.125 9.00001 1.125C4.65076 1.125 1.12501 4.65075 1.12501 9C1.12501 10.3387 1.45876 11.598 2.04676 12.7005C2.18395 12.9573 2.21621 13.2574 2.13676 13.5375L1.21126 16.7902L4.46476 15.8655C4.7448 15.7858 5.04482 15.8178 5.30176 15.9547ZM9.00001 18C7.5256 18.0021 6.07344 17.6404 4.77226 16.947L1.19476 17.9647C1.03417 18.0104 0.864303 18.0123 0.702725 17.9703C0.541147 17.9283 0.393715 17.8439 0.275666 17.7258C0.157616 17.6078 0.0732307 17.4604 0.0312306 17.2988C-0.0107695 17.1372 -0.00886083 16.9673 0.0367592 16.8067L1.05376 13.2292C0.359851 11.9277 -0.00210176 10.475 9.18061e-06 9C9.18061e-06 4.02975 4.02976 0 9.00001 0C13.9703 0 18 4.02975 18 9C18 13.9702 13.9703 18 9.00001 18ZM5.62501 7.3125C5.62501 7.16332 5.68427 7.02024 5.78976 6.91475C5.89525 6.80926 6.03833 6.75 6.18751 6.75H11.8125C11.9617 6.75 12.1048 6.80926 12.2103 6.91475C12.3157 7.02024 12.375 7.16332 12.375 7.3125C12.375 7.46168 12.3157 7.60476 12.2103 7.71025C12.1048 7.81574 11.9617 7.875 11.8125 7.875H6.18751C6.03833 7.875 5.89525 7.81574 5.78976 7.71025C5.68427 7.60476 5.62501 7.46168 5.62501 7.3125ZM5.62501 10.6875C5.62501 10.5383 5.68427 10.3952 5.78976 10.2898C5.89525 10.1843 6.03833 10.125 6.18751 10.125H9.56251C9.71169 10.125 9.85477 10.1843 9.96026 10.2898C10.0657 10.3952 10.125 10.5383 10.125 10.6875C10.125 10.8367 10.0657 10.9798 9.96026 11.0852C9.85477 11.1907 9.71169 11.25 9.56251 11.25H6.18751C6.03833 11.25 5.89525 11.1907 5.78976 11.0852C5.68427 10.9798 5.62501 10.8367 5.62501 10.6875Z" fill="#637381"/>
</svg>
