<svg width="80" height="80" viewBox="0 0 80 80" fill="none" xmlns="http://www.w3.org/2000/svg">
<path fill-rule="evenodd" clip-rule="evenodd" d="M40 9.53125C22.3959 9.53125 8.75 22.4263 8.75 39.8438C8.75 48.9543 12.4838 56.8268 18.5643 62.2644C19.0747 62.7213 19.3828 63.3613 19.4037 64.0463L19.5739 69.605C19.6283 71.3781 21.4598 72.5319 23.0823 71.8156L29.285 69.0775C29.8108 68.8456 30.4 68.8025 30.9541 68.955C33.8044 69.7388 36.838 70.1563 40 70.1563C57.6041 70.1563 71.25 57.2613 71.25 39.8438C71.25 22.4263 57.6041 9.53125 40 9.53125Z" fill="url(#paint0_radial_4951_4190)"/>
<path fill-rule="evenodd" clip-rule="evenodd" d="M21.2354 48.7076L30.4151 34.1439C31.8753 31.827 35.0021 31.2501 37.1931 32.8933L44.4941 38.3691C45.164 38.8716 46.0857 38.8689 46.7528 38.3626L56.6132 30.8792C57.9293 29.8804 59.6473 31.4554 58.7665 32.8531L49.5868 47.417C48.1265 49.7338 44.9996 50.3108 42.8088 48.6675L35.5076 43.1916C34.8378 42.6892 33.916 42.6919 33.249 43.1981L23.3885 50.6816C22.0725 51.6803 20.3545 50.1053 21.2354 48.7076Z" fill="white"/>
<defs>
<radialGradient id="paint0_radial_4951_4190" cx="0" cy="0" r="1" gradientUnits="userSpaceOnUse" gradientTransform="translate(20.7796 71.6969) scale(68.0997 68.0996)">
<stop stop-color="#0099FF"/>
<stop offset="0.609754" stop-color="#A033FF"/>
<stop offset="0.934823" stop-color="#FF5280"/>
<stop offset="1" stop-color="#FF7061"/>
</radialGradient>
</defs>
</svg>
