<svg width="15" height="14" viewBox="0 0 15 14" fill="none" xmlns="http://www.w3.org/2000/svg">
<path d="M5.36629 3.39059V3.82801C5.36629 3.90091 5.33895 3.97381 5.28427 4.04672L5.01089 4.29276C4.95621 4.34744 4.88331 4.37478 4.79218 4.37478H4.35476C4.28185 4.37478 4.21351 4.34744 4.14972 4.29276C4.08593 4.23809 4.05403 4.16518 4.05403 4.07405C4.05403 3.98293 4.08137 3.91002 4.13605 3.85535L4.84685 3.17188C4.90153 3.09897 4.96988 3.06252 5.0519 3.06252C5.13391 3.06252 5.20681 3.09442 5.2706 3.15821C5.33439 3.222 5.36629 3.29946 5.36629 3.39059ZM2.48206 2.20135C2.48206 2.20135 2.8124 1.87101 3.47308 1.21033C4.13377 0.54964 5.40274 0.219296 7.28 0.219296C9.15726 0.219296 10.7566 0.879982 12.0779 2.20135C13.3993 3.52272 14.06 5.12204 14.06 6.9993C14.06 8.87655 13.3993 10.4759 12.0779 11.7972C10.7566 13.1186 9.15726 13.7793 7.28 13.7793C5.40274 13.7793 3.80343 13.1186 2.48206 11.7972C1.16069 10.4759 0.5 8.87655 0.5 6.9993C0.5 5.12204 1.16069 3.52272 2.48206 2.20135ZM12.0643 9.62381C12.2101 9.35043 12.3377 9.05881 12.447 8.74897H11.9002C11.7727 8.74897 11.6724 8.71252 11.5995 8.63962L10.7247 7.73744C10.5606 7.59164 10.5606 7.43672 10.7247 7.27268L11.0527 6.94462V6.69857C11.0527 6.60744 11.0254 6.53454 10.9707 6.47986L10.7247 6.23381C10.6518 6.16091 10.5789 6.12446 10.506 6.12446H10.0685C9.97742 6.12446 9.89996 6.09712 9.83617 6.04244C9.77238 5.98776 9.74048 5.91486 9.74048 5.82373C9.74048 5.7326 9.77694 5.6597 9.84984 5.60502L10.0959 5.35897C10.1506 5.28607 10.2235 5.24962 10.3146 5.24962H11.1894C11.2806 5.24962 11.3535 5.22228 11.4081 5.1676C11.4628 5.11293 11.4902 5.04002 11.4902 4.94889V4.70285C11.4902 4.61172 11.4628 4.53426 11.4081 4.47047C11.3535 4.40668 11.2806 4.37478 11.1894 4.37478H10.1779C10.0685 4.37478 9.96831 4.42035 9.87718 4.51147C9.78605 4.6026 9.74048 4.70285 9.74048 4.8122V4.94889C9.74048 5.1676 9.64024 5.3043 9.43976 5.35897L8.59226 5.6597C8.4829 5.69615 8.42823 5.75994 8.42823 5.85107V5.90575C8.42823 6.05156 8.35532 6.12446 8.20952 6.12446H7.7721C7.62629 6.12446 7.55339 6.05156 7.55339 5.90575C7.55339 5.75994 7.48048 5.68704 7.33468 5.68704H7.25266C7.16153 5.68704 7.09774 5.7326 7.06129 5.82373L6.7879 6.34317C6.715 6.48897 6.58742 6.56188 6.40516 6.56188H5.80371C5.67613 6.56188 5.57133 6.52087 5.48931 6.43885C5.4073 6.35684 5.36629 6.25204 5.36629 6.12446V5.44099C5.36629 5.31341 5.41185 5.21317 5.50298 5.14026L6.04976 4.59349C6.17734 4.44768 6.24113 4.28365 6.24113 4.10139C6.24113 3.99204 6.29581 3.91914 6.40516 3.88268L7.49871 3.52728C7.53516 3.50906 7.57161 3.48172 7.60806 3.44526L8.34621 2.73446C8.40089 2.66156 8.42823 2.58865 8.42823 2.51575C8.42823 2.46107 8.41911 2.41551 8.40089 2.37906C8.38266 2.3426 8.35988 2.31071 8.33254 2.28337C8.3052 2.25603 8.27331 2.23325 8.23686 2.21502C8.2004 2.1968 8.16395 2.18768 8.1275 2.18768H7.55339L7.11597 2.6251V2.84381C7.11597 2.98962 7.04306 3.06252 6.89726 3.06252H6.45984C6.31403 3.06252 6.24113 2.98962 6.24113 2.84381V2.29704C6.24113 2.22414 6.26847 2.16946 6.32315 2.13301L7.11597 1.53156C5.6579 1.58623 4.40944 2.14212 3.37056 3.19922C2.33169 4.25631 1.81226 5.52301 1.81226 6.9993C1.81226 8.51204 2.34536 9.80151 3.41157 10.8677C4.47778 11.9339 5.76726 12.467 7.28 12.467C7.31645 12.467 7.40758 12.467 7.55339 12.467V12.2483C7.55339 12.1754 7.53516 12.1071 7.49871 12.0433C7.46226 11.9795 7.41214 11.9248 7.34835 11.8793C7.28456 11.8337 7.2071 11.8109 7.11597 11.8109H6.56919C6.20468 11.8109 5.88573 11.7107 5.61234 11.5102L4.98355 11.0454C4.65548 10.7903 4.49145 10.4622 4.49145 10.0612V9.4051C4.49145 8.93123 4.69194 8.57583 5.0929 8.33889L6.26847 7.62809C6.46895 7.50051 6.68766 7.43672 6.9246 7.43672H7.7721C8.08194 7.43672 8.34621 7.53696 8.56492 7.73744L9.76782 8.74897H10.2599C10.4969 8.74897 10.7065 8.8401 10.8887 9.02236L11.3535 9.48712C11.4446 9.57825 11.5631 9.62381 11.7089 9.62381H12.0643Z" fill="white"/>
</svg>
