<svg width="24" height="24" viewBox="0 0 24 24" fill="none" xmlns="http://www.w3.org/2000/svg">
<g clip-path="url(#clip0_6464_1468)">
<path d="M11.0766 3.075C11.1328 3.075 11.2031 3.10313 11.2641 3.1875C10.9922 2.79844 11.5688 2.96719 11.6016 2.59688C11.9297 2.35313 11.8125 2.19375 11.9062 2.18437L12.0094 2.1C11.8078 2.175 11.7375 2.18906 11.6812 2.18906H11.5875C11.5172 2.18906 11.4 2.20312 11.1234 2.2875C10.4906 2.33437 10.0359 3.01875 9.82031 3.0375C9.6 3.15469 9.60938 3.17813 9.66094 3.17813C9.675 3.17813 9.69375 3.17344 9.7125 3.17344C9.73125 3.17344 9.74531 3.16875 9.75937 3.16875C9.81094 3.16875 9.79688 3.19219 9.49688 3.33281C9.56719 3.35156 8.97188 3.61406 8.96719 4.02656C8.94844 4.18594 9.01406 4.29375 9.12188 4.29375C9.21563 4.29375 9.33281 4.22344 9.45938 4.04531C9.88125 3.55781 10.7719 3.51094 11.1562 3.21562C10.9172 3.19687 10.9641 3.075 11.0766 3.075ZM8.93438 3.23906C8.89219 3.23906 8.94844 3.1875 9.00937 3.13594C9.075 3.08438 9.15 3.03281 9.15 3.03281L9.14531 3.0375C9.39844 2.93906 9.24375 2.91562 9.37969 2.85H9.37031C9.34219 2.85 9.39375 2.8125 9.44062 2.77031C9.4875 2.73281 9.52969 2.69063 9.4875 2.69063C9.46406 2.69063 9.40312 2.70469 9.3 2.74687C9.33281 2.7 9.45938 2.66719 9.6375 2.56875C9.37969 2.65312 9.17813 2.70469 9.15469 2.70469C9.13594 2.70469 9.24375 2.66719 9.56719 2.56875C9.58125 2.56875 9.59531 2.57344 9.60469 2.57344C9.6375 2.57344 9.65156 2.56406 9.64688 2.55469C9.64219 2.54531 9.62344 2.54063 9.59063 2.54063C9.12656 2.57813 8.77969 2.86875 8.88281 2.90625C8.94375 2.8875 8.98594 2.87813 9.01406 2.87813C9.075 2.87813 9.04687 2.92969 8.925 3.00469C8.98125 3.13594 7.9875 3.47344 7.875 3.59531C7.93125 3.5625 7.96875 3.55313 7.9875 3.55313C8.0625 3.55313 7.96406 3.69844 7.86563 3.76875C7.92656 3.825 7.97344 3.84375 8.01094 3.84375C8.10937 3.84375 8.15156 3.70781 8.23594 3.66562C8.25469 3.70312 8.27344 3.72188 8.29688 3.72188C8.37656 3.72188 8.475 3.525 8.55469 3.42188C8.57812 3.44531 8.60625 3.46406 8.64375 3.46406C8.71875 3.46406 8.83125 3.40313 9.00937 3.22969C8.97187 3.23438 8.94375 3.23906 8.93438 3.23906ZM7.85625 4.10156C7.6875 4.20469 7.59844 4.24687 7.56094 4.24687C7.49063 4.24687 7.58438 4.11563 7.66875 3.97969C7.75313 3.84844 7.82812 3.71719 7.72031 3.71719C7.66875 3.71719 7.575 3.74531 7.425 3.82031C7.01719 4.09219 6.32812 4.84219 6.02344 4.84219H5.99531C6.4875 4.48125 6.34219 3.77344 7.03125 3.59062C7.71094 3.20156 8.175 3.32344 8.77969 2.87813C8.60156 2.96719 8.33906 3.06563 8.27813 3.06563C8.24063 3.06563 8.29687 3.01875 8.54062 2.90156C8.51719 2.90625 8.49844 2.91094 8.48438 2.91094C8.32031 2.91094 9.5625 2.46563 9.62344 2.45625C9.1125 2.52656 8.2875 2.95312 8.175 2.95312C8.16094 2.95312 8.16094 2.94844 8.16094 2.93906C8.17969 2.925 8.17969 2.91563 8.16094 2.91563C8.1 2.91563 7.84687 3 7.58906 3.08438C7.33594 3.16875 7.07813 3.25781 7.02188 3.25781C7.00313 3.25781 7.00312 3.24844 7.03125 3.22969C4.81875 4.48594 2.97187 6.60469 2.39531 9.11719C2.63437 9.66562 2.47031 10.7109 2.86406 11.0156C3.31406 11.3953 2.47969 12.4969 2.7 13.1766C2.925 14.4047 3.89531 15.2438 3.99844 16.5C4.17656 17.3625 4.82813 18.4172 5.1 18.9656C5.30625 19.1719 5.87344 19.7672 5.97188 19.7672C6.00938 19.7672 5.98594 19.6781 5.83594 19.4391C5.74219 19.1719 5.19844 18.4734 5.46094 18.4734C5.475 18.4734 5.48906 18.4734 5.50781 18.4781C5.18437 18.15 6.225 18.2391 5.49844 17.7938C5.41406 17.6906 5.39531 17.6578 5.41406 17.6578C5.4375 17.6578 5.50312 17.6953 5.57812 17.7328C5.65781 17.7703 5.75156 17.8078 5.82656 17.8078C5.94375 17.8078 6.02344 17.7281 5.97656 17.4375C5.99531 17.4469 6.01406 17.4469 6.02813 17.4469C6.15 17.4469 6.10781 17.2078 6.11719 16.9688C6.12656 16.7297 6.1875 16.4906 6.51562 16.4906C6.55313 16.4906 6.59531 16.4953 6.6375 16.5C7.39688 16.0875 6.73594 14.9484 7.60781 14.5312C7.575 13.5844 6.30469 13.5375 5.82656 13.1531C5.74688 13.2 5.67188 13.2141 5.59688 13.2141C5.5125 13.2141 5.4375 13.1953 5.37187 13.1719C5.30625 13.1531 5.24531 13.1297 5.20312 13.1297C5.19375 13.1297 5.18438 13.1297 5.175 13.1344C5.99063 12.9188 5.39531 11.7844 4.72031 11.7844H4.67344C4.62187 11.2922 4.36875 11.4797 4.34062 11.0719C4.29844 11.0953 4.25625 11.1047 4.21406 11.1047C4.10156 11.1047 3.99844 11.025 3.90938 10.95C3.82031 10.8703 3.74531 10.7953 3.67969 10.7953C3.62812 10.7953 3.58125 10.8469 3.53906 10.9969C3.58594 10.7672 3.57187 10.6922 3.525 10.6922C3.47812 10.6922 3.39375 10.7719 3.3 10.8516C3.21094 10.9313 3.10781 11.0109 3.02812 11.0109H3.00469C2.45625 10.6219 3.00937 9.93281 2.71875 9.40313C2.90625 9.20156 2.98125 8.85938 2.89687 8.85938C2.85469 8.85938 2.77031 8.94375 2.63906 9.17344C2.45156 8.69531 2.94844 7.6125 3.37031 7.55156C3.38438 7.55156 3.39375 7.54688 3.40781 7.54688C3.48281 7.54688 3.55781 7.58437 3.62344 7.66406C3.66094 7.88437 3.56719 8.34844 3.60469 8.34844C3.62344 8.34844 3.66094 8.25469 3.75469 8.01094C3.87656 7.45312 4.72969 7.05 4.81875 6.70781C4.82344 6.7125 4.82344 6.7125 4.82812 6.7125C4.92656 6.7125 5.55937 6.15469 5.83594 6.09375C5.94375 5.98594 6.01875 5.94844 6.075 5.94844C6.13594 5.94844 6.16875 5.99531 6.19219 6.0375C6.21563 6.08438 6.23438 6.12656 6.25781 6.12656C6.27656 6.12656 6.3 6.09844 6.34219 6.01875C6.19688 5.73281 6.57188 5.46094 6.46875 5.46094C6.43125 5.46094 6.31875 5.49844 6.08906 5.59219C6.05156 5.61094 6.03281 5.61563 6.02344 5.61563C5.99531 5.61563 6.10781 5.54062 6.27188 5.46562C6.43594 5.39062 6.64219 5.31563 6.81562 5.31563C6.9 5.31563 6.975 5.33438 7.03125 5.38125C7.75781 5.20781 7.35938 4.96875 7.39688 4.96875H7.40625C7.6125 4.84688 7.55156 4.3875 7.85625 4.10156ZM4.60781 6.01875C4.59844 6.01875 4.64062 5.95781 4.78125 5.78438C5.07187 5.56875 5.30625 5.42344 5.03906 5.28281C5.15625 5.23125 5.26875 5.17031 5.37656 5.10469C5.37187 5.33438 5.17969 5.89219 5.07656 5.89219C5.05313 5.89219 5.02969 5.85938 5.02031 5.78906C5.08125 5.68125 5.08594 5.63906 5.0625 5.63906C5.025 5.63906 4.91719 5.73281 4.81406 5.83125C4.71094 5.92031 4.61719 6.01875 4.60781 6.01875ZM4.875 6.14531C4.74844 6.14531 4.77187 6.06562 5.16094 5.98594C5.32969 5.9625 5.19844 5.97188 5.4 5.925C5.20312 6.08438 4.98281 6.14531 4.875 6.14531ZM12.1641 5.67188C12.2203 5.6625 12.2625 5.6625 12.2953 5.6625C12.4312 5.6625 12.3703 5.71875 12.2906 5.775C12.2109 5.83125 12.1125 5.8875 12.1688 5.8875C12.2016 5.8875 12.2906 5.86875 12.4734 5.81719C13.3969 5.75156 12.1125 4.96875 12.3187 4.70625L12.2625 4.6875C11.8828 5.17031 12.5156 5.17969 12.1641 5.67188ZM11.7797 5.69063C11.8453 5.69063 11.9297 5.61563 12.0187 5.40469C12.1406 5.25938 12.0891 5.24063 11.9578 5.17031C11.5969 5.26406 11.6297 5.69063 11.7797 5.69063ZM15.0141 7.17656C15 7.17656 14.9906 7.18125 14.9813 7.18594C15.0188 7.19531 15.0562 7.20469 15.0938 7.20469C15.0562 7.18594 15.0328 7.17656 15.0141 7.17656ZM21.3094 8.34375C21.3891 8.51719 21.4312 8.5875 21.4359 8.5875C21.4687 8.5875 20.8453 7.06875 20.5875 6.79688C19.2422 4.58437 17.0297 2.89219 14.5078 2.25938H14.5031C14.4375 2.25938 14.5125 2.29219 14.6016 2.325C14.6906 2.35781 14.7984 2.39062 14.7984 2.39062C14.7984 2.39062 14.7281 2.36719 14.5125 2.30625C14.2734 2.23594 14.0297 2.18438 13.7812 2.16563C13.7391 2.17969 14.8078 2.60156 15.525 2.82188C15.2859 2.74688 15.0375 2.68125 14.9766 2.68125C14.9344 2.68125 14.9766 2.70938 15.15 2.78438C14.9391 2.72344 14.85 2.69531 14.8406 2.69531C14.8266 2.69531 15.1219 2.79375 15.3984 2.89219C15.6797 2.99063 15.9469 3.08906 15.8719 3.08906C15.8531 3.08906 15.8016 3.07969 15.7219 3.06563C15.9609 3.19688 16.0453 3.24844 16.0312 3.24844C16.0078 3.24844 15.7125 3.10781 15.4078 2.96719C15.1078 2.82656 14.8031 2.68594 14.7609 2.68594C14.7375 2.68594 14.7984 2.73281 15.0047 2.85469C15.2859 2.97656 15.5672 3.09844 15.4875 3.09844C15.45 3.09844 15.3422 3.075 15.1312 3.01406C15.6 3.25313 14.7984 3.15938 15.0703 3.48281C14.9203 3.34219 14.8594 3.29531 14.8453 3.29531C14.8313 3.29531 14.8687 3.35156 14.9062 3.40781C14.9438 3.46406 14.9719 3.52031 14.9391 3.52031H14.9297C15.2578 3.87656 14.7 3.55781 15.0984 3.87656C14.7984 3.74062 14.2875 3.51562 14.5172 3.51562C14.5734 3.51562 14.6812 3.52969 14.85 3.56719C14.5453 3.21094 13.6828 3.19688 13.6641 3.15469C13.4484 3.16875 13.4438 3.33281 13.4813 3.63281C13.4766 4.10625 13.0125 4.11562 13.0734 4.3875C13.0734 4.38281 13.0781 4.38281 13.0781 4.38281C13.0875 4.38281 13.0922 4.47656 13.1203 4.575C13.1531 4.66875 13.2094 4.76719 13.3312 4.76719C13.3969 4.76719 13.4812 4.73906 13.5844 4.66875C13.7297 4.93125 13.8609 5.025 13.9641 5.025C14.1187 5.025 14.2125 4.81406 14.2031 4.62187C14.0344 4.52812 13.8141 3.75 14.0578 3.75C14.0953 3.75 14.1422 3.76875 14.2031 3.81094C13.8234 4.74375 15.7031 4.12031 14.6391 4.54688C14.8781 4.86094 14.4891 4.84687 14.6016 5.22656C14.4187 5.27813 14.2172 5.325 14.0391 5.325C13.7766 5.325 13.575 5.2125 13.5984 4.81875C13.2703 4.99219 13.9266 5.57812 13.275 5.57812H13.2375C12.9234 6.15469 11.7469 5.95781 12.6703 6.56719C12.7219 6.83438 12.5531 6.88125 12.3375 6.88125C12.2813 6.88125 12.2203 6.87656 12.1594 6.87188C12.0984 6.86719 12.0375 6.86719 11.9813 6.86719C11.7375 6.86719 11.5641 6.92812 11.7141 7.30781C11.6062 7.70156 11.8594 7.875 12.1688 7.875C12.5438 7.875 13.0031 7.63125 13.0359 7.22812C13.2375 6.92344 13.4953 6.79688 13.7625 6.79688C14.1844 6.79688 14.6297 7.11562 14.9203 7.50937C14.9437 7.54687 14.9625 7.56094 14.9719 7.56094C14.9953 7.56094 14.9719 7.46719 14.9625 7.37344C14.9531 7.29844 14.9531 7.22344 14.9813 7.2C14.5641 7.08281 14.2453 6.57656 14.3859 6.57656C14.4328 6.57656 14.5312 6.63281 14.6906 6.78281H14.7141C14.9766 6.78281 15.1828 6.98906 15.3422 7.19531C15.5062 7.40156 15.6281 7.60781 15.7359 7.60781C15.7781 7.60781 15.8203 7.57031 15.8578 7.48594C15.8391 7.45781 15.7922 7.37812 15.7687 7.29844C15.7406 7.2 15.7406 7.10156 15.8672 7.10156C15.9188 7.10156 15.9891 7.12031 16.0875 7.15781C16.4063 7.07344 15.8859 6.24375 16.3078 6.24375C16.35 6.24375 16.4016 6.25313 16.4672 6.27188C16.4625 6.41719 16.5281 6.46875 16.5891 6.46875C16.7109 6.46875 16.8328 6.29531 16.5375 6.24375C16.65 6.13594 16.7156 6.09375 16.7625 6.09375C16.9266 6.09375 16.7953 6.6375 17.3625 6.6375C17.5547 7.09219 15.6938 6.67031 16.2891 7.54219C16.425 7.64062 16.5938 7.65937 16.7578 7.65937C16.8094 7.65937 16.8563 7.65938 16.9031 7.65469C16.95 7.65469 16.9969 7.65 17.0391 7.65C17.3297 7.65 17.5359 7.72031 17.4094 8.32031C17.2547 8.43281 17.0813 8.47031 16.9031 8.47031C16.7438 8.47031 16.5844 8.44219 16.4297 8.41406C16.275 8.38594 16.125 8.35781 15.9891 8.35781C15.7781 8.35781 15.6094 8.42813 15.5062 8.67188C14.9578 8.44687 14.2359 8.4375 14.3063 7.75781C13.35 7.89375 12.3516 7.82344 11.6484 8.40937C11.6063 9.26719 10.1344 9.54375 10.4906 10.5187C10.0641 11.4187 11.0063 12.6797 11.9672 12.6797C12 12.6797 12.0375 12.6797 12.0703 12.675C12.5953 12.6703 13.125 12.4359 13.5891 12.4359C13.8281 12.4359 14.0438 12.4969 14.2313 12.6844C14.2734 12.6797 14.3109 12.675 14.3438 12.675C15.0609 12.675 14.1141 13.8141 14.9719 14.0062C15.75 14.8125 14.4937 15.6422 15.1078 16.4156C15.1734 17.0203 15.4734 17.5266 15.4734 18.1172C15.5531 18.1266 15.6281 18.1312 15.7078 18.1312C16.6969 18.1312 17.3156 17.2687 17.8969 16.6172C17.7187 15.6422 19.2797 15.45 18.7453 14.3578C18.4969 13.1625 19.9219 12.4547 19.8422 11.2594C19.8562 11.0906 19.8094 11.0391 19.7391 11.0391C19.6688 11.0391 19.5656 11.0906 19.4672 11.1375C19.3641 11.1891 19.2516 11.2359 19.1625 11.2359C19.0453 11.2359 18.9563 11.1562 18.9469 10.8937C18.2578 10.2516 17.9438 9.37969 17.3016 8.67188C18.1359 9.075 18.6094 9.98438 18.9938 10.8094C19.0266 10.8188 19.0594 10.8234 19.0969 10.8234C19.7766 10.8234 20.7234 9.19688 19.6922 8.80313C19.6359 8.95781 19.5609 9.01406 19.4719 9.01406C19.3172 9.01406 19.1391 8.82656 19.0125 8.64375C18.8859 8.45625 18.8203 8.26875 18.8906 8.26875C18.9375 8.26875 19.0406 8.34375 19.2188 8.54062C19.4203 8.66719 19.6172 8.7 19.8234 8.7C20.025 8.7 20.2313 8.66719 20.4469 8.64844C20.7188 8.75625 20.8359 9.10312 20.9203 9.10312C20.9344 9.10312 20.9531 9.08906 20.9672 9.05625C21.1828 9.57187 21.4312 10.4906 21.6562 10.7391C21.5391 9.95156 21.5109 9.11719 21.3094 8.34375ZM18.6937 7.26094C18.1641 7.125 17.9906 6.46875 17.5734 6.08906C17.5687 5.98594 17.7234 6.00469 17.6859 5.83125C18.2484 6.00469 18.0656 6.17813 18.0141 6.21094C18.2203 6.55313 18.7969 6.7875 18.6937 7.26094ZM11.4141 3.69375C10.9031 3.84375 10.8328 3.67969 10.9219 3.99375C10.9594 4.02187 11.0297 4.03125 11.1 4.03125C11.3484 4.03594 11.6859 3.89063 11.4141 3.69375ZM18.9188 16.6078C19.5891 16.0406 19.6734 15.3656 19.7062 14.6813C19.4062 15.2672 18.5156 15.9141 18.9188 16.6078ZM15.8672 7.46719C15.8625 7.47188 15.8625 7.47187 15.8625 7.47656C15.8672 7.48594 15.8719 7.48594 15.8719 7.48594C15.8719 7.48594 15.8719 7.48125 15.8672 7.46719ZM12 0C5.37188 0 0 5.37188 0 12C0 18.6281 5.37188 24 12 24C18.6281 24 24 18.6281 24 12C24 5.37188 18.6281 0 12 0ZM12 23.0766C5.88281 23.0766 0.923438 18.1172 0.923438 12C0.923438 5.88281 5.88281 0.923438 12 0.923438C18.1172 0.923438 23.0766 5.88281 23.0766 12C23.0766 18.1172 18.1172 23.0766 12 23.0766Z" fill="white"/>
</g>
<defs>
<clipPath id="clip0_6464_1468">
<rect width="24" height="24" fill="white"/>
</clipPath>
</defs>
</svg>
