<svg width="15" height="10" viewBox="0 0 15 10" fill="none" xmlns="http://www.w3.org/2000/svg">
<path d="M7.70508 2.56099V2.58463C9.17126 2.58463 10.3537 3.76704 10.3537 5.20957C10.3537 6.67575 9.17126 7.85815 7.70508 7.85815C6.2389 7.85815 5.05649 6.67575 5.05649 5.20957C5.05649 4.94944 5.10379 4.71296 5.17473 4.47648C5.34027 4.59472 5.57675 4.64202 5.81323 4.64202C6.52267 4.64202 7.13752 4.05081 7.13752 3.31772C7.11388 3.10489 7.06658 2.86841 6.94834 2.67923C7.18482 2.60828 7.44495 2.58463 7.70508 2.56099ZM14.4211 4.8785C14.4684 4.97309 14.4921 5.09133 14.4921 5.23322C14.4921 5.35146 14.4684 5.4697 14.4211 5.56429C13.1441 8.07099 10.5901 9.75 7.70508 9.75C4.79637 9.75 2.24237 8.07099 0.965378 5.56429C0.918082 5.4697 0.894433 5.35146 0.894433 5.20957C0.894433 5.09133 0.918082 4.97309 0.965378 4.8785C2.24237 2.3718 4.79637 0.66914 7.70508 0.66914C10.5901 0.66914 13.1441 2.3718 14.4211 4.8785ZM7.70508 8.61489C10.0226 8.61489 12.1746 7.31425 13.3097 5.20957C12.1746 3.10489 10.0226 1.80425 7.70508 1.80425C5.36392 1.80425 3.21194 3.10489 2.07684 5.20957C3.21194 7.31425 5.36392 8.61489 7.70508 8.61489Z" fill="#334155"/>
</svg>
