<svg width="16" height="11" viewBox="0 0 16 11" fill="none" xmlns="http://www.w3.org/2000/svg">
<path d="M8.13672 2.17773V2.20508C9.83203 2.20508 11.1992 3.57227 11.1992 5.24023C11.1992 6.93555 9.83203 8.30273 8.13672 8.30273C6.44141 8.30273 5.07422 6.93555 5.07422 5.24023C5.07422 4.93945 5.12891 4.66602 5.21094 4.39258C5.40234 4.5293 5.67578 4.58398 5.94922 4.58398C6.76953 4.58398 7.48047 3.90039 7.48047 3.05273C7.45312 2.80664 7.39844 2.5332 7.26172 2.31445C7.53516 2.23242 7.83594 2.20508 8.13672 2.17773ZM15.9023 4.85742C15.957 4.9668 15.9844 5.10352 15.9844 5.26758C15.9844 5.4043 15.957 5.54102 15.9023 5.65039C14.4258 8.54883 11.4727 10.4902 8.13672 10.4902C4.77344 10.4902 1.82031 8.54883 0.34375 5.65039C0.289062 5.54102 0.261719 5.4043 0.261719 5.24023C0.261719 5.10352 0.289062 4.9668 0.34375 4.85742C1.82031 1.95898 4.77344 -0.00976562 8.13672 -0.00976562C11.4727 -0.00976562 14.4258 1.95898 15.9023 4.85742ZM8.13672 9.17773C10.8164 9.17773 13.3047 7.67383 14.6172 5.24023C13.3047 2.80664 10.8164 1.30273 8.13672 1.30273C5.42969 1.30273 2.94141 2.80664 1.62891 5.24023C2.94141 7.67383 5.42969 9.17773 8.13672 9.17773Z" fill="#0F172A"/>
</svg>
