<svg width="14" height="15" viewBox="0 0 14 15" fill="none" xmlns="http://www.w3.org/2000/svg">
<g clip-path="url(#clip0_3777_19023)">
<path d="M12.0312 0.375C12.264 0.375 12.4654 0.460042 12.6355 0.630127C12.8056 0.800212 12.8906 1.00163 12.8906 1.23438V13.2656C12.8906 13.4984 12.8056 13.6998 12.6355 13.8699C12.4654 14.04 12.264 14.125 12.0312 14.125H2.57812C2.09473 14.125 1.68742 13.9594 1.3562 13.6282C1.02498 13.297 0.859375 12.8896 0.859375 12.4062V2.09375C0.859375 1.61035 1.02498 1.20304 1.3562 0.871826C1.68742 0.540608 2.09473 0.375 2.57812 0.375H12.0312ZM11.6016 12.8359V1.66406H2.57812C2.4528 1.66406 2.34985 1.70435 2.26929 1.78491C2.18872 1.86548 2.14844 1.96842 2.14844 2.09375V12.4062C2.14844 12.5316 2.18872 12.6345 2.26929 12.7151C2.34985 12.7957 2.4528 12.8359 2.57812 12.8359H11.6016ZM3.86719 11.5469C3.74186 11.5469 3.63892 11.5066 3.55835 11.426C3.47778 11.3455 3.4375 11.2425 3.4375 11.1172C3.4375 10.9919 3.47778 10.8889 3.55835 10.8083C3.63892 10.7278 3.74186 10.6875 3.86719 10.6875H9.88281C10.0081 10.6875 10.1111 10.7278 10.1917 10.8083C10.2722 10.8889 10.3125 10.9919 10.3125 11.1172C10.3125 11.2425 10.2722 11.3455 10.1917 11.426C10.1111 11.5066 10.0081 11.5469 9.88281 11.5469H3.86719ZM9.15771 8.24365C9.15771 8.24365 9.00106 8.40031 8.68774 8.71362C8.37443 9.02694 7.77018 9.18359 6.875 9.18359C5.97982 9.18359 5.21891 8.87028 4.59229 8.24365C3.96566 7.61702 3.65234 6.85612 3.65234 5.96094C3.65234 5.06575 3.96566 4.30485 4.59229 3.67822C5.21891 3.05159 5.97982 2.73828 6.875 2.73828C7.77018 2.73828 8.53109 3.05159 9.15771 3.67822C9.78434 4.30485 10.0977 5.06575 10.0977 5.96094C10.0977 6.85612 9.78434 7.61702 9.15771 8.24365ZM9.18457 5.53125C9.05925 4.7793 8.64746 4.22428 7.94922 3.86621C8.12826 4.34961 8.23568 4.90462 8.27148 5.53125H9.18457ZM8.27148 6.39062C8.23568 7.01725 8.12826 7.57227 7.94922 8.05566C8.64746 7.69759 9.05925 7.14258 9.18457 6.39062H8.27148ZM6.875 3.65137C6.57064 4.00944 6.3916 4.63607 6.33789 5.53125H7.41211C7.3584 4.63607 7.17936 4.00944 6.875 3.65137ZM7.41211 6.39062H6.33789C6.3916 7.28581 6.57064 7.91244 6.875 8.27051C7.17936 7.91244 7.3584 7.28581 7.41211 6.39062ZM5.80078 3.86621C5.10254 4.22428 4.69076 4.7793 4.56543 5.53125H5.47852C5.51432 4.90462 5.62174 4.34961 5.80078 3.86621ZM5.47852 6.39062H4.56543C4.69076 7.14258 5.10254 7.69759 5.80078 8.05566C5.62174 7.57227 5.51432 7.01725 5.47852 6.39062Z" fill="#CA8A04"/>
</g>
<defs>
<clipPath id="clip0_3777_19023">
<rect width="12.27" height="13.75" fill="white" transform="matrix(1 0 0 -1 0.740234 14.125)"/>
</clipPath>
</defs>
</svg>
