<svg width="13" height="11" viewBox="0 0 13 11" fill="none" xmlns="http://www.w3.org/2000/svg">
<path d="M12.2333 9.5038C12.5851 10.1293 12.1356 10.8916 11.4123 10.8916H2.04956C1.32634 10.8916 0.87677 10.1097 1.22861 9.5038L5.91977 1.35291C6.27161 0.727417 7.19029 0.746964 7.54213 1.35291L12.2333 9.5038ZM6.74072 7.80325C6.23251 7.80325 5.84158 8.21373 5.84158 8.70239C5.84158 9.2106 6.23251 9.60153 6.74072 9.60153C7.22939 9.60153 7.63986 9.2106 7.63986 8.70239C7.63986 8.21373 7.22939 7.80325 6.74072 7.80325ZM5.88068 4.57808L6.0175 7.2364C6.03705 7.37323 6.13478 7.45142 6.25206 7.45142H7.20984C7.32712 7.45142 7.42485 7.37323 7.4444 7.2364L7.58122 4.57808C7.60077 4.44125 7.48349 4.32397 7.34666 4.32397H6.11523C5.97841 4.32397 5.86113 4.44125 5.88068 4.57808Z" fill="#DD6B20"/>
</svg>
