<svg width="16" height="16" viewBox="0 0 16 16" fill="none" xmlns="http://www.w3.org/2000/svg">
<path d="M10 5.99967H12M10 7.99967H12M10 9.99967H12M8 10.6663C7.796 10.2577 7.378 9.99967 6.92133 9.99967H5.07867C4.622 9.99967 4.204 10.2577 4 10.6663M2.66667 3.33301H13.3333C13.5101 3.33301 13.6797 3.40325 13.8047 3.52827C13.9298 3.65329 14 3.82286 14 3.99967V11.9997C14 12.1765 13.9298 12.3461 13.8047 12.4711C13.6797 12.5961 13.5101 12.6663 13.3333 12.6663H2.66667C2.48986 12.6663 2.32029 12.5961 2.19526 12.4711C2.07024 12.3461 2 12.1765 2 11.9997V3.99967C2 3.82286 2.07024 3.65329 2.19526 3.52827C2.32029 3.40325 2.48986 3.33301 2.66667 3.33301ZM7.33333 6.66634C7.33333 7.01996 7.19286 7.3591 6.94281 7.60915C6.69276 7.8592 6.35362 7.99967 6 7.99967C5.64638 7.99967 5.30724 7.8592 5.05719 7.60915C4.80714 7.3591 4.66667 7.01996 4.66667 6.66634C4.66667 6.31272 4.80714 5.97358 5.05719 5.72353C5.30724 5.47348 5.64638 5.33301 6 5.33301C6.35362 5.33301 6.69276 5.47348 6.94281 5.72353C7.19286 5.97358 7.33333 6.31272 7.33333 6.66634Z" stroke="#2C3138" stroke-linecap="round" stroke-linejoin="round"/>
</svg>
