<svg width="27" height="28" viewBox="0 0 27 28" fill="none" xmlns="http://www.w3.org/2000/svg">
<g clip-path="url(#clip0_3777_18961)">
<path d="M12.4844 22.001C10.4336 20.7363 8.75024 19.0017 7.43433 16.7971C6.11841 14.5925 5.35791 12.0547 5.15283 9.18359L12.4844 6.10742V22.001ZM23.251 5.28711C23.7295 5.45801 24.1055 5.74854 24.3789 6.15869C24.6523 6.56885 24.7891 7.03027 24.7891 7.54297C24.7891 9.69629 24.5327 11.7556 24.02 13.7209C23.5073 15.6863 22.8579 17.3782 22.0718 18.7966C21.2856 20.2151 20.3713 21.4968 19.3289 22.6418C18.2864 23.7869 17.2781 24.7097 16.304 25.4104C15.3298 26.1111 14.3643 26.6494 13.4072 27.0254C12.792 27.2988 12.1768 27.2988 11.5615 27.0254C10.126 26.4443 8.75024 25.5813 7.43433 24.4363C6.11841 23.2913 4.91357 21.907 3.81982 20.2834C2.72607 18.6599 1.84595 16.7373 1.17944 14.5156C0.512939 12.2939 0.179688 9.96973 0.179688 7.54297C0.179688 7.33789 0.205322 7.14136 0.256592 6.95337C0.307861 6.76538 0.376221 6.58594 0.46167 6.41504C0.547119 6.24414 0.649658 6.09033 0.769287 5.95361C0.888916 5.81689 1.02563 5.68872 1.17944 5.56909C1.33325 5.44946 1.5127 5.35547 1.71777 5.28711L11.5615 1.18555C11.835 1.04883 12.1426 0.980469 12.4844 0.980469C12.8262 0.980469 13.1338 1.04883 13.4072 1.18555L23.251 5.28711ZM12.4844 24.7695C15.1162 23.6758 17.4148 21.5737 19.3801 18.4634C21.3455 15.353 22.3281 11.7129 22.3281 7.54297L12.4844 3.44141L2.64062 7.54297C2.64062 11.6445 3.6062 15.259 5.53735 18.3865C7.46851 21.5139 9.78418 23.6416 12.4844 24.7695Z" fill="#FFF7ED"/>
</g>
<defs>
<clipPath id="clip0_3777_18961">
<rect width="26.25" height="26.25" fill="white" transform="matrix(1 0 0 -1 0.179688 27.2305)"/>
</clipPath>
</defs>
</svg>
