<svg width="256" height="256" viewBox="0 0 256 256" fill="none" xmlns="http://www.w3.org/2000/svg">
<path d="M168 128C168 135.911 165.654 143.645 161.259 150.223C156.864 156.801 150.616 161.928 143.307 164.955C135.998 167.983 127.956 168.775 120.196 167.231C112.437 165.688 105.31 161.878 99.7157 156.284C94.1216 150.69 90.312 143.563 88.7686 135.804C87.2252 128.044 88.0173 120.002 91.0448 112.693C94.0723 105.384 99.1992 99.1365 105.777 94.7412C112.355 90.346 120.089 88 128 88C138.609 88 148.783 92.2143 156.284 99.7157C163.786 107.217 168 117.391 168 128ZM248 64V192C248 194.122 247.157 196.157 245.657 197.657C244.157 199.157 242.122 200 240 200H16C13.8783 200 11.8434 199.157 10.3431 197.657C8.84285 196.157 8 194.122 8 192V64C8 61.8783 8.84285 59.8434 10.3431 58.3431C11.8434 56.8429 13.8783 56 16 56H240C242.122 56 244.157 56.8429 245.657 58.3431C247.157 59.8434 248 61.8783 248 64ZM232 110.35C222.916 107.664 214.648 102.748 207.95 96.0498C201.252 89.3516 196.336 81.084 193.65 72H62.35C59.6641 81.084 54.7481 89.3516 48.0498 96.0498C41.3516 102.748 33.084 107.664 24 110.35V145.65C33.084 148.336 41.3516 153.252 48.0498 159.95C54.7481 166.648 59.6641 174.916 62.35 184H193.65C196.336 174.916 201.252 166.648 207.95 159.95C214.648 153.252 222.916 148.336 232 145.65V110.35Z" fill="#64748B"/>
</svg>
