<svg width="256" height="256" viewBox="0 0 256 256" fill="none" xmlns="http://www.w3.org/2000/svg">
<path d="M188 184C184.835 184 181.742 183.061 179.111 181.303C176.48 179.545 174.429 177.046 173.218 174.123C172.007 171.199 171.69 167.982 172.307 164.878C172.925 161.775 174.449 158.924 176.686 156.686C178.924 154.448 181.775 152.924 184.879 152.307C187.982 151.69 191.199 152.007 194.123 153.218C197.047 154.429 199.545 156.479 201.304 159.111C203.062 161.742 204 164.835 204 168C204 172.243 202.314 176.313 199.314 179.313C196.313 182.314 192.243 184 188 184ZM224 116H180C176.817 116 173.765 117.264 171.515 119.514C169.264 121.765 168 124.817 168 128C168 131.182 169.264 134.235 171.515 136.485C173.765 138.735 176.817 140 180 140H220V196H36V140H76C79.1826 140 82.2348 138.735 84.4853 136.485C86.7357 134.235 88 131.182 88 128C88 124.817 86.7357 121.765 84.4853 119.514C82.2348 117.264 79.1826 116 76 116H32C26.6957 116 21.6086 118.107 17.8579 121.858C14.1071 125.608 12 130.695 12 136V200C12 205.304 14.1071 210.391 17.8579 214.142C21.6086 217.893 26.6957 220 32 220H224C229.304 220 234.391 217.893 238.142 214.142C241.893 210.391 244 205.304 244 200V136C244 130.695 241.893 125.608 238.142 121.858C234.391 118.107 229.304 116 224 116ZM88.49 80.4897L116 52.9997V128C116 131.182 117.264 134.235 119.515 136.485C121.765 138.735 124.817 140 128 140C131.183 140 134.235 138.735 136.485 136.485C138.736 134.235 140 131.182 140 128V52.9997L167.51 80.5197C168.626 81.6359 169.951 82.5214 171.41 83.1255C172.868 83.7296 174.431 84.0405 176.01 84.0405C177.589 84.0405 179.152 83.7296 180.61 83.1255C182.069 82.5214 183.394 81.6359 184.51 80.5197C185.626 79.4035 186.512 78.0783 187.116 76.6199C187.72 75.1614 188.031 73.5983 188.031 72.0197C188.031 70.4411 187.72 68.878 187.116 67.4195C186.512 65.9611 185.626 64.6359 184.51 63.5197L136.51 15.5197C135.395 14.401 134.07 13.5133 132.612 12.9077C131.153 12.302 129.589 11.9902 128.01 11.9902C126.431 11.9902 124.867 12.302 123.408 12.9077C121.95 13.5133 120.625 14.401 119.51 15.5197L71.51 63.5197C70.3938 64.6359 69.5083 65.9611 68.9042 67.4195C68.3001 68.878 67.9892 70.4411 67.9892 72.0197C67.9892 75.2078 69.2557 78.2654 71.51 80.5197C73.7643 82.774 76.8219 84.0405 80.01 84.0405C83.1981 84.0405 86.2557 82.774 88.51 80.5197L88.49 80.4897Z" fill="#0277BD"/>
</svg>
