<svg width="41" height="36" viewBox="0 0 41 36" fill="none" xmlns="http://www.w3.org/2000/svg">
<g clip-path="url(#clip0_6507_1310)">
<path d="M15.6423 29.9443H15.0845C11.0873 29.9443 7.09014 29.9206 3.09298 29.9568C1.67386 29.9704 0.659233 28.9665 0.66605 27.536C0.704681 19.246 0.684229 10.9561 0.685365 2.66727C0.685365 1.24016 1.55002 0.378906 2.98163 0.378906C14.7754 0.378906 26.5681 0.378906 38.3618 0.378906C39.8003 0.378906 40.6661 1.23563 40.6661 2.65935C40.6661 10.9912 40.6661 19.323 40.6661 27.6548C40.6661 29.0593 39.7741 29.9421 38.3505 29.9432C34.3249 29.9455 30.2993 29.9432 26.2738 29.9432C26.1056 29.9432 25.9375 29.9432 25.7091 29.9432C25.7091 30.5623 25.7091 31.1496 25.7091 31.7381C25.7091 32.0912 25.7454 32.4489 25.7023 32.7963C25.5977 33.6123 26.3919 34.3966 27.1998 34.2868C27.5611 34.2381 27.936 34.2743 28.3042 34.28C28.7177 34.2868 28.9848 34.5267 28.9802 34.8776C28.9757 35.2261 28.7098 35.4627 28.2917 35.4627C25.5557 35.4661 22.8197 35.4638 20.0849 35.4638C17.7602 35.4638 15.4355 35.4604 13.1109 35.4672C12.7598 35.4672 12.4973 35.3699 12.4007 35.0066C12.303 34.6422 12.5575 34.2992 12.9586 34.2834C13.3836 34.2664 13.8085 34.2789 14.2346 34.2789C15.0879 34.2789 15.6367 33.7424 15.6435 32.8891C15.6503 31.9305 15.6446 30.9719 15.6446 29.9432L15.6423 29.9443ZM4.45756 23.4731H36.8916V4.14871H4.45869V23.4719L4.45756 23.4731ZM1.87383 24.718C1.87383 25.4604 1.87383 26.1519 1.87383 26.8434C1.87383 27.055 1.87383 27.2667 1.87383 27.4794C1.87383 28.421 2.17038 28.7175 3.11911 28.7175C14.8152 28.7175 26.5112 28.7175 38.2073 28.7175C38.2925 28.7175 38.3777 28.7198 38.463 28.7164C39.1004 28.6938 39.4571 28.3475 39.4708 27.7103C39.4833 27.1591 39.473 26.6091 39.4742 26.058C39.4742 25.6121 39.4742 25.1662 39.4742 24.718H1.87497H1.87383ZM3.23728 23.4753C3.23728 23.2637 3.23728 23.0951 3.23728 22.9264C3.23728 16.5559 3.23728 10.1854 3.23728 3.81485C3.23728 3.08036 3.39521 2.92191 4.12919 2.92191C15.1594 2.92191 26.1897 2.92191 37.22 2.92191C37.9528 2.92191 38.1119 3.08149 38.1119 3.81485C38.1119 10.199 38.1119 16.5842 38.1119 22.9683C38.1119 23.1324 38.1119 23.2954 38.1119 23.4742H39.4753C39.4753 23.3022 39.4753 23.1517 39.4753 23.0011C39.4753 16.2775 39.4753 9.55388 39.4753 2.83024C39.4753 1.88524 39.1515 1.56383 38.1982 1.56383C26.5158 1.56383 14.8334 1.56383 3.15092 1.56383C2.19879 1.56383 1.87497 1.88524 1.87497 2.83024C1.87497 9.55388 1.87497 16.2775 1.87497 23.0011V23.4742H3.23841L3.23728 23.4753ZM16.8876 29.9681C16.6831 31.3816 17.1251 32.8563 16.5524 34.263H24.7944C24.2309 32.8619 24.6547 31.4031 24.4661 29.9681H16.8865H16.8876Z" fill="#FF5887"/>
</g>
<defs>
<clipPath id="clip0_6507_1310">
<rect width="40" height="35.0894" fill="white" transform="translate(0.666016 0.378906)"/>
</clipPath>
</defs>
</svg>
