<svg width="24" height="24" viewBox="0 0 24 24" fill="none" xmlns="http://www.w3.org/2000/svg">
<path d="M19.2665 13.5159C19.498 13.3367 19.6854 13.1069 19.8143 12.8442C19.9432 12.5814 20.0102 12.2926 20.0102 11.9999C20.0102 11.7072 19.9432 11.4183 19.8143 11.1556C19.6854 10.8928 19.498 10.663 19.2665 10.4839C16.269 8.16449 12.9219 6.33635 9.35051 5.06786L8.69751 4.83586C7.44951 4.39286 6.13051 5.23686 5.96151 6.52586C5.48939 10.1599 5.48939 13.8398 5.96151 17.4739C6.13151 18.7629 7.44951 19.6069 8.69751 19.1639L9.35051 18.9319C12.9219 17.6634 16.269 15.8352 19.2665 13.5159Z" fill="white"/>
</svg>
