<svg width="40" height="47" viewBox="0 0 40 47" fill="none" xmlns="http://www.w3.org/2000/svg">
<path d="M17.1428 17.5871C17.1428 17.5871 16.6642 18.0657 15.707 19.0228C14.7499 19.98 12.9039 20.4586 10.1692 20.4586C7.4345 20.4586 5.10998 19.5014 3.19568 17.5871C1.28137 15.6728 0.32422 13.3483 0.32422 10.6136C0.32422 7.87885 1.28137 5.55434 3.19568 3.64003C5.10998 1.72573 7.4345 0.768578 10.1692 0.768578C12.9039 0.768578 15.2285 1.72573 17.1428 3.64003C19.0571 5.55434 20.0142 7.87885 20.0142 10.6136C20.0142 13.3483 19.0571 15.6728 17.1428 17.5871ZM13.656 7.1268C13.656 7.1268 13.4167 6.88752 12.9381 6.40894C12.4596 5.93037 11.5366 5.69108 10.1692 5.69108C8.80186 5.69108 7.6396 6.16965 6.68245 7.1268C5.7253 8.08396 5.24672 9.24622 5.24672 10.6136C5.24672 11.9809 5.7253 13.1432 6.68245 14.1003C7.6396 15.0575 8.80186 15.5361 10.1692 15.5361C11.5366 15.5361 12.6988 15.0575 13.656 14.1003C14.6131 13.1432 15.0917 11.9809 15.0917 10.6136C15.0917 9.24622 14.6131 8.08396 13.656 7.1268ZM22.8857 29.8934C22.8857 29.8934 23.3643 29.4148 24.3214 28.4576C25.2786 27.5005 27.1245 27.0219 29.8592 27.0219C32.5939 27.0219 34.9185 27.9791 36.8328 29.8934C38.7471 31.8077 39.7042 34.1322 39.7042 36.8669C39.7042 39.6016 38.7471 41.9261 36.8328 43.8405C34.9185 45.7548 32.5939 46.7119 29.8592 46.7119C27.1245 46.7119 24.8 45.7548 22.8857 43.8405C20.9714 41.9261 20.0142 39.6016 20.0142 36.8669C20.0142 34.1322 20.9714 31.8077 22.8857 29.8934ZM26.3724 40.3537C26.3724 40.3537 26.6117 40.593 27.0903 41.0715C27.5689 41.5501 28.4919 41.7894 29.8592 41.7894C31.2266 41.7894 32.3888 41.3108 33.346 40.3537C34.3031 39.3965 34.7817 38.2343 34.7817 36.8669C34.7817 35.4996 34.3031 34.3373 33.346 33.3801C32.3888 32.423 31.2266 31.9444 29.8592 31.9444C28.4919 31.9444 27.3296 32.423 26.3724 33.3801C25.4153 34.3373 24.9367 35.4996 24.9367 36.8669C24.9367 38.2343 25.4153 39.3965 26.3724 40.3537ZM39.4991 2.71707L6.16969 46.1992C5.89622 46.541 5.58856 46.7119 5.24672 46.7119H1.55485C1.07627 46.7119 0.717337 46.4897 0.478049 46.0453C0.23876 45.6009 0.255852 45.1736 0.529325 44.7634L33.8588 1.28134C34.1322 0.939495 34.4741 0.768578 34.8843 0.768578H38.4736C38.9522 0.768578 39.3111 0.990772 39.5504 1.43517C39.7897 1.87956 39.7726 2.30686 39.4991 2.71707Z" fill="black"/>
</svg>
