<svg width="24" height="27" viewBox="0 0 24 27" fill="none" xmlns="http://www.w3.org/2000/svg">
<g clip-path="url(#clip0_6142_9396)">
<path d="M1.04297 4.8125V22.6875C1.04297 23.3646 1.27995 23.9401 1.75391 24.4141C2.22786 24.888 2.80339 25.125 3.48047 25.125H21.3555C22.0326 25.125 22.6081 24.888 23.082 24.4141C23.556 23.9401 23.793 23.3646 23.793 22.6875V4.8125C23.793 4.13542 23.556 3.5599 23.082 3.08594C22.6081 2.61198 22.0326 2.375 21.3555 2.375H3.48047C2.80339 2.375 2.22786 2.61198 1.75391 3.08594C1.27995 3.5599 1.04297 4.13542 1.04297 4.8125ZM3.48047 22.3828V5.11719C3.48047 4.91406 3.58203 4.8125 3.78516 4.8125H21.0508C21.2539 4.8125 21.3555 4.91406 21.3555 5.11719V22.3828C21.3555 22.5859 21.2539 22.6875 21.0508 22.6875H3.78516C3.58203 22.6875 3.48047 22.5859 3.48047 22.3828ZM6.98438 10.957C6.98438 11.7357 7.17057 12.3958 7.54297 12.9375C7.91536 13.4792 8.33854 13.8685 8.8125 14.1055C9.28646 14.3424 9.70964 14.5964 10.082 14.8672C10.4544 15.138 10.6406 15.4089 10.6406 15.6797V15.9844C10.6406 16.1536 10.6999 16.2975 10.8184 16.416C10.9368 16.5345 11.0807 16.5938 11.25 16.5938H13.5859C13.7552 16.5938 13.8991 16.5345 14.0176 16.416C14.1361 16.2975 14.1953 16.1536 14.1953 15.9844V15.5273C14.1953 15.1211 14.1276 14.7487 13.9922 14.4102C13.8568 14.0716 13.6367 13.7669 13.332 13.4961C13.0273 13.2253 12.7904 13.0306 12.6211 12.9121C12.4518 12.7936 12.1641 12.6328 11.7578 12.4297C11.4193 12.2266 11.1654 12.0658 10.9961 11.9473C10.8268 11.8288 10.6745 11.6764 10.5391 11.4902C10.4036 11.304 10.3359 11.1094 10.3359 10.9062C10.3359 10.5 10.5475 10.1615 10.9707 9.89062C11.3939 9.61979 11.8594 9.48438 12.3672 9.48438C12.7396 9.48438 13.0697 9.54362 13.3574 9.66211C13.6452 9.7806 13.8906 9.94141 14.0938 10.1445C14.2969 10.3477 14.5508 10.6354 14.8555 11.0078C15.0924 11.3125 15.3633 11.3464 15.668 11.1094L17.0898 10.043C17.3945 9.80599 17.4453 9.51823 17.2422 9.17969C15.9896 7.35156 14.2799 6.4375 12.1133 6.4375C10.8268 6.4375 9.65039 6.8776 8.58398 7.75781C7.51758 8.63802 6.98438 9.70443 6.98438 10.957ZM10.9199 17.9395C10.9199 17.9395 10.8141 18.0452 10.6025 18.2568C10.391 18.4684 10.2852 18.862 10.2852 19.4375C10.2852 20.013 10.4967 20.5124 10.9199 20.9355C11.3431 21.3587 11.8424 21.5703 12.418 21.5703C12.9935 21.5703 13.4928 21.3587 13.916 20.9355C14.3392 20.5124 14.5508 20.013 14.5508 19.4375C14.5508 18.862 14.3392 18.3626 13.916 17.9395C13.4928 17.5163 12.9935 17.3047 12.418 17.3047C11.8424 17.3047 11.3431 17.5163 10.9199 17.9395Z" fill="#9333EA"/>
</g>
<defs>
<clipPath id="clip0_6142_9396">
<rect width="22.97" height="26" fill="white" transform="matrix(-1 0 0 -1 23.9023 26.75)"/>
</clipPath>
</defs>
</svg>
