<svg width="24" height="24" viewBox="0 0 24 24" fill="none" xmlns="http://www.w3.org/2000/svg">
<path d="M8.99945 8.24945C8.80945 8.24945 8.61945 8.17945 8.46945 8.02945L6.49945 6.05945L4.52945 8.02945C4.23945 8.31945 3.75945 8.31945 3.46945 8.02945C3.17945 7.73945 3.17945 7.25945 3.46945 6.96945L5.96945 4.46945C6.25945 4.17945 6.73945 4.17945 7.02945 4.46945L9.52945 6.96945C9.81945 7.25945 9.81945 7.73945 9.52945 8.02945C9.37945 8.17945 9.18945 8.24945 8.99945 8.24945Z" fill="#C2410C"/>
<path d="M6.5 19.75C6.09 19.75 5.75 19.41 5.75 19V5C5.75 4.59 6.09 4.25 6.5 4.25C6.91 4.25 7.25 4.59 7.25 5V19C7.25 19.41 6.91 19.75 6.5 19.75ZM20 17.25H12C11.59 17.25 11.25 16.91 11.25 16.5C11.25 16.09 11.59 15.75 12 15.75H20C20.41 15.75 20.75 16.09 20.75 16.5C20.75 16.91 20.41 17.25 20 17.25ZM16 11.25H12C11.59 11.25 11.25 10.91 11.25 10.5C11.25 10.09 11.59 9.75 12 9.75H16C16.41 9.75 16.75 10.09 16.75 10.5C16.75 10.91 16.41 11.25 16 11.25ZM14 8.25H12C11.59 8.25 11.25 7.91 11.25 7.5C11.25 7.09 11.59 6.75 12 6.75H14C14.41 6.75 14.75 7.09 14.75 7.5C14.75 7.91 14.41 8.25 14 8.25ZM18 14.25H12C11.59 14.25 11.25 13.91 11.25 13.5C11.25 13.09 11.59 12.75 12 12.75H18C18.41 12.75 18.75 13.09 18.75 13.5C18.75 13.91 18.41 14.25 18 14.25Z" fill="#C2410C"/>
</svg>
