<svg width="41" height="39" viewBox="0 0 41 39" fill="none" xmlns="http://www.w3.org/2000/svg">
<g clip-path="url(#clip0_6507_1265)">
<path d="M40.6653 4.76193C40.41 4.96904 40.1762 5.21524 39.8945 5.37643C38.6221 6.10329 37.3388 6.80865 36.0546 7.515C35.4638 7.83935 34.9395 7.65568 34.7811 7.08611C34.6813 6.72757 34.8378 6.39833 35.2496 6.16386C35.948 5.76624 36.6541 5.38132 37.3564 4.99053C38.0019 4.63101 38.6465 4.26954 39.294 3.91295C39.9464 3.55343 40.3063 3.65503 40.6663 4.29396V4.76193H40.6653Z" fill="#FF5887"/>
<path d="M16.5023 25.479C16.8212 26.0339 17.1214 26.5468 17.4139 27.0656C17.7406 27.6449 17.6388 28.0337 17.0696 28.3708C16.4554 28.7332 15.8343 29.0859 15.1936 29.4562C15.9419 30.7526 16.6803 32.0324 17.4198 33.3122C17.7494 33.8837 17.9548 34.4836 17.943 35.1567C17.9205 36.416 17.0383 37.6147 15.801 38.0329C14.5862 38.4432 13.0986 38.0231 12.3787 36.9856C11.8397 36.2089 11.3859 35.3736 10.9086 34.5559C10.0508 33.0875 9.19695 31.6172 8.35774 30.1391C8.22179 29.8987 8.10833 29.8538 7.84033 29.9417C5.20634 30.8102 2.37085 29.5675 1.18052 27.0401C0.0293027 24.5968 0.866548 21.6024 3.19832 20.1672C5.31001 18.8679 7.48724 17.675 9.62731 16.4206C9.88748 16.2682 10.1369 16.0591 10.3237 15.8227C13.6003 11.6697 16.8671 7.50978 20.131 3.34696C20.5731 2.78325 21.0622 2.34167 21.8045 2.1707C22.6731 1.96945 23.8321 2.51361 24.33 3.40265C25.1731 4.90912 26.0622 6.38921 26.9043 7.89568C27.0794 8.2083 27.2711 8.29721 27.6085 8.26888C28.4379 8.19951 29.2693 8.16727 30.1007 8.11452C30.4675 8.09107 30.7277 8.25129 30.9047 8.55708C31.4006 9.40996 31.8887 10.2668 32.3875 11.1177C32.5968 11.4743 32.5645 11.7986 32.3376 12.1357C31.8652 12.8352 31.4143 13.5493 30.935 14.244C30.7903 14.453 30.7815 14.6035 30.9135 14.8272C31.6989 16.1568 32.4305 17.5197 33.2492 18.8288C34.2752 20.4711 33.1641 22.3537 31.4113 22.5745C29.4982 22.8158 27.6134 23.2818 25.7169 23.654C22.7005 24.2451 19.684 24.84 16.6686 25.434C16.6314 25.4418 16.5952 25.4555 16.5052 25.4819L16.5023 25.479ZM20.2562 5.7747C20.1966 5.83918 20.1584 5.87435 20.1261 5.91441C17.3151 9.49105 14.508 13.0687 11.6891 16.6395C11.5326 16.8378 11.5737 16.9618 11.6803 17.1465C12.9646 19.3574 14.241 21.5721 15.5203 23.7859C15.5643 23.8631 15.6191 23.9334 15.6748 24.0174C20.1966 23.1313 24.7075 22.2472 29.2595 21.3552C26.25 16.149 23.2638 10.9819 20.2552 5.77568L20.2562 5.7747ZM10.2797 17.8782C9.72316 18.1987 9.19597 18.4996 8.67073 18.8044C7.09796 19.7169 5.5027 20.5932 3.96221 21.5565C2.61048 22.4016 1.99722 24.0712 2.3552 25.604C2.93814 28.0982 5.69343 29.3829 7.95868 28.1793C9.24292 27.4974 10.4861 26.7392 11.7468 26.0143C12.545 25.5552 13.3421 25.0941 14.1745 24.6144C12.8726 22.3615 11.5825 20.1311 10.2807 17.8782H10.2797ZM21.3126 4.4011C21.3311 4.45385 21.3341 4.46655 21.3399 4.47828C24.4806 9.91896 27.6212 15.3587 30.7638 20.7984C30.8069 20.8726 30.893 20.9957 30.935 20.9859C31.2421 20.9156 31.5806 20.8765 31.8358 20.7134C32.0999 20.5444 32.1537 20.22 32.0099 19.9093C31.9503 19.7804 31.8838 19.6534 31.8124 19.5303C28.9299 14.54 26.0465 9.55064 23.1621 4.56132C23.0516 4.37081 22.946 4.17347 22.811 4.00152C22.5293 3.64102 22.0031 3.6166 21.6823 3.94486C21.5473 4.08359 21.4368 4.24576 21.3116 4.40207L21.3126 4.4011ZM9.57156 29.0908C9.97844 29.7962 10.3648 30.4673 10.7521 31.1385C11.6402 32.6762 12.5205 34.2188 13.4194 35.7507C13.9534 36.6603 15.0009 36.882 15.7805 36.2734C16.4133 35.78 16.5346 34.9437 16.0719 34.1407C15.0704 32.3988 14.062 30.6608 13.0565 28.9218C12.7983 28.4743 12.5381 28.0279 12.2584 27.5462C11.3654 28.0601 10.4919 28.5623 9.57058 29.0918L9.57156 29.0908ZM29.864 12.9993C30.176 12.5294 30.4646 12.1161 30.7237 11.6873C30.7707 11.6091 30.7355 11.444 30.6836 11.3482C30.4244 10.8705 30.1525 10.4006 29.8718 9.93557C29.819 9.84764 29.7095 9.73334 29.6283 9.73431C29.1167 9.7431 28.6072 9.78218 28.0242 9.81442C28.6531 10.9047 29.24 11.9207 29.863 13.0003L29.864 12.9993ZM14.4023 28.0845C14.8591 27.8207 15.2807 27.5775 15.7345 27.3147C15.4665 26.8506 15.2171 26.4198 14.9638 25.9802C14.4972 26.2517 14.0669 26.5018 13.6316 26.7549C13.8986 27.216 14.1383 27.6293 14.4023 28.0845Z" fill="#FF5887"/>
<path d="M30.6482 4.00863C30.8292 3.32769 31.0434 2.51584 31.2595 1.70399C31.33 1.44216 31.3887 1.17447 31.4845 0.922419C31.643 0.505258 32.0714 0.297166 32.4548 0.427102C32.8519 0.561922 33.0856 0.962475 32.9781 1.38745C32.7286 2.36441 32.4704 3.33941 32.1975 4.30953C32.0616 4.79411 31.6831 5.0403 31.2771 4.9553C30.8761 4.87226 30.6228 4.54889 30.6482 4.00863Z" fill="#FF5887"/>
<path d="M36.0208 11.0713C36.6692 11.2413 37.4566 11.4464 38.244 11.6545C38.5061 11.7239 38.7721 11.7854 39.0284 11.8724C39.4871 12.0277 39.7228 12.4341 39.6035 12.8327C39.4734 13.2694 39.0626 13.5049 38.5922 13.3847C37.6278 13.1375 36.6653 12.8825 35.7058 12.6149C35.2344 12.4839 34.9801 12.0971 35.0564 11.6907C35.1287 11.3077 35.4613 11.0527 36.0208 11.0713Z" fill="#FF5887"/>
</g>
<defs>
<clipPath id="clip0_6507_1265">
<rect width="40" height="37.7995" fill="white" transform="translate(0.666016 0.388672)"/>
</clipPath>
</defs>
</svg>
