<svg width="13" height="12" viewBox="0 0 13 12" fill="none" xmlns="http://www.w3.org/2000/svg">
<path d="M0.769531 2.45708C0.769531 2.13762 0.859814 1.84941 1.04038 1.59245C1.22095 1.33549 1.43971 1.15145 1.69667 1.04033C1.95363 0.929212 2.2349 0.894487 2.54047 0.936157C2.84604 0.977826 3.11689 1.10978 3.35302 1.33201L6.43654 4.18635C6.47821 3.54742 6.74906 2.98489 7.24909 2.49875C7.52688 2.20707 8.11719 1.74871 9.02003 1.12367C9.38116 0.887543 9.75618 0.852818 10.1451 1.0195C10.534 1.18617 10.7979 1.46397 10.9368 1.85288C11.3813 2.00567 11.673 2.30429 11.8119 2.74876C12.2147 2.88766 12.4994 3.15157 12.6661 3.54048C12.8328 3.92939 12.798 4.29747 12.5619 4.64471C11.9369 5.54754 11.4785 6.1448 11.1868 6.43649C10.7562 6.86707 10.2632 7.12403 9.70757 7.20737L10.9368 8.3741C11.2563 8.66579 11.4195 9.03039 11.4264 9.46792C11.4334 9.90544 11.284 10.277 10.9785 10.5826L10.4368 11.1243C10.1312 11.4437 9.75965 11.5965 9.32213 11.5826C8.8846 11.5687 8.52 11.409 8.22831 11.1034C8.21442 11.0757 7.73523 10.5131 6.79072 9.41583L5.3323 11.0618C5.04062 11.3951 4.67254 11.5687 4.22807 11.5826C3.7836 11.5965 3.40858 11.4437 3.103 11.1243L2.54047 10.5826C2.22101 10.277 2.06822 9.90197 2.08211 9.4575C2.096 9.01303 2.26962 8.64495 2.60297 8.35327L4.01973 7.10319C2.92244 6.86707 2.10642 6.34273 1.57166 5.53018C1.03691 4.71763 0.769531 3.69327 0.769531 2.45708ZM8.01997 5.66561C8.39499 6.02674 8.80473 6.2212 9.24921 6.24898C9.69368 6.27675 10.1034 6.11008 10.4784 5.74895C10.5618 5.66561 10.659 5.55449 10.7701 5.41559C10.8812 5.27669 10.9924 5.13433 11.1035 4.98848C11.2146 4.84264 11.3188 4.70027 11.416 4.56137C11.5132 4.42248 11.5966 4.30441 11.666 4.20719L11.7494 4.08218C11.7771 4.04051 11.7702 3.97801 11.7285 3.89467C11.6869 3.81133 11.6243 3.74883 11.541 3.70716C11.4577 3.66549 11.3952 3.65854 11.3535 3.68632L9.7284 5.31142C9.65895 5.38087 9.56172 5.35309 9.43672 5.22808C9.31171 5.10307 9.28393 4.9989 9.35338 4.91556L10.8743 3.20713C10.9021 3.16546 10.9056 3.11684 10.8847 3.06128C10.8639 3.00572 10.8292 2.95711 10.7805 2.91544C10.7319 2.87377 10.6798 2.83905 10.6243 2.81127C10.5687 2.78349 10.5201 2.78349 10.4784 2.81127L8.77001 4.33219C8.71445 4.37386 8.645 4.37386 8.56166 4.33219C8.47833 4.29052 8.41582 4.22802 8.37415 4.14468C8.33248 4.06134 8.33248 3.99884 8.37415 3.95717L9.99925 2.33207C10.027 2.2904 10.0201 2.2279 9.97842 2.14456C9.93675 2.06122 9.87424 1.99525 9.7909 1.94663C9.70757 1.89802 9.64506 1.89455 9.60339 1.93622C8.75612 2.51958 8.20748 2.94322 7.95746 3.20713C7.58244 3.59604 7.40882 4.01273 7.4366 4.4572C7.46438 4.90167 7.65883 5.30447 8.01997 5.66561ZM5.14479 7.45738L3.29052 9.08248C3.16551 9.1936 3.103 9.32555 3.103 9.47834C3.103 9.63112 3.15856 9.76307 3.26968 9.87419L3.81138 10.4159C3.9225 10.527 4.05445 10.5826 4.20724 10.5826C4.36002 10.5826 4.49198 10.5201 4.60309 10.3951L6.14485 8.64495L5.14479 7.45738ZM1.76959 2.45708C1.76959 4.98501 2.99189 6.24898 5.43648 6.24898L8.95752 10.4159C9.06864 10.527 9.20059 10.5826 9.35338 10.5826C9.50617 10.5826 9.63117 10.527 9.7284 10.4159L10.2701 9.87419C10.3812 9.77696 10.4368 9.64848 10.4368 9.48875C10.4368 9.32902 10.3812 9.20054 10.2701 9.10331L2.68631 2.06122C2.50575 1.89455 2.30782 1.85982 2.09253 1.95705C1.87724 2.05428 1.76959 2.22096 1.76959 2.45708Z" fill="#475569" fill-opacity="0.5"/>
</svg>
