<svg width="24" height="24" viewBox="0 0 24 24" fill="none" xmlns="http://www.w3.org/2000/svg">
<path d="M12 0C12.4688 0.03125 12.7187 0.28125 12.75 0.75V11.25H23.25C23.7188 11.2813 23.9687 11.5312 24 12C23.9687 12.4688 23.7188 12.7187 23.25 12.75H12.75V23.25C12.7187 23.7188 12.4688 23.9687 12 24C11.5312 23.9687 11.2813 23.7188 11.25 23.25V12.75H0.75C0.28125 12.7187 0.03125 12.4688 0 12C0.03125 11.5312 0.28125 11.2813 0.75 11.25H11.25V0.75C11.2813 0.28125 11.5312 0.03125 12 0ZM16.125 4.5H18V2.625V2.25C18.0313 1.78125 18.2812 1.53125 18.75 1.5C19.2188 1.53125 19.4687 1.78125 19.5 2.25V2.625V4.5H21.375H21.75C22.2188 4.53125 22.4687 4.78125 22.5 5.25C22.4687 5.71875 22.2188 5.96875 21.75 6H21.375H19.5V7.875V8.25C19.4687 8.71875 19.2188 8.96875 18.75 9C18.2812 8.96875 18.0313 8.71875 18 8.25V7.875V6H16.125H15.75C15.2812 5.96875 15.0313 5.71875 15 5.25C15.0313 4.78125 15.2812 4.53125 15.75 4.5H16.125ZM2.48438 15.9844C2.82813 15.7031 3.1875 15.7031 3.5625 15.9844L5.25 17.6719L6.9375 15.9844C7.3125 15.7031 7.67187 15.7031 8.01562 15.9844C8.29688 16.3281 8.29688 16.6875 8.01562 17.0625L6.32812 18.75L8.01562 20.4375C8.29688 20.8125 8.29688 21.1719 8.01562 21.5156C7.67187 21.7969 7.3125 21.7969 6.9375 21.5156L5.25 19.8281L3.5625 21.5156C3.1875 21.7969 2.82813 21.7969 2.48438 21.5156C2.20312 21.1719 2.20312 20.8125 2.48438 20.4375L4.17188 18.75L2.48438 17.0625C2.20312 16.6875 2.20312 16.3281 2.48438 15.9844ZM2.25 4.5H8.25C8.71875 4.53125 8.96875 4.78125 9 5.25C8.96875 5.71875 8.71875 5.96875 8.25 6H2.25C1.78125 5.96875 1.53125 5.71875 1.5 5.25C1.53125 4.78125 1.78125 4.53125 2.25 4.5ZM15.75 16.5H21.75C22.2188 16.5313 22.4687 16.7812 22.5 17.25C22.4687 17.7188 22.2188 17.9687 21.75 18H15.75C15.2812 17.9687 15.0313 17.7188 15 17.25C15.0313 16.7812 15.2812 16.5313 15.75 16.5ZM15.75 19.5H21.75C22.2188 19.5313 22.4687 19.7812 22.5 20.25C22.4687 20.7188 22.2188 20.9687 21.75 21H15.75C15.2812 20.9687 15.0313 20.7188 15 20.25C15.0313 19.7812 15.2812 19.5313 15.75 19.5Z" fill="#1D4ED8"/>
</svg>
