<svg width="13" height="13" viewBox="0 0 13 13" fill="none" xmlns="http://www.w3.org/2000/svg">
<path d="M6.15 0.429687C9.44121 0.429687 12.1078 3.09629 12.1078 6.3875C12.1078 9.67871 9.44121 12.3453 6.15 12.3453C2.85879 12.3453 0.192188 9.67871 0.192188 6.3875C0.192188 3.09629 2.85879 0.429687 6.15 0.429687ZM6.15 11.1922C8.79258 11.1922 10.9547 9.0541 10.9547 6.3875C10.9547 3.74492 8.79258 1.58281 6.15 1.58281C3.4834 1.58281 1.34531 3.74492 1.34531 6.3875C1.34531 9.0541 3.4834 11.1922 6.15 11.1922ZM7.61543 8.69375L5.57344 7.2043C5.50137 7.15625 5.47734 7.06016 5.47734 6.98809V3.02422C5.47734 2.88008 5.59746 2.73594 5.76563 2.73594H6.53438C6.67852 2.73594 6.82266 2.88008 6.82266 3.02422V6.43555L8.4082 7.6127C8.55234 7.70879 8.57637 7.87695 8.48027 8.02109L8.02383 8.62168C7.92773 8.76582 7.75957 8.78984 7.61543 8.69375Z" fill="#475569"/>
</svg>
