<svg width="12" height="12" viewBox="0 0 12 12" fill="none" xmlns="http://www.w3.org/2000/svg">
<path d="M1.75146 1.76124C1.75146 1.76124 2.04337 1.46933 2.62719 0.885515C3.21101 0.301695 4.33235 0.0097847 5.9912 0.0097847C7.65006 0.0097847 9.0633 0.593605 10.2309 1.76124C11.3986 2.92888 11.9824 4.34213 11.9824 6.00099C11.9824 7.65984 11.3986 9.07309 10.2309 10.2407C9.0633 11.4084 7.65006 11.9922 5.9912 11.9922C4.33235 11.9922 2.9191 11.4084 1.75146 10.2407C0.58382 9.07309 0 7.65984 0 6.00099C0 4.34213 0.58382 2.92888 1.75146 1.76124ZM2.57283 9.41935C2.57283 9.41935 2.80838 9.65489 3.27946 10.126C3.75054 10.5971 4.65445 10.8326 5.9912 10.8326C7.32795 10.8326 8.4674 10.3615 9.40957 9.41935C10.3517 8.47719 10.8228 7.33773 10.8228 6.00099C10.8228 4.66424 10.3517 3.52478 9.40957 2.58262C8.4674 1.64045 7.32795 1.16937 5.9912 1.16937C4.65445 1.16937 3.515 1.64045 2.57283 2.58262C1.63067 3.52478 1.15959 4.66424 1.15959 6.00099C1.15959 7.33773 1.63067 8.47719 2.57283 9.41935ZM7.489 8.32016L5.43557 6.82236C5.35504 6.75794 5.31478 6.67741 5.31478 6.58078V2.61886C5.31478 2.42559 5.41141 2.32896 5.60467 2.32896H6.37773C6.57099 2.32896 6.66763 2.42559 6.66763 2.61886V6.0493L8.28622 7.20889C8.43117 7.32163 8.44727 7.45852 8.33453 7.61958L7.89969 8.24769C7.78695 8.40874 7.65006 8.4329 7.489 8.32016Z" fill="black" fill-opacity="0.6"/>
</svg>
