<svg width="15" height="14" viewBox="0 0 15 14" fill="none" xmlns="http://www.w3.org/2000/svg">
<path d="M7.48047 0.400391C11.2266 0.400391 14.2617 3.43555 14.2617 7.18164C14.2617 10.9277 11.2266 13.9629 7.48047 13.9629C3.73438 13.9629 0.699219 10.9277 0.699219 7.18164C0.699219 3.43555 3.73438 0.400391 7.48047 0.400391ZM7.48047 12.6504C10.4883 12.6504 12.9492 10.2168 12.9492 7.18164C12.9492 4.17383 10.4883 1.71289 7.48047 1.71289C4.44531 1.71289 2.01172 4.17383 2.01172 7.18164C2.01172 10.2168 4.44531 12.6504 7.48047 12.6504ZM9.14844 9.80664L6.82422 8.11133C6.74219 8.05664 6.71484 7.94727 6.71484 7.86523V3.35352C6.71484 3.18945 6.85156 3.02539 7.04297 3.02539H7.91797C8.08203 3.02539 8.24609 3.18945 8.24609 3.35352V7.23633L10.0508 8.57617C10.2148 8.68555 10.2422 8.87695 10.1328 9.04102L9.61328 9.72461C9.50391 9.88867 9.3125 9.91602 9.14844 9.80664Z" fill="black"/>
</svg>
