<svg width="15" height="15" viewBox="0 0 15 15" fill="none" xmlns="http://www.w3.org/2000/svg">
<path d="M7.5 0.96875C11.2461 0.96875 14.2812 4.00391 14.2812 7.75C14.2812 11.4961 11.2461 14.5312 7.5 14.5312C3.75391 14.5312 0.71875 11.4961 0.71875 7.75C0.71875 4.00391 3.75391 0.96875 7.5 0.96875ZM7.5 13.2188C10.5078 13.2188 12.9688 10.7852 12.9688 7.75C12.9688 4.74219 10.5078 2.28125 7.5 2.28125C4.46484 2.28125 2.03125 4.74219 2.03125 7.75C2.03125 10.7852 4.46484 13.2188 7.5 13.2188ZM9.16797 10.375L6.84375 8.67969C6.76172 8.625 6.73438 8.51562 6.73438 8.43359V3.92188C6.73438 3.75781 6.87109 3.59375 7.0625 3.59375H7.9375C8.10156 3.59375 8.26562 3.75781 8.26562 3.92188V7.80469L10.0703 9.14453C10.2344 9.25391 10.2617 9.44531 10.1523 9.60938L9.63281 10.293C9.52344 10.457 9.33203 10.4844 9.16797 10.375Z" fill="black"/>
</svg>
