<svg width="12" height="15" viewBox="0 0 12 15" fill="none" xmlns="http://www.w3.org/2000/svg">
<g clip-path="url(#clip0_3777_19037)">
<path d="M3.99316 8.05566C3.92155 8.12728 3.85889 8.12728 3.80518 8.05566L2.81152 7.06201C2.73991 6.9904 2.73991 6.91878 2.81152 6.84717L3.13379 6.5249C3.2054 6.45329 3.27702 6.45329 3.34863 6.5249L3.9126 7.08887L5.1748 5.7998C5.24642 5.74609 5.31803 5.74609 5.38965 5.7998L5.71191 6.14893C5.78353 6.22054 5.78353 6.29215 5.71191 6.36377L3.99316 8.05566ZM9.63281 2.09375C9.99089 2.09375 10.2952 2.21908 10.5459 2.46973C10.7965 2.72038 10.9219 3.02474 10.9219 3.38281V12.8359C10.9219 13.194 10.7965 13.4984 10.5459 13.749C10.2952 13.9997 9.99089 14.125 9.63281 14.125H1.89844C1.54036 14.125 1.236 13.9997 0.985352 13.749C0.734701 13.4984 0.609375 13.194 0.609375 12.8359V3.38281C0.609375 3.02474 0.734701 2.72038 0.985352 2.46973C1.236 2.21908 1.54036 2.09375 1.89844 2.09375H4.04688C4.04688 1.62825 4.21696 1.22542 4.55713 0.885254C4.8973 0.545085 5.30013 0.375 5.76562 0.375C6.23112 0.375 6.63395 0.545085 6.97412 0.885254C7.31429 1.22542 7.48438 1.62825 7.48438 2.09375H9.63281ZM6.07446 1.78491C6.07446 1.78491 6.05432 1.76477 6.01404 1.72449C5.97375 1.6842 5.89095 1.66406 5.76562 1.66406C5.6403 1.66406 5.53735 1.70435 5.45679 1.78491C5.37622 1.86548 5.33594 1.96842 5.33594 2.09375C5.33594 2.21908 5.37622 2.32202 5.45679 2.40259C5.53735 2.48315 5.6403 2.52344 5.76562 2.52344C5.89095 2.52344 5.9939 2.48315 6.07446 2.40259C6.15503 2.32202 6.19531 2.21908 6.19531 2.09375C6.19531 1.96842 6.15503 1.86548 6.07446 1.78491ZM9.63281 12.6211V3.59766C9.63281 3.45443 9.5612 3.38281 9.41797 3.38281H8.34375V4.24219C8.34375 4.36751 8.30347 4.47046 8.2229 4.55103C8.14233 4.63159 8.03939 4.67188 7.91406 4.67188H3.61719C3.49186 4.67188 3.38892 4.63159 3.30835 4.55103C3.22778 4.47046 3.1875 4.36751 3.1875 4.24219V3.38281H2.11328C1.97005 3.38281 1.89844 3.45443 1.89844 3.59766V12.6211C1.89844 12.7643 1.97005 12.8359 2.11328 12.8359H9.41797C9.5612 12.8359 9.63281 12.7643 9.63281 12.6211ZM3.16064 9.37158C3.16064 9.37158 3.19198 9.34025 3.25464 9.27759C3.3173 9.21493 3.43815 9.18359 3.61719 9.18359C3.79622 9.18359 3.94841 9.24626 4.07373 9.37158C4.19906 9.49691 4.26172 9.64909 4.26172 9.82812C4.26172 10.0072 4.19906 10.1593 4.07373 10.2847C3.94841 10.41 3.79622 10.4727 3.61719 10.4727C3.43815 10.4727 3.28597 10.41 3.16064 10.2847C3.03532 10.1593 2.97266 10.0072 2.97266 9.82812C2.97266 9.64909 3.03532 9.49691 3.16064 9.37158ZM8.12891 6.82031C8.27214 6.82031 8.34375 6.89193 8.34375 7.03516V7.46484C8.34375 7.60807 8.27214 7.67969 8.12891 7.67969H5.60449L6.32959 6.98145C6.34749 6.96354 6.3654 6.93221 6.3833 6.88745C6.4012 6.84269 6.41911 6.82031 6.43701 6.82031H8.12891ZM8.12891 9.39844C8.27214 9.39844 8.34375 9.47005 8.34375 9.61328V10.043C8.34375 10.1862 8.27214 10.2578 8.12891 10.2578H5.12109C4.97786 10.2578 4.90625 10.1862 4.90625 10.043V9.61328C4.90625 9.47005 4.97786 9.39844 5.12109 9.39844H8.12891Z" fill="#E91E63"/>
</g>
<defs>
<clipPath id="clip0_3777_19037">
<rect width="10.51" height="13.75" fill="white" transform="matrix(1 0 0 -1 0.509766 14.125)"/>
</clipPath>
</defs>
</svg>
