<svg width="120" height="98" viewBox="0 0 120 98" fill="none" xmlns="http://www.w3.org/2000/svg">
<path d="M18.75 0C19.8437 0 20.7422 0.351562 21.4453 1.05469C22.1484 1.75781 22.5 2.65625 22.5 3.75V18.75C22.5 19.8437 22.1484 20.7422 21.4453 21.4453C20.7422 22.1484 19.8437 22.5 18.75 22.5H3.75C2.65625 22.5 1.75781 22.1484 1.05469 21.4453C0.351562 20.7422 0 19.8437 0 18.75V3.75C0 2.65625 0.351562 1.75781 1.05469 1.05469C1.75781 0.351562 2.65625 0 3.75 0H18.75ZM18.75 37.5C19.8437 37.5 20.7422 37.8516 21.4453 38.5547C22.1484 39.2578 22.5 40.1563 22.5 41.25V56.25C22.5 57.3437 22.1484 58.2422 21.4453 58.9453C20.7422 59.6484 19.8437 60 18.75 60H3.75C2.65625 60 1.75781 59.6484 1.05469 58.9453C0.351562 58.2422 0 57.3437 0 56.25V41.25C0 40.1563 0.351562 39.2578 1.05469 38.5547C1.75781 37.8516 2.65625 37.5 3.75 37.5H18.75ZM18.75 75C19.8437 75 20.7422 75.3516 21.4453 76.0547C22.1484 76.7578 22.5 77.6563 22.5 78.75V93.75C22.5 94.8437 22.1484 95.7422 21.4453 96.4453C20.7422 97.1484 19.8437 97.5 18.75 97.5H3.75C2.65625 97.5 1.75781 97.1484 1.05469 96.4453C0.351562 95.7422 0 94.8437 0 93.75V78.75C0 77.6563 0.351562 76.7578 1.05469 76.0547C1.75781 75.3516 2.65625 75 3.75 75H18.75ZM116.25 43.125C117.344 43.125 118.242 43.4766 118.945 44.1797C119.648 44.8828 120 45.7813 120 46.875V50.625C120 51.7187 119.648 52.6172 118.945 53.3203C118.242 54.0234 117.344 54.375 116.25 54.375H41.25C40.1563 54.375 39.2578 54.0234 38.5547 53.3203C37.8516 52.6172 37.5 51.7187 37.5 50.625V46.875C37.5 45.7813 37.8516 44.8828 38.5547 44.1797C39.2578 43.4766 40.1563 43.125 41.25 43.125H116.25ZM116.25 80.625C117.344 80.625 118.242 80.9766 118.945 81.6797C119.648 82.3828 120 83.2813 120 84.375V88.125C120 89.2187 119.648 90.1172 118.945 90.8203C118.242 91.5234 117.344 91.875 116.25 91.875H41.25C40.1563 91.875 39.2578 91.5234 38.5547 90.8203C37.8516 90.1172 37.5 89.2187 37.5 88.125V84.375C37.5 83.2813 37.8516 82.3828 38.5547 81.6797C39.2578 80.9766 40.1563 80.625 41.25 80.625H116.25ZM116.25 5.625C117.344 5.625 118.242 5.97656 118.945 6.67969C119.648 7.38281 120 8.28125 120 9.375V13.125C120 14.2187 119.648 15.1172 118.945 15.8203C118.242 16.5234 117.344 16.875 116.25 16.875H41.25C40.1563 16.875 39.2578 16.5234 38.5547 15.8203C37.8516 15.1172 37.5 14.2187 37.5 13.125V9.375C37.5 8.28125 37.8516 7.38281 38.5547 6.67969C39.2578 5.97656 40.1563 5.625 41.25 5.625H116.25Z" fill="black"/>
</svg>
