<svg width="200" height="85" viewBox="0 0 200 85" fill="none" xmlns="http://www.w3.org/2000/svg">
<path d="M100 60C111.046 60 120 51.0457 120 40C120 28.9543 111.046 20 100 20C88.9543 20 80 28.9543 80 40C80 51.0457 88.9543 60 100 60Z" fill="#FF5887"/>
<path fill-rule="evenodd" clip-rule="evenodd" d="M97.6009 33.7008C97.6009 33.9208 97.8509 34.0408 98.0109 33.9008L103.121 29.6408C103.148 29.6174 103.17 29.5882 103.185 29.5554C103.201 29.5226 103.208 29.487 103.208 29.4508C103.208 29.4147 103.201 29.3791 103.185 29.3463C103.17 29.3135 103.148 29.2843 103.121 29.2608L98.0209 25.0008C97.9842 24.9666 97.938 24.9442 97.8884 24.9365C97.8388 24.9289 97.7881 24.9363 97.7428 24.9579C97.6975 24.9795 97.6597 25.0142 97.6344 25.0575C97.6091 25.1008 97.5974 25.1508 97.6009 25.2008V28.7808C95.7135 29.1729 93.9545 30.0316 92.4843 31.2783C91.0142 32.5251 89.8797 34.1203 89.1846 35.9182C88.4895 37.7162 88.2559 39.6596 88.505 41.5711C88.7541 43.4825 89.4781 45.3011 90.6109 46.8608C90.6877 46.9679 90.7848 47.0587 90.8968 47.1282C91.0087 47.1977 91.1332 47.2444 91.2632 47.2658C91.3932 47.2872 91.5262 47.2827 91.6544 47.2527C91.7827 47.2227 91.9038 47.1677 92.0109 47.0908C92.1179 47.014 92.2087 46.9169 92.2782 46.8049C92.3477 46.693 92.3944 46.5685 92.4158 46.4385C92.4372 46.3085 92.4327 46.1755 92.4027 46.0473C92.3727 45.919 92.3177 45.7979 92.2409 45.6908C91.3257 44.4309 90.733 42.966 90.5143 41.4242C90.2956 39.8824 90.4577 38.3105 90.9864 36.8457C91.5151 35.381 92.3943 34.0679 93.5473 33.0212C94.7003 31.9745 96.092 31.2259 97.6009 30.8408V33.7108V33.7008ZM102.401 46.2808C102.4 46.2335 102.387 46.1873 102.361 46.1475C102.335 46.1077 102.299 46.076 102.256 46.0561C102.213 46.0362 102.165 46.0289 102.118 46.0351C102.071 46.0412 102.027 46.0605 101.991 46.0908L96.8809 50.3508C96.8534 50.3743 96.8314 50.4035 96.8163 50.4363C96.8012 50.469 96.7933 50.5047 96.7933 50.5408C96.7933 50.577 96.8012 50.6126 96.8163 50.6454C96.8314 50.6782 96.8534 50.7074 96.8809 50.7308L101.981 54.9908C102.151 55.1308 102.401 55.0108 102.401 54.8008V51.3708C104.277 50.9653 106.023 50.098 107.479 48.8476C108.936 47.5972 110.058 46.0032 110.743 44.2099C111.428 42.4166 111.655 40.4807 111.403 38.5776C111.151 36.6745 110.429 34.8642 109.301 33.3108C109.226 33.1985 109.13 33.1023 109.018 33.028C108.905 32.9538 108.779 32.9031 108.646 32.8789C108.514 32.8547 108.378 32.8576 108.246 32.8873C108.115 32.9171 107.991 32.9731 107.881 33.052C107.772 33.1309 107.68 33.2311 107.61 33.3465C107.541 33.4619 107.495 33.5902 107.477 33.7237C107.458 33.8571 107.466 33.993 107.501 34.1231C107.537 34.2532 107.598 34.3749 107.681 34.4808C108.592 35.7352 109.184 37.1927 109.405 38.7272C109.626 40.2617 109.47 41.827 108.95 43.2876C108.43 44.7481 107.562 46.0599 106.421 47.1094C105.279 48.159 103.9 48.9146 102.401 49.3108V46.2808Z" fill="white"/>
<path d="M146.72 25.4992C146.72 25.6982 146.799 25.8889 146.94 26.0296C147.08 26.1702 147.271 26.2492 147.47 26.2492C147.669 26.2492 147.86 26.1702 148 26.0296C148.141 25.8889 148.22 25.6982 148.22 25.4992H146.72ZM133.25 25.4992C133.25 25.6982 133.329 25.8889 133.47 26.0296C133.61 26.1702 133.801 26.2492 134 26.2492C134.199 26.2492 134.39 26.1702 134.53 26.0296C134.671 25.8889 134.75 25.6982 134.75 25.4992H133.25ZM138.49 20.0292L138.03 20.6292L138.48 20.0292H138.49ZM146.72 23.8592V25.4992H148.22V23.8592H146.72ZM143.62 20.2092C144.486 20.3515 145.272 20.7966 145.84 21.4651C146.408 22.1336 146.72 22.9821 146.72 23.8592H148.22C148.219 22.6246 147.779 21.4304 146.978 20.4906C146.178 19.5507 145.069 18.9263 143.85 18.7292L143.62 20.2092ZM140.74 11.2492C141.65 11.2492 142.28 11.5592 142.68 12.0292C143.1 12.5192 143.36 13.2592 143.36 14.2392H144.86C144.86 13.0192 144.53 11.8892 143.82 11.0592C143.436 10.6265 142.96 10.2846 142.427 10.058C141.895 9.83148 141.318 9.72602 140.74 9.74924V11.2492ZM142.92 16.5992C142.42 17.1192 142.22 17.8192 142.28 18.4692C142.34 19.1292 142.7 19.8092 143.41 20.1492L144.06 18.7892C143.91 18.7192 143.79 18.5592 143.76 18.3192C143.748 18.1976 143.762 18.0748 143.802 17.9591C143.842 17.8435 143.906 17.7378 143.99 17.6492L142.92 16.5992ZM133.25 23.8592V25.4992H134.75V23.8592H133.25ZM137.62 18.7292C136.401 18.9263 135.292 19.5507 134.492 20.4906C133.691 21.4304 133.251 22.6246 133.25 23.8592H134.75C134.75 22.9821 135.062 22.1336 135.63 21.4651C136.198 20.7966 136.984 20.3515 137.85 20.2092L137.62 18.7292ZM140.74 9.74924C139.44 9.74924 138.39 10.2092 137.66 11.0492C136.94 11.9563 136.571 13.0923 136.62 14.2492H138.12C138.12 13.2592 138.38 12.5192 138.79 12.0292C139.19 11.5592 139.82 11.2492 140.74 11.2492V9.74924ZM137.48 17.6492C137.65 17.8192 137.73 18.0792 137.71 18.3192C137.68 18.5592 137.57 18.7192 137.41 18.7892L138.06 20.1492C138.38 19.9931 138.654 19.7559 138.854 19.4611C139.054 19.1664 139.173 18.8244 139.2 18.4692C139.234 18.129 139.194 17.7854 139.082 17.4625C138.969 17.1395 138.788 16.8449 138.55 16.5992L137.48 17.6492ZM143.28 18.8692L142.54 19.4292L143.44 20.6292L144.19 20.0692L143.29 18.8692H143.28ZM138.94 19.4292L138.19 18.8692L137.29 20.0692L138.03 20.6292L138.93 19.4292H138.94ZM136.62 14.2392C136.62 14.7292 136.6 15.3392 136.68 15.9092C136.77 16.5092 136.98 17.1292 137.48 17.6492L138.55 16.5992C138.35 16.3992 138.23 16.0992 138.17 15.6992C138.1 15.2692 138.12 14.7992 138.12 14.2392H136.62ZM143.36 14.2392C143.36 14.8092 143.37 15.2692 143.31 15.6992C143.25 16.0992 143.13 16.3992 142.92 16.5992L143.99 17.6492C144.5 17.1292 144.71 16.4992 144.79 15.9092C144.87 15.3392 144.86 14.7292 144.86 14.2392H143.36ZM142.54 19.4392C142.021 19.8287 141.389 20.0392 140.74 20.0392C140.091 20.0392 139.459 19.8287 138.94 19.4392L138.04 20.6292C138.819 21.2134 139.766 21.5292 140.74 21.5292C141.714 21.5292 142.661 21.2134 143.44 20.6292L142.54 19.4292V19.4392ZM140.91 13.7492H143.73V12.2492H140.91V13.7492ZM137.92 11.7392L138.82 12.7892L139.96 11.8092L139.06 10.7592L137.92 11.7392ZM140.91 12.2492C140.55 12.2492 140.2 12.0892 139.96 11.8092L138.82 12.7892C139.34 13.3892 140.11 13.7492 140.91 13.7492V12.2492Z" fill="#FF5887"/>
<path d="M139.5 58V57.5M139.5 62V61.5M146 62.5V62M146 66.5V66M136.5 58V57.5M136.5 62V61.5M139.5 66V65.5M136.5 66V65.5M143 64.2V60C143 59.7348 143.105 59.4804 143.293 59.2929C143.48 59.1054 143.735 59 144 59H148C148.265 59 148.52 59.1054 148.707 59.2929C148.895 59.4804 149 59.7348 149 60V69C149 69.2652 148.895 69.5196 148.707 69.7071C148.52 69.8946 148.265 70 148 70H141M133 64.2V55C133 54.7348 133.105 54.4804 133.293 54.2929C133.48 54.1054 133.735 54 134 54H142C142.265 54 142.52 54.1054 142.707 54.2929C142.895 54.4804 143 54.7348 143 55V69C143 69.2652 142.895 69.5196 142.707 69.7071C142.52 69.8946 142.265 70 142 70H134C133.735 70 133.48 69.8946 133.293 69.7071C133.105 69.5196 133 69.2652 133 69V64.19V64.2Z" stroke="#FF5887" stroke-width="1.5" stroke-linecap="round" stroke-linejoin="round"/>
<path d="M61.2 59.42C61.2397 59.5134 61.2979 59.5978 61.3711 59.668C61.4443 59.7383 61.531 59.7929 61.626 59.8287C61.7209 59.8645 61.8221 59.8806 61.9235 59.8761C62.0249 59.8716 62.1243 59.8466 62.2157 59.8026C62.3071 59.7586 62.3887 59.6965 62.4554 59.62C62.5221 59.5436 62.5726 59.4544 62.6039 59.3579C62.6351 59.2613 62.6465 59.1595 62.6372 59.0584C62.6279 58.9574 62.5983 58.8592 62.55 58.77L61.2 59.42ZM60 61.94L60.25 61.23C60.2368 61.2263 60.2234 61.2229 60.21 61.22L60 61.94ZM58.8 64.44C58.756 64.3514 58.695 64.2723 58.6204 64.2072C58.5459 64.1421 58.4592 64.0924 58.3654 64.0608C58.176 63.9971 57.969 64.0112 57.79 64.1C57.611 64.1888 57.4746 64.3452 57.4108 64.5346C57.3471 64.724 57.3612 64.931 57.45 65.11L58.8 64.45V64.44ZM60.75 65.89C60.75 65.6911 60.671 65.5003 60.5303 65.3597C60.3897 65.219 60.1989 65.14 60 65.14C59.8011 65.14 59.6103 65.219 59.4697 65.3597C59.329 65.5003 59.25 65.6911 59.25 65.89H60.75ZM59.25 67C59.25 67.1989 59.329 67.3897 59.4697 67.5303C59.6103 67.671 59.8011 67.75 60 67.75C60.1989 67.75 60.3897 67.671 60.5303 67.5303C60.671 67.3897 60.75 67.1989 60.75 67H59.25ZM60.75 57C60.75 56.8011 60.671 56.6103 60.5303 56.4697C60.3897 56.329 60.1989 56.25 60 56.25C59.8011 56.25 59.6103 56.329 59.4697 56.4697C59.329 56.6103 59.25 56.8011 59.25 57H60.75ZM59.25 57.98C59.25 58.1789 59.329 58.3697 59.4697 58.5103C59.6103 58.651 59.8011 58.73 60 58.73C60.1989 58.73 60.3897 58.651 60.5303 58.5103C60.671 58.3697 60.75 58.1789 60.75 57.98H59.25ZM62.55 58.77C62.327 58.3095 61.979 57.921 61.5458 57.6487C61.1126 57.3764 60.6117 57.2313 60.1 57.23V58.73C60.58 58.73 61 59.01 61.2 59.43L62.55 58.77ZM60.1 57.23C59.376 57.23 58.6816 57.5176 58.1696 58.0296C57.6576 58.5416 57.37 59.236 57.37 59.96H58.87C58.87 59.28 59.42 58.73 60.1 58.73V57.23ZM57.37 59.96C57.37 60.72 57.67 61.33 58.15 61.78C58.6 62.21 59.2 62.48 59.79 62.66L60.21 61.22C59.8312 61.123 59.4791 60.9419 59.18 60.69C59.0795 60.5978 59.0006 60.4846 58.9487 60.3584C58.8969 60.2322 58.8734 60.0962 58.88 59.96H57.38H57.37ZM57.45 65.11C57.89 66.01 58.82 66.64 59.9 66.64V65.14C59.42 65.14 59 64.86 58.8 64.44L57.45 65.11ZM59.9 66.64C61.4 66.64 62.63 65.42 62.63 63.91H61.13C61.13 64.59 60.58 65.14 59.9 65.14V66.64ZM62.63 63.91C62.6344 63.5671 62.5653 63.2272 62.4273 62.9133C62.2893 62.5993 62.0856 62.3186 61.83 62.09C61.3661 61.7006 60.8289 61.4082 60.25 61.23L59.75 62.64C60.22 62.81 60.58 62.99 60.81 63.2C61.01 63.39 61.13 63.6 61.13 63.91H62.63ZM59.25 65.89V67H60.75V65.89H59.25ZM59.25 57V57.98H60.75V57H59.25ZM67.25 62C67.25 66 64 69.25 60 69.25V70.75C62.3206 70.75 64.5462 69.8281 66.1872 68.1872C67.8281 66.5462 68.75 64.3206 68.75 62H67.25ZM60 69.25C56 69.25 52.75 66 52.75 62H51.25C51.25 64.3206 52.1719 66.5462 53.8128 68.1872C55.4538 69.8281 57.6794 70.75 60 70.75V69.25ZM52.75 62C52.75 58 56 54.75 60 54.75V53.25C57.6794 53.25 55.4538 54.1719 53.8128 55.8128C52.1719 57.4538 51.25 59.6794 51.25 62H52.75ZM60 54.75C64 54.75 67.25 58 67.25 62H68.75C68.75 59.6794 67.8281 57.4538 66.1872 55.8128C64.5462 54.1719 62.3206 53.25 60 53.25V54.75Z" fill="#FF5887"/>
<path d="M67.2 18H70M50 18H53M53 18C53 18.9193 53.1811 19.8295 53.5328 20.6788C53.8846 21.5281 54.4002 22.2997 55.0503 22.9497C55.7003 23.5998 56.4719 24.1154 57.3212 24.4672C58.1705 24.8189 59.0807 25 60 25C60.9193 25 61.8295 24.8189 62.6788 24.4672C63.5281 24.1154 64.2997 23.5998 64.9497 22.9497C65.5998 22.2997 66.1154 21.5281 66.4672 20.6788C66.8189 19.8295 67 18.9193 67 18C67 16.1435 66.2625 14.363 64.9497 13.0503C63.637 11.7375 61.8565 11 60 11C58.1435 11 56.363 11.7375 55.0503 13.0503C53.7375 14.363 53 16.1435 53 18ZM60 25.4V28M60 8V10.8M60 20C60.5304 20 61.0391 19.7893 61.4142 19.4142C61.7893 19.0391 62 18.5304 62 18C62 17.4696 61.7893 16.9609 61.4142 16.5858C61.0391 16.2107 60.5304 16 60 16C59.4696 16 58.9609 16.2107 58.5858 16.5858C58.2107 16.9609 58 17.4696 58 18C58 18.5304 58.2107 19.0391 58.5858 19.4142C58.9609 19.7893 59.4696 20 60 20Z" stroke="#FF5887" stroke-width="1.5" stroke-linecap="round"/>
</svg>
