<svg width="14" height="16" viewBox="0 0 14 16" fill="none" xmlns="http://www.w3.org/2000/svg">
<path d="M12.7139 7.54058C12.733 7.90351 12.733 8.26644 12.7139 8.62936L13.6021 9.14511C13.9078 9.33612 14.0224 9.59399 13.946 9.91872C13.6021 11.1412 12.9813 12.2014 12.0836 13.0991C11.8352 13.3475 11.5583 13.3857 11.2526 13.2137L10.3644 12.698C10.0588 12.9081 9.74362 13.0896 9.4189 13.2424V14.2739C9.4189 14.6368 9.24698 14.866 8.90316 14.9615C7.68066 15.2863 6.45816 15.2863 5.23566 14.9615C5.10195 14.9233 4.98256 14.8374 4.8775 14.7037C4.77244 14.57 4.71991 14.4267 4.71991 14.2739V13.2424C4.39519 13.0896 4.08001 12.9081 3.77439 12.698L2.88616 13.2137C2.58054 13.3857 2.30357 13.3475 2.05525 13.0991C1.15747 12.2014 0.536672 11.1412 0.192844 9.91872C0.116437 9.59399 0.231047 9.33612 0.536672 9.14511L1.42489 8.62936C1.42489 8.45745 1.42489 8.27599 1.42489 8.08497C1.42489 7.89396 1.42489 7.71249 1.42489 7.54058L0.536672 7.02483C0.231047 6.83382 0.116437 6.57595 0.192844 6.25122C0.536672 5.02872 1.15747 3.96858 2.05525 3.07081C2.30357 2.82249 2.58054 2.78429 2.88616 2.9562L3.77439 3.47194C4.08001 3.26183 4.39519 3.08036 4.71991 2.92755V1.89606C4.71991 1.53313 4.89183 1.30392 5.23566 1.20841C6.45816 0.883681 7.68066 0.883681 8.90316 1.20841C9.03687 1.24661 9.15625 1.33257 9.26131 1.46628C9.36637 1.59999 9.4189 1.74325 9.4189 1.89606V2.92755C9.74362 3.08036 10.0588 3.26183 10.3644 3.47194L11.2526 2.9562C11.5583 2.78429 11.8352 2.82249 12.0836 3.07081C12.9813 3.96858 13.6021 5.02872 13.946 6.25122C14.0224 6.57595 13.9078 6.83382 13.6021 7.02483L12.7139 7.54058ZM11.1953 9.34567C11.31 8.75353 11.3673 8.33329 11.3673 8.08497C11.3673 7.83665 11.31 7.41642 11.1953 6.82427L12.456 6.10796C12.2268 5.49671 11.9021 4.93321 11.4819 4.41747L10.2212 5.13378C9.89644 4.86636 9.64812 4.67057 9.4762 4.54641C9.30429 4.42225 9.12282 4.31719 8.93181 4.23123C8.74079 4.14527 8.44472 4.02589 8.04359 3.87308V2.44046C7.71886 2.38315 7.39413 2.3545 7.06941 2.3545C6.74468 2.3545 6.41995 2.38315 6.09523 2.44046V3.87308C5.54128 4.08319 5.15447 4.25033 4.93481 4.37449C4.71514 4.49865 4.37609 4.75175 3.91765 5.13378L2.65695 4.41747C2.23671 4.93321 1.91198 5.49671 1.68277 6.10796L2.94347 6.82427C2.82886 7.41642 2.77155 7.83665 2.77155 8.08497C2.77155 8.33329 2.82886 8.75353 2.94347 9.34567L1.68277 10.062C1.91198 10.6732 2.23671 11.2367 2.65695 11.7525L3.91765 11.0362C4.37609 11.4182 4.71514 11.6713 4.93481 11.7954C5.15447 11.9196 5.54128 12.0867 6.09523 12.2969V13.7295C6.41995 13.7868 6.74468 13.8154 7.06941 13.8154C7.39413 13.8154 7.71886 13.7868 8.04359 13.7295V12.2969C8.44472 12.1441 8.74079 12.0247 8.93181 11.9387C9.12282 11.8528 9.30429 11.7477 9.4762 11.6235C9.64812 11.4994 9.89644 11.3036 10.2212 11.0362L11.4819 11.7525C11.9021 11.2367 12.2268 10.6732 12.456 10.062L11.1953 9.34567ZM5.12105 6.13661C5.12105 6.13661 5.25476 6.0029 5.52218 5.73548C5.7896 5.46806 6.30534 5.33435 7.06941 5.33435C7.83347 5.33435 8.48292 5.60177 9.01777 6.13661C9.55261 6.67146 9.82003 7.32091 9.82003 8.08497C9.82003 8.84903 9.55261 9.49849 9.01777 10.0333C8.48292 10.5682 7.83347 10.8356 7.06941 10.8356C6.30534 10.8356 5.65589 10.5682 5.12105 10.0333C4.5862 9.49849 4.31878 8.84903 4.31878 8.08497C4.31878 7.32091 4.5862 6.67146 5.12105 6.13661ZM6.09523 9.05915C6.09523 9.05915 6.16208 9.12601 6.29579 9.25972C6.4295 9.39343 6.68738 9.46028 7.06941 9.46028C7.45144 9.46028 7.77616 9.32657 8.04359 9.05915C8.31101 8.79173 8.44472 8.467 8.44472 8.08497C8.44472 7.70294 8.31101 7.37821 8.04359 7.11079C7.77616 6.84337 7.45144 6.70966 7.06941 6.70966C6.68738 6.70966 6.36265 6.84337 6.09523 7.11079C5.82781 7.37821 5.69409 7.70294 5.69409 8.08497C5.69409 8.467 5.82781 8.79173 6.09523 9.05915Z" fill="#334155"/>
</svg>
