<svg width="11" height="15" viewBox="0 0 11 15" fill="none" xmlns="http://www.w3.org/2000/svg">
<g clip-path="url(#clip0_4247_339)">
<path d="M9.10547 6.13867C9.11849 6.38607 9.11849 6.63346 9.10547 6.88086L9.71094 7.23242C9.91927 7.36263 9.9974 7.53841 9.94531 7.75977C9.71094 8.5931 9.28776 9.31576 8.67578 9.92773C8.50651 10.097 8.31771 10.123 8.10938 10.0059L7.50391 9.6543C7.29557 9.79753 7.08073 9.92122 6.85938 10.0254V10.7285C6.85938 10.9759 6.74219 11.1322 6.50781 11.1973C5.67448 11.4186 4.84115 11.4186 4.00781 11.1973C3.91667 11.1712 3.83529 11.1126 3.76367 11.0215C3.69206 10.9303 3.65625 10.8327 3.65625 10.7285V10.0254C3.4349 9.92122 3.22005 9.79753 3.01172 9.6543L2.40625 10.0059C2.19792 10.123 2.00911 10.097 1.83984 9.92773C1.22786 9.31576 0.804688 8.5931 0.570313 7.75977C0.518229 7.53841 0.596354 7.36263 0.804688 7.23242L1.41016 6.88086C1.41016 6.76367 1.41016 6.63997 1.41016 6.50977C1.41016 6.37956 1.41016 6.25586 1.41016 6.13867L0.804688 5.78711C0.596354 5.6569 0.518229 5.48112 0.570313 5.25977C0.804688 4.42643 1.22786 3.70378 1.83984 3.0918C2.00911 2.92253 2.19792 2.89648 2.40625 3.01367L3.01172 3.36523C3.22005 3.222 3.4349 3.09831 3.65625 2.99414V2.29102C3.65625 2.04362 3.77344 1.88737 4.00781 1.82227C4.84115 1.60091 5.67448 1.60091 6.50781 1.82227C6.59896 1.84831 6.68034 1.9069 6.75195 1.99805C6.82357 2.08919 6.85938 2.18685 6.85938 2.29102V2.99414C7.08073 3.09831 7.29557 3.222 7.50391 3.36523L8.10938 3.01367C8.31771 2.89648 8.50651 2.92253 8.67578 3.0918C9.28776 3.70378 9.71094 4.42643 9.94531 5.25977C9.9974 5.48112 9.91927 5.6569 9.71094 5.78711L9.10547 6.13867ZM8.07031 7.36914C8.14844 6.96549 8.1875 6.67904 8.1875 6.50977C8.1875 6.34049 8.14844 6.05404 8.07031 5.65039L8.92969 5.16211C8.77344 4.74544 8.55208 4.36133 8.26562 4.00977L7.40625 4.49805C7.1849 4.31576 7.01562 4.18229 6.89844 4.09766C6.78125 4.01302 6.65755 3.94141 6.52734 3.88281C6.39714 3.82422 6.19531 3.74284 5.92188 3.63867V2.66211C5.70052 2.62305 5.47917 2.60352 5.25781 2.60352C5.03646 2.60352 4.8151 2.62305 4.59375 2.66211V3.63867C4.21615 3.7819 3.95247 3.89583 3.80273 3.98047C3.65299 4.0651 3.42188 4.23763 3.10938 4.49805L2.25 4.00977C1.96354 4.36133 1.74219 4.74544 1.58594 5.16211L2.44531 5.65039C2.36719 6.05404 2.32812 6.34049 2.32812 6.50977C2.32812 6.67904 2.36719 6.96549 2.44531 7.36914L1.58594 7.85742C1.74219 8.27409 1.96354 8.6582 2.25 9.00977L3.10938 8.52148C3.42188 8.7819 3.65299 8.95443 3.80273 9.03906C3.95247 9.1237 4.21615 9.23763 4.59375 9.38086V10.3574C4.8151 10.3965 5.03646 10.416 5.25781 10.416C5.47917 10.416 5.70052 10.3965 5.92188 10.3574V9.38086C6.19531 9.27669 6.39714 9.19531 6.52734 9.13672C6.65755 9.07812 6.78125 9.00651 6.89844 8.92188C7.01562 8.83724 7.1849 8.70378 7.40625 8.52148L8.26562 9.00977C8.55208 8.6582 8.77344 8.27409 8.92969 7.85742L8.07031 7.36914ZM3.92969 5.18164C3.92969 5.18164 4.02083 5.09049 4.20312 4.9082C4.38542 4.72591 4.73698 4.63477 5.25781 4.63477C5.77865 4.63477 6.22135 4.81706 6.58594 5.18164C6.95052 5.54622 7.13281 5.98893 7.13281 6.50977C7.13281 7.0306 6.95052 7.47331 6.58594 7.83789C6.22135 8.20247 5.77865 8.38477 5.25781 8.38477C4.73698 8.38477 4.29427 8.20247 3.92969 7.83789C3.5651 7.47331 3.38281 7.0306 3.38281 6.50977C3.38281 5.98893 3.5651 5.54622 3.92969 5.18164ZM4.59375 7.17383C4.59375 7.17383 4.63932 7.2194 4.73047 7.31055C4.82161 7.40169 4.9974 7.44727 5.25781 7.44727C5.51823 7.44727 5.73958 7.35612 5.92188 7.17383C6.10417 6.99154 6.19531 6.77018 6.19531 6.50977C6.19531 6.24935 6.10417 6.02799 5.92188 5.8457C5.73958 5.66341 5.51823 5.57227 5.25781 5.57227C4.9974 5.57227 4.77604 5.66341 4.59375 5.8457C4.41146 6.02799 4.32031 6.24935 4.32031 6.50977C4.32031 6.77018 4.41146 6.99154 4.59375 7.17383Z" fill="#334155"/>
</g>
<defs>
<clipPath id="clip0_4247_339">
<rect width="10.51" height="10" fill="white" transform="matrix(1 0 0 -1 0.300781 11.5098)"/>
</clipPath>
</defs>
</svg>
