<svg width="11" height="14" viewBox="0 0 11 14" fill="none" xmlns="http://www.w3.org/2000/svg">
<g clip-path="url(#clip0_4265_6799)">
<path d="M3.29492 9.41211C3.19238 9.41211 3.10815 9.37915 3.04224 9.31323C2.97632 9.24731 2.94336 9.16309 2.94336 9.06055V6.95117C2.94336 6.84863 2.97632 6.7644 3.04224 6.69849C3.10815 6.63257 3.19238 6.59961 3.29492 6.59961H5.4043C5.50684 6.59961 5.59106 6.63257 5.65698 6.69849C5.7229 6.7644 5.75586 6.84863 5.75586 6.95117V9.06055C5.75586 9.16309 5.7229 9.24731 5.65698 9.31323C5.59106 9.37915 5.50684 9.41211 5.4043 9.41211H3.29492ZM9.62305 2.73242C9.91602 2.73242 10.165 2.83496 10.3701 3.04004C10.5752 3.24512 10.6777 3.49414 10.6777 3.78711V11.5215C10.6777 11.8145 10.5752 12.0635 10.3701 12.2686C10.165 12.4736 9.91602 12.5762 9.62305 12.5762H1.88867C1.5957 12.5762 1.34668 12.4736 1.1416 12.2686C0.936523 12.0635 0.833984 11.8145 0.833984 11.5215V3.78711C0.833984 3.49414 0.936523 3.24512 1.1416 3.04004C1.34668 2.83496 1.5957 2.73242 1.88867 2.73242H2.94336V1.67773C2.94336 1.5752 2.97632 1.49097 3.04224 1.42505C3.10815 1.35913 3.19238 1.32617 3.29492 1.32617H3.99805C4.10059 1.32617 4.18481 1.35913 4.25073 1.42505C4.31665 1.49097 4.34961 1.5752 4.34961 1.67773V2.73242H7.16211V1.67773C7.16211 1.5752 7.19507 1.49097 7.26099 1.42505C7.3269 1.35913 7.41113 1.32617 7.51367 1.32617H8.2168C8.31934 1.32617 8.40356 1.35913 8.46948 1.42505C8.5354 1.49097 8.56836 1.5752 8.56836 1.67773V2.73242H9.62305ZM9.62305 11.3896V4.8418H1.88867V11.3896C1.88867 11.4775 1.93262 11.5215 2.02051 11.5215H9.49121C9.5791 11.5215 9.62305 11.4775 9.62305 11.3896Z" fill="black"/>
</g>
<defs>
<clipPath id="clip0_4265_6799">
<rect width="10.41" height="11.25" fill="white" transform="matrix(1 0 0 -1 0.550781 12.5762)"/>
</clipPath>
</defs>
</svg>
