<svg width="15" height="14" viewBox="0 0 15 14" fill="none" xmlns="http://www.w3.org/2000/svg">
<path d="M7.49609 0.330078C11.2422 0.330078 14.2773 3.36523 14.2773 7.11133C14.2773 10.8574 11.2422 13.8926 7.49609 13.8926C3.75 13.8926 0.714844 10.8574 0.714844 7.11133C0.714844 3.36523 3.75 0.330078 7.49609 0.330078ZM7.49609 12.5801C10.5039 12.5801 12.9648 10.1465 12.9648 7.11133C12.9648 4.10352 10.5039 1.64258 7.49609 1.64258C4.46094 1.64258 2.02734 4.10352 2.02734 7.11133C2.02734 10.1465 4.46094 12.5801 7.49609 12.5801ZM9.16406 9.73633L6.83984 8.04102C6.75781 7.98633 6.73047 7.87695 6.73047 7.79492V3.2832C6.73047 3.11914 6.86719 2.95508 7.05859 2.95508H7.93359C8.09766 2.95508 8.26172 3.11914 8.26172 3.2832V7.16602L10.0664 8.50586C10.2305 8.61523 10.2578 8.80664 10.1484 8.9707L9.62891 9.6543C9.51953 9.81836 9.32812 9.8457 9.16406 9.73633Z" fill="black" fill-opacity="0.38"/>
</svg>
