<svg width="13" height="13" viewBox="0 0 13 13" fill="none" xmlns="http://www.w3.org/2000/svg">
<path d="M12.5281 6.1375C12.5281 9.42871 9.8375 12.0953 6.57031 12.0953C3.2791 12.0953 0.6125 9.42871 0.6125 6.1375C0.6125 2.87031 3.2791 0.179687 6.57031 0.179687C9.8375 0.179687 12.5281 2.87031 12.5281 6.1375ZM5.87363 9.30859L10.2939 4.88828C10.4381 4.74414 10.4381 4.47988 10.2939 4.33574L9.74141 3.80723C9.59727 3.63906 9.35703 3.63906 9.21289 3.80723L5.60937 7.41074L3.90371 5.7291C3.75957 5.56094 3.51934 5.56094 3.3752 5.7291L2.82266 6.25762C2.67852 6.40176 2.67852 6.66602 2.82266 6.81016L5.32109 9.30859C5.46523 9.45273 5.72949 9.45273 5.87363 9.30859Z" fill="#FF5887"/>
</svg>
