<svg width="150" height="123" viewBox="0 0 150 123" fill="none" xmlns="http://www.w3.org/2000/svg">
<path d="M23.4375 0.490234C24.8047 0.490234 25.9277 0.929688 26.8066 1.80859C27.6855 2.6875 28.125 3.81055 28.125 5.17773V23.9277C28.125 25.2949 27.6855 26.418 26.8066 27.2969C25.9277 28.1758 24.8047 28.6152 23.4375 28.6152H4.6875C3.32031 28.6152 2.19727 28.1758 1.31836 27.2969C0.439453 26.418 0 25.2949 0 23.9277V5.17773C0 3.81055 0.439453 2.6875 1.31836 1.80859C2.19727 0.929688 3.32031 0.490234 4.6875 0.490234H23.4375ZM23.4375 47.3652C24.8047 47.3652 25.9277 47.8047 26.8066 48.6836C27.6855 49.5625 28.125 50.6855 28.125 52.0527V70.8027C28.125 72.1699 27.6855 73.293 26.8066 74.1719C25.9277 75.0508 24.8047 75.4902 23.4375 75.4902H4.6875C3.32031 75.4902 2.19727 75.0508 1.31836 74.1719C0.439453 73.293 0 72.1699 0 70.8027V52.0527C0 50.6855 0.439453 49.5625 1.31836 48.6836C2.19727 47.8047 3.32031 47.3652 4.6875 47.3652H23.4375ZM23.4375 94.2402C24.8047 94.2402 25.9277 94.6797 26.8066 95.5586C27.6855 96.4375 28.125 97.5605 28.125 98.9277V117.678C28.125 119.045 27.6855 120.168 26.8066 121.047C25.9277 121.926 24.8047 122.365 23.4375 122.365H4.6875C3.32031 122.365 2.19727 121.926 1.31836 121.047C0.439453 120.168 0 119.045 0 117.678V98.9277C0 97.5605 0.439453 96.4375 1.31836 95.5586C2.19727 94.6797 3.32031 94.2402 4.6875 94.2402H23.4375ZM145.312 54.3965C146.68 54.3965 147.803 54.8359 148.682 55.7148C149.561 56.5938 150 57.7168 150 59.084V63.7715C150 65.1387 149.561 66.2617 148.682 67.1406C147.803 68.0195 146.68 68.459 145.312 68.459H51.5625C50.1953 68.459 49.0723 68.0195 48.1934 67.1406C47.3145 66.2617 46.875 65.1387 46.875 63.7715V59.084C46.875 57.7168 47.3145 56.5938 48.1934 55.7148C49.0723 54.8359 50.1953 54.3965 51.5625 54.3965H145.312ZM145.312 101.271C146.68 101.271 147.803 101.711 148.682 102.59C149.561 103.469 150 104.592 150 105.959V110.646C150 112.014 149.561 113.137 148.682 114.016C147.803 114.895 146.68 115.334 145.312 115.334H51.5625C50.1953 115.334 49.0723 114.895 48.1934 114.016C47.3145 113.137 46.875 112.014 46.875 110.646V105.959C46.875 104.592 47.3145 103.469 48.1934 102.59C49.0723 101.711 50.1953 101.271 51.5625 101.271H145.312ZM145.312 7.52148C146.68 7.52148 147.803 7.96094 148.682 8.83984C149.561 9.71875 150 10.8418 150 12.209V16.8965C150 18.2637 149.561 19.3867 148.682 20.2656C147.803 21.1445 146.68 21.584 145.312 21.584H51.5625C50.1953 21.584 49.0723 21.1445 48.1934 20.2656C47.3145 19.3867 46.875 18.2637 46.875 16.8965V12.209C46.875 10.8418 47.3145 9.71875 48.1934 8.83984C49.0723 7.96094 50.1953 7.52148 51.5625 7.52148H145.312Z" fill="black" fill-opacity="0.87"/>
</svg>
