<svg width="12" height="10" viewBox="0 0 12 10" fill="none" xmlns="http://www.w3.org/2000/svg">
<path d="M2.41016 0.984375C2.50586 0.984375 2.58447 1.01514 2.646 1.07666C2.70752 1.13818 2.73828 1.2168 2.73828 1.3125V2.625C2.73828 2.7207 2.70752 2.79932 2.646 2.86084C2.58447 2.92236 2.50586 2.95312 2.41016 2.95312H1.09766C1.00195 2.95312 0.92334 2.92236 0.861816 2.86084C0.800293 2.79932 0.769531 2.7207 0.769531 2.625V1.3125C0.769531 1.2168 0.800293 1.13818 0.861816 1.07666C0.92334 1.01514 1.00195 0.984375 1.09766 0.984375H2.41016ZM2.41016 4.26562C2.50586 4.26562 2.58447 4.29639 2.646 4.35791C2.70752 4.41943 2.73828 4.49805 2.73828 4.59375V5.90625C2.73828 6.00195 2.70752 6.08057 2.646 6.14209C2.58447 6.20361 2.50586 6.23438 2.41016 6.23438H1.09766C1.00195 6.23438 0.92334 6.20361 0.861816 6.14209C0.800293 6.08057 0.769531 6.00195 0.769531 5.90625V4.59375C0.769531 4.49805 0.800293 4.41943 0.861816 4.35791C0.92334 4.29639 1.00195 4.26562 1.09766 4.26562H2.41016ZM2.41016 7.54688C2.50586 7.54688 2.58447 7.57764 2.646 7.63916C2.70752 7.70068 2.73828 7.7793 2.73828 7.875V9.1875C2.73828 9.2832 2.70752 9.36182 2.646 9.42334C2.58447 9.48486 2.50586 9.51562 2.41016 9.51562H1.09766C1.00195 9.51562 0.92334 9.48486 0.861816 9.42334C0.800293 9.36182 0.769531 9.2832 0.769531 9.1875V7.875C0.769531 7.7793 0.800293 7.70068 0.861816 7.63916C0.92334 7.57764 1.00195 7.54688 1.09766 7.54688H2.41016ZM10.9414 4.75781C11.0371 4.75781 11.1157 4.78857 11.1772 4.8501C11.2388 4.91162 11.2695 4.99023 11.2695 5.08594V5.41406C11.2695 5.50977 11.2388 5.58838 11.1772 5.6499C11.1157 5.71143 11.0371 5.74219 10.9414 5.74219H4.37891C4.2832 5.74219 4.20459 5.71143 4.14307 5.6499C4.08154 5.58838 4.05078 5.50977 4.05078 5.41406V5.08594C4.05078 4.99023 4.08154 4.91162 4.14307 4.8501C4.20459 4.78857 4.2832 4.75781 4.37891 4.75781H10.9414ZM10.9414 8.03906C11.0371 8.03906 11.1157 8.06982 11.1772 8.13135C11.2388 8.19287 11.2695 8.27148 11.2695 8.36719V8.69531C11.2695 8.79102 11.2388 8.86963 11.1772 8.93115C11.1157 8.99268 11.0371 9.02344 10.9414 9.02344H4.37891C4.2832 9.02344 4.20459 8.99268 4.14307 8.93115C4.08154 8.86963 4.05078 8.79102 4.05078 8.69531V8.36719C4.05078 8.27148 4.08154 8.19287 4.14307 8.13135C4.20459 8.06982 4.2832 8.03906 4.37891 8.03906H10.9414ZM10.9414 1.47656C11.0371 1.47656 11.1157 1.50732 11.1772 1.56885C11.2388 1.63037 11.2695 1.70898 11.2695 1.80469V2.13281C11.2695 2.22852 11.2388 2.30713 11.1772 2.36865C11.1157 2.43018 11.0371 2.46094 10.9414 2.46094H4.37891C4.2832 2.46094 4.20459 2.43018 4.14307 2.36865C4.08154 2.30713 4.05078 2.22852 4.05078 2.13281V1.80469C4.05078 1.70898 4.08154 1.63037 4.14307 1.56885C4.20459 1.50732 4.2832 1.47656 4.37891 1.47656H10.9414Z" fill="#475569" fill-opacity="0.5"/>
</svg>
