<svg width="14" height="14" viewBox="0 0 14 14" fill="none" xmlns="http://www.w3.org/2000/svg">
<g clip-path="url(#clip0_7789_1043)">
<path fill-rule="evenodd" clip-rule="evenodd" d="M9.46563 12.4876C8.68563 12.4589 6.47508 12.1534 4.16 9.83882C1.84546 7.52374 1.5405 5.31374 1.51125 4.5332C1.46792 3.3437 2.379 2.18832 3.43146 1.73712C3.5582 1.68239 3.69698 1.66155 3.8342 1.67665C3.97142 1.69175 4.10236 1.74227 4.21417 1.82324C5.08083 2.45482 5.67883 3.41032 6.19233 4.16162C6.30532 4.32668 6.35362 4.52754 6.32805 4.72592C6.30248 4.92431 6.20482 5.10635 6.05367 5.23737L4.99688 6.02224C4.94582 6.05911 4.90988 6.11326 4.89573 6.17462C4.88159 6.23599 4.8902 6.30041 4.91996 6.35591C5.15938 6.79087 5.58513 7.4387 6.07263 7.9262C6.56067 8.4137 7.23883 8.86762 7.70413 9.13412C7.76246 9.16686 7.83113 9.17602 7.89601 9.1597C7.9609 9.14338 8.01706 9.10282 8.05296 9.04637L8.74088 7.99932C8.86735 7.83132 9.05392 7.71878 9.26151 7.68526C9.46911 7.65173 9.68162 7.69984 9.85454 7.81949C10.6167 8.34707 11.5061 8.93478 12.1572 9.76841C12.2447 9.88102 12.3004 10.0151 12.3184 10.1566C12.3364 10.2981 12.3161 10.4418 12.2595 10.5728C11.8062 11.6307 10.6589 12.5314 9.46563 12.4876Z" fill="black" fill-opacity="0.38"/>
</g>
<defs>
<clipPath id="clip0_7789_1043">
<rect width="13" height="13" fill="white" transform="translate(0.5 0.5)"/>
</clipPath>
</defs>
</svg>
