<svg width="23" height="20" viewBox="0 0 23 20" fill="none" xmlns="http://www.w3.org/2000/svg">
<g clip-path="url(#clip0_3779_19278)">
<path d="M12.5371 8.94859C12.5371 8.94859 12.6089 9.02042 12.7526 9.16406C12.8962 9.30771 12.968 9.58474 12.968 9.99516C12.968 10.4056 12.8244 10.7544 12.5371 11.0417C12.2498 11.329 11.901 11.4727 11.4905 11.4727C11.0801 11.4727 10.7313 11.329 10.444 11.0417C10.1567 10.7544 10.013 10.4056 10.013 9.99516C10.013 9.58474 10.1567 9.23589 10.444 8.94859C10.7313 8.6613 11.0801 8.51766 11.4905 8.51766C11.901 8.51766 12.2498 8.6613 12.5371 8.94859ZM15.6152 8.94859C15.6152 8.94859 15.6871 8.87677 15.8307 8.73313C15.9743 8.58948 16.2514 8.51766 16.6618 8.51766C17.0722 8.51766 17.4211 8.6613 17.7084 8.94859C17.9957 9.23589 18.1393 9.58474 18.1393 9.99516C18.1393 10.4056 17.9957 10.7544 17.7084 11.0417C17.4211 11.329 17.0722 11.4727 16.6618 11.4727C16.2514 11.4727 15.9025 11.329 15.6152 11.0417C15.3279 10.7544 15.1843 10.4056 15.1843 9.99516C15.1843 9.58474 15.3279 9.23589 15.6152 8.94859ZM5.27273 8.94859C5.27273 8.94859 5.34456 8.87677 5.4882 8.73313C5.63185 8.58948 5.90888 8.51766 6.3193 8.51766C6.72971 8.51766 7.07857 8.6613 7.36586 8.94859C7.65315 9.23589 7.7968 9.58474 7.7968 9.99516C7.7968 10.4056 7.65315 10.7544 7.36586 11.0417C7.07857 11.329 6.72971 11.4727 6.3193 11.4727C5.90888 11.4727 5.56003 11.329 5.27273 11.0417C4.98544 10.7544 4.8418 10.4056 4.8418 9.99516C4.8418 9.58474 4.98544 9.23589 5.27273 8.94859Z" fill="#334155"/>
</g>
<defs>
<clipPath id="clip0_3779_19278">
<rect width="13.2975" height="2.955" fill="white" transform="matrix(1 0 0 -1 4.8418 11.4727)"/>
</clipPath>
</defs>
</svg>
