<svg width="10" height="13" viewBox="0 0 10 13" fill="none" xmlns="http://www.w3.org/2000/svg">
<path d="M1.84021 1.71187C1.84021 1.71187 2.06358 1.48851 2.51031 1.04177C2.95705 0.595035 3.81861 0.371667 5.095 0.371667C6.37139 0.371667 7.45632 0.818403 8.34979 1.71187C9.24326 2.60535 9.69 3.69028 9.69 4.96667C9.69 5.22194 9.68202 5.44132 9.66607 5.6248C9.65011 5.80829 9.59427 6.02767 9.49854 6.28294C9.40281 6.53822 9.31506 6.75361 9.23529 6.92911C9.15551 7.10462 8.99596 7.39181 8.75664 7.79068C8.51732 8.18955 8.30592 8.53258 8.12243 8.81977C7.93895 9.10695 7.63581 9.5856 7.21301 10.2557C6.7902 10.9258 6.41128 11.5321 6.07622 12.0746C5.85286 12.4415 5.52578 12.625 5.095 12.625C4.66422 12.625 4.33714 12.4415 4.11378 12.0746C3.77872 11.5321 3.3998 10.9258 2.97699 10.2557C2.55419 9.5856 2.25105 9.10695 2.06757 8.81977C1.88408 8.53258 1.67268 8.18955 1.43336 7.79068C1.19404 7.39181 1.03449 7.10462 0.954714 6.92911C0.874939 6.75361 0.787187 6.53822 0.691458 6.28294C0.595729 6.02767 0.539887 5.80829 0.523932 5.6248C0.507977 5.44132 0.5 5.22194 0.5 4.96667C0.5 3.69028 0.946736 2.60535 1.84021 1.71187ZM5.095 11.4763C5.4141 10.9657 5.75713 10.4232 6.12409 9.84885C6.49105 9.27448 6.76627 8.83971 6.94975 8.54454C7.13323 8.24938 7.32868 7.93427 7.53609 7.59922C7.74351 7.26417 7.89109 7.01288 7.97884 6.84535C8.06659 6.67783 8.15833 6.49833 8.25406 6.30688C8.34979 6.11542 8.41361 5.95587 8.44552 5.82823C8.47743 5.70059 8.50136 5.56896 8.51732 5.43335C8.53327 5.29773 8.54125 5.14217 8.54125 4.96667C8.54125 4.00938 8.2062 3.19568 7.53609 2.52557C6.86599 1.85547 6.05229 1.52042 5.095 1.52042C4.13771 1.52042 3.32401 1.85547 2.65391 2.52557C1.9838 3.19568 1.64875 4.00938 1.64875 4.96667C1.64875 5.14217 1.65673 5.29773 1.67268 5.43335C1.68864 5.56896 1.71257 5.70458 1.74448 5.8402C1.77639 5.97581 1.84021 6.13935 1.93594 6.33081C2.03167 6.52227 2.1274 6.70176 2.22312 6.86928C2.31885 7.03681 2.47043 7.2881 2.67784 7.62315C2.88525 7.9582 3.0807 8.27331 3.26418 8.56848C3.44766 8.86364 3.71889 9.29442 4.07788 9.86082C4.43686 10.4272 4.7759 10.9657 5.095 11.4763ZM3.74283 6.31884C3.74283 6.31884 3.64909 6.22511 3.46162 6.03764C3.27415 5.85017 3.18042 5.49318 3.18042 4.96667C3.18042 4.44016 3.36789 3.98943 3.74283 3.61449C4.11776 3.23955 4.56849 3.05208 5.095 3.05208C5.62151 3.05208 6.07224 3.23955 6.44717 3.61449C6.82211 3.98943 7.00958 4.44016 7.00958 4.96667C7.00958 5.49318 6.82211 5.9439 6.44717 6.31884C6.07224 6.69378 5.62151 6.88125 5.095 6.88125C4.56849 6.88125 4.11776 6.69378 3.74283 6.31884Z" fill="white"/>
</svg>
