<svg width="27" height="27" viewBox="0 0 27 27" fill="none" xmlns="http://www.w3.org/2000/svg">
<g clip-path="url(#clip0_3583_8303)">
<path d="M2.13672 0.25C1.66276 0.25 1.25651 0.419271 0.917969 0.757812C0.579428 1.09635 0.410156 1.5026 0.410156 1.97656V24.5234C0.410156 24.9974 0.579428 25.4036 0.917969 25.7422C1.25651 26.0807 1.66276 26.25 2.13672 26.25H24.6836C25.1576 26.25 25.5638 26.0807 25.9023 25.7422C26.2409 25.4036 26.4102 24.9974 26.4102 24.5234V1.97656C26.4102 1.5026 26.2409 1.09635 25.9023 0.757812C25.5638 0.419271 25.1576 0.25 24.6836 0.25H2.13672ZM14.6289 23.8125V14.4688H23.9727V23.8125H14.6289ZM14.6289 12.0312V2.6875H23.9727V12.0312H14.6289ZM2.84766 23.8125V14.4688H12.1914V23.8125H2.84766ZM2.84766 12.0312V2.6875H12.1914V12.0312H2.84766ZM21.1289 8.375C21.3997 8.375 21.5352 8.23958 21.5352 7.96875V7.15625C21.5352 6.88542 21.3997 6.75 21.1289 6.75H17.0664C16.7956 6.75 16.6602 6.88542 16.6602 7.15625V7.96875C16.6602 8.23958 16.7956 8.375 17.0664 8.375H21.1289ZM9.75391 20.9688C10.0247 20.9688 10.1602 20.8333 10.1602 20.5625V19.75C10.1602 19.4792 10.0247 19.3438 9.75391 19.3438H5.69141C5.42057 19.3438 5.28516 19.4792 5.28516 19.75V20.5625C5.28516 20.8333 5.42057 20.9688 5.69141 20.9688H9.75391ZM9.75391 18.5312C10.0247 18.5312 10.1602 18.3958 10.1602 18.125V17.3125C10.1602 17.0417 10.0247 16.9062 9.75391 16.9062H5.69141C5.42057 16.9062 5.28516 17.0417 5.28516 17.3125V18.125C5.28516 18.3958 5.42057 18.5312 5.69141 18.5312H9.75391ZM9.75391 8.375C10.0247 8.375 10.1602 8.23958 10.1602 7.96875V7.15625C10.1602 6.88542 10.0247 6.75 9.75391 6.75H8.53516V5.53125C8.53516 5.26042 8.39974 5.125 8.12891 5.125H7.31641C7.04557 5.125 6.91016 5.26042 6.91016 5.53125V6.75H5.69141C5.42057 6.75 5.28516 6.88542 5.28516 7.15625V7.96875C5.28516 8.23958 5.42057 8.375 5.69141 8.375H6.91016V9.59375C6.91016 9.86458 7.04557 10 7.31641 10H8.12891C8.39974 10 8.53516 9.86458 8.53516 9.59375V8.375H9.75391ZM21.1289 20.3594C21.2982 20.1901 21.2982 20.0039 21.1289 19.8008L20.2656 18.9375L21.1289 18.0742C21.2982 17.8711 21.2982 17.6849 21.1289 17.5156L20.5195 16.9062C20.3503 16.737 20.1641 16.737 19.9609 16.9062L19.0977 17.7695L18.2344 16.9062C18.0312 16.737 17.8451 16.737 17.6758 16.9062L17.0664 17.5156C16.8971 17.6849 16.8971 17.8711 17.0664 18.0742L17.9297 18.9375L17.0664 19.8008C16.8971 20.0039 16.8971 20.1901 17.0664 20.3594L17.6758 20.9688C17.8451 21.138 18.0312 21.138 18.2344 20.9688L19.0977 20.1055L19.9609 20.9688C20.1641 21.138 20.3503 21.138 20.5195 20.9688L21.1289 20.3594Z" fill="#2563EB"/>
</g>
<defs>
<clipPath id="clip0_3583_8303">
<rect width="26.25" height="26" fill="white" transform="matrix(-1 0 0 -1 26.5352 26.25)"/>
</clipPath>
</defs>
</svg>
