<svg width="23" height="21" viewBox="0 0 23 21" fill="none" xmlns="http://www.w3.org/2000/svg">
<path d="M0.382187 11.252C0.143021 11.0127 0.0234375 10.7221 0.0234375 10.3803C0.0234375 10.0385 0.143021 9.74797 0.382187 9.50869L9.40219 0.894944C10.0172 0.416403 10.598 0.416403 11.1447 0.894944C11.623 1.51021 11.6059 2.0913 11.0934 2.6382L4.32844 9.14979H21.7534C22.5051 9.21815 22.9151 9.62833 22.9834 10.3803C22.9151 11.1323 22.5051 11.5425 21.7534 11.6109H4.32844L11.1447 18.1224C11.623 18.6693 11.623 19.2504 11.1447 19.8657C10.598 20.3442 10.0343 20.3442 9.45344 19.8657L0.433437 11.252H0.382187Z" fill="#1E293B"/>
</svg>
