<svg width="14" height="13" viewBox="0 0 14 13" fill="none" xmlns="http://www.w3.org/2000/svg">
<path d="M7.80171 1.05554C7.65817 0.784406 7.4269 0.640864 7.10792 0.624915C6.80489 0.640864 6.57363 0.784406 6.41414 1.05554L4.88303 4.21346L1.43803 4.73978C1.135 4.78762 0.935632 4.95509 0.839937 5.24217C0.744243 5.5452 0.808039 5.80836 1.03133 6.03165L3.51938 8.49578L2.92129 11.9886C2.88939 12.2917 2.99306 12.5389 3.2323 12.7303C3.48748 12.9057 3.75862 12.9217 4.0457 12.7781L7.10792 11.1513L10.1941 12.7781C10.4652 12.9217 10.7284 12.9057 10.9835 12.7303C11.2387 12.5389 11.3424 12.2917 11.2946 11.9886L10.7204 8.49578L13.2084 6.03165C13.4158 5.80836 13.4796 5.5452 13.3998 5.24217C13.2882 4.95509 13.0809 4.78762 12.7778 4.73978L9.33282 4.21346L7.80171 1.05554Z" fill="#3296C8"/>
</svg>
