<svg width="13" height="8" viewBox="0 0 13 8" fill="none" xmlns="http://www.w3.org/2000/svg">
<path d="M12.6196 3.16153C12.6571 3.14904 12.6915 3.15841 12.7227 3.18964C12.7539 3.22086 12.7695 3.26146 12.7695 3.31142V3.94847C12.7695 4.03591 12.7196 4.08587 12.6196 4.09836C12.2574 4.12335 11.6079 4.41689 10.671 4.97899C10.2963 5.19134 10.0402 5.32874 9.90282 5.3912C9.06591 5.77842 8.43511 5.97203 8.01041 5.97203C7.51077 5.97203 7.12354 5.82214 6.84874 5.52235C6.56144 5.19758 6.44902 4.69169 6.51148 4.00468L6.53021 3.64868L6.24916 3.87352C5.27485 4.66047 3.91957 5.94081 2.1833 7.71455C2.09586 7.80198 1.98969 7.8457 1.86478 7.8457C1.6899 7.8457 1.56499 7.78325 1.49004 7.65834C1.39011 7.50844 1.37138 7.35855 1.43383 7.20866L3.3075 2.39333C3.41992 2.13101 3.36371 1.90617 3.13887 1.7188C3.03894 1.63137 2.92028 1.58765 2.78287 1.58765C2.67045 1.58765 2.56428 1.61888 2.46435 1.68133L1.34015 2.44954C1.31517 2.46203 1.28082 2.46515 1.2371 2.4589C1.19338 2.45266 1.15903 2.4308 1.13405 2.39333L0.796785 1.8687C0.74682 1.78126 0.765557 1.70631 0.852995 1.64386L1.90225 0.931864C2.28947 0.719514 2.63298 0.628954 2.93277 0.660182C3.23255 0.69141 3.50111 0.806952 3.73845 1.00681C3.98827 1.21916 4.15378 1.4846 4.23497 1.80312C4.31616 2.12164 4.2943 2.43704 4.16939 2.74932L3.1014 5.44741L3.62603 4.94152C5.23738 3.35514 6.28664 2.54946 6.77379 2.52448C6.98614 2.51199 7.14852 2.5682 7.26094 2.69311C7.44831 2.90546 7.51077 3.28644 7.44831 3.83605C7.37336 4.34819 7.41084 4.68545 7.56073 4.84783C7.66066 4.97274 7.81055 5.0352 8.01041 5.0352C8.3102 5.0352 8.81609 4.87281 9.52808 4.54805C9.67798 4.4731 9.93405 4.3357 10.2963 4.13584C11.383 3.51128 12.1575 3.18651 12.6196 3.16153Z" fill="#475569" fill-opacity="0.5"/>
</svg>
