<svg width="15" height="14" viewBox="0 0 15 14" fill="none" xmlns="http://www.w3.org/2000/svg">
<path d="M10.3711 5.6875C10.3711 4.90365 10.1797 4.17448 9.79688 3.5C9.39583 2.82552 8.85807 2.28776 8.18359 1.88672C7.49089 1.50391 6.76172 1.3125 5.99609 1.3125C5.23047 1.3125 4.5013 1.50391 3.80859 1.88672C3.13411 2.28776 2.59635 2.82552 2.19531 3.5C1.8125 4.17448 1.62109 4.90365 1.62109 5.6875C1.62109 6.47135 1.8125 7.20052 2.19531 7.875C2.59635 8.54948 3.13411 9.08724 3.80859 9.48828C4.5013 9.87109 5.23047 10.0625 5.99609 10.0625C6.76172 10.0625 7.49089 9.87109 8.18359 9.48828C8.85807 9.08724 9.39583 8.54948 9.79688 7.875C10.1797 7.20052 10.3711 6.47135 10.3711 5.6875ZM9.52344 10.1445C8.53906 10.9466 7.36328 11.3568 5.99609 11.375C4.39193 11.3385 3.05208 10.7826 1.97656 9.70703C0.901042 8.63151 0.345052 7.29167 0.308594 5.6875C0.345052 4.08333 0.901042 2.74349 1.97656 1.66797C3.05208 0.592448 4.39193 0.0364583 5.99609 0C7.60026 0.0364583 8.9401 0.592448 10.0156 1.66797C11.0911 2.74349 11.6471 4.08333 11.6836 5.6875C11.6654 7.05469 11.2552 8.23047 10.4531 9.21484L14.1172 12.8789C14.3724 13.1888 14.3724 13.4987 14.1172 13.8086C13.8073 14.0638 13.4974 14.0638 13.1875 13.8086L9.52344 10.1445Z" fill="#FF5887"/>
</svg>
