<svg width="14" height="14" viewBox="0 0 14 14" fill="none" xmlns="http://www.w3.org/2000/svg">
<path d="M7.19509 13.8048C7.0078 13.9713 6.83092 13.9713 6.66444 13.8048L0.140468 7.24964C-0.0468227 7.08316 -0.0468227 6.91668 0.140468 6.7502L6.66444 0.195016C6.83092 0.0285349 7.0078 0.0285349 7.19509 0.195016L7.8194 0.819319C7.98588 0.9858 7.98588 1.16269 7.8194 1.34998L2.98105 6.18833H13.6254C13.8751 6.18833 14 6.31319 14 6.56291V7.43693C14 7.68665 13.8751 7.81152 13.6254 7.81152H2.98105L7.8194 12.6499C7.98588 12.8372 7.98588 13.014 7.8194 13.1805L7.19509 13.8048Z" fill="#1E293B"/>
</svg>
