<svg width="15" height="15" viewBox="0 0 15 15" fill="none" xmlns="http://www.w3.org/2000/svg">
<path d="M7.59653 0.238758L7.37556 0.459695C7.22913 0.606133 7.22913 0.84357 7.37556 0.990039L12.9535 6.56798H1.20703C0.999938 6.56798 0.832031 6.73588 0.832031 6.94298V7.25548C0.832031 7.46257 0.999938 7.63048 1.20703 7.63048H12.9535L7.37556 13.2084C7.22913 13.3549 7.22913 13.5923 7.37556 13.7388L7.59653 13.9597C7.74297 14.1061 7.98041 14.1061 8.12684 13.9597L14.7222 7.36438C14.8686 7.21794 14.8686 6.98051 14.7222 6.83404L8.12684 0.238758C7.98041 0.0922891 7.74297 0.0922891 7.59653 0.238758Z" fill="#FF5887"/>
</svg>
