<svg width="13" height="14" viewBox="0 0 13 14" fill="none" xmlns="http://www.w3.org/2000/svg">
<path d="M6.76953 11.1004C5.76953 10.4837 4.9487 9.63789 4.30703 8.56289C3.66536 7.48789 3.29453 6.25039 3.19453 4.85039L6.76953 3.35039V11.1004ZM12.0195 2.95039C12.2529 3.03372 12.4362 3.17539 12.5695 3.37539C12.7029 3.57539 12.7695 3.80039 12.7695 4.05039C12.7695 5.10039 12.6445 6.10456 12.3945 7.06289C12.1445 8.02122 11.8279 8.84622 11.4445 9.53789C11.0612 10.2296 10.6154 10.8546 10.107 11.4129C9.5987 11.9712 9.10703 12.4212 8.63203 12.7629C8.15703 13.1046 7.6862 13.3671 7.21953 13.5504C6.91953 13.6837 6.61953 13.6837 6.31953 13.5504C5.61953 13.2671 4.9487 12.8462 4.30703 12.2879C3.66536 11.7296 3.07786 11.0546 2.54453 10.2629C2.0112 9.47122 1.58203 8.53372 1.25703 7.45039C0.932031 6.36706 0.769531 5.23372 0.769531 4.05039C0.769531 3.95039 0.782031 3.85456 0.807031 3.76289C0.832031 3.67122 0.865365 3.58372 0.907031 3.50039C0.948698 3.41706 0.998698 3.34206 1.05703 3.27539C1.11536 3.20872 1.18203 3.14622 1.25703 3.08789C1.33203 3.02956 1.41953 2.98372 1.51953 2.95039L6.31953 0.950391C6.45286 0.883724 6.60286 0.85039 6.76953 0.85039C6.9362 0.85039 7.0862 0.883724 7.21953 0.950391L12.0195 2.95039ZM6.76953 12.4504C8.05286 11.9171 9.1737 10.8921 10.132 9.37539C11.0904 7.85872 11.5695 6.08372 11.5695 4.05039L6.76953 2.05039L1.96953 4.05039C1.96953 6.05039 2.44036 7.81289 3.38203 9.33789C4.3237 10.8629 5.45286 11.9004 6.76953 12.4504Z" fill="#475569" fill-opacity="0.5"/>
</svg>
