<svg width="17" height="16" viewBox="0 0 17 16" fill="none" xmlns="http://www.w3.org/2000/svg">
<path d="M8.30078 0.150391C4.02087 0.150391 0.550781 3.62173 0.550781 7.90039C0.550781 12.1815 4.02087 15.6504 8.30078 15.6504C12.5807 15.6504 16.0508 12.1815 16.0508 7.90039C16.0508 3.62173 12.5807 0.150391 8.30078 0.150391ZM8.30078 3.58789C9.02566 3.58789 9.61328 4.17552 9.61328 4.90039C9.61328 5.62527 9.02566 6.21289 8.30078 6.21289C7.57591 6.21289 6.98828 5.62527 6.98828 4.90039C6.98828 4.17552 7.57591 3.58789 8.30078 3.58789ZM10.0508 11.5254C10.0508 11.7325 9.88288 11.9004 9.67578 11.9004H6.92578C6.71869 11.9004 6.55078 11.7325 6.55078 11.5254V10.7754C6.55078 10.5683 6.71869 10.4004 6.92578 10.4004H7.30078V8.40039H6.92578C6.71869 8.40039 6.55078 8.23248 6.55078 8.02539V7.27539C6.55078 7.0683 6.71869 6.90039 6.92578 6.90039H8.92578C9.13288 6.90039 9.30078 7.0683 9.30078 7.27539V10.4004H9.67578C9.88288 10.4004 10.0508 10.5683 10.0508 10.7754V11.5254Z" fill="#89A8F8"/>
</svg>
