<svg width="4" height="13" viewBox="0 0 4 13" fill="none" xmlns="http://www.w3.org/2000/svg">
<path d="M1.8093 9.60602C1.26997 9.62599 0.850495 9.86569 0.550869 10.3251C0.311169 10.8045 0.311169 11.2839 0.550869 11.7633C0.850495 12.2227 1.26997 12.4624 1.8093 12.4824C2.34862 12.4624 2.7681 12.2227 3.06772 11.7633C3.30742 11.2839 3.30742 10.8045 3.06772 10.3251C2.7681 9.86569 2.34862 9.62599 1.8093 9.60602ZM1.8093 4.81201C1.26997 4.83198 0.850495 5.07169 0.550869 5.53111C0.311169 6.01051 0.311169 6.48991 0.550869 6.96931C0.850495 7.42874 1.26997 7.66844 1.8093 7.68841C2.34862 7.66844 2.7681 7.42874 3.06772 6.96931C3.30742 6.48991 3.30742 6.01051 3.06772 5.53111C2.7681 5.07169 2.34862 4.83198 1.8093 4.81201ZM3.2475 1.4562C3.22752 0.916879 2.98782 0.497403 2.5284 0.197778C2.049 -0.0419228 1.5696 -0.0419228 1.09019 0.197778C0.630769 0.497403 0.391069 0.916879 0.371094 1.4562C0.391069 1.99553 0.630769 2.41501 1.09019 2.71463C1.5696 2.95433 2.049 2.95433 2.5284 2.71463C2.98782 2.41501 3.22752 1.99553 3.2475 1.4562Z" fill="#334155"/>
</svg>
