<svg width="11" height="14" viewBox="0 0 11 14" fill="none" xmlns="http://www.w3.org/2000/svg">
<path d="M3.57978 7.77337H2.61227C2.41877 7.77337 2.32202 7.67662 2.32202 7.48312V6.51561C2.32202 6.32211 2.41877 6.22536 2.61227 6.22536H3.57978C3.77328 6.22536 3.87003 6.32211 3.87003 6.51561V7.48312C3.87003 7.67662 3.77328 7.77337 3.57978 7.77337ZM6.19204 7.48312C6.19204 7.67662 6.09529 7.77337 5.90179 7.77337H4.93428C4.74078 7.77337 4.64403 7.67662 4.64403 7.48312V6.51561C4.64403 6.32211 4.74078 6.22536 4.93428 6.22536H5.90179C6.09529 6.22536 6.19204 6.32211 6.19204 6.51561V7.48312ZM8.51406 7.48312C8.51406 7.67662 8.41731 7.77337 8.22381 7.77337H7.2563C7.0628 7.77337 6.96605 7.67662 6.96605 7.48312V6.51561C6.96605 6.32211 7.0628 6.22536 7.2563 6.22536H8.22381C8.41731 6.22536 8.51406 6.32211 8.51406 6.51561V7.48312ZM6.19204 9.80513C6.19204 9.99863 6.09529 10.0954 5.90179 10.0954H4.93428C4.74078 10.0954 4.64403 9.99863 4.64403 9.80513V8.83763C4.64403 8.64412 4.74078 8.54737 4.93428 8.54737H5.90179C6.09529 8.54737 6.19204 8.64412 6.19204 8.83763V9.80513ZM3.87003 9.80513C3.87003 9.99863 3.77328 10.0954 3.57978 10.0954H2.61227C2.41877 10.0954 2.32202 9.99863 2.32202 9.80513V8.83763C2.32202 8.64412 2.41877 8.54737 2.61227 8.54737H3.57978C3.77328 8.54737 3.87003 8.64412 3.87003 8.83763V9.80513ZM8.51406 9.80513C8.51406 9.99863 8.41731 10.0954 8.22381 10.0954H7.2563C7.0628 10.0954 6.96605 9.99863 6.96605 9.80513V8.83763C6.96605 8.64412 7.0628 8.54737 7.2563 8.54737H8.22381C8.41731 8.54737 8.51406 8.64412 8.51406 8.83763V9.80513ZM10.8361 3.51634V12.0304C10.8361 12.3529 10.7232 12.627 10.4974 12.8528C10.2717 13.0785 9.99757 13.1914 9.67507 13.1914H1.16101C0.838506 13.1914 0.564379 13.0785 0.338627 12.8528C0.112876 12.627 0 12.3529 0 12.0304V3.51634C0 3.19384 0.112876 2.91971 0.338627 2.69396C0.564379 2.46821 0.838506 2.35533 1.16101 2.35533H2.32202V1.09757C2.32202 0.90407 2.41877 0.80732 2.61227 0.80732H3.57978C3.77328 0.80732 3.87003 0.90407 3.87003 1.09757V2.35533H6.96605V1.09757C6.96605 0.90407 7.0628 0.80732 7.2563 0.80732H8.22381C8.41731 0.80732 8.51406 0.90407 8.51406 1.09757V2.35533H9.67507C9.99757 2.35533 10.2717 2.46821 10.4974 2.69396C10.7232 2.91971 10.8361 3.19384 10.8361 3.51634ZM9.67507 11.8853V4.67735H1.16101V11.8853C1.16101 11.982 1.20938 12.0304 1.30613 12.0304H9.52994C9.62669 12.0304 9.67507 11.982 9.67507 11.8853Z" fill="black" fill-opacity="0.6"/>
</svg>
