<svg width="18" height="18" viewBox="0 0 18 18" fill="none" xmlns="http://www.w3.org/2000/svg">
<path d="M9.375 15H2.625C2.32663 15 2.04048 14.8815 1.8295 14.6705C1.61853 14.4595 1.5 14.1734 1.5 13.875V4.125C1.5 3.82663 1.61853 3.54048 1.8295 3.3295C2.04048 3.11853 2.32663 3 2.625 3H15.375C15.6734 3 15.9595 3.11853 16.1705 3.3295C16.3815 3.54048 16.5 3.82663 16.5 4.125V9.35287" stroke="#637381" stroke-linecap="round" stroke-linejoin="round"/>
<path d="M1.5 4.125C1.5 3.82663 1.61853 3.54048 1.8295 3.3295C2.04048 3.11853 2.32663 3 2.625 3H15.375C15.6734 3 15.9595 3.11853 16.1705 3.3295C16.3815 3.54048 16.5 3.82663 16.5 4.125V7.5H1.5V4.125Z" stroke="#637381"/>
<path d="M12 13.125H16.5M14.25 10.875V15.375" stroke="#637381" stroke-linecap="round" stroke-linejoin="round"/>
<path d="M3 5.25C3 4.83579 3.33579 4.5 3.75 4.5C4.16421 4.5 4.5 4.83579 4.5 5.25C4.5 5.66421 4.16421 6 3.75 6C3.33579 6 3 5.66421 3 5.25Z" fill="#637381"/>
<path d="M5.25 5.25C5.25 4.83579 5.58579 4.5 6 4.5C6.41421 4.5 6.75 4.83579 6.75 5.25C6.75 5.66421 6.41421 6 6 6C5.58579 6 5.25 5.66421 5.25 5.25Z" fill="#637381"/>
</svg>
