<svg width="17" height="17" viewBox="0 0 17 17" fill="none" xmlns="http://www.w3.org/2000/svg">
<path d="M13.3 13.3C12.412 13.3 11.7 14.012 11.7 14.9C11.7 15.3243 11.8686 15.7313 12.1686 16.0314C12.4687 16.3314 12.8757 16.5 13.3 16.5C13.7243 16.5 14.1313 16.3314 14.4314 16.0314C14.7314 15.7313 14.9 15.3243 14.9 14.9C14.9 14.4757 14.7314 14.0687 14.4314 13.7686C14.1313 13.4686 13.7243 13.3 13.3 13.3ZM0.5 0.5V2.1H2.1L4.98 8.172L3.892 10.132C3.772 10.356 3.7 10.62 3.7 10.9C3.7 11.3243 3.86857 11.7313 4.16863 12.0314C4.46869 12.3314 4.87565 12.5 5.3 12.5H14.9V10.9H5.636C5.58296 10.9 5.53209 10.8789 5.49458 10.8414C5.45707 10.8039 5.436 10.753 5.436 10.7C5.436 10.66 5.444 10.628 5.46 10.604L6.18 9.3H12.14C12.74 9.3 13.268 8.964 13.54 8.476L16.404 3.3C16.46 3.172 16.5 3.036 16.5 2.9C16.5 2.68783 16.4157 2.48434 16.2657 2.33431C16.1157 2.18429 15.9122 2.1 15.7 2.1H3.868L3.116 0.5M5.3 13.3C4.412 13.3 3.7 14.012 3.7 14.9C3.7 15.3243 3.86857 15.7313 4.16863 16.0314C4.46869 16.3314 4.87565 16.5 5.3 16.5C5.72435 16.5 6.13131 16.3314 6.43137 16.0314C6.73143 15.7313 6.9 15.3243 6.9 14.9C6.9 14.4757 6.73143 14.0687 6.43137 13.7686C6.13131 13.4686 5.72435 13.3 5.3 13.3Z" fill="white"/>
</svg>
